<svg width="246" height="194" viewBox="0 0 246 194" fill="none" xmlns="http://www.w3.org/2000/svg">
<g style="mix-blend-mode:multiply">
<path d="M123.518 193.902L72.5095 185.736L81.6806 180.584L97.4768 184.813L158.883 149.257L221.608 115.469L238.079 115.607L235.917 123.589H221.485L211.731 138.707L201.717 137.999L188.973 152.963L165.876 153.532L163.944 155.916V164.313L123.518 193.902Z" fill="#A9A9AB"/>
</g>
<g style="mix-blend-mode:multiply">
<path d="M27.7432 166.143L0 150.379L46.0393 122.359L95.8512 119.221L97.4769 184.813L27.7432 166.143Z" fill="#BEBEC3"/>
</g>
<path d="M97.4768 184.813L31.8073 146.796V95.9835L97.4768 134.001V184.813Z" fill="#B76F3F"/>
<path d="M33.5402 145.796L31.8533 96.0143L31.8073 95.9835V146.796L97.4768 184.813L33.5402 145.796Z" fill="#A45823"/>
<path d="M59.4277 162.667V111.639L69.8563 117.668V169.295L59.4277 162.667Z" fill="#A45823"/>
<path d="M97.4771 134.001L31.8075 95.9836L97.4771 57.9666L163.147 95.9836L97.4771 134.001Z" fill="#EFD995"/>
<path d="M69.764 117.976L96.7251 131.371L122.843 115.592L163.146 95.9835L97.4765 134.001L69.764 117.976Z" fill="#FFEDB4"/>
<path d="M60.7006 79.328L136.845 123.189L148.393 116.622L71.1292 73.2994L60.7006 79.328Z" fill="#C39055"/>
<path d="M59.3361 111.932L126.11 73.4686L137.658 80.0355L69.7647 117.976L59.3361 111.932Z" fill="#C39055"/>
<path d="M61.4218 78.9282L137.581 122.789L149.114 116.222L71.8504 72.8997L61.4218 78.9282Z" fill="#E6E1E4"/>
<g style="mix-blend-mode:multiply">
<path d="M118.533 108.241L145.494 92.5849C147.657 91.3238 147.718 88.2172 145.586 86.8792C142.504 84.9415 138.593 84.88 135.449 86.7101L108.488 102.366C106.326 103.627 106.264 106.734 108.396 108.072C111.479 110.009 115.389 110.071 118.533 108.241Z" fill="#D4BAA5"/>
</g>
<path d="M58.5074 111.547L125.281 73.0687L136.814 79.651L68.9361 117.576L58.5074 111.547Z" fill="#F1F1F1"/>
<path d="M99.0873 88.171L110.313 94.4611L99.1793 100.674L88.2292 94.4149L99.0873 88.171Z" fill="#F9F9F9"/>
<path d="M58.5074 162.575V111.547L68.9361 117.576V169.203L58.5074 162.575Z" fill="#B3A4AD"/>
<path d="M97.4768 184.813L163.146 146.796V95.9835L97.4768 134.001V184.813Z" fill="#D9AF6A"/>
<path d="M138.869 160.96V109.333L128.441 115.377V167.004L138.869 160.96Z" fill="#D6D6D6"/>
<path d="M51.5755 134.247L36.3313 125.404V102.889L51.5755 111.732V134.247ZM37.7269 124.604L50.1799 131.817V112.547L37.7269 105.334V124.604Z" fill="#A45823"/>
<path d="M41.0392 123.266L46.2228 126.28V120.098L41.0392 117.099V123.266Z" fill="#A45823"/>
<path d="M38.5085 115.684L48.7531 121.621L43.6308 110.871L38.5085 115.684Z" fill="#A45823"/>
<path d="M134.836 152.548L117.782 165.897L128.793 145.412C134.698 134.693 139.053 124.85 139.084 117.976C139.084 115.915 133.118 115.069 132.505 113.716L97.4615 134.001V146.519C102.415 138.461 108.642 130.833 113.043 128.08C114.469 127.188 115.681 126.726 116.632 126.696C118.242 126.634 119.101 127.788 119.101 130.064C119.086 132.955 116.893 138.553 113.871 144.135L97.4769 174.571V184.798L134.775 163.206L134.836 152.548Z" fill="#C39055"/>
<path d="M97.4771 184.813L163.806 146.411V145.212L97.4771 183.613V184.813Z" fill="#9D5C40"/>
<path d="M163.147 146.796V108.01L160.11 109.902L160.033 123.466L148.623 130.587L159.895 97.8599L142.78 107.779L134.453 140.906L134.391 151.671L159.957 135.677L159.88 148.688L163.147 146.796Z" fill="#C39055"/>
<path d="M235.916 123.589L221.608 115.469L221.73 93.7998L236.054 101.905L235.916 123.589Z" fill="#00CC1F"/>
<mask id="mask0_430_13811" style="mask-type:luminance" maskUnits="userSpaceOnUse" x="219" y="88" width="18" height="14">
<path d="M219.936 88.9246L234.245 97.0293C235.426 97.6906 236.054 99.3516 236.039 101.904L221.73 93.7997C221.746 91.2468 221.117 89.6012 219.936 88.9246Z" fill="white"/>
</mask>
<g mask="url(#mask0_430_13811)">
<path d="M236.055 101.905L221.746 93.7998C221.746 91.5852 221.286 90.0626 220.396 89.2476L234.705 97.3523C235.595 98.152 236.07 99.6899 236.055 101.905Z" fill="#04B118"/>
<path d="M234.705 97.3677L220.396 89.2629C220.258 89.1399 220.105 89.0322 219.952 88.9399L234.26 97.0447C234.414 97.137 234.567 97.2446 234.705 97.3677Z" fill="#54C447"/>
</g>
<path d="M228.049 75.3602L242.357 83.465C241.544 83.0036 240.594 82.7883 239.535 82.8345C237.787 82.896 235.717 83.6342 233.386 85.0952C228.095 88.4786 224.046 93.446 221.638 99.8898L207.329 91.7851C209.752 85.3412 213.786 80.3738 219.077 76.9904C221.408 75.5294 223.478 74.7912 225.227 74.7297C226.285 74.6989 227.236 74.9142 228.049 75.3602Z" fill="#00CC1F"/>
<mask id="mask1_430_13811" style="mask-type:luminance" maskUnits="userSpaceOnUse" x="207" y="74" width="36" height="26">
<path d="M228.049 75.3602L242.357 83.465C241.544 83.0036 240.594 82.7883 239.535 82.8345C237.787 82.896 235.717 83.6342 233.386 85.0952C228.095 88.4786 224.046 93.446 221.638 99.8898L207.329 91.7851C209.752 85.3412 213.786 80.3738 219.077 76.9904C221.408 75.5294 223.478 74.7912 225.227 74.7297C226.285 74.6989 227.236 74.9142 228.049 75.3602Z" fill="white"/>
</mask>
<g mask="url(#mask1_430_13811)">
<path d="M221.638 99.8898L207.329 91.7851C207.421 91.5544 207.513 91.3237 207.605 91.093L221.914 99.1978C221.822 99.4285 221.73 99.6592 221.638 99.8898Z" fill="#04B118"/>
<path d="M221.898 99.1824L207.59 91.0776C207.881 90.3394 208.203 89.632 208.541 88.9246L222.849 97.0293C222.512 97.7214 222.19 98.4442 221.898 99.1824Z" fill="#04B118"/>
<path d="M222.849 97.0294L208.541 88.9246C208.832 88.3402 209.123 87.7558 209.445 87.2021L223.754 95.3069C223.432 95.8606 223.141 96.445 222.849 97.0294Z" fill="#00CC1F"/>
<path d="M223.754 95.307L209.445 87.2022C209.721 86.7101 210.013 86.218 210.319 85.7412L224.628 93.846C224.321 94.3227 224.03 94.8149 223.754 95.307Z" fill="#00CC1F"/>
<path d="M224.644 93.8459L210.335 85.7412C210.611 85.2952 210.902 84.88 211.209 84.4493L225.518 92.5541C225.211 92.9693 224.935 93.4 224.644 93.8459Z" fill="#00CC1F"/>
<path d="M225.502 92.5695L211.193 84.4647C211.485 84.0649 211.776 83.6804 212.068 83.2959L226.376 91.4007C226.069 91.7851 225.778 92.1696 225.502 92.5695Z" fill="#30A818"/>
<path d="M226.392 91.4007L212.083 83.2959C212.375 82.9268 212.681 82.5731 212.988 82.2194L227.297 90.3241C226.99 90.6778 226.683 91.0316 226.392 91.4007Z" fill="#30A818"/>
<path d="M227.281 90.3241L212.973 82.2194C213.28 81.8656 213.602 81.5273 213.924 81.189L228.232 89.2937C227.91 89.6321 227.588 89.9704 227.281 90.3241Z" fill="#2DB43B"/>
<path d="M228.247 89.2784L213.939 81.1736C214.276 80.8352 214.613 80.4969 214.966 80.1586L229.275 88.2633C228.922 88.5863 228.585 88.9246 228.247 89.2784Z" fill="#2DB43B"/>
<path d="M229.275 88.2787L214.966 80.174C215.334 79.8202 215.718 79.4973 216.116 79.1589L230.425 87.2637C230.042 87.5867 229.658 87.925 229.275 88.2787Z" fill="#18C812"/>
<path d="M230.41 87.2637L216.101 79.1589C216.546 78.7898 217.006 78.4207 217.466 78.0824L231.775 86.1872C231.299 86.5409 230.854 86.8946 230.41 87.2637Z" fill="#18C812"/>
<path d="M231.79 86.1872L217.481 78.0824C217.987 77.6979 218.524 77.3442 219.061 76.9905L233.37 85.0952C232.833 85.4336 232.311 85.8027 231.79 86.1872Z" fill="#58A345"/>
<path d="M233.37 85.0952L219.061 76.9905C219.061 76.9905 219.061 76.9905 219.076 76.9905C219.889 76.4829 220.671 76.0523 221.423 75.7294L235.731 83.8341C234.98 84.1725 234.198 84.5877 233.385 85.0952C233.385 85.0952 233.385 85.0952 233.37 85.0952Z" fill="#58A345"/>
<path d="M235.732 83.8188L221.423 75.714C221.944 75.4834 222.466 75.2834 222.957 75.1296L237.265 83.2344C236.775 83.3882 236.268 83.5881 235.732 83.8188Z" fill="#58A345"/>
<path d="M237.265 83.2344L222.957 75.1296C223.509 74.9604 224.03 74.8374 224.536 74.7759L238.845 82.8806C238.339 82.9422 237.817 83.0652 237.265 83.2344Z" fill="#00FC37"/>
<path d="M238.829 82.8806L224.521 74.7759C224.766 74.7451 224.996 74.7297 225.226 74.7144C225.257 74.7144 225.288 74.7144 225.318 74.7144L239.627 82.8191C239.627 82.8191 239.566 82.8191 239.535 82.8191C239.305 82.8191 239.075 82.8499 238.829 82.8806Z" fill="#689841"/>
<path d="M239.642 82.8191L225.334 74.7144C225.548 74.7144 225.748 74.7144 225.962 74.7297L240.271 82.8345C240.072 82.8191 239.857 82.8191 239.642 82.8191Z" fill="#00CC1F"/>
<path d="M240.256 82.8345L225.947 74.7297C226.131 74.7297 226.3 74.7605 226.484 74.7913L240.792 82.896C240.624 82.8653 240.44 82.8499 240.256 82.8345Z" fill="#00CC1F"/>
<path d="M240.792 82.9114L226.484 74.8066C226.637 74.8374 226.806 74.8682 226.959 74.9143L241.268 83.0191C241.114 82.9729 240.961 82.9422 240.792 82.9114Z" fill="#00CC1F"/>
<path d="M241.253 83.0037L226.944 74.8989C227.097 74.9451 227.235 74.9912 227.373 75.0373L241.682 83.1421C241.544 83.096 241.406 83.0498 241.253 83.0037Z" fill="#00CC1F"/>
<path d="M241.682 83.1421L227.373 75.0374C227.511 75.0835 227.634 75.145 227.772 75.2065L242.081 83.3113C241.958 83.2498 241.82 83.1883 241.682 83.1421Z" fill="#00CC1F"/>
<path d="M242.081 83.3113L227.772 75.2065C227.864 75.2527 227.956 75.2988 228.048 75.345L242.357 83.4497C242.265 83.4036 242.173 83.3574 242.081 83.3113Z" fill="#00CC1F"/>
</g>
<path d="M211.731 138.707L197.422 130.602L197.76 75.7448L212.068 83.8495L211.731 138.707Z" fill="#00CC1F"/>
<path d="M212.069 83.8495L197.76 75.7448L207.452 69.67L221.776 77.7748L212.069 83.8495Z" fill="#58A345"/>
<path d="M221.776 77.7748L221.638 99.8899C224.062 93.446 228.095 88.4786 233.386 85.0952C235.717 83.6342 237.787 82.896 239.536 82.8345C243.508 82.6961 245.808 86.0641 245.762 92.5233L245.609 117.514L235.916 123.589L236.054 101.92C236.07 98.4442 234.889 96.6449 232.788 96.7218C231.837 96.7525 230.717 97.1678 229.429 97.9675C224.583 101.074 221.592 107.21 221.562 113.054L221.439 132.647L211.747 138.707L212.084 83.8495L221.776 77.7748Z" fill="#4FD24F"/>
<path d="M201.839 118.868L187.515 110.763L194.831 106.18L209.155 114.3L201.839 118.868Z" fill="#58A345"/>
<path d="M188.972 152.963L174.663 144.843L174.74 130.925L189.049 139.03L188.972 152.963Z" fill="#00CC1F"/>
<path d="M177.731 133.955L163.407 125.834L174.817 118.714L189.125 126.819L177.731 133.955Z" fill="#58A345"/>
<path d="M189.217 113.254L174.893 105.149L187.607 97.1985L201.916 105.303L189.217 113.254Z" fill="#58A345"/>
<path d="M189.125 126.819L174.817 118.714L174.893 105.15L189.217 113.254L189.125 126.819Z" fill="#00CC1F"/>
<path d="M163.483 155.024L149.175 146.919L149.236 136.154L163.545 144.274L163.483 155.024Z" fill="#00CC1F"/>
<path d="M141.215 170.126L126.907 162.006L149.62 147.796L163.944 155.916L141.215 170.126Z" fill="#58A345"/>
<path d="M180.798 95.0147L166.489 86.8945L179.663 78.6667L193.972 86.7715L180.798 95.0147Z" fill="#58A345"/>
<path d="M193.972 86.7715L177.731 133.954L189.126 126.819L189.218 113.254L201.916 105.303L201.839 118.868L209.155 114.3L209.078 126.496L201.763 131.079L201.671 145.012L188.972 152.963L189.049 139.03L163.483 155.024L163.545 144.274L180.798 95.0147L193.972 86.7715Z" fill="#4FD24F"/>
<path d="M163.545 144.274L149.236 136.154L166.489 86.8945L180.798 95.0147L163.545 144.274Z" fill="#54C447"/>
<path d="M123.517 193.902L109.193 185.797L109.255 175.401L123.579 183.506L123.517 193.902Z" fill="#00CC1F"/>
<path d="M123.578 183.506L109.254 175.401L128.655 139.399L142.963 147.503L123.578 183.506Z" fill="#42C933"/>
<mask id="mask2_430_13811" style="mask-type:luminance" maskUnits="userSpaceOnUse" x="128" y="122" width="21" height="26">
<path d="M132.658 122.22L146.966 130.325C147.779 130.786 148.209 131.832 148.193 133.432C148.178 136.323 145.985 141.921 142.964 147.503L128.655 139.399C131.676 133.816 133.869 128.218 133.885 125.327C133.885 123.727 133.47 122.682 132.658 122.22Z" fill="white"/>
</mask>
<g mask="url(#mask2_430_13811)">
<path d="M142.964 147.503L128.655 139.399C129.223 138.353 129.744 137.322 130.25 136.292L144.559 144.397C144.068 145.412 143.531 146.458 142.964 147.503Z" fill="#63DD50"/>
<path d="M144.559 144.397L130.25 136.292C130.925 134.908 131.523 133.555 132.044 132.278L146.353 140.383C145.847 141.659 145.233 143.013 144.559 144.397Z" fill="#00CC1F"/>
<path d="M146.353 140.383L132.044 132.278C132.489 131.155 132.872 130.094 133.164 129.11L147.472 137.215C147.181 138.199 146.798 139.26 146.353 140.383Z" fill="#00CC1F"/>
<path d="M147.473 137.215L133.164 129.11C133.425 128.264 133.624 127.464 133.747 126.772L148.056 134.877C147.933 135.585 147.733 136.369 147.473 137.215Z" fill="#00CC1F"/>
<path d="M148.055 134.877L133.747 126.772C133.839 126.234 133.885 125.742 133.9 125.311C133.9 123.958 133.593 122.989 133.011 122.451L147.319 130.556C147.917 131.094 148.224 132.047 148.209 133.416C148.209 133.847 148.163 134.339 148.055 134.862V134.877Z" fill="#00CC1F"/>
<path d="M147.304 130.571L132.995 122.466C132.888 122.374 132.781 122.297 132.658 122.22L146.967 130.325C147.089 130.386 147.197 130.479 147.304 130.571Z" fill="#54C447"/>
</g>
<path d="M144.666 105.934L158.974 114.039C157.855 113.408 156.49 113.116 154.926 113.162L140.617 105.057C142.181 104.996 143.531 105.288 144.666 105.934Z" fill="#00CC1F"/>
<mask id="mask3_430_13811" style="mask-type:luminance" maskUnits="userSpaceOnUse" x="140" y="105" width="19" height="10">
<path d="M144.666 105.934L158.974 114.039C157.855 113.408 156.49 113.116 154.926 113.162L140.617 105.057C142.181 104.996 143.531 105.288 144.666 105.934Z" fill="white"/>
</mask>
<g mask="url(#mask3_430_13811)">
<path d="M154.941 113.162L140.633 105.057C140.633 105.057 140.74 105.057 140.786 105.057L155.095 113.162C155.095 113.162 154.987 113.162 154.941 113.162Z" fill="#689841"/>
<path d="M155.095 113.162L140.786 105.057C141.108 105.057 141.43 105.057 141.737 105.088L156.046 113.193C155.739 113.162 155.417 113.162 155.095 113.162Z" fill="#00CC1F"/>
<path d="M156.046 113.193L141.737 105.088C142.013 105.103 142.274 105.15 142.519 105.18L156.828 113.285C156.567 113.239 156.306 113.208 156.046 113.193Z" fill="#00CC1F"/>
<path d="M156.843 113.285L142.534 105.18C142.764 105.226 142.994 105.273 143.209 105.334L157.518 113.439C157.303 113.377 157.073 113.331 156.843 113.285Z" fill="#00CC1F"/>
<path d="M157.518 113.439L143.209 105.334C143.409 105.396 143.608 105.457 143.792 105.519L158.101 113.623C157.917 113.546 157.717 113.485 157.518 113.439Z" fill="#00CC1F"/>
<path d="M158.101 113.623L143.792 105.519C143.976 105.58 144.145 105.657 144.314 105.749L158.622 113.854C158.454 113.777 158.285 113.7 158.101 113.623Z" fill="#00CC1F"/>
<path d="M158.622 113.854L144.313 105.749C144.436 105.811 144.558 105.872 144.666 105.934L158.975 114.039C158.852 113.977 158.744 113.916 158.622 113.854Z" fill="#00CC1F"/>
</g>
<path d="M127.397 148.688L124.514 147.073L113.073 140.583L107.982 132.232L122.306 140.352L125.404 145.443L127.397 148.688Z" fill="#00CC1F"/>
<path d="M163.944 155.916L163.867 168.665L123.517 193.902L123.579 183.506L142.979 147.503C146 141.921 148.193 136.307 148.209 133.416C148.209 133.186 148.209 132.97 148.193 132.77C148.055 130.925 147.197 130.002 145.755 130.048C144.804 130.079 143.593 130.525 142.166 131.432C137.78 134.185 132.351 140.614 127.413 148.688L125.434 145.427L122.337 140.352C129.146 130.125 136.569 121.974 144.252 117.176C148.362 114.608 152.012 113.27 154.972 113.177C159.696 113.008 162.594 116.023 162.563 122.205C162.517 129.064 158.162 138.922 152.257 149.641L141.246 170.126L163.974 155.916H163.944Z" fill="#4FD24F"/>
<path d="M201.839 118.868V120.436L209.139 115.853L209.154 114.3L201.839 118.868Z" fill="#9BFF8E"/>
<path d="M189.125 126.819L178.405 133.524L177.73 135.508L189.125 128.387L189.217 114.823L201.9 106.872L201.915 105.303L189.217 113.254L189.125 126.819Z" fill="#9BFF8E"/>
<path d="M163.545 145.827L180.798 96.5679L193.281 88.7554L193.972 86.7715L180.798 95.0147L163.545 144.274L163.483 155.024H163.498L163.545 145.827Z" fill="#9BFF8E"/>
<path d="M142.473 169.342L141.215 171.679L163.928 157.484L163.943 155.916L142.473 169.342Z" fill="#9BFF8E"/>
<path d="M142.963 149.072C145.984 143.489 148.177 137.876 148.192 134.985C148.192 134.754 148.192 134.539 148.177 134.339C148.177 134.247 148.146 134.17 148.146 134.078C147.87 137.107 145.8 142.29 142.978 147.503L123.578 183.506L123.516 193.902L123.578 185.059L142.978 149.057L142.963 149.072Z" fill="#9BFF8E"/>
<path d="M144.221 118.729C148.331 116.161 151.981 114.823 154.941 114.731C159.48 114.577 162.302 117.376 162.502 123.082C162.517 122.789 162.532 122.482 162.548 122.205C162.578 116.023 159.68 113.008 154.956 113.177C152.012 113.27 148.346 114.608 144.236 117.176C136.553 121.99 129.13 130.14 122.321 140.352L122.827 141.183C129.498 131.309 136.737 123.42 144.236 118.729H144.221Z" fill="#9BFF8E"/>
<path d="M221.638 101.443C224.061 94.9993 228.094 90.0319 233.385 86.6485C235.716 85.1875 237.787 84.4493 239.535 84.3878C243.461 84.2494 245.746 87.5559 245.762 93.8921V92.5387C245.808 86.0641 243.507 82.6961 239.535 82.8499C237.787 82.9114 235.716 83.6496 233.385 85.1106C228.094 88.494 224.061 93.4461 221.638 99.8899V101.474V101.443Z" fill="#9BFF8E"/>
<path d="M212.068 85.4028L221.761 79.3434L221.776 77.7748L212.068 83.8495L211.731 138.707H211.746L212.068 85.4028Z" fill="#9BFF8E"/>
<path d="M236.039 103.258L235.916 123.574L236.039 103.458C236.039 103.381 236.039 103.319 236.039 103.243V103.258Z" fill="#9BFF8E"/>
<mask id="mask4_430_13811" style="mask-type:luminance" maskUnits="userSpaceOnUse" x="107" y="105" width="48" height="36">
<path d="M122.306 140.352L107.997 132.247C114.806 122.036 122.214 113.885 129.928 109.071C134.038 106.503 137.688 105.165 140.633 105.057L154.941 113.162C151.997 113.27 148.331 114.608 144.237 117.176C136.538 121.99 129.115 130.141 122.306 140.352Z" fill="white"/>
</mask>
<g mask="url(#mask4_430_13811)">
<path d="M122.305 140.352L107.997 132.247C108.81 131.032 109.622 129.848 110.45 128.695L124.759 136.8C123.931 137.953 123.118 139.137 122.305 140.352Z" fill="#15F600"/>
<path d="M124.744 136.8L110.435 128.695C111.555 127.142 112.674 125.65 113.809 124.204L128.118 132.309C126.983 133.739 125.848 135.246 124.744 136.8Z" fill="#15F600"/>
<path d="M128.133 132.324L113.825 124.22C114.822 122.974 115.818 121.774 116.831 120.621L131.139 128.726C130.127 129.879 129.13 131.079 128.133 132.324Z" fill="#30A818"/>
<path d="M131.139 128.726L116.831 120.621C117.736 119.59 118.64 118.606 119.545 117.668L133.854 125.773C132.934 126.711 132.029 127.695 131.139 128.726Z" fill="#2DB43B"/>
<path d="M133.853 125.773L119.545 117.668C120.388 116.791 121.232 115.961 122.09 115.161L136.399 123.266C135.54 124.066 134.697 124.896 133.853 125.773Z" fill="#2DB43B"/>
<path d="M136.399 123.266L122.091 115.161C122.904 114.408 123.716 113.685 124.529 113.008L138.838 121.113C138.025 121.79 137.212 122.512 136.399 123.266Z" fill="#18C812"/>
<path d="M138.838 121.113L124.529 113.008C125.373 112.316 126.201 111.639 127.044 111.024L141.353 119.129C140.509 119.76 139.666 120.421 138.838 121.113Z" fill="#18C812"/>
<path d="M141.368 119.129L127.06 111.024C127.995 110.332 128.931 109.686 129.882 109.102L144.19 117.207C143.239 117.791 142.304 118.437 141.368 119.129Z" fill="#58A345"/>
<path d="M144.19 117.207L129.882 109.102C129.882 109.102 129.912 109.087 129.928 109.071C131.415 108.148 132.841 107.379 134.191 106.764L148.5 114.869C147.15 115.469 145.724 116.238 144.236 117.176C144.236 117.176 144.206 117.191 144.19 117.207Z" fill="#58A345"/>
<path d="M148.484 114.869L134.175 106.764C135.08 106.364 135.97 106.026 136.813 105.765L151.122 113.869C150.278 114.131 149.404 114.469 148.484 114.869Z" fill="#58A345"/>
<path d="M151.122 113.869L136.813 105.765C137.749 105.473 138.654 105.273 139.497 105.165L153.806 113.27C152.962 113.377 152.073 113.577 151.122 113.869Z" fill="#00FC37"/>
<path d="M153.79 113.27L139.482 105.165C139.865 105.119 140.249 105.088 140.617 105.073L154.925 113.177C154.557 113.177 154.174 113.224 153.79 113.27Z" fill="#689841"/>
</g>
<path d="M91.9404 68.8242C91.9404 77.9901 93.6274 83.665 98.3356 87.4944C98.9951 88.0326 100.605 90.1549 102.86 91.5083C105.82 93.2769 109.454 94.2919 109.454 94.2919C109.454 94.2919 116.08 91.0162 123.763 86.5716C141.967 76.037 158.361 15.3973 158.361 15.3973C158.361 15.3973 156.705 12.7521 153.653 10.9374C152.028 9.96853 149.052 9.38413 147.12 8.84586C140.878 7.15416 133.471 6.84658 124.913 11.7986C106.709 22.3333 91.9558 47.8625 91.9558 68.8088L91.9404 68.8242Z" fill="url(#paint0_linear_430_13811)"/>
<path d="M93.5814 70.5466C93.5814 49.6004 108.335 24.0711 126.539 13.5365C135.096 8.58442 142.504 8.892 148.746 10.5837C150.693 11.1066 153.653 11.691 155.279 12.6752C156.199 13.2289 156.966 13.8441 157.625 14.4438C156.859 13.5057 155.524 12.0908 153.638 10.9682C152.012 9.99929 149.037 9.41489 147.105 8.87662C140.863 7.18492 133.456 6.87734 124.898 11.8294C106.694 22.3641 91.9404 47.8933 91.9404 68.8396C91.9404 77.6056 93.4894 83.1728 97.7375 87.0022C94.7163 83.2651 93.5661 78.0978 93.5661 70.562L93.5814 70.5466Z" fill="url(#paint1_linear_430_13811)"/>
<path d="M153.638 10.9527C152.089 10.03 149.375 9.46096 147.427 8.95345C142.366 8.53822 136.707 9.4302 130.45 13.0597C111.693 23.9173 96.48 50.2155 96.48 71.8077C96.48 81.2504 98.213 87.1098 103.059 91.0622C103.32 91.2775 103.749 91.7543 104.301 92.3233C106.878 93.5998 109.439 94.3072 109.439 94.3072C109.439 94.3072 116.064 91.0315 123.748 86.5869C141.952 76.0523 158.346 15.4127 158.346 15.4127C158.346 15.4127 156.69 12.7675 153.638 10.9527Z" fill="url(#paint2_linear_430_13811)"/>
<path d="M98.673 87.3251C93.8421 81.4042 92.9986 77.9286 92.9986 68.7626C92.9986 47.8164 107.752 22.2871 125.956 11.7525C130.588 9.0765 135.511 8.07686 139.498 7.73853C135.219 7.87694 129.944 8.89195 124.898 11.814C106.694 22.3486 91.9404 47.8779 91.9404 68.8241C91.9404 77.9901 94.1795 83.5265 98.3356 87.9557C99.4552 89.1399 101.035 90.8162 103.182 92.108C106.218 93.9381 109.454 94.2919 109.454 94.2919C109.454 94.2919 109.669 94.1842 110.068 93.9843C108.81 93.2461 105.544 93.1538 102.967 91.2007C100.544 89.3552 99.0257 87.7711 98.673 87.3251Z" fill="#B5B2AE"/>
<path d="M155.558 67.3785C168.51 45.1607 168.642 21.072 155.853 13.5748C143.064 6.07767 122.197 18.0111 109.245 40.2289C96.2925 62.4467 96.1604 86.5354 108.949 94.0326C121.738 101.53 142.606 89.5963 155.558 67.3785Z" fill="#B3B3B5"/>
<path d="M132.412 90.6932C114.362 101.151 99.7004 92.9232 99.4703 72.3614C99.4703 72.5305 99.4703 72.7151 99.4703 72.8843C99.4703 93.8305 114.224 102.274 132.428 91.7236C150.632 81.1736 165.385 55.6597 165.385 34.7134C165.385 34.5443 165.385 34.3751 165.385 34.2059C165.14 55.0599 150.494 80.2355 132.443 90.6932H132.412Z" fill="#98989B"/>
<path d="M100.222 74.0992C100.222 53.153 114.976 27.6237 133.18 17.0891C145.51 9.95318 156.261 11.5218 161.904 19.7958C156.506 10.4761 145.326 8.39989 132.413 15.8741C114.209 26.4088 99.4554 51.938 99.4554 72.8843C99.4554 79.6357 101.004 85.0799 103.688 89.0169C101.48 85.2029 100.222 80.1893 100.222 74.0992Z" fill="#D4D4D5"/>
<path d="M104.991 70.6851C104.991 89.1861 116.401 96.4604 132.489 87.1407C148.577 77.8364 161.613 55.2753 161.613 36.7743C161.613 18.2733 150.202 10.999 134.115 20.3187C118.027 29.623 104.991 52.1841 104.991 70.6851Z" fill="#D4D4D5"/>
<path d="M149.221 16.3201C152.381 20.1956 153.178 25.9166 153.362 29.0539C154.528 48.4931 140.863 73.1764 123.533 82.9729C119.193 85.4335 114.976 86.7254 111.356 86.7254C110.605 86.7254 109.899 86.6639 109.225 86.5562C111.126 88.8938 113.902 90.5548 117.92 90.5548C121.54 90.5548 125.757 89.2629 130.097 86.8023C147.427 77.0212 161.092 52.3224 159.926 32.8833C159.65 28.2081 158.024 17.7811 149.221 16.3201Z" fill="url(#paint3_linear_430_13811)"/>
<path d="M156.245 30.4689C156.045 27.0855 155.141 20.7032 151.322 16.8738C150.095 16.4124 148.684 16.1356 147.089 16.1356C143.47 16.1356 139.252 17.4275 134.912 19.8881C117.582 29.6846 103.918 54.368 105.083 73.8071C105.283 77.1905 106.188 83.5728 110.006 87.4022C111.233 87.8635 112.644 88.1404 114.239 88.1404C117.858 88.1404 122.076 86.8485 126.416 84.3879C143.746 74.6068 157.41 49.908 156.245 30.4689Z" fill="#D4D099"/>
<path d="M156.475 35.098C156.291 32.0375 155.463 26.255 152.027 22.7793C150.908 22.3641 149.65 22.118 148.193 22.118C144.911 22.118 141.093 23.2868 137.151 25.5168C121.447 34.3905 109.071 56.7517 110.129 74.3607C110.313 77.4211 111.141 83.2037 114.592 86.6793C115.711 87.0946 116.969 87.3406 118.426 87.3406C121.708 87.3406 125.526 86.1718 129.468 83.9419C145.172 75.0835 157.548 52.707 156.49 35.098H156.475Z" fill="#FFFBD1"/>
<g style="mix-blend-mode:multiply">
<path d="M109.01 76.3293C107.844 56.8901 121.509 32.2067 138.839 22.4103C143.179 19.9496 147.396 18.6578 151.016 18.6578C151.66 18.6578 154.205 18.9961 154.788 19.073C154.328 18.381 152.795 17.5659 151.307 16.8584C150.08 16.3971 148.669 16.1202 147.074 16.1202C143.455 16.1202 139.237 17.4121 134.897 19.8727C117.567 29.6692 103.903 54.3526 105.068 73.7917C105.268 77.1751 106.173 83.5574 109.991 87.3868C111.095 88.5864 111.954 89.0016 112.644 89.3399C110.129 85.5413 109.194 79.1744 109.025 76.3139L109.01 76.3293Z" fill="#D2D1D4"/>
</g>
<mask id="mask5_430_13811" style="mask-type:luminance" maskUnits="userSpaceOnUse" x="105" y="16" width="56" height="74">
<path d="M159.987 31.161C159.987 23.2561 156.72 19.4729 151.322 16.8738C150.095 16.4124 148.684 16.1356 147.089 16.1356C143.47 16.1356 139.252 17.4275 134.912 19.8881C117.582 29.6846 103.918 54.368 105.083 73.8071C105.283 77.1905 106.188 83.5728 110.006 87.4022C111.233 87.8635 113.825 89.3246 115.42 89.3246C119.039 89.3246 125.726 88.7401 129.928 86.0488C154.834 69.9931 160.018 50.6462 160.018 31.161H159.987Z" fill="white"/>
</mask>
<g mask="url(#mask5_430_13811)">
<path d="M151.118 63.9563C162.621 44.2243 162.735 22.8282 151.372 16.1669C140.009 9.50565 121.472 20.1016 109.969 39.8336C98.4661 59.5657 98.3527 80.9617 109.716 87.623C121.079 94.2843 139.616 83.6883 151.118 63.9563Z" fill="#E4D9BA"/>
<path d="M154.42 18.5809C156.705 22.0566 158.009 26.8087 158.009 32.6681C158.009 51.2768 144.897 73.9455 128.732 83.296C118.886 89.0016 110.175 88.4326 104.869 82.9269C109.838 90.4934 119.485 92.0006 130.557 85.5875C146.722 76.2216 159.834 53.5529 159.834 34.9596C159.834 27.6853 157.825 22.1335 154.42 18.5963V18.5809Z" fill="#D2C08C"/>
<path d="M147.841 61.1247C158.687 44.8969 160.355 26.9537 151.567 21.0476C142.779 15.1416 126.863 23.509 116.017 39.7369C105.172 55.9647 103.504 73.9078 112.292 79.8139C121.079 85.72 136.996 77.3526 147.841 61.1247Z" fill="#F0EBD5"/>
<path d="M128.257 25.9475L127.444 26.4243L126.401 52.9839L127.459 59.8737L128.226 59.4431L129.391 51.2461L128.257 25.9475Z" fill="#D2C08C"/>
<path d="M130.266 25.886L129.437 26.3627L128.41 52.9224L129.345 58.9817L130.174 59.7507L131.4 51.1845L130.956 25.8245L130.266 25.886Z" fill="#131313"/>
<path d="M130.956 25.8245L130.143 26.2858L129.1 52.8608L130.174 59.7507L130.925 59.3047L132.091 51.123L130.956 25.8245Z" fill="#404040"/>
<path d="M130.557 55.3369C130.695 55.26 130.818 55.1677 130.956 55.0754L130.573 59.2739L130.22 55.5214C130.327 55.4753 130.45 55.4138 130.573 55.3523L130.557 55.3369Z" fill="#595959"/>
<path d="M130.557 48.5085C130.358 48.6162 130.174 48.7546 129.99 48.893L130.511 26.6395L130.894 26.3473L131.201 48.2009C130.986 48.2778 130.787 48.3701 130.557 48.4931V48.5085Z" fill="#595959"/>
<path d="M132.95 50.5079C132.95 52.0304 131.876 53.9067 130.542 54.6756C129.208 55.4446 128.134 54.8294 128.134 53.3069C128.134 51.7844 129.208 49.9081 130.542 49.1392C131.876 48.3702 132.95 48.9854 132.95 50.5079Z" fill="#A2A2A2"/>
<path d="M131.631 51.2768C131.631 51.9689 131.14 52.7993 130.542 53.153C129.944 53.5068 129.453 53.2146 129.453 52.5379C129.453 51.8612 129.944 51.0154 130.542 50.6616C131.14 50.3079 131.631 50.5847 131.631 51.2768Z" fill="#C9C9C9"/>
<path d="M132.965 20.4264C132.965 20.9339 132.597 21.5491 132.183 21.8106C131.769 22.072 131.447 21.8567 131.462 21.3492C131.462 20.8417 131.83 20.2265 132.244 19.9651C132.658 19.7036 132.98 19.9189 132.965 20.4264Z" fill="black"/>
<path d="M131.355 83.0038C131.355 83.5113 130.986 84.1419 130.542 84.4033C130.097 84.6648 129.729 84.4495 129.729 83.942C129.729 83.4344 130.097 82.8039 130.542 82.5425C130.986 82.281 131.355 82.4963 131.355 83.0038Z" fill="black"/>
<path d="M137.382 18.3349C137.29 18.8885 136.891 19.4576 136.492 19.6267C136.078 19.7959 135.817 19.4883 135.909 18.9347C136.001 18.381 136.4 17.812 136.799 17.6428C137.213 17.4737 137.474 17.7812 137.382 18.3349Z" fill="#9A715A"/>
<path d="M126.585 85.4491C126.508 86.0028 126.094 86.5872 125.649 86.7563C125.204 86.9255 124.913 86.6025 124.99 86.0643C125.066 85.5106 125.481 84.9262 125.925 84.757C126.37 84.5879 126.661 84.9108 126.585 85.4491Z" fill="#9A715A"/>
<path d="M141.615 17.2737C141.461 17.8427 141.017 18.3502 140.633 18.4271C140.25 18.4887 140.066 18.0888 140.219 17.5198C140.372 16.9508 140.817 16.4432 141.201 16.3663C141.584 16.3048 141.768 16.7047 141.615 17.2737Z" fill="#9A715A"/>
<path d="M121.923 86.8793C121.77 87.4483 121.31 87.9712 120.88 88.0327C120.466 88.0942 120.236 87.6944 120.389 87.1254C120.543 86.5563 121.003 86.0335 121.432 85.9719C121.862 85.9104 122.076 86.3103 121.923 86.8793Z" fill="#9A715A"/>
<path d="M145.525 17.2738C145.31 17.8428 144.835 18.2734 144.482 18.2426C144.129 18.2119 144.022 17.7198 144.237 17.1507C144.452 16.5817 144.927 16.1511 145.28 16.1818C145.632 16.2126 145.74 16.7047 145.525 17.2738Z" fill="#9A715A"/>
<path d="M117.537 87.2484C117.307 87.8174 116.816 88.2634 116.433 88.2326C116.049 88.2019 115.911 87.7097 116.141 87.1253C116.371 86.5409 116.862 86.1103 117.246 86.1411C117.629 86.1718 117.767 86.664 117.537 87.2484Z" fill="#9A715A"/>
<path d="M148.838 17.6736C148.547 18.2272 148.04 18.581 147.703 18.4425C147.366 18.3041 147.32 17.7505 147.596 17.1815C147.887 16.6278 148.393 16.2741 148.731 16.4125C149.068 16.5509 149.114 17.1046 148.838 17.6736Z" fill="black"/>
<path d="M113.534 86.5409C113.243 87.0945 112.737 87.4483 112.399 87.3099C112.062 87.1714 112.016 86.6178 112.292 86.0488C112.583 85.4951 113.089 85.1414 113.427 85.2798C113.764 85.4182 113.81 85.9719 113.534 86.5409Z" fill="black"/>
<path d="M152.135 19.7805C151.798 20.3034 151.276 20.5494 151 20.3187C150.709 20.0881 150.755 19.4729 151.107 18.95C151.445 18.4271 151.966 18.1811 152.242 18.4117C152.534 18.6424 152.488 19.2576 152.135 19.7805Z" fill="#9A715A"/>
<path d="M110.052 84.7724C109.715 85.2953 109.194 85.5414 108.917 85.3107C108.626 85.08 108.672 84.4648 109.025 83.942C109.362 83.4191 109.884 83.173 110.16 83.3883C110.451 83.619 110.405 84.2342 110.052 84.757V84.7724Z" fill="#9A715A"/>
<path d="M154.757 22.8717C154.374 23.3485 153.868 23.4869 153.653 23.1639C153.423 22.841 153.561 22.195 153.945 21.7183C154.328 21.2415 154.834 21.1031 155.049 21.4261C155.279 21.7491 155.141 22.395 154.757 22.8717Z" fill="#9A715A"/>
<path d="M107.2 82.0196C106.817 82.4963 106.31 82.6347 106.096 82.3118C105.866 81.9888 106.004 81.3429 106.387 80.8661C106.771 80.3894 107.277 80.251 107.491 80.5739C107.721 80.8969 107.583 81.5428 107.2 82.0196Z" fill="#9A715A"/>
<path d="M156.659 26.8395C156.245 27.2547 155.77 27.2855 155.617 26.8856C155.463 26.4858 155.678 25.8245 156.107 25.4092C156.521 24.994 156.997 24.9632 157.15 25.3631C157.304 25.763 157.089 26.4243 156.659 26.8395Z" fill="#9A715A"/>
<path d="M107.216 78.344C106.817 78.7592 106.387 78.7746 106.265 78.3901C106.142 78.0057 106.357 77.3444 106.755 76.9291C107.154 76.5139 107.584 76.4985 107.706 76.883C107.829 77.2675 107.614 77.9288 107.216 78.344Z" fill="#9A715A"/>
<path d="M157.763 31.5762C157.319 31.9146 156.905 31.8223 156.828 31.3609C156.751 30.8996 157.043 30.2383 157.487 29.8999C157.932 29.5616 158.346 29.6539 158.423 30.1152C158.5 30.5766 158.208 31.2379 157.763 31.5762Z" fill="#9A715A"/>
<path d="M106.081 73.9148C105.667 74.2531 105.283 74.1608 105.222 73.6994C105.16 73.2381 105.452 72.5922 105.866 72.2538C106.28 71.9155 106.663 72.0077 106.725 72.4691C106.786 72.9305 106.495 73.5764 106.081 73.9148Z" fill="#9A715A"/>
<path d="M158.039 36.9127C157.595 37.1742 157.226 36.9589 157.226 36.4514C157.226 35.9438 157.595 35.3133 158.039 35.0519C158.484 34.7904 158.852 35.0057 158.852 35.5132C158.852 36.0207 158.484 36.6513 158.039 36.9127Z" fill="black"/>
<path d="M105.728 68.8243C105.314 69.0858 104.992 68.8705 105.007 68.363C105.022 67.8555 105.375 67.2403 105.789 66.9789C106.203 66.7174 106.525 66.9327 106.51 67.4402C106.495 67.9477 106.142 68.5629 105.728 68.8243Z" fill="black"/>
<path d="M157.487 42.7107C157.043 42.8798 156.751 42.5569 156.828 42.0186C156.905 41.465 157.319 40.8806 157.763 40.7114C158.208 40.5422 158.5 40.8652 158.423 41.4034C158.346 41.9571 157.932 42.5415 157.487 42.7107Z" fill="#9A715A"/>
<path d="M105.59 62.9803C105.176 63.1494 104.915 62.8418 105.007 62.2882C105.099 61.7345 105.498 61.1655 105.897 60.9964C106.311 60.8272 106.571 61.1348 106.479 61.6884C106.387 62.2421 105.989 62.8111 105.59 62.9803Z" fill="#9A715A"/>
<path d="M156.107 48.8008C155.693 48.8623 155.463 48.4625 155.617 47.8934C155.77 47.3244 156.23 46.8015 156.659 46.74C157.074 46.6785 157.304 47.0783 157.15 47.6474C156.997 48.2164 156.537 48.7393 156.107 48.8008Z" fill="#9A715A"/>
<path d="M107.276 56.7825C106.893 56.844 106.709 56.4441 106.862 55.8751C107.016 55.3061 107.46 54.7986 107.844 54.7217C108.227 54.6602 108.411 55.06 108.258 55.6291C108.105 56.1981 107.66 56.7056 107.276 56.7825Z" fill="#9A715A"/>
<path d="M153.945 54.9678C153.561 54.9371 153.423 54.4449 153.653 53.8605C153.883 53.2915 154.374 52.8455 154.757 52.8763C155.141 52.907 155.279 53.3991 155.049 53.9836C154.819 54.568 154.328 54.9986 153.945 54.9678Z" fill="#9A715A"/>
<path d="M109.224 51.2153C108.872 51.1845 108.764 50.6924 108.979 50.1234C109.194 49.5544 109.669 49.1237 110.022 49.1545C110.375 49.1853 110.482 49.6774 110.267 50.2464C110.053 50.8154 109.577 51.2461 109.224 51.2153Z" fill="#9A715A"/>
<path d="M151.092 61.0579C150.755 60.9195 150.709 60.3658 150.985 59.7968C151.276 59.2432 151.782 58.8895 152.12 59.0279C152.457 59.1663 152.503 59.7199 152.227 60.2889C151.936 60.8426 151.43 61.1963 151.092 61.0579Z" fill="#9A715A"/>
<path d="M111.801 45.156C111.494 45.0176 111.464 44.4639 111.74 43.9103C112.016 43.3566 112.491 43.0183 112.813 43.1413C113.12 43.2797 113.151 43.8334 112.875 44.387C112.598 44.9407 112.123 45.279 111.801 45.156Z" fill="#9A715A"/>
<path d="M147.595 66.8557C147.304 66.625 147.35 66.0099 147.703 65.487C148.056 64.9641 148.562 64.718 148.838 64.9487C149.129 65.1794 149.083 65.7946 148.73 66.3175C148.393 66.8403 147.872 67.0864 147.595 66.8557Z" fill="black"/>
<path d="M114.975 39.3119C114.714 39.0812 114.776 38.4814 115.113 37.9586C115.435 37.4357 115.911 37.1896 116.171 37.4203C116.432 37.651 116.371 38.2508 116.033 38.7736C115.711 39.2965 115.236 39.5426 114.975 39.3119Z" fill="black"/>
<path d="M143.593 72.2076C143.363 71.8847 143.501 71.2387 143.884 70.762C144.268 70.2852 144.774 70.1468 144.988 70.4698C145.203 70.7928 145.08 71.4387 144.697 71.9154C144.314 72.3922 143.807 72.5306 143.593 72.2076Z" fill="#9A715A"/>
<path d="M118.641 33.8523C118.442 33.5447 118.58 32.8988 118.948 32.422C119.316 31.9453 119.776 31.8069 119.975 32.1298C120.175 32.4374 120.036 33.0833 119.668 33.5601C119.3 34.0368 118.84 34.1752 118.641 33.8523Z" fill="#9A715A"/>
<path d="M139.192 76.9445C139.038 76.5446 139.253 75.8833 139.682 75.4681C140.112 75.0528 140.572 75.0221 140.725 75.4219C140.878 75.8218 140.664 76.4831 140.234 76.8983C139.805 77.3136 139.345 77.3443 139.192 76.9445Z" fill="#9A715A"/>
<path d="M122.705 28.9618C122.582 28.5773 122.797 27.916 123.195 27.5008C123.594 27.0855 124.024 27.0702 124.146 27.4546C124.269 27.8391 124.054 28.5004 123.656 28.9156C123.257 29.3309 122.827 29.3463 122.705 28.9618Z" fill="#9A715A"/>
<path d="M134.529 80.9122C134.453 80.4508 134.744 79.7895 135.189 79.4512C135.634 79.1129 136.048 79.2051 136.124 79.6665C136.201 80.1279 135.91 80.7892 135.465 81.1275C135.02 81.4659 134.606 81.3736 134.529 80.9122Z" fill="#9A715A"/>
<path d="M127.014 24.7787C126.953 24.3173 127.244 23.6714 127.658 23.333C128.072 22.9947 128.456 23.087 128.517 23.5483C128.579 24.0097 128.287 24.6556 127.873 24.994C127.459 25.3323 127.076 25.24 127.014 24.7787Z" fill="#9A715A"/>
<path d="M125.312 54.937C125.312 58.9048 122.521 63.7338 119.07 65.7331C115.62 67.7324 112.828 66.1329 112.828 62.1651C112.828 58.1974 115.62 53.3683 119.07 51.369C122.521 49.3698 125.312 50.9692 125.312 54.937Z" fill="#D1BDA1"/>
<path d="M124.454 55.4445C124.454 58.8587 122.046 63.0418 119.071 64.7489C116.095 66.4713 113.688 65.0872 113.688 61.6731C113.688 58.2589 116.095 54.0758 119.071 52.3687C122.046 50.6463 124.454 52.0304 124.454 55.4445Z" fill="#EAE2C2"/>
<path d="M119.193 52.7532L118.948 52.8916L118.626 59.4738L118.948 62.2574L119.178 62.119L119.531 58.9509L119.193 52.7532Z" fill="#2A3136"/>
<path d="M119.807 58.1513C119.807 58.628 119.469 59.197 119.07 59.4277C118.656 59.6584 118.334 59.4739 118.334 59.0125C118.334 58.5511 118.672 57.9667 119.07 57.736C119.485 57.5053 119.807 57.6899 119.807 58.1513Z" fill="#A2A2A2"/>
<path d="M119.392 58.3511C119.392 58.5664 119.239 58.8278 119.055 58.9201C118.871 59.0278 118.718 58.9355 118.718 58.7356C118.718 58.5356 118.871 58.2588 119.055 58.1665C119.239 58.0743 119.392 58.1512 119.392 58.3511Z" fill="#C9C9C9"/>
<path d="M145.28 21.7797V23.1946L146.062 22.7332C147.304 22.0104 148.101 22.3949 148.101 23.5483C148.101 24.8863 147.273 26.2397 145.985 26.9779C145.31 27.3777 144.513 27.5315 143.945 27.4085L144.329 26.2858C144.789 26.4703 145.356 26.3935 145.878 26.0859C146.614 25.6553 147.074 24.9478 147.074 24.2096C147.074 23.5483 146.629 23.3945 145.893 23.8098C145.556 24.0097 144.773 24.5018 144.39 24.7633V21.2876L147.871 19.2729V20.2572L145.28 21.7644V21.7797Z" fill="#736457"/>
<path d="M116.31 38.5584V39.9733L117.092 39.5119C118.334 38.7891 119.132 39.1736 119.132 40.327C119.132 41.665 118.303 43.0183 117.015 43.7565C116.34 44.1564 115.543 44.3102 114.975 44.1872L115.359 43.0645C115.819 43.249 116.386 43.1568 116.908 42.8646C117.659 42.4339 118.104 41.7265 118.104 40.9883C118.104 40.327 117.659 40.1732 116.923 40.5885C116.586 40.7884 115.804 41.2805 115.42 41.542V38.0663L118.902 36.0516V37.0359L116.31 38.543V38.5584Z" fill="#736457"/>
<path d="M121.018 35.8363V37.2511L121.8 36.7898C123.042 36.0669 123.84 36.4514 123.84 37.6048C123.84 38.9428 123.011 40.2962 121.723 41.0344C121.048 41.4342 120.251 41.588 119.683 41.465L120.067 40.3423C120.527 40.5269 121.094 40.4346 121.616 40.1424C122.352 39.7118 122.812 39.0043 122.812 38.2661C122.812 37.6048 122.367 37.4511 121.631 37.8663C121.294 38.0662 120.512 38.5583 120.128 38.8198V35.3441L123.61 33.3295V34.3137L121.018 35.8209V35.8363Z" fill="#736457"/>
<path d="M114.27 79.2051C115.221 78.7438 115.88 79.0052 115.88 80.0356C115.88 81.2659 115.067 82.5885 113.794 83.3267C113.089 83.7266 112.353 83.8804 111.862 83.7266L112.261 82.5885C112.675 82.7885 113.196 82.727 113.718 82.4348C114.484 81.9888 114.914 81.2813 114.914 80.6046C114.914 79.8972 114.469 79.7896 113.702 80.2202L112.905 80.6815V80.0356L114.392 77.3289L112.107 78.6515V77.6672L115.589 75.6526V76.3446L113.963 79.3128L114.254 79.1744L114.27 79.2051Z" fill="#736457"/>
<path d="M117.782 75.4066V76.8214L118.564 76.3601C119.806 75.6373 120.604 76.0217 120.604 77.1752C120.604 78.5131 119.776 79.8665 118.487 80.6047C117.813 81.0045 117.015 81.1583 116.448 81.0353L116.831 79.9126C117.291 80.0972 117.859 80.0049 118.38 79.7127C119.132 79.2821 119.576 78.5747 119.576 77.8365C119.576 77.1752 119.132 77.0214 118.395 77.4366C118.058 77.6365 117.276 78.1287 116.893 78.3901V74.9144L120.374 72.8998V73.884L117.782 75.3912V75.4066Z" fill="#736457"/>
<path d="M144.191 60.7196C144.191 61.3809 143.746 62.3806 143.148 63.4879L141.661 66.1638L144.452 64.549V65.5487L140.388 67.9017V67.1019L142.489 63.2879C142.903 62.5651 143.179 61.8577 143.179 61.4886C143.179 60.9657 142.826 60.858 142.228 61.1964C141.722 61.4886 141.155 62.1345 140.664 62.9188L140.28 62.2883C140.894 61.3502 141.63 60.5658 142.366 60.1506C143.44 59.5201 144.191 59.7354 144.191 60.7504V60.7196Z" fill="#736457"/>
<path d="M146.353 58.8587V60.2736L147.135 59.8122C148.378 59.0894 149.175 59.4739 149.175 60.6273C149.175 61.9653 148.347 63.3186 147.059 64.0568C146.384 64.4567 145.586 64.6105 145.019 64.4875L145.402 63.3648C145.863 63.5493 146.43 63.4571 146.951 63.1649C147.688 62.7342 148.148 62.0422 148.148 61.2886C148.148 60.6273 147.703 60.4735 146.967 60.8888C146.629 61.0887 145.847 61.5808 145.464 61.8423V58.3666L148.945 56.3519V57.3362L146.353 58.8433V58.8587Z" fill="#736457"/>
<path d="M148.7 44.8329V39.2503L147.58 39.8962V38.912L149.666 37.7124V44.2793L148.7 44.8329Z" fill="#736457"/>
<path d="M152.166 37.2511V38.6659L152.948 38.2046C154.19 37.4817 154.987 37.8662 154.987 39.0196C154.987 40.3576 154.159 41.711 152.871 42.4492C152.196 42.849 151.399 43.0028 150.831 42.8798L151.215 41.7571C151.675 41.9417 152.242 41.8494 152.764 41.5572C153.5 41.1266 153.96 40.4345 153.96 39.6809C153.96 39.0196 153.515 38.8659 152.779 39.2811C152.442 39.481 151.659 39.9731 151.276 40.2346V36.7589L154.757 34.7443V35.7285L152.166 37.2357V37.2511Z" fill="#736457"/>
<path d="M129.131 78.344C129.913 77.9595 130.465 78.1748 130.465 79.0361C130.465 80.0511 129.79 81.143 128.747 81.7582C128.164 82.0965 127.566 82.2195 127.152 82.0965L127.49 81.1584C127.827 81.3276 128.272 81.2814 128.701 81.02C129.33 80.6509 129.698 80.0665 129.698 79.5128C129.698 78.9592 129.33 78.8361 128.701 79.1899L128.042 79.5743V79.0361L129.269 76.8061L127.382 77.898V77.0829L130.25 75.422V76.0064L128.901 78.467L129.146 78.3594L129.131 78.344Z" fill="#736457"/>
<path d="M135.097 75.3142C135.097 77.0828 134.376 78.4669 133.088 79.2205C131.784 79.9741 131.078 79.4051 131.078 77.6365C131.078 75.8679 131.799 74.4838 133.088 73.7302C134.376 72.9766 135.097 73.5456 135.097 75.3142ZM131.891 77.1597C131.891 78.5285 132.29 78.9437 133.088 78.4823C133.87 78.0209 134.268 77.1443 134.268 75.7756C134.268 74.4069 133.87 73.9916 133.088 74.4376C132.29 74.899 131.891 75.7602 131.891 77.1443V77.1597Z" fill="#736457"/>
<path d="M106.863 66.2713V64.9795L107.599 64.5489V65.8407L108.289 65.4409V66.256L107.599 66.6558V67.9938L106.863 68.4244V67.0864L104.608 68.3936V67.717L106.219 63.3647L106.985 62.9187L105.452 67.0864L106.863 66.2713Z" fill="#736457"/>
<path d="M109.715 62.1498V63.3186L110.36 62.9341C111.387 62.3343 112.047 62.6573 112.047 63.6108C112.047 64.7181 111.356 65.8408 110.298 66.4559C109.731 66.7789 109.087 66.9173 108.611 66.8096L108.933 65.8715C109.317 66.0253 109.777 65.9484 110.206 65.7023C110.82 65.3486 111.188 64.7642 111.188 64.1491C111.188 63.5954 110.82 63.4724 110.206 63.8261C109.93 63.9953 109.286 64.3951 108.964 64.6104V61.7345L111.832 60.0736V60.8887L109.685 62.1344L109.715 62.1498Z" fill="#736457"/>
</g>
<g style="mix-blend-mode:screen">
<path d="M140.811 48.2847C149.418 39.2275 152.673 28.3274 148.08 23.9387C143.487 19.5499 132.787 23.3344 124.18 32.3916C115.573 41.4487 112.319 52.3488 116.911 56.7376C121.504 61.1264 132.204 57.3419 140.811 48.2847Z" fill="#818188"/>
</g>
<path d="M125.465 14.3054C124.744 13.6287 124.422 12.8905 124.468 12.2446C124.468 12.0293 124.591 9.63018 124.591 9.63018C124.591 9.63018 127.091 8.89198 128.011 8.61516C130.189 7.95386 134.56 9.73783 134.56 9.73783C134.56 9.73783 134.529 12.8905 134.284 13.6441C134.069 14.3208 133.425 15.1513 132.397 15.4588C130.219 16.1201 127.106 15.8587 125.45 14.3054H125.465Z" fill="url(#paint4_linear_430_13811)"/>
<path d="M125.879 11.3526C124.054 10.0146 124.177 8.09225 126.263 7.18489C128.349 6.26215 131.539 6.2929 133.364 7.64626C135.189 8.98424 134.974 10.8297 132.888 11.7525C130.802 12.6752 127.704 12.7214 125.879 11.368V11.3526Z" fill="#F3F3F1"/>
<path d="M127.152 9.72252C126.723 9.32266 126.539 8.89205 126.57 8.50757C126.57 8.38454 126.646 4.27833 126.646 4.27833C126.646 4.27833 128.103 3.84772 128.64 3.69393C129.913 3.30945 132.474 4.35523 132.474 4.35523C132.474 4.35523 132.474 8.90743 132.321 9.33804C132.198 9.72252 131.815 10.2146 131.217 10.3992C129.944 10.7837 128.119 10.6299 127.152 9.72252Z" fill="url(#paint5_linear_430_13811)"/>
<path d="M127.398 5.2934C126.325 4.50907 126.401 3.3864 127.628 2.84813C128.855 2.30987 130.711 2.32524 131.784 3.10958C132.858 3.89391 132.735 4.97044 131.508 5.50871C130.281 6.04698 128.472 6.07773 127.413 5.2934H127.398Z" fill="#F3F3F1"/>
<path d="M106.679 36.2051C106.02 36.4512 105.452 36.4205 105.038 36.1744C104.915 36.0975 100.483 33.7445 100.483 33.7445C100.483 33.7445 100.836 31.9144 100.943 31.2377C101.235 29.6229 103.78 27.4237 103.78 27.4237C103.78 27.4237 108.719 29.9613 109.117 30.3611C109.47 30.7148 109.792 31.3915 109.654 32.1605C109.363 33.7753 108.197 35.6823 106.679 36.2205V36.2051Z" fill="url(#paint6_linear_430_13811)"/>
<path d="M104.547 35.0671C103.888 35.3131 103.32 35.2824 102.906 35.0363C102.783 34.9594 98.3513 32.6064 98.3513 32.6064C98.3513 32.6064 98.7041 30.7763 98.8114 30.0996C99.1028 28.4848 101.557 26.1626 101.557 26.1626C101.557 26.1626 106.495 28.7001 106.894 29.1C107.246 29.4537 107.292 30.6687 107.154 31.4222C106.863 33.037 106.065 34.5134 104.532 35.0671H104.547Z" fill="url(#paint7_linear_430_13811)"/>
<path d="M102.906 35.39C101.986 35.7745 101.526 35.5284 100.284 35.2209C100.084 35.1747 97.8297 34.1443 97.8297 34.1443C97.8297 34.1443 98.1671 31.5606 98.2898 30.5918C98.5658 28.3157 101.955 25.0399 101.955 25.0399C101.955 25.0399 104.67 26.3933 105.237 26.9315C106.096 27.7466 106.694 28.9308 106.571 29.992C106.295 32.2681 104.992 34.498 102.906 35.3746V35.39Z" fill="url(#paint8_linear_430_13811)"/>
<path d="M100.498 34.006C98.5351 35.144 96.2654 33.9137 96.2654 31.6376C96.2654 29.3615 97.5843 26.4395 99.5473 25.3168C101.51 24.1941 103.673 25.4552 103.673 27.7313C103.673 30.0074 102.461 32.8833 100.498 34.006Z" fill="#F3F3F1"/>
<g style="mix-blend-mode:multiply">
<path d="M148.178 132.77C148.178 132.77 142.443 133.708 136.829 140.46C131.937 146.35 127.934 154.686 127.934 154.686L121.861 152.01L124.53 147.057L127.398 148.688C132.351 140.629 137.765 134.185 142.151 131.432C143.577 130.525 144.789 130.079 145.74 130.048C147.181 129.987 148.04 130.925 148.178 132.77Z" fill="#BBA651"/>
</g>
<defs>
<linearGradient id="paint0_linear_430_13811" x1="140.618" y1="16.5354" x2="104.149" y2="79.5321" gradientUnits="userSpaceOnUse">
<stop stop-color="#E8E6E4"/>
<stop offset="0.02" stop-color="#E8E8E6"/>
<stop offset="0.04" stop-color="#E8E8E6"/>
<stop offset="0.16" stop-color="#E8E8E6"/>
<stop offset="0.37" stop-color="#E8E6E4"/>
<stop offset="0.38" stop-color="#D9D7D5"/>
<stop offset="0.78" stop-color="#D3D1CE"/>
<stop offset="0.79" stop-color="#CCCAC5"/>
<stop offset="0.86" stop-color="#B8B5B1"/>
<stop offset="0.93" stop-color="#AAA7A4"/>
<stop offset="1" stop-color="#A6A3A0"/>
</linearGradient>
<linearGradient id="paint1_linear_430_13811" x1="136.277" y1="13.8441" x2="100.333" y2="75.9347" gradientUnits="userSpaceOnUse">
<stop stop-color="#D1CFCD"/>
<stop offset="0.02" stop-color="#D1D1CF"/>
<stop offset="0.04" stop-color="#D1D1CF"/>
<stop offset="0.16" stop-color="#D1D1CF"/>
<stop offset="0.37" stop-color="#D1CFCD"/>
<stop offset="0.38" stop-color="#C2C0BE"/>
<stop offset="0.78" stop-color="#BCBAB7"/>
<stop offset="0.79" stop-color="#B5B3AF"/>
<stop offset="0.86" stop-color="#A19E9B"/>
<stop offset="0.93" stop-color="#93908E"/>
<stop offset="1" stop-color="#8F8C8A"/>
</linearGradient>
<linearGradient id="paint2_linear_430_13811" x1="142.872" y1="17.8272" x2="106.419" y2="80.7932" gradientUnits="userSpaceOnUse">
<stop stop-color="#F4F2F0"/>
<stop offset="0.02" stop-color="#F4F4F2"/>
<stop offset="0.04" stop-color="#F4F4F2"/>
<stop offset="0.16" stop-color="#F4F4F2"/>
<stop offset="0.37" stop-color="#F4F2F0"/>
<stop offset="0.38" stop-color="#E5E3E1"/>
<stop offset="0.78" stop-color="#DFDDDA"/>
<stop offset="0.79" stop-color="#D9D6D1"/>
<stop offset="0.86" stop-color="#C5C1BD"/>
<stop offset="0.93" stop-color="#B7B3B0"/>
<stop offset="1" stop-color="#B3AFAC"/>
</linearGradient>
<linearGradient id="paint3_linear_430_13811" x1="112.261" y1="106.441" x2="144.972" y2="49.9562" gradientUnits="userSpaceOnUse">
<stop stop-color="#E8E6E4"/>
<stop offset="0.02" stop-color="#E8E8E6"/>
<stop offset="0.04" stop-color="#E8E8E6"/>
<stop offset="0.16" stop-color="#E8E8E6"/>
<stop offset="0.37" stop-color="#E8E6E4"/>
<stop offset="0.38" stop-color="#D9D7D5"/>
<stop offset="0.78" stop-color="#D3D1CE"/>
<stop offset="0.79" stop-color="#CCCAC5"/>
<stop offset="0.86" stop-color="#B8B5B1"/>
<stop offset="0.93" stop-color="#AAA7A4"/>
<stop offset="1" stop-color="#A6A3A0"/>
</linearGradient>
<linearGradient id="paint4_linear_430_13811" x1="134.526" y1="12.0575" x2="124.614" y2="12.183" gradientUnits="userSpaceOnUse">
<stop stop-color="#DBDBDB"/>
<stop offset="0.02" stop-color="#DBDBDB"/>
<stop offset="0.04" stop-color="#DBDBDB"/>
<stop offset="0.16" stop-color="#DBDBDB"/>
<stop offset="0.37" stop-color="#DBDBDB"/>
<stop offset="0.38" stop-color="#CCCCCC"/>
<stop offset="0.78" stop-color="#C6C6C6"/>
<stop offset="0.79" stop-color="#BFBFBF"/>
<stop offset="0.81" stop-color="#B5B5B5"/>
<stop offset="0.88" stop-color="#9E9E9E"/>
<stop offset="0.94" stop-color="#909090"/>
<stop offset="1" stop-color="#8C8C8C"/>
</linearGradient>
<linearGradient id="paint5_linear_430_13811" x1="132.488" y1="7.04945" x2="126.664" y2="7.12748" gradientUnits="userSpaceOnUse">
<stop stop-color="#DBDBDB"/>
<stop offset="0.02" stop-color="#DBDBDB"/>
<stop offset="0.04" stop-color="#DBDBDB"/>
<stop offset="0.16" stop-color="#DBDBDB"/>
<stop offset="0.37" stop-color="#DBDBDB"/>
<stop offset="0.38" stop-color="#CCCCCC"/>
<stop offset="0.78" stop-color="#C6C6C6"/>
<stop offset="0.79" stop-color="#BFBFBF"/>
<stop offset="0.81" stop-color="#B5B5B5"/>
<stop offset="0.88" stop-color="#9E9E9E"/>
<stop offset="0.94" stop-color="#909090"/>
<stop offset="1" stop-color="#8C8C8C"/>
</linearGradient>
<linearGradient id="paint6_linear_430_13811" x1="106.731" y1="28.973" x2="103.557" y2="35.3833" gradientUnits="userSpaceOnUse">
<stop stop-color="#DBDBDB"/>
<stop offset="0.02" stop-color="#DBDBDB"/>
<stop offset="0.04" stop-color="#DBDBDB"/>
<stop offset="0.16" stop-color="#DBDBDB"/>
<stop offset="0.37" stop-color="#DBDBDB"/>
<stop offset="0.38" stop-color="#CCCCCC"/>
<stop offset="0.78" stop-color="#C6C6C6"/>
<stop offset="0.79" stop-color="#BFBFBF"/>
<stop offset="0.81" stop-color="#B5B5B5"/>
<stop offset="0.88" stop-color="#9E9E9E"/>
<stop offset="0.94" stop-color="#909090"/>
<stop offset="1" stop-color="#8C8C8C"/>
</linearGradient>
<linearGradient id="paint7_linear_430_13811" x1="104.568" y1="27.7587" x2="101.381" y2="34.2228" gradientUnits="userSpaceOnUse">
<stop stop-color="#C2C2C2"/>
<stop offset="0.02" stop-color="#C2C2C2"/>
<stop offset="0.04" stop-color="#C2C2C2"/>
<stop offset="0.16" stop-color="#C2C2C2"/>
<stop offset="0.37" stop-color="#C2C2C2"/>
<stop offset="0.38" stop-color="#B3B3B3"/>
<stop offset="0.78" stop-color="#ADADAD"/>
<stop offset="0.79" stop-color="#A6A6A6"/>
<stop offset="0.81" stop-color="#9C9C9C"/>
<stop offset="0.88" stop-color="#858585"/>
<stop offset="0.94" stop-color="#777777"/>
<stop offset="1" stop-color="#737373"/>
</linearGradient>
<linearGradient id="paint8_linear_430_13811" x1="104.266" y1="26.1676" x2="100.424" y2="35.2015" gradientUnits="userSpaceOnUse">
<stop stop-color="#DBDBDB"/>
<stop offset="0.02" stop-color="#DBDBDB"/>
<stop offset="0.04" stop-color="#DBDBDB"/>
<stop offset="0.16" stop-color="#DBDBDB"/>
<stop offset="0.37" stop-color="#DBDBDB"/>
<stop offset="0.38" stop-color="#CCCCCC"/>
<stop offset="0.78" stop-color="#C6C6C6"/>
<stop offset="0.79" stop-color="#BFBFBF"/>
<stop offset="0.81" stop-color="#B5B5B5"/>
<stop offset="0.88" stop-color="#9E9E9E"/>
<stop offset="0.94" stop-color="#909090"/>
<stop offset="1" stop-color="#8C8C8C"/>
</linearGradient>
</defs>
</svg>
