<svg width="523" height="392" viewBox="0 0 523 392" fill="none" xmlns="http://www.w3.org/2000/svg">
<g clip-path="url(#clip0_1268_784)">
<path d="M366.026 117.342C366.026 117.342 355.289 37.2742 374.635 11.9048C393.982 -13.4398 515.454 6.55867 522.283 26.8294C527.775 43.1401 500.685 46.6051 500.685 46.6051C500.685 46.6051 517.013 56.5549 513.426 66.3809C509.838 76.2068 484.629 74.9446 484.629 74.9446C484.629 74.9446 495.44 89.1762 489.156 96.5518C481.61 105.388 456.326 94.3243 456.326 94.3243C456.326 94.3243 468.424 108.927 459.716 115.56C451.255 121.995 433.516 112.491 433.516 112.491C433.516 112.491 431.834 128.084 420.429 129.841C409.024 131.574 398.88 123.159 398.88 123.159L366.001 117.342H366.026Z" fill="white"/>
<path d="M453.11 19.4287C453.11 19.4287 485.074 23.4878 486.212 37.6699C487.325 51.852 455.93 52.2975 455.93 52.2975C455.93 52.2975 476.019 61.975 470.576 72.8158C465.158 83.6565 433.293 74.8948 433.293 74.8948C433.293 74.8948 442.967 85.6861 435.743 94.6705C428.519 103.655 408.207 92.6905 408.207 92.6905" stroke="#1D2E3D" stroke-width="0.5" stroke-linecap="round" stroke-linejoin="round"/>
<path d="M423.818 21.4834C423.818 21.4834 446.975 27.5968 444.575 41.9769C442.175 56.357 413.576 52.1246 413.576 52.1246C413.576 52.1246 428.717 61.9754 423.843 70.9351C418.969 79.8948 400.513 77.5435 400.513 77.5435" stroke="#1D2E3D" stroke-width="0.5" stroke-linecap="round" stroke-linejoin="round"/>
<path d="M186.068 211.865C186.068 211.865 126.396 147.142 91.6858 145.732C56.9758 144.321 -10.7866 260.154 1.45965 279.979C11.3061 295.918 33.0772 275.623 33.0772 275.623C33.0772 275.623 30.0342 296.24 40.7712 300.076C51.5083 303.913 67.9851 281.86 67.9851 281.86C67.9851 281.86 72.4135 300.844 82.9526 300.695C95.6194 300.522 103.932 271.613 103.932 271.613C103.932 271.613 107.742 291.933 119.394 289.236C130.701 286.612 135.055 265.128 135.055 265.128C135.055 265.128 149.305 274.558 158.706 266.217C168.107 257.876 168.082 243.496 168.082 243.496L186.093 211.865H186.068Z" fill="white"/>
<path d="M43.4183 216.815C43.4183 216.815 24.5665 246.467 35.6995 257.283C46.8076 268.099 69.0488 242.061 69.0488 242.061C69.0488 242.061 63.1854 265.648 76.0501 268.618C88.9148 271.613 103.734 238.769 103.734 238.769C103.734 238.769 106.06 254.387 118.627 254.585C131.195 254.783 136.118 230.107 136.118 230.107" stroke="#1D2E3D" stroke-width="0.5" stroke-linecap="round" stroke-linejoin="round"/>
<path d="M65.4864 193.674C65.4864 193.674 54.4772 217.36 68.2078 225.355C81.9384 233.349 98.2915 206.396 98.2915 206.396C98.2915 206.396 96.0154 225.949 106.926 228.102C117.836 230.255 128.697 213.128 128.697 213.128" stroke="#1D2E3D" stroke-width="0.5" stroke-linecap="round" stroke-linejoin="round"/>
<path d="M490.121 249.981C480.646 261.812 274.142 379.724 237.502 391.901C219.195 396.554 149.899 245.749 151.927 238.695C154.797 228.597 403.556 92.6666 412.067 94.1021C424.981 96.2802 500.141 237.433 490.121 249.981Z" fill="#00B75A"/>
<path d="M409.494 104.794C409.494 104.794 337.723 249.733 328.52 255.228C319.317 260.723 173.599 240.922 161.155 242.828" stroke="#1D2E3D" stroke-width="0.5" stroke-linecap="round" stroke-linejoin="round"/>
<path d="M461.2 238.225C461.2 238.225 376.466 212.41 354.225 212.558" stroke="#1D2E3D" stroke-width="0.5" stroke-linecap="round" stroke-linejoin="round"/>
<path d="M273.103 253.051C251.53 292.973 251.802 354.627 251.802 354.627" stroke="#1D2E3D" stroke-width="0.5" stroke-linecap="round" stroke-linejoin="round"/>
<path d="M323.053 236.814C352.518 201.965 394.056 234.042 340.89 283.964C276.888 289.607 263.281 225.553 323.053 236.814Z" fill="#A7F3D0"/>
</g>
<defs>
<clipPath id="clip0_1268_784">
<rect width="523" height="392" fill="white"/>
</clipPath>
</defs>
</svg>
