<svg width="58" height="58" viewBox="0 0 58 58" fill="none" xmlns="http://www.w3.org/2000/svg">
<path d="M26.5833 52.5139C27.3181 52.9382 28.1516 53.1615 29 53.1615C29.8484 53.1615 30.6819 52.9382 31.4167 52.5139L48.3333 42.8473C49.0674 42.4235 49.677 41.8141 50.1012 41.0803C50.5254 40.3465 50.7491 39.514 50.75 38.6664V19.3331C50.7491 18.4855 50.5254 17.6531 50.1012 16.9193C49.677 16.1854 49.0674 15.5761 48.3333 15.1523L31.4167 5.48562C30.6819 5.0614 29.8484 4.83807 29 4.83807C28.1516 4.83807 27.3181 5.0614 26.5833 5.48562L9.66667 15.1523C8.93263 15.5761 8.32295 16.1854 7.89878 16.9193C7.47461 17.6531 7.25087 18.4855 7.25 19.3331V38.6664C7.25087 39.514 7.47461 40.3465 7.89878 41.0803C8.32295 41.8141 8.93263 42.4235 9.66667 42.8473L26.5833 52.5139Z" stroke="white" stroke-width="4" stroke-linecap="round" stroke-linejoin="round"/>
<path d="M29 53.1667V29" stroke="white" stroke-width="4" stroke-linecap="round" stroke-linejoin="round"/>
<path d="M7.95068 16.9167L28.9998 29L50.049 16.9167" stroke="white" stroke-width="4" stroke-linecap="round" stroke-linejoin="round"/>
<path d="M18.125 10.3192L39.875 22.765" stroke="white" stroke-width="4" stroke-linecap="round" stroke-linejoin="round"/>
</svg>
