<svg width="16" height="16" viewBox="0 0 16 16" fill="none" xmlns="http://www.w3.org/2000/svg">
<path d="M9.3315 2.66602C9.57202 2.66601 9.80807 2.73107 10.0146 2.85431C10.2212 2.97754 10.3906 3.15435 10.5048 3.36602L10.8288 3.96602C10.9431 4.17768 11.1125 4.35449 11.319 4.47772C11.5256 4.60096 11.7616 4.66602 12.0022 4.66602H13.3335C13.6871 4.66602 14.0263 4.80649 14.2763 5.05654C14.5264 5.30659 14.6668 5.64573 14.6668 5.99935V11.9993C14.6668 12.353 14.5264 12.6921 14.2763 12.9422C14.0263 13.1922 13.6871 13.3327 13.3335 13.3327H2.66683C2.31321 13.3327 1.97407 13.1922 1.72402 12.9422C1.47397 12.6921 1.3335 12.353 1.3335 11.9993V5.99935C1.3335 5.64573 1.47397 5.30659 1.72402 5.05654C1.97407 4.80649 2.31321 4.66602 2.66683 4.66602H3.99816C4.23844 4.66603 4.47426 4.60111 4.68068 4.47813C4.8871 4.35514 5.05646 4.17866 5.17083 3.96735L5.49683 3.36468C5.6112 3.15337 5.78055 2.97689 5.98698 2.8539C6.1934 2.73092 6.42921 2.666 6.6695 2.66602H9.3315Z" stroke="#0A0A0A" stroke-width="1.33333" stroke-linecap="round" stroke-linejoin="round"/>
<path d="M8 10.666C9.10457 10.666 10 9.77059 10 8.66602C10 7.56145 9.10457 6.66602 8 6.66602C6.89543 6.66602 6 7.56145 6 8.66602C6 9.77059 6.89543 10.666 8 10.666Z" stroke="#0A0A0A" stroke-width="1.33333" stroke-linecap="round" stroke-linejoin="round"/>
</svg>
