<svg width="262" height="394" viewBox="0 0 262 394" fill="none" xmlns="http://www.w3.org/2000/svg">
<g clip-path="url(#clip0_330_46429)">
<path d="M-43.7967 56.658L124.059 74.6903L240.418 187.153L86.5945 171.119L-43.7967 56.658Z" fill="#F8C695"/>
<path d="M-43.7967 56.658L-98.1276 211.743L11.3554 329.88L86.5945 171.119L-43.7967 56.658Z" fill="#ECA762"/>
<path d="M86.5945 171.119L240.418 187.153L149.687 348.774L11.3554 329.88L86.5945 171.119Z" fill="#D78C4B"/>
<path opacity="0.5" d="M71.063 68.9909L184.908 181.383L139.375 176.625L21.2529 63.6531L71.063 68.9909Z" fill="#5A1907"/>
<path opacity="0.5" d="M139.404 176.641L125.076 210.331L167.226 218.069L184.908 181.383L139.404 176.641Z" fill="#5A1907"/>
<path opacity="0.5" d="M73.7174 338.406L87.3451 309.743L127.68 314.154L114.325 343.946L73.7174 338.406Z" fill="#5A1907"/>
<path opacity="0.5" d="M160.382 109.785L192.423 140.773L37.7375 128.227L4.71441 99.248L160.382 109.785Z" fill="#DB8240"/>
<path opacity="0.5" d="M4.71441 99.248L37.7375 128.227L21.4483 160.037L-10.9197 136.165L4.71441 99.248Z" fill="#DB8240"/>
<path d="M0.378144 267.235L-19.6043 249.872L-32.2597 274.014L-12.8076 291.69L0.378144 267.235ZM-29.4486 273.851L-18.9257 253.654L-2.6326 267.591L-13.7029 288.168L-29.4261 273.844L-29.4486 273.851Z" fill="#5A1907"/>
<path d="M8.64605 281.017L1.15505 284.528L8.16334 290.499L8.64605 281.017Z" fill="#5A1907"/>
<path d="M4.04629 285.916L0.141385 292.834L2.90001 295.055L6.59684 287.929L4.04629 285.916Z" fill="#5A1907"/>
<path d="M8.66045 301.268L16.1581 297.78L9.15773 291.795L8.66045 301.268Z" fill="#5A1907"/>
<path d="M13.2602 296.369L17.1572 289.466L14.4065 287.231L10.7097 294.356L13.2602 296.369Z" fill="#5A1907"/>
<path d="M5.30414 270.958L-8.62874 294.912L11.6589 315.909L26.1657 289.516L5.30414 270.958ZM-5.46822 294.732L6.14122 274.449L23.1376 289.731L11.1978 312.491L-5.4603 294.717L-5.46822 294.732Z" fill="#5A1907"/>
</g>
<defs>
<clipPath id="clip0_330_46429">
<rect width="312" height="278" fill="white" transform="translate(-12.898) rotate(28.606)"/>
</clipPath>
</defs>
</svg>
