<svg width="105" height="103" viewBox="0 0 105 103" fill="none" xmlns="http://www.w3.org/2000/svg">
<g clip-path="url(#clip0_2681_1991)">
<path d="M50.9868 101.413C48.8458 101.413 46.7003 101.277 44.5999 101.014C32.7114 99.5216 21.4462 93.812 13.6952 85.3496C4.89629 75.7353 0.650399 62.9011 1.75252 49.2189C2.94047 34.3938 10.1495 20.7388 21.523 11.7549C27.8919 6.72549 35.5616 3.2199 43.7056 1.61903C43.8049 1.60089 43.9088 1.58728 44.0082 1.58728C44.4328 1.58728 44.8483 1.75961 45.151 2.07707C45.5213 2.46708 45.6704 3.02036 45.5439 3.54642C45.0968 5.41033 45.2187 7.29237 45.9008 8.98848C47.1113 12.0088 49.9569 14.1448 53.5072 14.7072C54.2209 14.8205 54.7675 15.4056 54.8352 16.1312C54.912 16.9566 55.1107 17.7774 55.4269 18.5756C56.8543 22.122 60.5536 24.4212 64.8447 24.4212C64.926 24.4212 65.1066 24.4212 65.1157 24.4212C65.6667 24.4212 66.1817 24.7115 66.4662 25.1877C68.9641 29.3282 73.6752 31.7998 79.0774 31.7998C81.363 31.7998 83.626 31.3508 85.8076 30.471C88.0074 29.5867 89.9541 28.3214 91.5938 26.716C91.8919 26.4257 92.2849 26.267 92.6959 26.267C92.7185 26.267 92.7456 26.267 92.7727 26.267C93.2108 26.2897 93.6219 26.4892 93.9019 26.8248C95.0131 28.1355 96.3727 29.0561 97.9536 29.5549C98.1162 29.6093 98.2607 29.6502 98.4053 29.6819C98.8976 29.7953 99.3087 30.1399 99.5074 30.607C99.7423 31.1649 99.9726 31.7227 100.189 32.2805C102.493 38.2169 103.568 44.5841 103.387 51.2143C103.076 62.7243 99.0015 73.8124 91.9009 82.4426C82.1173 94.3245 66.8186 101.417 50.9778 101.417L50.9868 101.413Z" fill="#915937"/>
<path d="M44.0084 3.17453C43.5025 5.28333 43.5974 7.50097 44.4375 9.58256C45.9146 13.265 49.3158 15.6504 53.2636 16.2763C53.3539 17.2513 53.5843 18.2173 53.9592 19.1606C55.6892 23.4553 60.0435 26.0085 64.8449 26.0085C64.9353 26.0085 65.0256 26.0085 65.1159 26.0085C67.9345 30.6841 73.2735 33.3825 79.0822 33.3825C81.4897 33.3825 83.9785 32.9199 86.4041 31.9403C88.8432 30.9562 90.9707 29.5458 92.7052 27.8497C93.9609 29.3327 95.5689 30.4574 97.4841 31.0651C97.6693 31.1286 97.868 31.183 98.0623 31.2238C98.2926 31.768 98.5139 32.3122 98.7308 32.861C100.989 38.6885 101.987 44.9333 101.82 51.1689C101.527 62.0984 97.6467 72.978 90.6952 81.4313C81.0967 93.0909 66.0419 99.83 50.9916 99.83C48.9228 99.83 46.8586 99.703 44.8034 99.4445C33.484 98.0251 22.5893 92.7145 14.8654 84.2839C-4.12823 63.5315 1.12945 29.8814 22.4989 13.002C28.7458 8.06785 36.2032 4.71191 44.0084 3.17453ZM44.0084 0C43.9633 0 43.9226 0 43.8774 0C43.6923 0.0090701 43.5116 0.0317453 43.3309 0.0680257C34.9701 1.72332 27.0926 5.33322 20.5431 10.5032C14.6576 15.1516 9.86515 20.9837 6.30131 27.8361C2.88201 34.4119 0.763582 41.7633 0.176384 49.0919C-0.957359 63.2231 3.42856 76.479 12.5346 86.4289C20.5341 95.1634 32.1516 101.054 44.4059 102.592C46.565 102.864 48.7783 103.005 50.9871 103.005C67.2931 103.005 83.0481 95.694 93.1298 83.4539C100.452 74.5517 104.657 63.1143 104.978 51.2551C105.163 44.4117 104.052 37.8359 101.676 31.7091C101.45 31.1286 101.215 30.5526 100.971 29.9812C100.574 29.0424 99.7516 28.3577 98.7624 28.1309C98.6585 28.1082 98.5636 28.081 98.4823 28.0538C98.4688 28.0493 98.4507 28.0447 98.4372 28.0402C97.1453 27.632 96.0296 26.8747 95.1127 25.7954C94.5436 25.1242 93.726 24.7205 92.8497 24.6797C92.8001 24.6797 92.7504 24.6797 92.7007 24.6797C91.8786 24.6797 91.0882 25.0017 90.4964 25.5822C89.0013 27.0425 87.2307 28.1944 85.2252 29.0016C83.2287 29.8089 81.1645 30.217 79.0822 30.217C74.2356 30.217 70.0258 28.0311 67.8216 24.3713C67.2479 23.419 66.2226 22.843 65.1159 22.843C65.0934 22.843 65.0753 22.843 65.0527 22.843C64.9804 22.843 64.9127 22.843 64.8449 22.843C61.1998 22.843 58.0786 20.9338 56.8907 17.9815C56.6377 17.342 56.4751 16.6663 56.4119 15.9951C56.2809 14.5484 55.1833 13.3739 53.7559 13.1471C50.7567 12.6709 48.3718 10.8977 47.369 8.40344C46.8225 7.04293 46.7141 5.52822 47.0619 4.01805C47.1341 3.75048 47.1703 3.47385 47.1703 3.1836C47.1703 1.44215 45.7881 0.0317453 44.0717 0C44.0491 0 44.031 0 44.0084 0Z" fill="#4A2120"/>
<g opacity="0.31" style="mix-blend-mode:multiply">
<path d="M101.816 51.1644C101.522 62.0894 97.6419 72.9735 90.6904 81.4268C79.7731 94.6873 61.8048 101.585 44.7987 99.44C33.4793 98.0205 22.5845 92.71 14.8606 84.2748C14.7929 84.1977 14.7251 84.1252 14.6619 84.0481C20.4751 87.4312 26.993 89.6171 33.66 90.4515C50.6706 92.5966 68.6344 85.6988 79.5563 72.4383C86.5078 63.9895 90.3878 53.1054 90.6814 42.176C90.7898 38.1942 90.4194 34.2079 89.5522 30.3304C90.7085 29.6003 91.7609 28.7658 92.705 27.8452C93.9561 29.3282 95.5687 30.4529 97.4839 31.0606C97.6691 31.1241 97.8633 31.1785 98.062 31.2193C98.2924 31.768 98.5137 32.3122 98.7305 32.8564C100.989 38.684 101.987 44.9287 101.816 51.1644Z" fill="#915937"/>
</g>
<path d="M46.7139 13.0201C25.0553 16.2355 7.69233 33.4007 3.20704 55.5226C2.5295 39.591 9.56233 23.224 22.4987 13.002C28.7456 8.06788 36.203 4.71194 44.0083 3.17456C43.5024 5.28336 43.5972 7.501 44.4374 9.58258C44.9703 10.9068 45.7473 12.0587 46.7139 13.0247V13.0201Z" fill="#FCF3DB"/>
<path d="M37.8423 29.8144C39.1247 26.0644 37.1366 21.9807 33.4016 20.6932C29.6666 19.4056 25.5993 21.4018 24.3169 25.1518C23.0345 28.9017 25.0227 32.9854 28.7576 34.273C32.4926 35.5605 36.5599 33.5644 37.8423 29.8144Z" fill="#4A2120"/>
<path d="M86.3695 74.1967C89.1619 71.3931 89.1619 66.8476 86.3695 64.0441C83.5772 61.2405 79.0499 61.2405 76.2575 64.0441C73.4652 66.8476 73.4652 71.3931 76.2575 74.1967C79.0499 77.0002 83.5772 77.0002 86.3695 74.1967Z" fill="#4A2120"/>
<path d="M56.1767 56.5648C59.9566 55.4169 62.0939 51.4098 60.9505 47.6148C59.8071 43.8198 55.8161 41.6739 52.0363 42.8218C48.2564 43.9698 46.1191 47.9769 47.2625 51.7719C48.4059 55.5669 52.3969 57.7128 56.1767 56.5648Z" fill="#4A2120"/>
<path d="M90.3561 43.9899C89.5431 46.4297 86.9188 47.7449 84.4932 46.9286C82.0676 46.1123 80.7532 43.4774 81.5662 41.0421C82.3793 38.6023 85.0036 37.2871 87.4292 38.1034C89.8547 38.9197 91.1692 41.5546 90.3561 43.9899Z" fill="#4A2120"/>
<path d="M50.4402 84.0662C49.6272 86.506 47.0029 87.8212 44.5773 87.0049C42.1517 86.1886 40.8373 83.5537 41.6503 81.1184C42.4634 78.6785 45.0877 77.3634 47.5133 78.1797C49.9434 78.996 51.2533 81.6309 50.4402 84.0662Z" fill="#4A2120"/>
<path d="M44.5411 65.0507C43.7281 67.4906 41.1038 68.8057 38.6782 67.9894C36.2481 67.1731 34.9382 64.5383 35.7512 62.1029C36.5643 59.6676 39.1886 58.3479 41.6142 59.1642C44.0398 59.9805 45.3542 62.6154 44.5411 65.0507Z" fill="#4A2120"/>
<path d="M32.5894 79.4586C32.0067 81.2091 30.1186 82.1569 28.3751 81.5719C26.6316 80.9869 25.6876 79.0912 26.2702 77.3407C26.8529 75.5902 28.741 74.6423 30.4845 75.2274C32.228 75.8124 33.1721 77.708 32.5894 79.4586Z" fill="#4A2120"/>
<path d="M64.7996 71.8443C63.9865 74.2841 61.3622 75.5993 58.9366 74.783C56.5065 73.9667 55.1966 71.3318 56.0097 68.8965C56.8227 66.4566 59.447 65.1415 61.8726 65.9578C64.3027 66.7741 65.6126 69.4089 64.7996 71.8443Z" fill="#4A2120"/>
<path d="M53.8641 32.6977C53.0511 35.1376 50.4268 36.4527 48.0012 35.6364C45.5711 34.8201 44.2612 32.1852 45.0742 29.7499C45.8873 27.3146 48.5116 25.9949 50.9372 26.8112C53.3673 27.6275 54.6772 30.2624 53.8641 32.6977Z" fill="#4A2120"/>
<path d="M28.4384 61.8489C27.2821 65.3228 23.5421 67.1957 20.0867 66.0348C16.6267 64.8738 14.7612 61.1188 15.9176 57.6495C17.0739 54.1756 20.8139 52.3026 24.2693 53.4636C27.7293 54.6246 29.5947 58.3796 28.4384 61.8489Z" fill="#4A2120"/>
<path d="M72.7628 7.501C72.7357 8.52593 72.3743 9.54178 71.7194 10.3354C70.6986 11.578 69.0138 12.222 67.4238 12.0224C66.3623 11.8909 65.3415 11.3921 64.6188 10.603C62.8392 8.66198 63.3315 5.51012 65.3325 3.92739C66.4527 3.04305 67.9929 2.70292 69.3751 3.05212C70.7573 3.40586 71.9543 4.44892 72.4737 5.78676C72.686 6.33096 72.7763 6.91598 72.7628 7.501Z" fill="#4A2120"/>
<path d="M85.0669 16.3172C85.0308 17.6595 84.552 18.9974 83.6983 20.0404C82.3568 21.6731 80.148 22.5211 78.0567 22.2581C76.6655 22.0812 75.3239 21.4282 74.3754 20.3942C72.0402 17.8455 72.6861 13.705 75.3149 11.6279C76.7874 10.4624 78.8065 10.018 80.6223 10.4806C82.4381 10.9431 84.01 12.3173 84.6875 14.0723C84.963 14.7889 85.0895 15.5553 85.0669 16.3217V16.3172Z" fill="#4A2120"/>
<path d="M98.044 12.2991C98.0169 13.374 97.6329 14.4442 96.9509 15.2741C95.8758 16.5757 94.1143 17.256 92.443 17.0428C91.3318 16.9022 90.2613 16.3807 89.5025 15.5508C87.637 13.5145 88.1519 10.2085 90.2523 8.54866C91.4312 7.61898 93.0437 7.26071 94.4937 7.63258C95.9436 8.00445 97.1993 9.0974 97.7413 10.4987C97.9627 11.0701 98.062 11.6869 98.044 12.2991Z" fill="#4A2120"/>
</g>
<defs>
<clipPath id="clip0_2681_1991">
<rect width="105" height="103" fill="white"/>
</clipPath>
</defs>
</svg>
