<svg width="450" height="569" viewBox="0 0 450 569" fill="none" xmlns="http://www.w3.org/2000/svg">
<path d="M63.3127 286.857C63.3127 320.47 136.917 391.549 136.917 391.549C136.917 391.549 146.575 387.778 156.356 380.768C164.658 374.824 169.713 363.593 169.713 348.098C169.713 314.485 145.876 273.494 116.492 256.564C87.1078 239.635 63.2716 253.203 63.2716 286.816L63.3127 286.857Z" fill="#606062"/>
<path d="M150.907 386.09C171.56 374.047 171.355 335.37 150.45 299.702C129.545 264.033 95.8561 244.881 75.2034 256.923C54.5506 268.965 54.7551 307.643 75.66 343.311C96.565 378.979 130.254 398.132 150.907 386.09Z" fill="#818183"/>
<path d="M145.361 388.166C166.014 376.124 165.81 337.447 144.905 301.778C124 266.11 90.3104 246.957 69.6576 259C49.0048 271.042 49.2093 309.719 70.1143 345.387C91.0192 381.056 124.708 400.208 145.361 388.166Z" fill="#606062"/>
<path d="M138.578 390.467C159.231 378.424 159.027 339.747 138.122 304.079C117.217 268.41 83.5274 249.258 62.8746 261.3C42.2219 273.342 42.4263 312.019 63.3313 347.688C84.2363 383.356 117.925 402.509 138.578 390.467Z" fill="#4F4F51"/>
<path d="M136.525 386.963C156.061 375.572 155.861 338.976 136.079 305.223C116.296 271.47 84.4224 253.342 64.8865 264.733C45.3506 276.124 45.5505 312.72 65.3329 346.473C85.1153 380.226 116.989 398.354 136.525 386.963Z" fill="#2B2B2D"/>
<path d="M135.191 348.426C135.191 356.829 133.013 363.388 129.232 367.733C128.821 368.225 128.41 368.676 127.917 369.086C126.232 370.725 124.218 371.996 122.04 372.816C121.342 373.062 120.684 373.267 119.985 373.431C114.067 374.906 106.793 373.554 98.9438 369.045C91.1354 364.536 83.8612 357.485 77.9022 349.246C77.1625 348.18 76.3816 347.114 75.683 345.966C67.7102 333.792 62.7374 319.486 62.7374 306.738C62.7374 303.377 63.0662 300.302 63.7648 297.597C63.9292 296.736 64.1758 295.916 64.4224 295.096C68.902 281.528 81.7242 277.101 97.0944 285.012C97.7109 285.34 98.3274 285.709 98.9438 286.078C99.5192 286.365 100.095 286.734 100.629 287.103C101.615 287.718 102.56 288.374 103.547 289.071C105.56 290.505 107.492 292.104 109.382 293.867C118.67 302.311 126.314 314.034 130.794 326.209C131.616 328.381 132.356 330.554 132.89 332.767C133.136 333.423 133.26 334.038 133.424 334.694C133.712 335.842 133.999 336.948 134.164 338.096C134.863 341.58 135.191 345.106 135.191 348.467V348.426Z" fill="#606062"/>
<path d="M136.958 346.745C136.958 355.148 134.78 361.707 130.999 366.052C130.588 366.544 130.177 366.995 129.684 367.405C127.999 369.045 125.985 370.315 123.807 371.135C123.109 371.381 122.451 371.586 121.753 371.75C115.835 373.226 108.56 371.873 100.711 367.364C92.9025 362.855 85.6283 355.804 79.6693 347.565C78.9295 346.499 78.1487 345.434 77.4501 344.286C69.5183 332.111 64.5045 317.805 64.5045 305.057C64.5045 301.696 64.8333 298.622 65.5319 295.916C65.6963 295.055 65.9429 294.235 66.1895 293.416C70.6691 279.848 83.4913 275.42 98.8615 283.332C99.478 283.66 100.094 284.029 100.711 284.398C101.286 284.684 101.862 285.053 102.396 285.422C103.382 286.037 104.327 286.693 105.314 287.39C107.327 288.825 109.259 290.423 111.15 292.186C120.437 300.63 128.081 312.354 132.561 324.528C133.383 326.701 134.123 328.873 134.657 331.087C134.904 331.742 135.027 332.357 135.191 333.013C135.479 334.161 135.767 335.268 135.931 336.415C136.63 339.9 136.958 343.425 136.958 346.786V346.745Z" fill="white"/>
<path d="M112.095 361.912C104.245 357.403 96.9712 350.394 91.0532 342.072C90.2724 341.007 89.5326 339.941 88.834 338.793C80.9023 326.619 75.8473 312.313 75.8473 299.523C75.8473 296.203 76.2172 293.129 76.8748 290.423C77.0803 289.521 77.3268 288.702 77.5734 287.923C78.683 284.521 80.3269 281.692 82.4228 279.479C74.7788 280.216 68.902 285.053 66.1896 293.334C65.9019 294.112 65.6553 294.932 65.4909 295.834C64.8334 298.54 64.4635 301.614 64.4635 304.934C64.4635 317.723 69.5184 332.029 77.4501 344.204C78.1899 345.311 78.9296 346.417 79.6694 347.483C85.5873 355.763 92.8615 362.814 100.711 367.323C108.56 371.832 115.835 373.185 121.753 371.709C122.451 371.545 123.15 371.34 123.807 371.094C126.273 370.192 128.451 368.676 130.301 366.708C124.958 367.2 118.711 365.683 112.095 361.871V361.912Z" fill="#979790"/>
<path d="M116.081 328.873L130.999 366.052C130.588 366.544 130.177 366.995 129.684 367.405C129.52 367.405 123.972 371.094 123.807 371.135L106.793 332.48L91.0942 342.523C89.6147 343.958 80.409 348.672 79.7104 347.524L99.3136 318.543L66.2306 293.416C66.395 292.514 73.5047 289.972 73.7513 289.153L102.355 310.222L105.314 287.349C107.327 288.784 109.259 290.382 111.15 292.145L113.862 316.699L132.561 324.487C133.383 326.66 134.616 330.759 135.191 332.972L116.081 328.873Z" fill="#595B5A"/>
<path d="M91.7518 322.765L77.4501 344.245C78.1898 345.352 78.9296 346.458 79.6693 347.524L100.711 335.883L121.753 371.75C122.451 371.586 123.15 371.381 123.807 371.135L108.56 333.136L135.931 336.374C135.726 335.268 135.479 334.12 135.191 333.013L106.3 320.962L102.396 285.381C101.821 285.053 101.286 284.684 100.711 284.357C100.094 283.988 99.478 283.66 98.8616 283.332L94.793 314.403L66.2306 293.375C65.943 294.153 65.6964 294.973 65.532 295.875L91.7929 322.765H91.7518Z" fill="#8B8D8C"/>
<path d="M79.0529 308.5C79.0529 316.494 82.2173 325.43 87.149 333.013C87.601 333.71 88.0531 334.407 88.5462 335.063C92.245 340.228 96.8067 344.614 101.697 347.442C106.588 350.271 111.15 351.09 114.848 350.189C115.3 350.107 115.711 349.943 116.122 349.82C121.136 347.975 124.342 342.605 124.342 334.571C124.342 332.439 124.136 330.267 123.684 328.094C123.561 327.397 123.396 326.701 123.232 326.004C120.396 314.321 112.341 302.311 102.725 296.244C102.396 296.039 102.026 295.793 101.697 295.629C101.327 295.424 100.916 295.178 100.547 294.973C90.9299 290.013 82.916 292.801 80.1214 301.245C79.957 301.737 79.7926 302.27 79.6693 302.803C79.2583 304.483 79.0529 306.41 79.0529 308.5Z" fill="#A9ABA9"/>
<path d="M76.998 309.525C76.998 317.519 80.1625 326.455 85.0941 334.038C85.5462 334.735 85.9983 335.432 86.4914 336.088C90.1902 341.252 94.7519 345.639 99.6425 348.467C104.533 351.295 109.095 352.115 112.793 351.213C113.246 351.131 113.656 350.967 114.067 350.844C119.081 349 122.287 343.63 122.287 335.596C122.287 333.464 122.081 331.292 121.629 329.119C121.506 328.422 121.342 327.725 121.177 327.028C118.342 315.346 110.287 303.336 100.67 297.269C100.341 297.064 99.9712 296.818 99.6425 296.654C99.2726 296.449 98.8616 296.203 98.4917 295.998C88.8751 291.038 80.8612 293.826 78.0666 302.27C77.9022 302.762 77.7378 303.295 77.6145 303.827C77.2035 305.508 76.998 307.435 76.998 309.525Z" fill="#D5D6D5"/>
<path d="M393.937 184.666C394.718 187.453 397.431 190.282 400.02 190.937C402.568 191.593 404.006 189.831 403.225 187.043C402.444 184.256 399.732 181.427 397.143 180.772C394.595 180.116 393.157 181.878 393.937 184.666Z" fill="#2B2B2D"/>
<path d="M343.347 158.349C339.731 159.579 339.854 163.76 338.251 164.211C338.087 164.211 337.963 164.293 337.799 164.334C336.402 164.703 335.58 164.703 334.84 164.252C334.717 164.17 334.347 163.842 333.772 163.35C331.717 161.424 327.566 157.243 327.073 156.71C324.401 153.717 318.73 137.608 315.894 134.738C314.374 133.222 311.168 129.696 308.456 126.663C305.826 123.794 303.648 121.334 303.648 121.334L324.484 100.716C324.484 100.716 327.237 104.2 330.114 108.094C332.333 111.127 334.593 114.284 335.785 116.374C338.58 121.17 349.224 142.281 349.224 142.281C349.224 142.281 349.429 142.855 349.553 143.797C350.21 147.282 351.073 155.808 343.388 158.472L343.347 158.349Z" fill="#A2601D"/>
<path d="M404.088 192.126L402.732 193.397C402.732 193.397 402.486 195.815 401.91 197.25C401.335 198.644 399.732 198.275 399.732 198.275V198.603C399.855 198.931 398.376 200.57 397.472 201.062C396.568 201.636 395.458 201.267 395.458 201.267L394.842 202.456C394.842 202.456 395.91 202.907 396.485 203.112C397.102 203.276 397.472 205.612 397.266 206.965C397.02 208.318 393.855 207.662 392.787 207.826L387.074 208.974C386.54 209.097 384.567 207.908 382.43 206.514C380.91 205.53 379.43 204.465 378.197 203.563C377.211 202.866 376.553 202.128 376.06 201.267C374.91 199.546 374.457 197.25 373.389 193.93C371.745 188.929 369.32 187.494 366.978 183.723C364.594 179.952 357.526 176.385 352.224 175.115C346.964 173.844 339.279 168.433 339.279 168.433C338.169 167.818 333.566 163.596 333.772 163.309C334.059 162.94 334.47 162.489 334.963 161.998C334.963 161.998 331.963 157.898 332.004 157.734C335.251 149.905 339.895 153.43 341.95 149.905C346.347 142.404 347.416 142.158 349.471 143.633C352.471 145.765 356.416 148.757 359.375 151.135C364.348 155.152 374.951 166.056 376.348 167.654C377.745 169.171 380.211 169.54 382.718 171.958C385.225 174.418 386.417 175.361 393.074 176.345C399.691 177.41 401.869 178.722 402.773 180.321C403.636 181.96 404.047 192.085 404.047 192.085L404.088 192.126Z" fill="#D68027"/>
<path d="M383.334 192.7C383.334 192.7 384.732 197.66 384.896 199.382C385.06 201.103 387.074 203.645 387.855 203.932C388.677 204.219 394.266 203.932 394.266 203.932L395.088 204.465C395.088 204.465 391.554 204.465 390.444 204.465C389.335 204.465 387.444 205.038 385.718 202.62C383.992 200.16 381.814 197.865 381.855 196.102C381.855 194.34 381.074 189.544 383.334 192.659V192.7Z" fill="#EEAB67"/>
<path d="M360.032 176.836C359.046 176.099 357.731 176.344 356.58 176.099C355.142 175.771 353.704 175.484 352.265 175.156C347.005 173.885 339.32 168.474 339.32 168.474C338.21 167.859 333.607 163.637 333.813 163.35C331.758 161.424 327.607 157.243 327.114 156.71C324.443 153.717 318.771 137.608 315.935 134.738C314.415 133.222 311.209 129.696 308.497 126.663L323.045 102.642C323.045 102.642 326.538 105.348 330.278 108.422C330.607 110.922 330.73 113.505 330.525 116.087C330.114 121.621 327.566 127.975 322.1 129.246C327.032 133.345 322.922 150.93 328.717 153.594C330.402 154.373 333.278 160.235 335.004 162.039C335.128 162.161 335.21 162.284 335.292 162.325C335.703 162.571 336.073 162.817 336.443 163.104C336.443 163.104 336.525 163.186 336.566 163.186C336.977 163.555 337.388 163.924 337.799 164.334C338.703 165.236 339.607 166.138 340.635 166.875C341.868 167.777 342.731 169.13 344.046 169.909C344.703 170.319 345.649 170.319 346.224 170.729C346.512 170.934 346.717 171.508 347.005 171.794C347.375 172.163 347.786 172.45 348.238 172.696C349.142 173.188 350.128 173.434 351.114 173.721C354.156 174.582 357.115 175.607 360.032 176.836Z" fill="#6E4215"/>
<path d="M380.17 193.274L369.115 201.554L375.896 211.679L386.293 203.358L387.156 195.487L380.17 193.274Z" fill="#2B2B2D"/>
<path d="M367.964 205.407C368.745 208.195 371.457 211.023 374.047 211.679C376.595 212.335 378.033 210.572 377.252 207.785C376.471 204.997 373.759 202.169 371.17 201.513C368.622 200.857 367.183 202.62 367.964 205.407Z" fill="#161618"/>
<path d="M363.033 198.316C363.033 198.316 366.855 197.086 371.827 202.374C376.8 207.662 386.869 219.59 388.019 223.239C389.17 226.887 388.43 232.83 375.485 226.6C362.539 220.369 360.813 220.779 358.717 214.671C356.621 208.564 352.101 201.677 363.033 198.357V198.316Z" fill="#BFCFB8"/>
<path d="M369.32 195.119C369.32 195.119 373.142 193.889 378.115 199.177C383.088 204.465 390.937 217.131 392.088 220.779C393.239 224.427 389.951 233.117 377.006 226.887C364.06 220.656 360.238 214.466 358.142 208.359C356.005 202.251 358.43 198.439 369.32 195.16V195.119Z" fill="#86A49D"/>
<path d="M370.964 243.283L384.814 232.339C384.814 232.339 402.486 218.525 367.019 199.013C358.717 194.463 351.649 209.383 351.649 209.383L370.964 243.283Z" fill="#DB5100"/>
<path d="M383.334 143.387C383.334 151.791 379.101 162.284 373.923 166.835C368.745 171.385 364.512 168.269 364.512 159.907C364.512 151.545 368.745 141.01 373.923 136.46C379.101 131.91 383.334 135.025 383.334 143.387Z" fill="#BFCFB8"/>
<path d="M384.526 144.986C384.526 151.791 381.115 160.276 376.882 163.965C372.649 167.654 369.238 165.154 369.238 158.349C369.238 151.545 372.649 143.06 376.882 139.37C381.115 135.681 384.526 138.182 384.526 144.986Z" fill="#CDDAC9"/>
<path d="M380.91 159.62C381.732 168.638 377.047 206.924 377.047 206.924L376.348 209.916L373.225 209.015C373.225 209.015 378.156 164.252 377.211 152.57C377.211 152.57 377.54 148.921 377.992 148.265C378.732 147.2 380.293 153.061 380.869 159.62H380.91Z" fill="#D8E2D4"/>
<path d="M60.7648 290.751C60.7648 298.745 63.9292 307.681 68.8609 315.264C69.3129 315.961 69.765 316.658 70.2582 317.314C73.9569 322.478 78.5186 326.865 83.4092 329.693C88.2997 332.521 92.8615 333.341 96.5602 332.439C97.0123 332.357 97.4232 332.193 97.8342 332.07C102.848 330.226 106.054 324.856 106.054 316.822C106.054 314.69 105.848 312.518 105.396 310.345C105.273 309.648 105.108 308.951 104.944 308.254C102.108 296.572 94.0533 284.562 84.4366 278.495C84.1078 278.29 83.7379 278.044 83.4092 277.88C83.0393 277.675 82.6283 277.429 82.2585 277.224C72.6418 272.264 64.6279 275.052 61.8333 283.496C61.6689 283.988 61.5045 284.521 61.3812 285.053C60.9703 286.734 60.7648 288.661 60.7648 290.751Z" fill="#D5D6D5"/>
<path d="M208.508 363.798L150.931 337.973C150.931 337.973 83.6557 315.264 80.6145 310.099C77.5734 304.934 59.2441 285.176 66.2717 285.791C73.2993 286.406 98.9027 298.744 129.89 314.321C160.877 329.898 201.522 346.13 208.467 363.757L208.508 363.798Z" fill="#434545"/>
<path d="M66.4772 288.784C61.3812 288.251 59.9839 295.096 64.0936 301.614C67.5046 307.025 74.5733 313.501 89.2038 318.461C119.985 328.873 147.397 338.506 147.397 338.506C147.397 338.506 141.027 326.086 117.026 312.231C98.5328 301.532 76.546 289.849 66.4772 288.784Z" fill="#686A6A"/>
<path d="M128.369 299.851C128.369 299.851 123.807 318.625 158.493 343.753C193.179 368.881 206.289 379.989 207.399 371.873C208.508 363.757 211.138 351.746 211.138 351.746L128.369 299.851Z" fill="#686A6A"/>
<path d="M342.361 456.93C342.361 490.543 415.965 561.622 415.965 561.622C415.965 561.622 425.623 557.85 435.404 550.841C443.706 544.897 448.761 533.666 448.761 518.171C448.761 484.558 424.925 443.567 395.54 426.637C366.156 409.708 342.32 423.276 342.32 456.889L342.361 456.93Z" fill="#606062"/>
<path d="M429.946 556.166C450.598 544.124 450.394 505.447 429.489 469.779C408.584 434.11 374.895 414.958 354.242 427C333.589 439.042 333.794 477.719 354.699 513.388C375.604 549.056 409.293 568.209 429.946 556.166Z" fill="#818183"/>
<path d="M424.42 558.278C445.073 546.236 444.869 507.559 423.964 471.89C403.059 436.222 369.37 417.069 348.717 429.112C328.064 441.154 328.268 479.831 349.173 515.499C370.078 551.168 403.768 570.32 424.42 558.278Z" fill="#606062"/>
<path d="M449.624 453.2C449.624 454.306 448.72 456.52 447.035 458.938C444.322 462.874 439.555 467.424 433.432 468.571C429.938 469.309 425.952 468.858 421.719 466.563C402.033 456.028 392.663 425.695 382.06 422.948C373.8 420.817 354.567 422.005 346.47 422.661C345.238 422.743 344.251 422.825 343.594 422.907C343.059 422.907 342.772 422.989 342.772 422.989L351.731 384.129L352.43 381.137L352.758 379.702L353.375 377.079C353.375 377.079 356.375 371.504 363.402 369.168C365.087 368.594 367.019 368.184 369.197 368.143C369.896 368.143 370.594 368.143 371.375 368.143C371.375 368.143 371.457 368.143 371.498 368.143C377.54 368.553 385.266 371.299 394.883 378.473C397.225 380.194 399.65 382.244 402.239 384.539C437.87 416.471 449.624 453.241 449.624 453.241V453.2Z" fill="#FFC03B"/>
<path d="M447.035 458.938C444.322 462.874 439.555 467.424 433.432 468.571C429.938 469.309 425.952 468.858 421.719 466.563C417.897 465.907 407.746 457.053 395.335 448.24C390.033 440.205 385.513 433.401 380.745 432.171C372.485 430.04 353.251 431.228 345.155 431.884C342.854 432.048 341.457 432.171 341.457 432.171L343.594 422.866L350.416 393.311L351.443 388.884L352.06 386.261C352.06 386.261 352.471 385.523 353.293 384.457C354.073 383.473 355.265 382.244 356.827 381.055C358.224 379.989 359.95 379.005 362.046 378.309C363.731 377.735 365.663 377.325 367.841 377.284C368.54 377.284 369.238 377.284 370.019 377.284C370.019 377.284 370.101 377.284 370.142 377.284C376.184 377.694 383.91 380.44 393.526 387.614C395.869 389.335 398.294 391.385 400.883 393.68C429.938 419.71 443.13 449.019 446.994 458.897L447.035 458.938Z" fill="#FFD54D"/>
<path d="M434.171 466.112C434.171 466.686 433.925 467.547 433.473 468.571C429.979 469.309 425.993 468.858 421.76 466.563C417.938 465.907 407.787 457.053 395.376 448.24C389.705 444.223 383.499 440.246 377.293 437.049C371.005 433.811 364.882 433.647 359.17 434.918C349.882 434.262 337.224 435.122 331.059 435.614C328.758 435.778 327.36 435.901 327.36 435.901L336.32 397.042L337.347 392.615L337.963 389.991C337.963 389.991 339.443 387.245 342.731 384.826C344.128 383.719 345.854 382.777 347.95 382.039C349.306 381.588 350.827 381.26 352.471 381.096C352.882 381.096 353.293 381.014 353.745 381.014C354.443 381.014 355.142 381.014 355.923 381.014C355.923 381.014 356.005 381.014 356.046 381.014C356.293 381.014 356.58 381.014 356.827 381.096C362.704 381.67 370.225 384.498 379.389 391.344C381.732 393.065 384.156 395.115 386.746 397.41C422.377 429.343 434.13 466.112 434.13 466.112H434.171Z" fill="#FFC03B"/>
<path d="M314.826 427.785C310.305 432.048 300.113 440.492 296.415 442.05C293.579 440 286.88 444.96 280.305 441.353C261.236 430.941 235.468 414.832 227.166 413.93C225.563 413.766 221.577 404.953 219.522 404.461C205.837 393.639 199.59 383.064 197.494 379.005C196.919 377.858 196.672 377.202 196.672 377.202C196.672 377.202 189.316 358.428 186.439 321.782C183.521 285.791 208.426 285.463 209.33 285.463C208.508 284.521 194.946 270.256 185.699 258.45C176.165 246.235 101.41 208.851 71.3267 206.063C64.2581 205.407 57.5182 206.514 51.3536 208.523C61.1347 201.472 96.1082 185.936 111.889 186.551C159.192 188.437 233.742 215.327 243.276 227.543C252.523 239.389 244.016 251.605 244.879 252.547C243.975 252.547 241.098 254.925 244.016 290.874C246.975 327.52 254.29 346.294 254.29 346.294C254.29 346.294 254.29 346.294 254.372 346.294C256.838 348.344 319.963 400.28 329.785 404.051C333.648 405.527 309.977 428.236 314.949 427.826L314.826 427.785Z" fill="#C34100"/>
<path d="M83.7791 166.343C83.7791 166.343 88.7518 185.445 90.9711 189.503C93.1903 193.561 103.917 205.612 103.917 205.612C103.917 205.612 98.0808 207.867 94.1355 206.473C90.2313 205.079 81.6421 197.168 82.0119 198.603C82.3818 200.078 76.3817 193.725 70.5048 185.609C64.628 177.492 34.2573 153.553 34.3395 147.692C34.4217 141.83 83.7791 166.302 83.7791 166.302V166.343Z" fill="#3F5B72"/>
<path d="M314.826 427.785C310.305 432.048 300.113 440.492 296.414 442.05C293.579 440 286.88 444.96 280.304 441.353C261.235 430.941 235.468 414.832 227.166 413.93C225.563 413.766 221.577 404.953 219.522 404.461C205.837 393.639 199.59 383.064 197.494 379.005C196.919 377.858 196.672 377.202 196.672 377.202L254.208 346.253C254.208 346.253 254.208 346.253 254.29 346.253C256.756 348.303 319.881 400.239 329.703 404.01C333.566 405.486 309.894 428.195 314.867 427.785H314.826Z" fill="#618979"/>
<path d="M317.662 289.48C317.62 290.464 317.579 291.407 317.497 292.391C317.292 296.121 317.086 299.851 316.305 303.499C315.525 307.148 314.127 310.632 312.771 314.116C309.607 322.232 306.401 330.349 303.237 338.465C300.894 344.409 299.086 349.738 295.469 354.985H295.223C294.031 354.985 288.031 354.534 280.921 350.803C280.222 350.516 279.565 350.107 278.907 349.738C273.318 346.458 272.003 342.277 271.839 339.613C271.715 338.014 272.003 336.948 272.003 336.948C272.003 336.948 275.414 334.817 277.14 327.602C278.825 320.388 282.277 312.6 284.702 309.484C287.168 306.41 284.702 299.933 284.702 299.892C283.305 296.244 295.921 295.26 297.688 294.604C301.017 293.375 304.264 289.767 307.017 287.554C310.511 284.807 313.963 282.061 317.456 279.315C317.867 282.676 317.826 286.078 317.662 289.439V289.48Z" fill="#003F64"/>
<path d="M233.988 241.398C233.906 242.258 233.988 243.078 233.988 243.98C234.317 246.604 235.385 249.186 236.824 251.605C240.029 256.892 245.084 261.319 247.879 263.615C249.153 264.64 250.016 265.214 250.016 265.214C250.016 265.214 271.715 290.505 277.428 294.604C284.003 299.4 291.031 301.696 299.086 298.622C304.798 296.449 309.319 291.981 313.387 287.39C315.196 285.34 317.045 283.045 317.292 280.298C317.703 275.83 313.757 271.731 314.456 267.263C314.785 267.673 315.072 268.042 315.401 268.452C308.127 255.745 300.647 243.16 293.62 230.33C288.483 220.943 278.619 210.244 268.797 205.53C262.345 202.456 252.4 199.136 252.4 199.136C252.4 199.136 240.112 220.328 235.591 234.306C234.728 236.971 234.153 239.389 234.029 241.357L233.988 241.398Z" fill="#045175"/>
<path d="M332.826 258.491C332.826 258.491 309.36 259.68 309.278 260.582C309.196 261.483 316.799 304.114 319.388 320.347C321.977 336.579 328.1 371.627 319.799 386.425L311.497 401.223C311.497 401.223 286.305 426.063 293.866 435C301.428 443.936 332.498 413.889 332.498 413.889C332.498 413.889 368.416 386.343 365.992 364.822C363.567 343.302 332.826 258.532 332.826 258.532V258.491Z" fill="#2B2B2D"/>
<path d="M181.261 98.4201C181.261 109.857 178.754 157.079 177.398 163.186C176.083 169.335 110.451 205.202 99.9713 199.177C91.5875 194.381 83.0393 158.062 76.8748 141.461C75.272 137.239 73.8747 134.328 72.6418 133.509C66.6006 129.409 64.5046 122.81 63.9704 107.192C63.4361 91.5745 9.64026 69.8901 9.64026 69.8901C21.0652 56.568 77.5324 27.1772 84.3544 31.0714C84.3544 31.0714 131.945 55.9121 152.164 68.4555C163.713 75.6289 171.521 80.6709 176.083 85.7948C179.576 89.6479 181.22 93.5421 181.22 98.4201H181.261Z" fill="#FCFDFF"/>
<path d="M181.261 98.4201C181.261 109.857 178.754 157.079 177.398 163.186C176.083 169.335 120.355 198.111 98.1219 201.923C98.1219 201.923 101.615 149.208 95.4506 132.607L176.124 85.7948C179.617 89.6479 181.261 93.5421 181.261 98.4201Z" fill="#EAEAEA"/>
<path d="M73.998 167.203C73.998 167.203 78.9707 186.305 81.19 190.364C83.4092 194.422 94.1355 206.473 94.1355 206.473C94.1355 206.473 83.6147 205.161 79.7105 203.768C75.8063 202.374 71.9021 197.988 72.272 199.464C72.6418 200.939 66.6417 194.586 60.7648 186.469C54.888 178.353 24.5173 154.414 24.5995 148.552C24.6817 142.691 74.0391 167.162 74.0391 167.162L73.998 167.203Z" fill="#6A80A7"/>
<path d="M13.8732 70.9559C13.8732 70.9559 54.6003 91.9435 74.8199 104.487C95.0396 117.03 103.875 123.015 103.875 134.451C103.875 145.888 101.327 193.069 100.012 199.218C98.6972 205.366 91.6286 201.308 81.1078 195.241C70.628 189.216 15.1472 153.143 9.14707 149.044C3.14692 144.945 1.00989 138.346 0.475631 122.728C-0.0586286 107.11 -0.839469 101.248 2.57157 87.8853C5.98262 74.5222 7.01004 67.1027 13.8732 70.9559Z" fill="#C8C7C4"/>
<path d="M188.987 374.045L131.41 348.221C131.41 348.221 72.8473 341.006 46.463 317.068C42.0246 313.05 39.6821 295.424 46.7507 296.08C53.7783 296.695 79.3817 309.033 110.369 324.61C141.356 340.187 182.001 356.419 188.946 374.045H188.987Z" fill="#434545"/>
<path d="M52.7509 301.737C47.6549 301.204 46.2576 308.049 50.3673 314.567C53.7783 319.978 62.4087 324.282 77.0392 329.242C83.8613 331.538 90.1491 333.792 95.7794 335.883C102.807 338.465 107.697 328.668 101.327 324.733C100.136 323.995 98.8616 323.216 97.5465 322.478C79.0529 311.78 62.8607 302.803 52.792 301.737H52.7509Z" fill="#686A6A"/>
<path d="M108.807 310.099C108.807 310.099 104.245 328.873 138.931 354.001C173.617 379.128 186.727 390.237 187.836 382.121C188.946 374.005 191.576 361.994 191.576 361.994L108.807 310.099Z" fill="#686A6A"/>
<path d="M417.617 560.543C438.269 548.501 438.065 509.824 417.16 474.155C396.255 438.487 362.566 419.334 341.913 431.377C321.26 443.419 321.465 482.096 342.37 517.765C363.275 553.433 396.964 572.586 417.617 560.543Z" fill="#4F4F51"/>
<path d="M415.584 557.075C435.12 545.684 434.92 509.088 415.138 475.335C395.355 441.582 363.482 423.454 343.946 434.845C324.41 446.236 324.61 482.832 344.392 516.585C364.174 550.338 396.048 568.466 415.584 557.075Z" fill="#2B2B2D"/>
<path d="M414.198 518.54C414.198 526.943 412.02 533.502 408.239 537.847C407.828 538.339 407.417 538.789 406.924 539.199C405.239 540.839 403.225 542.11 401.047 542.93C400.349 543.176 399.691 543.381 398.992 543.544C393.074 545.02 385.8 543.667 377.951 539.158C370.142 534.649 362.868 527.599 356.909 519.36C356.169 518.294 355.389 517.228 354.69 516.08C346.758 503.906 341.744 489.6 341.744 476.852C341.744 473.49 342.073 470.416 342.772 467.711C342.936 466.85 343.183 466.03 343.47 465.21C347.95 451.642 360.772 447.215 376.143 455.126C376.759 455.454 377.375 455.823 377.992 456.192C378.567 456.479 379.143 456.848 379.677 457.217C380.663 457.832 381.608 458.488 382.595 459.184C384.608 460.619 386.54 462.218 388.43 463.98C397.718 472.425 405.362 484.148 409.842 496.322C410.664 498.495 411.404 500.668 411.938 502.881C412.184 503.537 412.308 504.152 412.472 504.808C412.76 505.955 413.048 507.062 413.212 508.21C413.911 511.694 414.239 515.219 414.239 518.581L414.198 518.54Z" fill="#606062"/>
<path d="M416.006 516.818C416.006 525.221 413.828 531.78 410.047 536.125C409.636 536.617 409.225 537.068 408.732 537.478C407.047 539.117 405.034 540.388 402.855 541.208C402.198 541.454 401.499 541.659 400.801 541.823C394.883 543.298 387.608 541.946 379.759 537.437C371.951 532.928 364.676 525.877 358.717 517.638C357.978 516.572 357.197 515.506 356.498 514.359C348.525 502.184 343.553 487.878 343.553 475.13C343.553 471.769 343.881 468.694 344.58 465.989C344.744 465.128 344.991 464.308 345.279 463.488C349.758 449.92 362.58 445.493 377.951 453.405C378.567 453.733 379.184 454.101 379.8 454.47C380.375 454.757 380.951 455.126 381.485 455.495C382.471 456.11 383.417 456.766 384.403 457.463C386.417 458.897 388.348 460.496 390.239 462.259C399.527 470.703 407.171 482.426 411.65 494.601C412.472 496.773 413.212 498.946 413.746 501.159C413.993 501.815 414.116 502.43 414.28 503.086C414.568 504.234 414.856 505.341 415.02 506.488C415.678 509.973 416.048 513.498 416.048 516.859L416.006 516.818Z" fill="white"/>
<path d="M391.102 532.026C383.252 527.517 375.978 520.507 370.06 512.186C369.279 511.12 368.54 510.055 367.841 508.907C359.909 496.732 354.854 482.426 354.854 469.637C354.854 466.317 355.224 463.243 355.882 460.537C356.087 459.635 356.334 458.815 356.58 458.037C357.69 454.634 359.334 451.806 361.43 449.633C353.786 450.371 347.909 455.208 345.197 463.488C344.909 464.267 344.662 465.087 344.498 465.989C343.84 468.694 343.47 471.769 343.47 475.089C343.47 487.878 348.525 502.184 356.457 514.359C357.197 515.465 357.937 516.572 358.676 517.638C364.594 525.918 371.868 532.969 379.718 537.478C387.567 541.987 394.842 543.339 400.76 541.864C401.458 541.7 402.157 541.495 402.814 541.249C405.28 540.347 407.458 538.83 409.308 536.863C403.965 537.355 397.718 535.838 391.102 532.026Z" fill="#979790"/>
<path d="M395.129 498.987L410.047 536.166C409.636 536.658 409.225 537.109 408.732 537.519C408.568 537.519 403.02 541.208 402.855 541.249L385.841 502.594L370.142 512.637C368.663 514.072 359.457 518.786 358.758 517.638L378.362 488.657L345.279 463.529C345.443 462.628 352.553 460.086 352.799 459.266L381.403 480.336L384.362 457.463C386.376 458.897 388.307 460.496 390.198 462.259L392.91 486.813L411.609 494.601C412.431 496.773 413.664 500.873 414.239 503.086L395.129 498.987Z" fill="#595B5A"/>
<path d="M370.8 492.838L356.498 514.318C357.238 515.424 357.978 516.531 358.717 517.597L379.759 505.955L400.801 541.823C401.499 541.659 402.198 541.454 402.855 541.208L387.609 503.209L414.979 506.447C414.774 505.341 414.527 504.193 414.239 503.086L385.348 491.035L381.444 455.454C380.869 455.126 380.334 454.757 379.759 454.429C379.143 454.06 378.526 453.733 377.91 453.405L373.841 484.476L345.279 463.447C344.991 464.226 344.744 465.046 344.58 465.948L370.841 492.838H370.8Z" fill="#8B8D8C"/>
<path d="M358.101 478.573C358.101 486.567 361.265 495.503 366.197 503.086C366.649 503.783 367.101 504.48 367.594 505.136C371.293 510.301 375.855 514.687 380.745 517.515C385.636 520.343 390.198 521.163 393.896 520.261C394.348 520.179 394.759 520.015 395.17 519.892C400.184 518.048 403.39 512.678 403.39 504.644C403.39 502.512 403.184 500.34 402.732 498.167C402.609 497.47 402.445 496.773 402.28 496.077C399.444 484.394 391.389 472.384 381.773 466.317C381.444 466.112 381.074 465.866 380.745 465.702C380.375 465.497 379.964 465.251 379.595 465.046C369.978 460.086 361.964 462.874 359.169 471.318C359.005 471.81 358.841 472.343 358.717 472.875C358.306 474.556 358.101 476.483 358.101 478.573Z" fill="#A9ABA9"/>
<path d="M356.046 479.598C356.046 487.591 359.211 496.527 364.142 504.111C364.594 504.808 365.046 505.505 365.539 506.16C369.238 511.325 373.8 515.711 378.69 518.54C383.581 521.368 388.143 522.188 391.841 521.286C392.294 521.204 392.705 521.04 393.115 520.917C398.129 519.073 401.335 513.703 401.335 505.668C401.335 503.537 401.129 501.364 400.677 499.192C400.554 498.495 400.39 497.798 400.225 497.101C397.39 485.419 389.335 473.408 379.718 467.342C379.389 467.137 379.019 466.891 378.69 466.727C378.321 466.522 377.91 466.276 377.54 466.071C367.923 461.111 359.909 463.898 357.115 472.343C356.95 472.834 356.786 473.367 356.663 473.9C356.252 475.581 356.046 477.507 356.046 479.598Z" fill="#D5D6D5"/>
<path d="M345.813 393.803C345.813 393.803 359.991 432.786 361.224 434.836C364.882 440.984 373.553 436.762 379.677 459.922C384.937 479.803 393.239 513.99 388.595 515.506C383.951 517.023 373.923 506.283 366.69 482.467C359.457 458.651 342.443 402.207 342.443 402.207L345.854 393.844L345.813 393.803Z" fill="#434545"/>
<path d="M344.375 403.518C344.375 403.518 357.156 438.689 358.265 440.574C361.594 446.149 367.964 437.787 373.471 458.651C378.197 476.606 385.513 505.75 385.43 512.883C385.389 517.269 373.882 502.881 369.814 480.787C365.005 454.716 354.032 467.752 341.251 411.102C340.799 409.093 344.334 403.518 344.334 403.518H344.375Z" fill="#616363"/>
<path d="M421.719 466.563C417.897 465.907 407.746 457.053 395.335 448.24C389.663 444.223 383.458 440.246 377.252 437.049C370.964 433.811 364.841 433.647 359.128 434.918C349.388 436.926 340.758 442.829 333.936 444.305C332.087 444.714 330.402 444.837 328.84 444.428C318.237 441.681 314.826 436.352 314.826 436.352L325.47 415.324L334.388 397.656C334.388 397.656 335.662 388.146 342.69 384.785C344.498 383.883 346.717 383.432 349.43 383.678C350.169 383.678 350.991 383.883 351.772 384.047C352.265 384.17 352.799 384.293 353.334 384.416C358.06 385.769 363.855 389.007 371.088 395.074C372.115 395.935 373.184 396.878 374.293 397.861C409.924 429.794 421.719 466.522 421.719 466.522V466.563Z" fill="#E57423"/>
<path d="M392.458 443.198C396.362 443.608 399.691 444.796 402.527 446.6C404.088 447.01 405.568 447.543 406.924 448.199C398.951 433.483 383.17 410.651 358.142 401.059C358.142 401.059 350.827 415.242 345.649 424.793C350.95 424.424 356.539 424.916 362.17 426.022C369.403 427.457 376.184 429.261 382.348 433.647C386.376 436.516 389.581 439.755 392.54 443.198H392.458Z" fill="#FF8600"/>
<g style="mix-blend-mode:multiply">
<path d="M394.924 378.432C394.02 382.039 392.499 385.564 389.91 387.204C383.663 391.098 376.8 395.115 371.088 395.115C365.416 395.197 360.115 391.262 357.115 398.968C355.758 402.452 351.484 412.454 346.512 422.702C342.484 430.982 337.922 439.304 333.977 444.346C332.128 444.755 330.443 444.878 328.881 444.469C318.278 441.722 314.867 436.393 314.867 436.393L325.511 415.365C332.991 405.199 341.827 393.147 349.471 383.76C350.621 382.326 351.731 380.973 352.841 379.702C357.115 374.701 360.772 370.889 363.485 369.127C364.553 368.43 365.416 368.061 366.115 368.061C367.019 368.061 368.129 368.061 369.279 368.061C369.978 368.061 370.677 368.061 371.457 368.061C371.457 368.061 371.54 368.061 371.581 368.061C377.622 368.471 385.348 371.217 394.965 378.391L394.924 378.432Z" fill="#BE5900"/>
</g>
<path d="M390.65 379.374C390.65 379.374 385.595 387.204 371.088 389.581C370.964 389.376 369.526 387.737 368.005 384.17C364.389 375.767 358.224 356.173 343.512 324.774C322.84 280.626 309.319 271.854 307.798 269.395C307.552 269.026 306.196 266.812 305.127 265.501C304.634 264.189 304.305 263.205 304.346 262.877C305.086 256.032 358.306 245.538 358.306 245.538C358.306 245.538 360.731 245.456 381.033 288.743C401.294 331.988 390.691 379.374 390.691 379.374H390.65Z" fill="#FFD54D"/>
<path d="M307.757 446.764C307.757 446.764 320.99 440.779 330.073 434.795C339.155 428.851 346.717 400.895 352.142 395.689C357.567 390.483 360.567 383.596 360.567 383.596C360.567 383.596 346.47 379.497 337.059 399.214C327.648 418.931 309.483 446.723 309.483 446.723H307.716L307.757 446.764Z" fill="#4C4C4E"/>
<path d="M371.088 389.581C371.088 389.581 370.142 389.212 368.951 388.884C367.923 388.597 366.608 388.269 365.087 388.105C359.539 387.532 351.361 388.72 345.443 398.558C338.868 409.38 329.087 428.359 316.552 440.164C310.305 446.067 303.36 450.125 295.839 450.535C273.113 451.683 278.989 447.789 259.92 437.377C240.893 426.965 224.741 416.553 216.44 415.693C208.138 414.832 172.959 379.21 172.959 379.21C172.959 379.21 148.055 336.866 146.082 335.186C144.109 333.505 139.219 328.709 138.027 328.873C136.589 328.873 71.5322 308.787 47.1617 284.725C22.7091 260.582 27.7229 264.312 27.7229 264.312C27.7229 264.312 36.4354 213.114 56.4496 206.514C62.6142 204.506 69.6828 201.759 76.4227 204.055C158.329 232.052 170.946 250.826 180.48 263.041C189.727 274.847 208.467 284.562 209.289 285.463C208.385 285.463 183.521 285.791 186.398 321.782C189.316 358.428 196.631 377.202 196.631 377.202C196.631 377.202 212.864 390.565 230.413 404.461C248.126 418.48 267.112 433.073 272.167 435C277.756 437.131 284.25 439.099 292.469 435.696C296.209 434.139 300.278 431.474 304.798 427.252C308.086 424.178 311.62 420.202 315.401 415.201C335.662 388.269 340.1 373.185 338.374 363.511C336.648 353.878 309.031 287.677 309.73 280.831C309.894 279.356 303.648 266.894 303.565 265.665C303.442 264.066 304.223 264.517 305.127 265.583C306.237 266.894 307.552 269.108 307.798 269.477C309.36 271.977 322.84 280.708 343.512 324.856C358.265 356.255 363.69 374.578 368.005 384.252C369.567 387.778 370.964 389.458 371.088 389.663V389.581Z" fill="#E18802"/>
<path d="M340.922 403.764C334.84 414.176 327.032 426.965 317.662 435.737C311.415 441.64 304.469 445.698 296.949 446.108C274.222 447.256 280.099 443.362 261.03 432.95C242.002 422.538 225.851 412.126 217.549 411.266C209.248 410.405 174.069 374.783 174.069 374.783C174.069 374.783 149.164 332.439 147.192 330.759C145.219 329.078 140.328 324.282 139.137 324.446C137.698 324.446 72.6418 304.36 48.2713 280.298C33.1477 265.378 29.2846 261.114 28.5448 260.008C28.0106 262.672 27.7229 264.271 27.7229 264.271C27.7229 264.271 22.7091 260.541 47.1617 284.684C71.5322 308.787 136.589 328.832 138.027 328.832C139.219 328.668 144.15 333.464 146.082 335.145C148.055 336.825 172.959 379.169 172.959 379.169C172.959 379.169 208.138 414.791 216.44 415.652C224.783 416.512 240.893 426.924 259.92 437.336C278.989 447.748 273.113 451.642 295.839 450.494C303.36 450.084 310.305 446.026 316.552 440.123C328.141 429.22 337.347 412.249 343.881 401.182C342.977 402.125 341.95 402.985 340.922 403.723V403.764Z" fill="#A34503"/>
<g style="mix-blend-mode:multiply">
<path d="M127.835 222.993C127.835 222.993 121.218 228.567 129.15 233.404C137.082 238.241 170.822 259.721 176.822 271.772C182.781 283.824 190.508 296.859 190.508 296.859C190.508 296.859 199.138 300.917 201.481 303.745C204.111 306.984 207.686 320.593 206.33 340.802C205.467 353.837 208.508 370.233 208.508 370.233C208.508 370.233 231.522 385.974 233.947 389.54C236.372 393.106 252.811 409.134 252.811 409.134L250.674 380.973L222.728 361.42C222.728 361.42 221.084 342.154 221.782 333.423C222.563 323.79 223.18 311.493 223.18 311.493C223.18 311.493 225.522 347.36 232.714 358.674C234.481 361.42 291.77 396.878 291.77 396.878L273.523 366.298L251.167 359.453L243.851 337.809C243.851 337.809 240.523 313.624 239.125 305.385C235.92 286.365 240.399 280.052 240.399 280.052L127.876 222.911L127.835 222.993Z" fill="#BE5900"/>
</g>
<path d="M310.141 391.836C309.442 397.001 306.442 400.772 301.099 401.059C294.072 401.387 285.442 393.065 283.757 390.688C282.113 388.351 280.346 381.26 277.017 376.997C273.729 372.693 258.729 365.314 260.003 360.436C260.537 358.387 261.071 356.378 261.688 354.493C261.688 354.411 261.688 354.37 261.688 354.329C262.551 351.746 263.701 349.41 265.427 347.36C267.482 344.86 270.77 343.548 272.578 343.015C273.482 345.188 275.332 347.688 278.866 349.738C279.524 350.107 280.181 350.475 280.88 350.803C286.017 353.509 290.62 354.452 293.168 354.78L293.497 355.026C293.497 355.026 293.949 363.101 295.839 365.068C297.73 367.036 301.305 376.218 302.415 377.079C303.483 377.94 309.401 379.333 310.182 386.876C310.387 388.638 310.346 390.319 310.1 391.877L310.141 391.836Z" fill="#BDBDB9"/>
<path d="M311.209 388.802C311.004 389.909 310.593 390.893 310.1 391.836C308.579 394.746 305.908 396.714 302.291 396.919C295.264 397.247 286.633 388.884 284.948 386.548C283.346 384.211 281.537 377.079 278.25 372.816C274.921 368.553 259.92 361.174 261.235 356.296C261.4 355.681 261.523 355.108 261.688 354.493C261.688 354.411 261.688 354.37 261.688 354.329C262.838 350.148 264.112 346.294 266.66 343.22C268.099 341.498 270.071 340.351 271.797 339.654C271.797 340.597 272.044 341.785 272.578 343.056C273.482 345.229 275.332 347.729 278.866 349.779C279.524 350.148 280.181 350.516 280.88 350.844C286.017 353.55 290.62 354.493 293.168 354.821C294.154 354.985 294.812 354.985 295.182 355.026C295.551 357.321 296.414 359.576 296.702 362.609C297.113 366.995 301.058 369.127 303.689 372.57C307.1 377.038 312.524 382.695 311.168 388.884L311.209 388.802Z" fill="#3B3B30"/>
<g style="mix-blend-mode:multiply">
<path d="M241.221 248.858C240.358 250.088 239.66 251.523 239.249 252.957C238.714 254.925 239.495 255.458 240.81 256.933C242.947 259.352 245.331 261.565 247.838 263.574C249.112 264.599 249.975 265.173 249.975 265.173C249.975 265.173 271.674 290.464 277.387 294.563C279.318 295.957 281.743 297.884 284.661 299.892C284.661 299.892 287.168 306.369 284.661 309.484C282.195 312.6 278.784 320.388 277.099 327.602C275.414 334.817 272.003 336.948 272.003 336.948C272.003 336.948 270.03 344.491 278.907 349.738C279.565 350.148 280.222 350.516 280.88 350.803C283.181 346.909 284.537 342.154 285.935 338.014C289.592 327.069 291.812 315.674 292.51 304.196C292.716 301.286 292.839 298.376 292.839 295.424C292.839 294.481 292.839 293.498 292.305 292.719C291.77 291.858 290.743 291.407 289.798 291.038C282.729 288.169 292.181 268.657 284.784 266.935C270.975 263.738 256.139 260.131 246.769 248.612C246.153 247.833 245.454 246.973 244.468 246.809C243.235 246.604 242.166 247.628 241.427 248.612C241.345 248.694 241.303 248.776 241.221 248.858Z" fill="#9DC4A7"/>
</g>
<g style="mix-blend-mode:multiply">
<path d="M309.401 279.315C309.401 279.315 309.935 283.168 310.675 285.668C311.415 288.169 321.607 285.668 321.607 285.668C321.607 285.668 320.785 283.291 325.1 281.692C331.84 279.192 324.771 282.512 342.196 278.003C352.347 275.379 364.142 266.648 364.307 264.394C364.471 262.18 364.183 261.811 364.882 260.869C365.581 259.926 366.649 258.491 366.649 258.491L362.128 251.031C362.128 251.031 307.963 259.393 309.401 279.274V279.315Z" fill="#BB3E00"/>
</g>
<path d="M51.9701 275.871C51.9701 275.871 62.7786 184.584 154.671 271.977C184.22 300.056 171.357 355.517 171.357 355.517C171.357 355.517 163.754 360.19 160.548 358.305C139.013 345.68 61.0525 290.177 51.9701 275.871Z" fill="#FFC03B"/>
<path d="M44.9425 277.183C44.9425 277.183 55.751 185.895 147.644 273.289C177.192 301.368 164.329 356.829 164.329 356.829C164.329 356.829 161.165 358.756 160.507 358.305C134.041 340.761 53.3674 290.505 44.9425 277.183Z" fill="#E18802"/>
<path d="M173.042 167.49C152.699 167.408 127.958 178.64 129.232 187.248C131.616 203.317 144.356 210.941 150.109 216.762C155.863 222.583 196.672 255.171 200.7 263.369C204.727 271.567 204.481 300.63 204.481 300.63L248.372 276.609C248.372 276.609 257.537 257.261 256.057 243.57C254.578 229.879 250.674 220.328 234.317 211.597C217.96 202.866 209.988 199.259 195.604 183.846C181.179 168.392 174.439 167.49 173.042 167.49Z" fill="#59595B"/>
<path d="M201.809 242.013C201.809 242.013 169.302 219.016 172.918 209.875C176.042 201.882 187.179 191.101 210.727 201.349C234.276 211.597 260.783 243.283 260.783 243.283L248.331 276.609L217.508 293.498C217.508 293.498 225.399 256.36 201.768 242.013H201.809Z" fill="#3E3E40"/>
<path d="M129.232 187.289C129.232 187.289 126.808 190.364 127.26 206.596C127.712 222.829 124.835 221.271 130.547 227.092C136.301 232.912 177.11 265.501 181.138 273.699C185.165 281.897 193.59 295.998 193.59 295.998L204.481 300.712C204.481 300.712 213.645 281.364 212.166 267.673C210.686 253.982 206.782 244.431 190.426 235.7C174.069 226.969 166.096 223.362 151.712 207.949C137.287 192.495 129.808 186.059 129.232 187.33V187.289Z" fill="#2B2B2D"/>
<path d="M273.688 402.043C274.428 404.133 275.455 404.707 274.756 406.961C274.222 408.724 273.523 410.733 271.839 411.676C269.701 412.864 267.153 413.069 264.77 413.438C258.811 414.299 252.359 409.913 249.194 405.199C247.263 402.411 244.797 400.075 243.03 397.165C241.303 394.377 239.783 391.303 237.646 388.884C235.098 386.015 232.92 382.818 230.084 380.276C228.276 378.637 224.166 375.398 225.152 372.488C226.714 367.692 228.235 363.142 231.44 359.781C234.646 356.419 240.235 355.599 240.235 355.599L258.934 369.168C258.934 369.168 258.893 377.243 260.66 379.333C262.427 381.424 265.386 390.852 266.414 391.754C267.688 392.861 269.332 393.434 270.523 394.664C271.51 395.648 272.291 396.837 272.784 398.148C273.236 399.378 273.236 400.731 273.688 401.961V402.043Z" fill="#BDBDB9"/>
<path d="M266.784 387.368C270.565 393.024 281.044 406.675 268.674 408.888C265.838 409.38 262.797 409.175 260.044 408.273C255.153 406.634 251.372 402.575 248.701 398.312C247.879 397.042 247.263 395.648 246.4 394.377C244.92 392.164 242.865 390.36 241.016 388.433C237.728 384.99 235.386 380.973 232.55 377.202C230.865 374.988 225.481 371.914 226.632 368.43C228.194 363.634 229.714 359.084 232.92 355.722C236.125 352.361 241.715 351.541 241.715 351.541L260.414 365.109C260.414 365.109 260.373 373.185 262.099 375.275C264.934 378.637 264.277 383.678 266.701 387.286L266.784 387.368Z" fill="#3B3B30"/>
<path d="M243.934 363.183C244.591 363.593 245.249 363.962 245.906 364.249C253.879 368.43 260.455 368.43 260.455 368.43C260.455 368.43 277.551 337.768 282.113 327.151C290.661 307.394 292.962 288.948 292.962 288.948C287.702 289.398 282.441 290.013 277.181 290.669C274.017 291.079 270.523 292.227 267.4 292.268C264.153 292.268 260.249 290.3 257.578 288.661C256.756 288.169 255.975 287.595 255.071 287.349C254.167 287.062 253.057 287.144 252.4 287.8C251.783 288.374 251.578 289.276 251.413 290.136C249.728 299.277 246.605 307.722 244.468 316.699C242.906 323.38 242.824 330.308 241.262 336.948C240.687 339.408 240.523 342.154 239.66 344.491C238.632 347.319 236.701 349.328 236.783 352.484C236.947 357.157 239.947 360.846 243.893 363.183H243.934Z" fill="#196482"/>
<path d="M193.59 229.387C195.439 234.142 198.193 238.487 201.809 242.054C204.809 244.964 209.001 249.965 212.33 252.629C219.769 258.573 227.495 267.837 234.892 273.781C243.523 280.667 249.852 289.89 256.797 298.458C256.674 298.171 256.509 297.843 256.386 297.556C258.194 299.728 259.756 303.008 261.811 304.852C264.153 306.984 268.674 306.41 271.592 306.41C282.606 306.41 289.017 300.548 291.729 293.498C292.305 292.063 292.675 290.505 292.962 289.03C293.25 287.267 293.332 285.504 293.209 283.824C292.51 273.494 281.825 257.917 260.455 233.076C253.345 224.796 242.578 209.752 231.687 204.547C225.235 201.472 215.289 198.152 215.289 198.152C215.289 198.152 197.165 199.177 192.645 213.155C191.289 217.459 191.165 220.41 192.111 224.714C192.439 226.272 192.932 227.83 193.549 229.428L193.59 229.387Z" fill="#1C688A"/>
<path d="M310.634 85.0159C310.634 85.0159 318.648 93.0912 321.853 96.6165C322.716 97.5593 323.579 98.5021 324.401 99.4449C326.662 101.986 328.511 104.569 328.675 107.356C328.881 111.168 327.73 120.965 318.566 125.105C309.401 129.246 301.387 125.966 301.387 125.966L310.634 85.0159Z" fill="#00D68F"/>
<path d="M301.387 125.966L308.127 96.1246C308.702 95.9196 309.237 95.7556 309.853 95.6737C310.552 100.429 311.25 105.184 311.949 109.898C312.319 112.316 312.689 114.776 313.387 117.112C313.881 118.629 314.497 120.104 315.442 121.416C316.346 122.687 317.538 123.999 318.894 124.9C318.771 124.941 318.689 125.064 318.525 125.105C309.36 129.246 301.346 125.966 301.346 125.966H301.387Z" fill="#02A834"/>
<path d="M287.62 72.3496L310.634 85.0159C310.634 85.0159 319.716 90.3858 305.949 125.146C292.181 159.866 282.113 203.153 282.113 203.153C282.113 203.153 268.962 220.861 232.427 223.566C195.891 226.272 203.7 207.908 203.7 207.908L198.891 106.782C198.891 106.782 214.015 94.4029 227.413 88.8691C240.81 83.3353 275.373 57.8387 287.62 72.3496Z" fill="#50AF53"/>
<path d="M215.536 141.543C217.138 145.806 219.974 149.618 221.166 154.045C223.139 161.424 222.563 178.886 220.55 186.264C216.481 201.144 215.906 216.639 214.549 232.011C196.878 228.567 190.138 212.007 190.138 212.007L198.891 106.741C198.891 106.741 214.015 94.3619 227.413 88.8281C240.81 83.2943 275.373 57.7977 287.62 72.3086L310.634 84.9749C310.634 84.9749 310.922 85.1799 311.333 85.6308C303.853 85.1799 296.414 84.524 288.894 84.77C268.633 85.4258 248.495 89.8119 229.796 97.6002C223.919 100.06 218.618 103.626 213.111 106.823C211.796 107.602 210.481 108.381 209.536 109.57C208.426 110.922 207.974 112.685 207.686 114.407C205.837 125.187 212.042 132.197 215.536 141.502V141.543Z" fill="#247122"/>
<path d="M211.59 210.9C215.947 209.097 219.399 205.776 219.974 206.965C219.974 206.965 216.81 212.171 215.166 215.163C213.686 213.975 212.412 212.54 211.632 210.9H211.59Z" fill="#F2BC85"/>
<path d="M214.138 217.254C214.138 217.254 214.467 216.311 215.125 215.163C218.988 218.484 223.961 220.369 223.385 220.738C222.687 221.23 217.837 221.025 212.947 220.451C208.344 219.836 215.412 218.525 214.138 217.295V217.254Z" fill="#F2BC85"/>
<path d="M223.919 198.111C223.919 199.095 223.92 199.833 223.673 200.365C222.07 204.833 212.125 200.898 210.892 205.079C210.234 207.211 210.604 209.179 211.549 210.9C209.289 211.884 206.741 212.417 204.193 211.679C201.933 211.064 199.672 209.506 197.617 206.35C195.768 203.522 194.083 199.587 192.686 194.012C190.097 183.6 188.987 166.138 191.658 150.889C192.11 148.102 192.727 145.396 193.467 142.855C196.467 132.279 219.399 159.251 219.399 159.251C219.399 159.251 220.015 160.317 220.221 162.489C220.385 164.293 220.303 166.835 219.399 170.196C219.317 170.483 219.317 170.934 219.399 171.549C219.687 176.467 223.591 190.814 223.919 197.537C223.919 197.537 223.919 197.783 223.919 198.152V198.111Z" fill="#A2601D"/>
<path d="M41.1205 278.659C41.1205 278.659 51.929 187.371 143.822 274.765C173.37 302.844 160.507 358.305 160.507 358.305C160.507 358.305 51.518 295.096 41.1205 278.659Z" fill="#E17200"/>
<path d="M352.594 251.195C352.471 249.473 352.594 247.71 353.005 245.989C353.169 242.709 354.115 239.635 355.923 236.848C357.608 234.593 359.252 232.216 361.265 230.166C361.553 229.879 361.759 229.592 362.046 229.346C363.444 227.379 364.923 225.452 366.649 223.771C369.361 221.066 372.567 219.221 375.978 218.074C375.855 212.13 375.896 207.949 375.896 207.949L369.156 202.415C369.156 202.415 369.033 202.292 368.95 202.251C360.567 195.446 348.566 195.282 339.443 201.062C326.538 209.22 304.058 220.697 299.743 222.747C299.743 222.747 295.675 231.888 298.51 241.767C301.346 251.645 309.278 269.354 309.278 269.354L314.908 269.928C320.538 270.501 333.196 268.862 333.196 268.862L332.374 266.238C331.881 264.681 342.936 257.015 352.594 251.236V251.195Z" fill="#FFD54D"/>
<path d="M362.622 256.974L343.512 266.402C340.963 267.878 338.292 269.026 335.621 269.805L332.333 270.337C332.333 270.337 331.265 270.338 329.908 270.747C329.662 270.747 329.415 270.747 329.21 270.747H328.963C326.004 270.379 323.251 268.698 322.963 263.697C322.347 252.588 325.593 236.971 325.593 236.971L375.814 207.867L377.951 226.19C379.43 238.61 373.389 250.703 362.539 256.974H362.622Z" fill="#E5EBEB"/>
<path d="M367.224 248.53C365.416 250.58 363.238 252.342 360.731 253.736L341.868 263C339.361 264.435 337.059 265.46 334.84 266.074L332.498 266.443H332.251C331.758 266.443 331.059 266.525 329.333 266.976C328.059 266.771 326.991 266.279 326.826 263.492C326.621 260.418 326.826 256.933 327.114 253.613C327.114 253.285 327.114 252.916 327.196 252.588C327.73 247.013 328.593 241.89 329.087 239.348L355.882 223.812L372.855 213.975L374.375 226.6C375.321 234.716 372.649 242.668 367.307 248.489L367.224 248.53Z" fill="#BBDDBD"/>
<path d="M355.841 223.853C355.06 232.667 350.046 240.66 342.196 245.21L327.155 252.629C327.689 247.054 328.552 241.931 329.045 239.389L355.841 223.853Z" fill="#CFE7D1"/>
<g style="mix-blend-mode:multiply">
<path d="M367.224 248.53C360.896 244.103 355.347 240.619 354.115 240.537C351.156 240.332 330.114 252.014 327.073 253.654C327.073 253.326 327.073 252.957 327.155 252.629C327.689 247.054 328.552 241.931 329.045 239.389L355.841 223.853L372.814 214.016L374.334 226.641C375.279 234.757 372.608 242.709 367.266 248.53H367.224Z" fill="#84B3D9"/>
</g>
<path d="M329.004 270.788C323.497 270.706 318.689 268.247 316.059 262.221C315.237 260.336 315.894 253.982 316.141 252.67C317.292 246.194 325.675 237.012 325.675 237.012C325.675 237.012 322.429 252.629 323.045 263.738C323.292 268.739 326.045 270.42 329.045 270.788H329.004Z" fill="#C5E2C7"/>
<path d="M335.662 269.805C333.73 270.379 331.799 270.706 329.991 270.747C331.347 270.379 332.292 270.174 332.415 270.297L335.703 269.805H335.662Z" fill="#C5E2C7"/>
<path d="M329.251 270.788C329.251 270.788 329.539 270.788 329.703 270.788C325.675 271.895 318.196 274.191 315.894 273.74C312.566 273.084 311.99 273.863 312.812 276.445C313.675 279.028 304.511 280.462 304.511 280.462C304.511 280.462 300.976 280.708 295.346 280.093L289.716 279.52C289.716 279.52 288.647 267.796 285.853 257.917C283.058 248.038 290.127 246.194 288.894 239.389C287.168 229.633 294.442 226.231 299.743 222.665C299.743 222.665 312.196 225.903 318.936 231.478L325.634 237.012C325.634 237.012 322.388 252.629 323.004 263.738C323.251 268.739 326.004 270.42 329.004 270.788H329.251Z" fill="#E18802"/>
<path d="M336.402 269.682C335.744 269.928 332.703 270.993 329.744 270.829C329.826 270.829 329.908 270.829 329.991 270.747C331.347 270.379 332.292 270.174 332.415 270.297L335.703 269.805L336.443 269.682H336.402Z" fill="#6AB1A7"/>
<path d="M304.511 280.462L315.853 273.74C315.853 273.74 331.47 258.491 296.004 239.02C287.702 234.47 280.633 249.391 280.633 249.391L304.511 280.503V280.462Z" fill="#DB5100"/>
<path d="M280.633 249.391C280.633 249.391 284.455 248.161 289.428 253.449C294.401 258.737 304.305 272.797 305.456 276.445C306.607 280.093 301.264 287.39 288.318 281.159C275.373 274.929 271.551 268.739 269.455 262.631C267.359 256.523 269.743 252.711 280.633 249.432V249.391Z" fill="#86A49D"/>
<path d="M274.387 252.588C274.387 252.588 278.209 251.359 283.181 256.646C288.154 261.934 300.278 275.256 301.428 278.905C302.579 282.553 299.784 287.103 286.839 280.872C273.893 274.642 272.167 275.052 270.071 268.944C267.975 262.836 263.455 255.95 274.387 252.629V252.588Z" fill="#BFCFB8"/>
<path d="M269.455 262.59C269.455 265.501 271.304 268.944 273.606 270.256C275.907 271.567 277.756 270.256 277.756 267.386C277.756 264.517 275.907 261.033 273.606 259.721C271.304 258.409 269.455 259.721 269.455 262.59Z" fill="#2B2B2D"/>
<path d="M244.797 283.742L276.811 270.133L270.4 259.844L240.975 272.182L244.797 283.742Z" fill="#2B2B2D"/>
<path d="M273.852 277.101C273.852 277.101 273.688 281.815 273.113 283.455C272.537 285.094 270.03 288.21 268.058 284.602C266.126 280.995 268.427 278.413 270.523 276.117C272.619 273.863 273.852 277.06 273.852 277.06V277.101Z" fill="#E09C63"/>
<path d="M277.017 276.978C276.071 279.52 274.345 280.134 273.318 280.134H272.291C272.291 280.134 268.88 280.257 268.88 279.643C268.88 279.315 268.88 279.151 268.88 279.028C268.88 279.479 268.797 281.979 266.784 282.512C264.523 283.045 262.057 283.455 261.236 282.594L260.414 281.692C260.414 281.692 260.578 283.414 258.688 283.332C256.838 283.25 255.071 284.152 254.619 282.758C254.167 281.323 253.838 280.708 253.838 280.708C253.838 280.708 253.838 282.553 251.537 282.922C250.427 283.086 249.441 282.922 248.578 282.717C248.331 282.635 248.085 282.512 247.92 282.471C247.591 282.307 247.304 282.184 247.139 281.938C247.139 281.938 246.811 281.569 246.728 281.323C246.523 280.626 245.783 277.839 245.372 276.281C245.167 275.625 245.084 275.174 245.084 275.174C245.084 275.174 244.879 275.052 244.509 274.806C243.81 274.273 242.454 273.207 240.975 271.608C238.797 269.108 233.947 259.352 233.043 258.532C232.18 257.671 227.742 250.58 219.81 243.078C212.084 235.864 199.015 209.383 198.563 208.441C198.234 207.703 198.028 207.211 197.905 206.965L197.7 206.555C197.7 206.555 197.7 206.391 197.7 206.227C197.782 205.53 197.946 204.219 198.234 203.645C198.768 202.538 198.809 202.251 199.261 201.595C199.59 201.144 200.166 200.488 201.275 199.259C201.522 198.972 201.809 198.644 202.056 198.398C207.193 193.069 217.714 190.937 224.002 197.414C224.002 197.414 224.002 197.66 224.002 198.029C224.207 200.734 225.481 212.089 232.016 220.738C240.44 231.888 247.016 247.3 249.934 248.612C252.893 249.883 259.427 255.171 264.729 257.097C270.03 258.983 271.099 259.188 273.565 264.599C275.989 270.092 277.962 274.355 277.017 276.855V276.978Z" fill="#D68027"/>
<path d="M245.084 274.56C245.084 274.56 244.838 274.765 244.386 274.888C243.687 274.355 242.331 273.289 240.852 271.69C238.673 269.19 233.824 259.434 232.92 258.614C232.057 257.753 227.618 250.662 219.687 243.16C211.96 235.946 198.892 209.465 198.44 208.523C198.111 207.785 197.905 207.293 197.782 207.047L197.576 206.637C197.576 206.637 197.576 206.473 197.576 206.309C195.727 203.481 194.042 199.546 192.645 193.971C190.056 183.559 188.946 166.097 191.617 150.848C193.138 151.012 194.782 151.217 196.631 151.545C208.056 153.471 215.947 158.8 220.18 162.448C220.344 164.252 220.262 166.794 219.358 170.155C219.276 170.442 219.276 170.893 219.358 171.508C217.55 172.04 215.043 172.286 211.673 172.122C197.782 171.426 193.631 168.023 193.631 168.023C193.631 168.023 191.823 180.854 194.412 188.642C197.001 196.43 199.179 201.636 199.179 201.636C199.179 201.636 201.481 206.186 204.234 211.638C206.741 216.721 209.782 222.542 211.303 226.354C216.81 239.922 222.892 242.873 226.303 247.751C229.673 252.588 236.331 261.237 238.262 265.296C240.235 269.354 245.208 273.781 245.084 274.519V274.56Z" fill="#6E4215"/>
<path d="M240.893 272.182L244.797 270.952C244.797 270.952 248.043 272.838 248.578 275.707C249.276 279.643 247.756 282.553 247.756 282.553L245.495 283.578L240.934 272.182H240.893Z" fill="#2B2B2D"/>
<path d="M183.85 159.046C183.85 159.046 190.549 166.425 200.535 168.925C210.522 171.426 222.358 169.909 222.358 169.909C222.358 169.909 223.262 155.193 223.385 151.668C223.755 142.568 223.221 133.181 220.508 125.023C218.289 118.383 213.769 111.332 207.809 107.93C199.878 103.421 195.357 107.356 193.097 115.841C189.645 128.795 187.179 146.052 183.85 159.046Z" fill="#00D68F"/>
<path d="M183.85 159.046C187.22 146.052 189.686 128.795 193.097 115.841C195.357 107.356 199.878 103.421 207.81 107.93C208.179 108.135 208.508 108.381 208.837 108.627C201.275 121.99 196.261 136.501 196.672 151.586C196.796 157.202 197.371 162.612 197.946 168.064C189.234 164.457 183.809 159.046 183.809 159.046H183.85Z" fill="#02A834"/>
<path d="M238.879 275.543C238.879 278.454 240.728 281.897 243.03 283.209C245.331 284.521 247.18 283.209 247.18 280.339C247.18 277.47 245.331 273.986 243.03 272.674C240.728 271.362 238.879 272.674 238.879 275.543Z" fill="#161618"/>
<path d="M236.454 83.8682C236.454 83.8682 238.673 89.6889 245.372 96.0836C248.619 99.1989 252.934 102.437 258.605 105.225C272.126 111.865 276.565 100.839 277.88 95.5097C278.25 94.034 278.332 93.0092 278.332 92.8863C278.332 92.7223 278.332 91.6155 278.044 89.8119C277.346 84.2781 274.633 72.0217 264.647 58.4536C251.413 40.4174 238.797 44.1476 238.797 44.1476C238.92 44.1476 239.66 46.0332 240.605 48.8616C242.742 55.2153 245.865 66.2829 244.18 70.2591C241.797 75.9159 236.495 83.8272 236.495 83.8272L236.454 83.8682Z" fill="#A2601D"/>
<path d="M236.454 83.8682C236.454 83.8682 238.673 89.6889 245.372 96.0836C248.043 91.2056 251.989 85.1389 251.989 85.1389C251.989 85.1389 262.427 95.3457 270.195 96.4935C273.77 97.0264 276.236 96.3705 277.839 95.5097C278.209 94.034 278.291 93.0092 278.291 92.8863C278.291 92.7223 278.291 91.6155 278.003 89.8119C272.003 81.9006 256.304 61.8968 242.988 50.7882C242.125 50.0504 241.303 49.4355 240.523 48.8616C242.66 55.2153 245.783 66.2829 244.098 70.2591C241.714 75.9159 236.413 83.8272 236.413 83.8272L236.454 83.8682Z" fill="#6E4215"/>
<path d="M273.236 83.8682C273.236 83.8682 280.551 96.5755 274.345 102.806C269.126 108.053 267.318 106.987 267.318 106.987L271.222 115.718C271.222 115.718 280.757 112.767 281.291 102.929C281.825 93.0912 277.222 85.2619 277.222 85.2619L273.195 83.8272L273.236 83.8682Z" fill="#FFD15B"/>
<path d="M235.303 81.5727C235.303 81.5727 241.098 94.075 249.605 99.5268C258.112 104.979 265.099 107.151 266.208 107.069L267.318 106.987V116.62C267.318 116.62 256.674 117.727 243.399 106.331C230.125 94.9768 227.618 85.6718 227.618 85.6718L235.303 81.5727Z" fill="#FFD15B"/>
<path d="M244.509 64.8482C245.372 69.8902 256.098 81.2037 263.989 88.4182C264.112 88.5002 264.153 88.5822 264.277 88.6232C272.126 95.6327 282.935 96.0836 285.195 96.0426C287.496 96.0426 291.647 93.2142 292.181 91.6565C292.716 90.0579 292.798 84.3601 292.798 84.3601C292.798 84.3601 293.702 83.8682 294.072 83.2123C294.442 82.5974 294.072 81.6137 294.072 81.6137L294.688 80.5889L296.414 73.4974C296.414 73.4974 299.25 73.0465 299.579 71.1609C299.908 69.3163 298.387 66.6108 298.387 66.6108C298.387 66.6108 298.757 65.0532 299.25 58.4126C299.373 56.9369 299.538 55.0923 299.661 53.1657C300.195 46.4021 300.771 38.2039 300.771 38.2039C300.771 38.2039 252.893 39.8025 246.235 40.4174C239.536 40.9913 243.646 59.8063 244.468 64.8892L244.509 64.8482Z" fill="#D68027"/>
<path d="M244.509 64.8482C245.372 69.8901 256.098 81.2037 263.989 88.4182C264.112 88.5002 264.153 88.5822 264.277 88.6232C262.099 84.4011 260.331 80.097 259.468 77.8424C257.701 73.2104 256.756 59.6833 258.729 58.7815C260.701 57.8797 266.784 51.0751 268.345 49.9274C269.907 48.7796 278.044 52.2229 286.387 55.0513C294.771 57.8797 299.702 53.1247 299.702 53.1247C300.237 46.3611 300.812 38.1629 300.812 38.1629C300.812 38.1629 252.934 39.7615 246.276 40.3764C239.577 40.9503 243.687 59.7653 244.509 64.8482Z" fill="#A2601D"/>
<path d="M236.988 47.7548C236.988 47.7548 241.098 55.9531 242.495 58.6175C243.893 61.241 244.509 64.8482 244.509 64.8482C244.509 64.8482 242.002 46.1562 249.523 47.7548C257.085 49.3535 255.523 49.8454 255.687 53.1247C255.852 56.445 255.687 58.2486 255.687 58.2486L259.674 56.24C259.674 56.24 263.414 47.6729 269.66 46.5661C275.907 45.4593 297.236 39.1467 286.716 33.3259C276.195 27.5052 235.838 33.7358 236.947 47.7548H236.988Z" fill="#89310B"/>
<path d="M237.564 50.3783C237.564 50.3783 245.66 48.9846 264.975 43.8197C276.976 40.6224 289.264 36.4822 296.743 33.8178C301.264 32.2192 304.059 31.1534 304.059 31.1534C304.059 31.1534 302.332 21.7664 291.36 8.32123C280.387 -5.12391 259.345 1.76263 259.345 1.76263C259.345 1.76263 249.153 3.89417 240.071 14.7159C230.988 25.5376 237.523 50.3783 237.523 50.3783H237.564Z" fill="#50AF53"/>
<path d="M251.29 6.72257C251.29 6.72257 249.605 14.183 252.482 24.6768C254.208 30.9484 260.249 43.5327 260.249 43.5327C260.249 43.5327 239.043 50.2143 238.139 49.1076C237.276 48.0418 228.892 17.9952 251.29 6.72257Z" fill="#36A23C"/>
<path d="M259.386 1.76263C259.386 1.76263 280.387 1.10677 287.044 12.3794C290.62 18.4461 294.236 27.0952 296.784 33.8178C301.305 32.2192 304.1 31.1534 304.1 31.1534C304.1 31.1534 302.374 21.7664 291.401 8.32123C280.428 -5.12391 259.386 1.76263 259.386 1.76263Z" fill="#4D8A52"/>
<path d="M253.797 50.1323C253.797 50.1323 252.03 46.3611 248.29 45.7873C244.55 45.2134 243.687 49.3945 244.221 53.0427C244.756 56.6909 246.975 62.4297 247.591 63.9054C248.208 65.3811 249.317 68.2505 250.797 67.5536C252.318 66.8568 253.838 66.2419 254.085 62.2658C254.331 58.2896 254.085 50.6242 253.756 50.0914L253.797 50.1323Z" fill="#D68027"/>
<path d="M327.854 40.4584C327.854 40.4584 327.689 44.8445 323.621 43.8607C319.552 42.8769 312.114 40.4584 312.114 40.4584C312.114 40.4584 315.894 35.8674 318.484 36.8922C321.073 37.9169 325.388 37.425 327.854 40.4584Z" fill="#2FA941"/>
<path d="M304.1 31.1534L325.552 38.2449L327.402 39.3107L327.854 40.4584C327.854 40.4584 323.785 35.4165 315.977 41.5652C308.127 47.6729 300.36 54.1495 289.962 53.0427C279.565 51.936 264.975 43.8607 264.975 43.8607C264.975 43.8607 293.908 29.3088 304.1 31.1944V31.1534Z" fill="#00D68F"/>
<path d="M293.25 33.08C293.25 33.08 299.908 34.9656 302.086 35.7854C305.004 36.8922 313.47 40.8273 313.47 40.8273C313.47 40.8273 303.483 50.6652 292.88 51.936C282.277 53.2067 266.496 43.2458 266.496 43.2458C266.496 43.2458 289.14 32.4651 293.25 33.08Z" fill="#54BF5B"/>
<path d="M270.154 268.206C270.154 268.206 269.003 270.624 269.044 272.018C269.044 273.412 268.51 280.134 268.51 280.134C268.51 280.134 268.469 273.002 268.222 272.059C267.975 271.116 266.742 268.985 266.742 268.985C266.742 268.985 268.633 271.567 270.154 268.206Z" fill="#A2601D"/>
<path d="M261.811 271.977C261.811 271.977 260.701 276.363 260.783 277.265C260.866 278.167 260.29 281.692 260.29 281.692L259.879 281.036C259.879 281.036 260.578 275.666 260.537 274.478C260.496 273.289 259.961 272.469 259.961 272.469C259.961 272.469 260.907 273.658 261.811 271.977Z" fill="#A2601D"/>
<path d="M254.126 273.33C254.126 273.33 253.633 276.158 253.633 276.691C253.633 277.183 253.797 280.831 253.797 280.831L253.386 279.192C253.386 279.192 253.263 275.543 253.057 274.56L252.852 273.576C252.852 273.576 253.222 274.191 254.085 273.371L254.126 273.33Z" fill="#A2601D"/>
<path d="M288.776 210.911C291.715 202.487 289.476 194.054 283.774 192.074C278.072 190.095 271.067 195.319 268.127 203.743C265.188 212.167 267.427 220.601 273.129 222.58C278.831 224.56 285.836 219.335 288.776 210.911Z" fill="#BFCFB8"/>
<path d="M287.044 205.858C287.044 212.663 282.852 219.549 277.633 221.23C272.455 222.911 268.222 218.811 268.222 212.007C268.222 205.202 272.414 198.316 277.633 196.635C282.811 194.955 287.044 199.054 287.044 205.858Z" fill="#CDDAC9"/>
<path d="M282.113 212.458C284.373 219.877 300.894 250.867 300.894 250.867L300.195 253.859L297.072 252.957C297.072 252.957 279.359 213.77 278.414 210.613C278.414 210.613 277.14 208.154 277.633 207.498C278.373 206.432 280.181 206.145 282.113 212.417V212.458Z" fill="#D8E2D4"/>
<path d="M110.739 252.506C110.739 252.506 86.7791 237.381 71.9432 241.07C57.1072 244.759 52.9153 255.663 52.9153 255.663C52.9153 255.663 76.2583 273.699 98.8205 287.226C121.383 300.753 156.069 314.567 156.069 314.567C156.069 314.567 155.123 290.505 141.315 277.388C127.506 264.271 110.698 252.547 110.698 252.547L110.739 252.506Z" fill="#E79036"/>
<path d="M366.649 266.402C366.649 266.402 358.553 275.134 348.895 279.315C339.237 283.496 336.279 280.134 332.826 281.651C329.374 283.168 327.114 286.283 327.114 286.283C327.114 286.283 345.649 310.263 354.895 329.365C364.142 348.467 371.704 383.883 373.759 384.58C375.814 385.277 388.225 379.046 388.841 377.653C389.458 376.218 391.184 333.382 382.882 306.451C376.225 284.889 366.649 266.402 366.649 266.402Z" fill="#FFE56F"/>
</svg>
