<svg width="426" height="454" viewBox="0 0 426 454" fill="none" xmlns="http://www.w3.org/2000/svg">
<path d="M235.5 121.42C348.763 121.42 440.58 213.237 440.58 326.5C440.58 439.763 348.763 531.58 235.5 531.58C122.237 531.58 30.42 439.763 30.42 326.5C30.42 213.237 122.237 121.42 235.5 121.42ZM235.5 171.765C150.042 171.765 80.7647 241.042 80.7647 326.5C80.7647 411.958 150.042 481.236 235.5 481.236C320.958 481.236 390.236 411.958 390.236 326.5C390.236 241.042 320.958 171.765 235.5 171.765Z" fill="#232323"/>
<path d="M235.5 0C415.821 0 562 146.179 562 326.5C562 506.821 415.821 653 235.5 653C55.179 653 -91 506.821 -91 326.5C-91 146.179 55.179 0 235.5 0ZM235.5 80.1514C99.4456 80.1514 -10.8486 190.446 -10.8486 326.5C-10.8485 462.554 99.4456 572.849 235.5 572.849C371.554 572.849 481.849 462.554 481.849 326.5C481.849 190.446 371.554 80.1514 235.5 80.1514Z" fill="#232323"/>
</svg>
