<svg width="191" height="179" viewBox="0 0 191 179" fill="none" xmlns="http://www.w3.org/2000/svg">
<g clip-path="url(#clip0_430_13473)">
<path d="M175.974 130.564V132.078L94.6669 179V177.486L175.974 130.564Z" fill="#0B0B27"/>
<path d="M94.6669 179L93.8187 178.516V177.002L94.6669 177.486V179Z" fill="#262626"/>
<path d="M94.6669 177.486L93.8187 177.002L175.126 130.08L175.974 130.564L94.6669 177.486Z" fill="#2C2A41"/>
<path d="M111.631 93.5111V94.9944L30.2934 141.916V140.403L111.631 93.5111Z" fill="#0B0B27"/>
<path d="M30.2934 141.916L29.4755 141.432V139.918L30.2934 140.403V141.916Z" fill="#262626"/>
<path d="M30.2934 140.403L29.4755 139.919L110.783 93.0267L111.631 93.5111L30.2934 140.403Z" fill="#2C2A41"/>
<path d="M138.926 89.4849L121.325 99.7169L120.84 99.9894L116.236 102.653L115.388 103.168L111.025 105.711L110.51 105.983L96.1513 114.338L78.8235 104.318L72.2801 100.565L56.7699 91.604L55.7702 91.0288L55.0431 90.605H55.0128L53.1044 89.5152L55.7399 87.9713L56.8001 87.3356L58.0119 86.6393L72.7042 78.1025L73.1889 77.8301L78.157 74.9542L78.2479 74.8937H78.2782L79.1567 74.379L95.8787 64.6616L115.206 75.8018L121.749 79.5859L138.926 89.4849Z" fill="#DAAE77"/>
<path d="M138.926 89.4849L138.774 137.285L96.0302 162.108L96.1513 114.338L138.926 89.4849Z" fill="#B58250"/>
<path d="M96.1513 114.338L95.9998 162.108L52.9832 137.285L53.1044 89.4849L72.2801 100.565L78.7629 104.288L96.1513 114.338Z" fill="#A4753F"/>
<path d="M78.157 147.668L69.3719 142.582C68.7661 142.219 68.2511 141.432 68.2511 140.827V132.048C68.2511 131.442 68.7661 131.23 69.3719 131.563L78.157 136.649C78.7629 137.012 79.2779 137.799 79.2779 138.405V147.184C79.2779 147.789 78.7629 148.001 78.157 147.668ZM69.3719 131.866C68.9175 131.624 68.5843 131.775 68.5843 132.199V140.978C68.5843 141.432 68.9478 141.977 69.3719 142.249L78.157 147.335C78.6114 147.577 78.9446 147.426 78.9446 147.002V138.223C78.9446 137.769 78.5811 137.224 78.157 136.952L69.3719 131.866Z" fill="#1C1C1C"/>
<path d="M71.7954 133.743L70.1595 134.954L71.3713 135.65V141.311L72.2498 141.826V136.165L73.4615 136.861L71.7954 133.743Z" fill="#1C1C1C"/>
<path d="M75.5518 135.892L73.8856 137.133L75.0974 137.799V143.46L76.0062 144.005V138.314L77.1876 139.01L75.5518 135.892Z" fill="#1C1C1C"/>
<path d="M77.1876 146.215L70.1595 142.159V141.22L77.1876 145.246V146.215Z" fill="#1C1C1C"/>
<path d="M91.8193 155.569L83.0342 150.483C82.4284 150.12 81.9134 149.333 81.9134 148.728V139.949C81.9134 139.343 82.4284 139.131 83.0342 139.464L91.8193 144.55C92.4252 144.913 92.9402 145.7 92.9402 146.306V155.085C92.9402 155.69 92.4555 155.902 91.8193 155.569ZM83.0342 139.797C82.6101 139.555 82.2466 139.707 82.2466 140.13V148.909C82.2466 149.363 82.6101 149.908 83.0342 150.181L91.8193 155.267C92.2737 155.509 92.607 155.357 92.607 154.934V146.155C92.607 145.7 92.2434 145.156 91.8193 144.883L83.0342 139.797Z" fill="#1C1C1C"/>
<path d="M88.7294 152.36L87.6691 151.755V148.304C89.5473 149.212 88.8203 143.581 88.8203 143.581L85.8818 141.886C85.8818 141.886 85.5789 146.366 87.1541 147.941V151.482L86.0939 150.877C86.0939 150.877 85.8515 150.877 85.8515 150.998C85.8515 151.119 85.9727 151.301 86.0939 151.392L88.7294 152.905C88.7294 152.905 88.9718 152.905 88.9718 152.784C88.9718 152.663 88.8506 152.481 88.7294 152.391V152.36Z" fill="#1C1C1C"/>
<path d="M64.9794 140.07L56.1943 134.984C55.5884 134.621 55.0734 133.834 55.0734 133.228V124.449C55.0734 123.844 55.5884 123.632 56.1943 123.965L64.9794 129.051C65.5852 129.414 66.1002 130.201 66.1002 130.807V139.616C66.1002 140.221 65.5852 140.433 64.9794 140.1V140.07ZM56.1943 124.298C55.7399 124.026 55.4067 124.207 55.4067 124.631V133.41C55.4067 133.864 55.7702 134.409 56.1943 134.681L64.9794 139.767C65.4035 140.009 65.767 139.858 65.767 139.434V130.655C65.767 130.201 65.4035 129.656 64.9794 129.384L56.1943 124.298Z" fill="#1C1C1C"/>
<path d="M56.7699 129.717L64.3735 134.106C64.3735 134.106 62.8891 130.534 60.4959 129.142C58.0725 127.749 56.8001 129.717 56.8001 129.717H56.7699Z" fill="#1C1C1C"/>
<path d="M60.5262 136.619C60.2839 136.467 60.0718 136.286 59.9204 136.013C59.5871 135.438 59.6174 134.833 59.6174 134.802C59.6174 134.712 59.678 134.712 59.7689 134.742C59.8295 134.802 59.8901 134.893 59.8901 134.954C59.8901 134.954 59.8901 135.499 60.1324 135.923C60.2233 136.074 60.3748 136.225 60.5262 136.316C60.7383 136.437 60.8898 136.467 61.0109 136.407C61.3139 136.256 61.2533 135.59 61.2533 135.59V132.29C61.2533 132.29 61.3139 132.169 61.4047 132.229C61.4956 132.29 61.5259 132.381 61.5259 132.441V135.711C61.5259 135.711 61.5865 136.467 61.223 136.679C61.0412 136.77 60.8292 136.74 60.5262 136.558V136.619Z" fill="#1C1C1C"/>
<path d="M56.7698 127.204C56.7698 127.204 56.2852 127.961 56.7698 128.233C57.2545 128.506 56.7698 127.204 56.7698 127.204Z" fill="#1C1C1C"/>
<path d="M58.7692 126.932C58.7692 126.932 58.2845 127.688 58.7692 127.991C59.2539 128.264 58.7692 126.932 58.7692 126.932Z" fill="#1C1C1C"/>
<path d="M61.9197 128.627C61.9197 128.627 61.435 129.384 61.9197 129.656C62.4044 129.929 61.9197 128.627 61.9197 128.627Z" fill="#1C1C1C"/>
<path d="M63.9797 131.351C63.9797 131.351 63.495 132.108 63.9797 132.411C64.4644 132.683 63.9797 131.351 63.9797 131.351Z" fill="#1C1C1C"/>
<path d="M63.1315 128.718C63.1315 128.718 62.6468 129.475 63.1315 129.777C63.6162 130.05 63.1315 128.718 63.1315 128.718Z" fill="#1C1C1C"/>
<path d="M60.4051 127.144C60.4051 127.144 59.9204 127.9 60.4051 128.203C60.8898 128.476 60.4051 127.144 60.4051 127.144Z" fill="#1C1C1C"/>
<path d="M57.406 125.418C57.406 125.418 56.9213 126.175 57.406 126.478C57.8907 126.75 57.406 125.418 57.406 125.418Z" fill="#1C1C1C"/>
<path d="M78.7629 104.318L78.7932 111.735L72.2801 108.042V100.565L78.7629 104.318Z" fill="#885B2E"/>
<path d="M121.749 79.5859L78.8235 104.318L72.2801 100.565L115.206 75.8019L121.749 79.5859Z" fill="#B58250"/>
<path d="M117.205 100.958L117.054 151.483L115.903 150.817L116.054 101.624L74.0068 77.376L72.886 78.0117V75.4083L117.205 100.958Z" fill="#0B0B27"/>
<path d="M117.205 100.958L124.567 96.6897L124.415 147.184L117.054 151.483L117.205 100.958Z" fill="#1F2023"/>
<path d="M72.886 75.4083L80.2776 71.1399L124.567 96.6897L117.205 100.958L72.886 75.4083Z" fill="#323338"/>
<path d="M97.4539 69.1722C97.9689 69.4749 98.3627 70.1409 98.3627 70.7161L98.3022 88.4859C98.3022 89.0308 97.878 89.2427 97.3631 88.9703L95.3637 87.8199C94.8487 87.5172 94.4549 86.821 94.4549 86.2761L94.5155 68.5062C94.5155 67.9613 94.9396 67.7494 95.4546 68.0219L97.4539 69.1722Z" fill="#191D1F"/>
<path d="M100.665 69.3235C100.665 69.3235 100.665 69.263 100.665 69.2327C100.665 69.2327 100.665 69.2327 100.665 69.2024C100.665 69.2024 100.665 69.2024 100.665 69.1722C100.665 69.1722 100.665 69.1722 100.665 69.1419C100.665 69.1116 100.665 69.1419 100.665 69.1116C100.665 69.1116 100.665 69.1116 100.665 69.0813C100.665 69.0813 100.665 69.0813 100.665 69.0511C100.665 69.0511 100.665 69.0511 100.665 69.0208C100.665 69.0208 100.665 69.0208 100.665 68.9603C100.665 68.9603 100.665 68.9603 100.665 68.93C100.665 68.93 100.665 68.93 100.665 68.8997C100.665 68.8997 100.665 68.8997 100.665 68.8694C100.665 68.8694 100.665 68.8694 100.665 68.8392C100.665 68.8392 100.665 68.8089 100.665 68.7786C100.665 68.7786 100.665 68.7484 100.665 68.7181C100.665 68.7181 100.635 68.6575 100.635 68.6273C100.635 68.597 100.604 68.5667 100.574 68.5364C100.574 68.5364 100.544 68.4759 100.514 68.4456C100.514 68.4456 100.514 68.4456 100.483 68.4154C100.483 68.4154 100.483 68.4154 100.453 68.3851C100.453 68.3851 100.453 68.3851 100.423 68.3548C100.423 68.3548 100.392 68.3548 100.392 68.3245C100.392 68.3245 100.392 68.3245 100.362 68.2943C100.362 68.2943 100.362 68.2943 100.332 68.264C100.332 68.264 100.332 68.264 100.302 68.264C100.302 68.264 100.271 68.264 100.271 68.2337H100.241C100.241 68.2337 100.241 68.2337 100.211 68.2337C100.211 68.2337 100.211 68.2337 100.18 68.2337L98.181 67.0834C98.181 67.0834 98.181 67.0834 98.1507 67.0834C98.1507 67.0834 98.1507 67.0834 98.1204 67.0834C98.1204 67.0834 98.1204 67.0834 98.0901 67.0834C98.0901 67.0834 98.0901 67.0834 98.0598 67.0834H98.0295C98.0295 67.0834 98.0295 67.0834 97.9992 67.0834C97.9992 67.0834 97.9992 67.0834 97.9689 67.0834C97.9689 67.0834 97.9689 67.0834 97.9386 67.0834C97.9386 67.0834 97.9386 67.0834 97.9083 67.0834C97.9083 67.0834 97.9083 67.0834 97.878 67.0834C97.878 67.0834 97.8478 67.0834 97.8175 67.0834C97.8175 67.0834 97.7872 67.0834 97.7569 67.0834C97.7569 67.0834 97.7266 67.0834 97.6963 67.0834C97.6963 67.0834 97.6357 67.0834 97.6054 67.1136L95.3031 68.4456C95.3031 68.4456 95.394 68.4154 95.4546 68.3851C95.4546 68.3851 95.5454 68.3851 95.606 68.3851C95.606 68.3851 95.7272 68.3851 95.7878 68.4154C95.8484 68.4154 95.909 68.4759 95.9696 68.5062L97.9689 69.6565C97.9689 69.6565 98.0901 69.7473 98.1507 69.7776C98.2113 69.8381 98.2719 69.8684 98.3324 69.929C98.3324 69.929 98.4233 70.0501 98.4839 70.1106C98.5142 70.1711 98.5748 70.2317 98.6051 70.2922C98.6354 70.3528 98.696 70.4436 98.7263 70.5041C98.7263 70.5041 98.7868 70.6555 98.8171 70.7161C98.8171 70.7161 98.8474 70.8674 98.8777 70.928C98.8777 70.928 98.8777 71.0793 98.8777 71.1399L98.8171 88.9097C98.8171 88.9097 98.8171 89.0308 98.8171 89.0913C98.8171 89.0913 98.8171 89.1821 98.7565 89.2427C98.7565 89.2427 98.7263 89.3032 98.696 89.3335C98.6657 89.3638 98.6354 89.394 98.6051 89.4243L100.907 88.0923C100.907 88.0923 100.968 88.0318 100.998 88.0015C100.998 88.0015 100.998 88.0015 100.998 87.9712C100.998 87.9712 100.998 87.9712 101.029 87.941C101.029 87.941 101.029 87.9107 101.059 87.8804C101.059 87.8804 101.059 87.8502 101.059 87.8199C101.059 87.8199 101.059 87.8199 101.059 87.7896C101.059 87.7896 101.059 87.7896 101.059 87.7593C101.059 87.7593 101.059 87.7593 101.059 87.7291C101.059 87.7291 101.059 87.6685 101.059 87.6383L101.119 69.8382L100.665 69.3235Z" fill="#2E3335"/>
<path d="M86.3665 62.1793C86.3665 62.1793 86.2454 62.2701 86.1848 62.3307C86.0333 62.4518 85.8818 62.5426 85.7304 62.6637C85.6698 62.6939 85.6395 62.7242 85.6092 62.7848C85.488 62.8756 85.3971 62.9664 85.276 63.0572C85.2154 63.1178 85.1548 63.148 85.1245 63.2086C85.0033 63.3297 84.8822 63.4205 84.761 63.5416C84.7307 63.5718 84.6701 63.6021 84.6398 63.6627C84.4883 63.814 84.3369 63.9654 84.1854 64.147C84.1551 64.1773 84.0945 64.2378 84.0642 64.2681C83.9431 64.3892 83.8219 64.5406 83.7007 64.6616C83.6401 64.7222 83.6098 64.7827 83.5492 64.8433C83.4584 64.9946 83.3372 65.1157 83.216 65.2671C83.1857 65.3276 83.1251 65.3882 83.0645 65.4487C82.9131 65.6606 82.7616 65.8423 82.6101 66.0542C82.6101 66.0542 82.5799 66.1147 82.5496 66.145C82.4284 66.3266 82.2769 66.5385 82.1557 66.7202C82.0952 66.811 82.0346 66.9321 81.974 67.0229C81.9134 67.1137 81.8528 67.2045 81.7922 67.3256C81.7316 67.4467 81.6408 67.5375 81.6105 67.6586C81.5499 67.7797 81.4893 67.8705 81.4287 67.9916C81.3681 68.1127 81.3075 68.2338 81.2469 68.3549C81.1864 68.476 81.1258 68.597 81.0652 68.7181C81.0046 68.8392 80.944 68.9603 80.8834 69.0814C80.8228 69.2025 80.7622 69.3236 80.7017 69.4749C80.6411 69.6263 80.5502 69.8079 80.4896 69.9593C80.4593 70.0198 80.429 70.1107 80.3987 70.1712C80.2776 70.4134 80.1867 70.6556 80.0655 70.928C80.0655 70.9583 80.0352 71.0188 80.0049 71.0491C79.914 71.261 79.8232 71.5032 79.7323 71.7151C79.702 71.8059 79.6717 71.8967 79.6414 71.9875C79.5808 72.1389 79.5202 72.3205 79.4596 72.4719C79.3385 72.8352 79.187 73.1682 79.0658 73.5617C79.0658 73.592 79.0355 73.6525 79.0355 73.6828C78.9446 73.9855 78.8235 74.2882 78.7326 74.6212L78.3085 74.8634L77.5511 75.3175L76.4909 75.9229C76.5818 75.6202 76.6726 75.3175 76.7635 75.0148C76.8241 74.8029 76.915 74.591 76.9756 74.379C77.0362 74.1671 77.127 73.9552 77.1876 73.7736C77.1876 73.7736 77.1876 73.7433 77.1876 73.7131C77.1876 73.7131 77.1876 73.6828 77.1876 73.6525C77.1876 73.6525 77.1876 73.6222 77.1876 73.592C77.3694 73.1379 77.5209 72.7141 77.7026 72.2903C77.7935 72.0784 77.8844 71.8664 77.9753 71.6545C78.0661 71.4426 78.157 71.261 78.2479 71.0491C78.2479 70.9886 78.3085 70.928 78.3388 70.8675C78.4902 70.5345 78.6417 70.2317 78.7932 69.929C79.5202 68.5365 80.3078 67.3559 81.0652 66.3872C81.1864 66.2661 81.3075 66.1147 81.3984 65.9634C81.4893 65.8423 81.5802 65.7212 81.7013 65.6001C81.7922 65.5093 81.8831 65.4185 81.974 65.3276C82.4284 64.8433 82.8828 64.4195 83.3372 64.0259C83.4281 63.9654 83.5189 63.9048 83.5795 63.8443C83.6704 63.7837 83.7613 63.6929 83.8522 63.6324C84.0036 63.5113 84.1551 63.4205 84.3066 63.2994C84.4278 63.2086 84.5792 63.1178 84.7307 63.0269C84.8216 62.9664 84.9124 62.9059 84.973 62.8756C85.0639 62.815 85.1548 62.7545 85.2457 62.7242L86.3362 62.149L86.3665 62.1793Z" fill="#535454"/>
<path d="M142.682 144.157C142.682 143.824 142.682 143.491 142.712 143.127C142.712 143.097 142.712 143.067 142.712 143.006C142.712 142.643 142.712 142.28 142.712 141.886C142.712 141.493 142.712 141.099 142.712 140.706V139.313C142.712 139.041 142.712 138.768 142.712 138.465C142.712 138.375 142.712 138.284 142.712 138.193C142.712 137.83 142.712 137.497 142.712 137.133V137.073C142.712 136.71 142.712 136.316 142.682 135.923C142.682 135.892 142.682 135.862 142.682 135.801C142.682 135.711 142.682 135.65 142.682 135.559C142.682 135.317 142.682 135.105 142.682 134.863C142.682 134.742 142.682 134.621 142.682 134.5C142.682 134.258 142.682 134.015 142.652 133.743C142.652 133.622 142.652 133.531 142.652 133.41C142.652 133.137 142.652 132.865 142.621 132.562C142.621 132.471 142.621 132.381 142.621 132.29C142.561 131.23 142.5 130.141 142.409 129.02C142.288 127.719 142.167 126.356 142.016 124.964C142.016 124.873 142.016 124.782 141.985 124.661C141.925 124.086 141.864 123.481 141.773 122.875C141.773 122.815 141.773 122.784 141.773 122.724C141.773 122.663 141.773 122.603 141.773 122.542C141.622 121.422 141.47 120.302 141.289 119.152C141.289 119.091 141.289 119.061 141.289 119C141.289 118.94 141.289 118.91 141.289 118.849C141.198 118.365 141.137 117.88 141.046 117.366C141.046 117.335 141.046 117.275 141.046 117.245C140.955 116.73 140.864 116.185 140.774 115.64C140.774 115.61 140.774 115.549 140.774 115.519C140.774 115.428 140.743 115.337 140.713 115.277C140.652 114.914 140.561 114.55 140.501 114.187C140.471 114.036 140.44 113.884 140.41 113.733C140.319 113.339 140.259 112.946 140.168 112.552C140.168 112.462 140.137 112.401 140.107 112.31C140.107 112.31 140.107 112.28 140.107 112.25C140.016 111.765 139.895 111.311 139.774 110.827C139.774 110.736 139.744 110.675 139.713 110.585C139.622 110.191 139.531 109.798 139.441 109.404C139.441 109.374 139.441 109.313 139.41 109.283C139.41 109.253 139.41 109.192 139.38 109.162C139.168 108.344 138.956 107.497 138.744 106.68C138.744 106.649 138.744 106.589 138.714 106.558C138.714 106.498 138.683 106.437 138.653 106.407C138.441 105.681 138.229 104.924 138.017 104.197C138.017 104.167 138.017 104.106 137.987 104.076C137.987 104.016 137.956 103.955 137.926 103.894C137.714 103.198 137.472 102.472 137.259 101.775C137.259 101.775 137.259 101.745 137.259 101.715C137.259 101.654 137.229 101.594 137.199 101.533C137.017 100.988 136.835 100.474 136.654 99.9288C136.654 99.838 136.593 99.7774 136.563 99.6866C136.563 99.6261 136.532 99.5958 136.502 99.5655C136.29 98.9904 136.078 98.4152 135.866 97.84C135.866 97.8097 135.866 97.7795 135.836 97.7189C135.805 97.6281 135.775 97.5373 135.745 97.4465C135.593 97.0529 135.412 96.6291 135.26 96.2356C135.23 96.1448 135.2 96.0539 135.169 95.9631C135.169 95.9026 135.109 95.8118 135.078 95.7512C134.927 95.3577 134.745 94.9641 134.563 94.5706C134.533 94.4798 134.503 94.389 134.442 94.2981C134.442 94.2981 134.442 94.2376 134.412 94.2376C134.2 93.7532 133.988 93.2689 133.745 92.7845C133.745 92.7543 133.715 92.6937 133.685 92.6634C133.624 92.5726 133.594 92.4515 133.533 92.3607C133.352 91.9975 133.17 91.6039 132.988 91.2406C132.958 91.1498 132.928 91.0893 132.867 90.9985C132.837 90.9379 132.806 90.8471 132.746 90.7866C132.534 90.393 132.322 89.9692 132.11 89.5757C132.079 89.4849 132.019 89.394 131.988 89.3335L131.898 89.1821C131.504 88.4556 131.11 87.7291 130.686 87.0328C130.656 86.9723 130.625 86.9117 130.565 86.8512C130.443 86.609 130.292 86.3971 130.141 86.1549C129.928 85.8219 129.747 85.4889 129.535 85.1559C129.353 84.8532 129.171 84.5807 128.989 84.278C128.777 83.945 128.565 83.6423 128.353 83.3093C128.293 83.2185 128.232 83.158 128.202 83.0671C128.111 82.9158 127.99 82.7644 127.899 82.6131C127.596 82.159 127.263 81.7049 126.929 81.2508C126.839 81.1297 126.778 81.0086 126.687 80.8875C126.566 80.7362 126.445 80.5848 126.324 80.4334C126.172 80.2215 125.99 80.0096 125.839 79.7977C125.748 79.6766 125.657 79.5555 125.566 79.4345C125.384 79.1923 125.203 78.9804 124.991 78.7382C124.869 78.5868 124.748 78.4657 124.657 78.3144C124.597 78.2538 124.567 78.1933 124.506 78.1327C124.173 77.7089 123.809 77.3154 123.476 76.9219C123.476 76.9219 123.476 76.9219 123.446 76.8916C123.385 76.831 123.325 76.7402 123.234 76.6797C122.961 76.377 122.688 76.044 122.385 75.7412C122.325 75.6504 122.234 75.5899 122.143 75.4991C121.992 75.3477 121.84 75.1963 121.719 75.045C121.567 74.8633 121.416 74.712 121.234 74.5304C121.083 74.379 120.962 74.2579 120.81 74.1065C120.659 73.9249 120.477 73.7735 120.325 73.6222C120.204 73.5314 120.113 73.4103 120.023 73.3195C119.841 73.1378 119.629 72.9562 119.447 72.7746C119.265 72.6232 119.114 72.4416 118.932 72.2902C118.871 72.2297 118.811 72.1691 118.75 72.1086C118.508 71.8967 118.266 71.6848 117.993 71.4426C117.811 71.2912 117.66 71.1399 117.478 70.9885C117.448 70.9582 117.417 70.9279 117.387 70.8977C117.023 70.595 116.66 70.2922 116.296 69.9895C116.206 69.8987 116.115 69.8382 115.994 69.7473C115.994 69.7473 115.993 69.7473 115.963 69.7171C115.479 69.3235 114.964 68.9602 114.479 68.597C114.479 68.597 114.479 68.597 114.449 68.5667C114.327 68.4759 114.206 68.3851 114.085 68.2943C113.721 68.0218 113.328 67.7494 112.964 67.5072C112.934 67.5072 112.904 67.4769 112.873 67.4466C112.661 67.2953 112.449 67.1439 112.207 67.0228C111.934 66.8412 111.662 66.6596 111.359 66.4779C111.298 66.4476 111.237 66.4174 111.177 66.3871C110.934 66.2357 110.692 66.0844 110.42 65.933C110.177 65.7817 109.905 65.6303 109.662 65.4789C109.541 65.4184 109.39 65.3276 109.268 65.2368C108.844 64.9946 108.42 64.7524 107.996 64.5102C107.935 64.5102 107.875 64.4497 107.814 64.4194C107.572 64.2983 107.299 64.147 107.057 64.0259C106.845 63.9048 106.633 63.814 106.421 63.6929C106.36 63.6929 106.3 63.6323 106.239 63.6021C106.027 63.481 105.815 63.3902 105.603 63.2993C105.391 63.2085 105.179 63.0874 104.967 62.9966C104.876 62.9663 104.815 62.9361 104.724 62.9058C104.543 62.815 104.331 62.7544 104.149 62.6636C103.967 62.5728 103.785 62.5123 103.603 62.4214C103.513 62.3912 103.391 62.3609 103.301 62.3003C103.119 62.2398 102.937 62.149 102.725 62.0884C102.574 62.0279 102.422 61.9674 102.301 61.9371C102.149 61.8765 102.028 61.8463 101.907 61.816C101.725 61.7554 101.544 61.6949 101.362 61.6344C101.241 61.6041 101.15 61.5738 101.029 61.5435C100.847 61.483 100.695 61.4527 100.514 61.3922C100.362 61.3316 100.18 61.3014 99.9986 61.2408C99.938 61.2408 99.8471 61.2105 99.7865 61.1803C99.5745 61.1197 99.3624 61.0895 99.1201 61.0289C98.9686 60.9986 98.8171 60.9684 98.696 60.9381C98.6657 60.9381 98.6051 60.9381 98.5748 60.9381C98.3021 60.8775 97.9992 60.8473 97.7266 60.7867C97.6357 60.7867 97.5145 60.7565 97.4236 60.7262C97.4236 60.7262 97.4236 60.7262 97.3933 60.7262C96.9995 60.6656 96.5754 60.6354 96.1816 60.6051C96.1816 60.6051 95.909 60.6051 95.7878 60.6051C95.5151 60.6051 95.2122 60.6051 94.9396 60.6051H94.9093C94.5155 60.6051 94.1519 60.6051 93.7581 60.6656C93.7278 60.6656 93.6975 60.6656 93.6672 60.6656C93.6672 60.6656 93.6672 60.6656 93.6067 60.6656C93.2734 60.6656 92.9402 60.7262 92.6373 60.7867C92.5464 60.7867 92.4858 60.7867 92.3949 60.817C92.304 60.817 92.2132 60.817 92.1526 60.8473C91.9708 60.8776 91.7588 60.9381 91.577 60.9986C91.4861 60.9986 91.4255 61.0289 91.3347 61.0592C91.0317 61.15 90.6985 61.2408 90.3956 61.3316H90.335C90.3047 61.3316 90.2744 61.3316 90.2441 61.3619C89.9109 61.483 89.6079 61.6041 89.2747 61.7554C89.2747 61.7554 89.2444 61.7554 89.2141 61.7554C88.8809 61.9068 88.578 62.0884 88.2447 62.2701C87.4874 62.7242 86.7301 63.148 85.9727 63.6021C86.2757 63.4204 86.6089 63.2388 86.9421 63.0874C86.9421 63.0874 86.9724 63.0874 87.0027 63.0874C87.3056 62.9361 87.6389 62.815 87.9721 62.6939C88.0024 62.6939 88.0327 62.6939 88.0933 62.6636C88.4265 62.5425 88.7597 62.4517 89.0929 62.3609C89.1838 62.3609 89.2444 62.3306 89.3353 62.3003C89.6079 62.2398 89.8806 62.1793 90.1835 62.1187C90.2441 62.1187 90.335 62.1187 90.3956 62.0884C90.7288 62.0279 91.0923 61.9976 91.4255 61.9674C91.4558 61.9674 91.4861 61.9674 91.5164 61.9674C91.8799 61.9674 92.2738 61.9068 92.6373 61.9068C92.9099 61.9068 93.2128 61.9068 93.5158 61.9068C93.637 61.9068 93.7884 61.9068 93.9096 61.9068C94.3337 61.9068 94.7275 61.9674 95.1516 62.0279C95.2728 62.0279 95.3637 62.0582 95.4546 62.0884C95.7878 62.149 96.0907 62.1793 96.4239 62.2701C96.5754 62.2701 96.7269 62.3306 96.8481 62.3609C97.151 62.4214 97.4236 62.482 97.6963 62.5728C97.878 62.6333 98.0295 62.6636 98.2113 62.7242C98.4839 62.815 98.7565 62.8755 99.0292 62.9663C99.2109 63.0269 99.3927 63.0874 99.5745 63.148C99.8471 63.2388 100.12 63.3296 100.392 63.4507C100.574 63.5112 100.756 63.6021 100.968 63.6626C101.241 63.7837 101.544 63.8745 101.816 63.9956C101.998 64.0864 102.21 64.147 102.392 64.2378C102.664 64.3589 102.967 64.5102 103.27 64.6313C103.482 64.7221 103.694 64.813 103.906 64.934C104.179 65.0551 104.452 65.2065 104.694 65.3276C104.936 65.4487 105.209 65.6 105.451 65.7211C105.936 65.9633 106.421 66.2357 106.905 66.5082C107.299 66.7201 107.663 66.9623 108.057 67.2045C108.299 67.3558 108.541 67.5072 108.814 67.6585C109.177 67.8705 109.511 68.1126 109.874 68.3548C110.086 68.4759 110.268 68.6273 110.48 68.7483C110.904 69.0208 111.328 69.3235 111.722 69.6262C111.843 69.7171 111.964 69.7776 112.086 69.8684C112.631 70.262 113.146 70.6555 113.661 71.049C113.752 71.1096 113.843 71.2004 113.934 71.2912C114.358 71.6242 114.751 71.9572 115.145 72.2902C115.297 72.4416 115.479 72.5929 115.63 72.7443C115.963 73.0167 116.266 73.2892 116.599 73.5919C116.781 73.7433 116.963 73.9249 117.114 74.0763C117.417 74.3487 117.72 74.6514 117.993 74.9239C118.175 75.1055 118.326 75.2569 118.508 75.4385C118.811 75.7412 119.114 76.044 119.386 76.3467C119.538 76.498 119.689 76.6494 119.841 76.8008C120.204 77.164 120.538 77.5576 120.901 77.9511C120.962 78.0419 121.052 78.1025 121.113 78.1933C121.507 78.6474 121.931 79.1317 122.325 79.6161C122.446 79.7675 122.567 79.9188 122.688 80.0399C122.961 80.3729 123.264 80.7362 123.537 81.0994C123.718 81.3113 123.87 81.5232 124.052 81.7654C124.264 82.0379 124.445 82.3103 124.657 82.5828C124.991 83.0369 125.294 83.4909 125.627 83.945C125.778 84.1569 125.93 84.3991 126.081 84.611C126.293 84.944 126.505 85.2467 126.717 85.5797C126.899 85.8522 127.081 86.1549 127.263 86.4274C127.475 86.7603 127.687 87.0933 127.869 87.4263C128.05 87.6988 128.202 88.0015 128.384 88.3042C128.808 89.0005 129.201 89.727 129.595 90.4536C129.656 90.5747 129.747 90.726 129.807 90.8471C130.019 91.2407 130.231 91.6342 130.413 92.058C130.474 92.2094 130.565 92.3607 130.656 92.5121C130.837 92.8754 131.019 93.2689 131.201 93.6322C131.261 93.7835 131.352 93.9046 131.413 94.056C131.625 94.5403 131.867 95.0247 132.079 95.509C132.14 95.6301 132.17 95.7512 132.231 95.842C132.413 96.2356 132.564 96.6291 132.746 97.0227C132.806 97.174 132.867 97.3254 132.928 97.4767C133.079 97.8703 133.261 98.2941 133.412 98.6876C133.473 98.8087 133.503 98.9298 133.564 99.0509C133.776 99.6261 133.988 100.201 134.2 100.776C134.23 100.898 134.291 101.049 134.351 101.17C134.533 101.685 134.715 102.229 134.897 102.744C134.897 102.835 134.957 102.895 134.987 102.986C135.23 103.683 135.442 104.409 135.654 105.105C135.654 105.196 135.715 105.317 135.745 105.408C135.957 106.135 136.169 106.891 136.381 107.618C136.381 107.709 136.442 107.8 136.472 107.921C136.714 108.738 136.926 109.586 137.108 110.403C137.108 110.464 137.138 110.554 137.169 110.615C137.411 111.584 137.623 112.552 137.835 113.521C137.835 113.612 137.865 113.703 137.896 113.793C137.987 114.187 138.077 114.581 138.138 114.974C138.168 115.125 138.199 115.277 138.229 115.458C138.289 115.822 138.38 116.185 138.441 116.548C138.441 116.669 138.502 116.821 138.502 116.942C138.592 117.487 138.683 118.001 138.804 118.516C138.804 118.546 138.804 118.607 138.804 118.637C138.895 119.121 138.956 119.636 139.047 120.12C139.047 120.211 139.077 120.332 139.107 120.423C139.289 121.573 139.441 122.724 139.592 123.814C139.592 123.935 139.622 124.056 139.622 124.147C139.713 124.752 139.774 125.327 139.834 125.933C139.834 126.023 139.834 126.114 139.834 126.235C139.895 126.841 139.956 127.477 140.016 128.052C140.077 128.809 140.168 129.535 140.198 130.262C140.259 130.988 140.319 131.715 140.349 132.411C140.349 132.804 140.41 133.168 140.41 133.531C140.41 133.622 140.41 133.713 140.41 133.803C140.41 134.076 140.41 134.379 140.44 134.651C140.44 134.772 140.44 134.863 140.44 134.984C140.44 135.226 140.44 135.468 140.471 135.741C140.471 135.862 140.471 135.983 140.471 136.104C140.471 136.346 140.471 136.558 140.471 136.8C140.471 136.922 140.471 137.043 140.471 137.164C140.471 137.557 140.471 137.951 140.501 138.314V138.375C140.501 138.738 140.501 139.101 140.501 139.434V139.737C140.501 140.009 140.501 140.312 140.501 140.584V140.827C140.501 141.16 140.501 141.493 140.501 141.826V141.977C140.501 142.34 140.501 142.734 140.501 143.097V143.218C140.501 143.581 140.501 143.945 140.501 144.278C140.501 144.338 140.501 144.399 140.501 144.459C140.501 144.792 140.501 145.125 140.501 145.428C140.501 145.458 140.501 145.489 140.501 145.519C140.501 145.822 140.501 146.124 140.471 146.397C140.471 146.397 140.471 146.457 140.471 146.488C140.471 146.669 140.471 146.821 140.471 146.972V147.032C140.44 147.577 140.41 148.092 140.38 148.516C140.38 148.667 140.38 148.788 140.38 148.909C140.38 148.97 140.38 149 140.38 149.03C140.38 149.091 140.38 149.182 140.38 149.242C140.38 149.303 140.38 149.333 140.38 149.394C140.38 149.454 140.38 149.515 140.38 149.545C140.38 149.606 140.38 149.636 140.38 149.666C140.38 149.727 140.38 149.757 140.38 149.818V149.878C140.38 149.939 140.38 149.999 140.38 150.06C140.38 150.06 140.38 150.09 140.38 150.12C140.38 150.181 140.38 150.211 140.38 150.272C140.38 150.272 140.38 150.362 140.38 150.393C140.38 150.393 140.38 150.453 140.38 150.483L141.076 150.877L142.561 150.029L142.652 149.182C142.652 149.182 142.652 149.182 142.652 149.152C142.652 149.152 142.652 149.152 142.652 149.121C142.652 149.121 142.652 149.061 142.652 149.03C142.652 149.03 142.652 149.03 142.652 149C142.652 148.97 142.652 148.909 142.652 148.879C142.652 148.879 142.652 148.849 142.652 148.819C142.652 148.758 142.652 148.697 142.652 148.637C142.652 148.637 142.652 148.607 142.652 148.576C142.652 148.576 142.652 148.455 142.652 148.395C142.652 148.334 142.652 148.304 142.652 148.274C142.652 148.213 142.652 148.183 142.652 148.122C142.652 148.062 142.652 148.001 142.652 147.941C142.652 147.88 142.652 147.82 142.652 147.759C142.652 147.698 142.652 147.638 142.652 147.608C142.652 147.517 142.652 147.396 142.652 147.305C142.652 147.305 142.652 147.244 142.652 147.214C142.652 146.942 142.682 146.609 142.712 146.276C142.712 146.124 142.712 145.943 142.712 145.761C142.712 145.761 142.712 145.7 142.712 145.67C142.712 145.519 142.712 145.367 142.712 145.216C142.712 145.216 142.712 145.156 142.712 145.125C142.712 144.823 142.712 144.55 142.743 144.217V144.157H142.682Z" fill="#9DA4BE"/>
<path d="M140.804 150.938L140.107 150.544C140.107 150.544 140.168 150.06 140.228 149.212C140.228 149.152 140.228 149.091 140.228 149.03C140.228 148.788 140.259 148.516 140.289 148.213C140.289 147.971 140.319 147.729 140.319 147.487C140.319 147.214 140.319 146.911 140.349 146.609C140.349 146.548 140.349 146.488 140.349 146.427C140.349 146.276 140.349 146.155 140.349 146.003C140.349 145.943 140.349 145.912 140.349 145.852C140.349 145.731 140.349 145.579 140.349 145.458C140.349 145.125 140.349 144.823 140.38 144.459C140.38 143.309 140.44 142.007 140.41 140.584C140.41 140.312 140.41 140.04 140.41 139.737V139.434C140.41 139.101 140.41 138.738 140.41 138.375V138.223C140.41 138.011 140.41 137.799 140.41 137.588C140.41 137.315 140.41 137.073 140.41 136.8C140.41 136.498 140.41 136.165 140.41 135.862C140.41 135.771 140.41 135.68 140.41 135.559C140.41 135.257 140.41 134.984 140.38 134.681C140.38 134.409 140.349 134.106 140.349 133.834C140.349 133.531 140.319 133.228 140.289 132.926C140.289 132.774 140.289 132.623 140.259 132.472C140.228 131.775 140.168 131.079 140.107 130.352C140.107 130.262 140.107 130.141 140.107 130.05C140.046 129.414 139.986 128.778 139.925 128.143C139.865 127.537 139.804 126.932 139.744 126.296C139.683 125.63 139.592 124.934 139.501 124.237C139.41 123.571 139.319 122.905 139.229 122.209C139.168 121.664 139.077 121.15 138.986 120.605C138.895 119.939 138.774 119.273 138.653 118.607C138.562 118.153 138.501 117.729 138.411 117.275C138.199 116.064 137.956 114.853 137.684 113.612C137.593 113.128 137.472 112.673 137.35 112.189C137.35 112.159 137.35 112.129 137.35 112.098C137.259 111.644 137.138 111.16 137.017 110.706C136.805 109.828 136.563 108.92 136.32 108.012C136.229 107.648 136.108 107.285 136.017 106.891C135.624 105.529 135.2 104.137 134.745 102.774C134.563 102.26 134.382 101.745 134.2 101.231C132.897 97.5978 131.322 93.9652 129.444 90.4839C129.262 90.1509 129.08 89.8481 128.929 89.5151C128.838 89.3335 128.717 89.1216 128.626 88.94C128.505 88.7281 128.384 88.5162 128.262 88.3345C128.081 88.0318 127.929 87.7594 127.747 87.4566C127.505 87.0328 127.263 86.6393 126.99 86.2457C126.657 85.7008 126.293 85.1559 125.93 84.611C125.869 84.49 125.778 84.3991 125.687 84.278C125.627 84.157 125.536 84.0661 125.445 83.945C125.294 83.7029 125.142 83.491 124.96 83.2488C124.809 83.0066 124.627 82.7947 124.476 82.5828C124.294 82.3406 124.142 82.0984 123.961 81.8563C123.93 81.7957 123.87 81.7352 123.839 81.6746C123.688 81.493 123.567 81.3114 123.415 81.0995C123.143 80.7362 122.87 80.4032 122.567 80.0399C121.658 78.9198 120.719 77.83 119.72 76.8008C119.568 76.6494 119.447 76.4981 119.265 76.3467C118.993 76.044 118.69 75.7413 118.387 75.4385C118.235 75.2569 118.053 75.1055 117.872 74.9542C117.569 74.6515 117.296 74.379 116.993 74.1066C116.811 73.9249 116.63 73.7736 116.448 73.6222C116.145 73.3195 115.812 73.047 115.479 72.7746C114.782 72.1691 114.085 71.594 113.388 71.0491C112.904 70.6555 112.419 70.2922 111.904 69.929C111.783 69.8382 111.662 69.7473 111.54 69.6868C111.177 69.4144 110.783 69.1419 110.42 68.8997C110.359 68.8392 110.268 68.7786 110.207 68.7484C109.692 68.3851 109.177 68.0521 108.632 67.7191C107.996 67.3256 107.39 66.932 106.724 66.5688C106.209 66.266 105.724 65.9936 105.209 65.7211C104.846 65.5395 104.482 65.3276 104.118 65.146C103.755 64.9643 103.422 64.7827 103.088 64.6313C102.816 64.48 102.543 64.3589 102.271 64.2378C102.271 64.2378 102.24 64.2378 102.21 64.2378C101.725 64.0259 101.241 63.814 100.786 63.6626C100.453 63.5415 100.12 63.4204 99.8168 63.2993C99.6653 63.2388 99.5442 63.2085 99.3927 63.148C99.2109 63.0874 99.0292 63.0269 98.8474 62.9664C98.393 62.815 97.9386 62.6939 97.5145 62.5728C97.0601 62.4517 96.636 62.3609 96.2119 62.2701C95.8787 62.2095 95.5757 62.149 95.2425 62.1187C95.1213 62.0885 95.0002 62.0582 94.879 62.0582C94.6366 62.0279 94.4246 61.9976 94.1822 61.9674C94.0611 61.9674 93.9399 61.9674 93.849 61.9674C93.7581 61.9674 93.6672 61.9674 93.5764 61.9674C93.2128 61.9674 92.8493 61.9371 92.4858 61.9371C92.2737 61.9371 92.0314 61.9371 91.8193 61.9371C91.6376 61.9371 91.4255 61.9371 91.2438 61.9674C91.2135 61.9674 91.1832 61.9674 91.1529 61.9674C90.9711 61.9674 90.7894 61.9976 90.6379 62.0279C90.3956 62.0279 90.1532 62.0885 89.9109 62.149C89.7594 62.149 89.6382 62.2095 89.4868 62.2398C89.2747 62.2701 89.0626 62.3306 88.8203 62.3912C88.6688 62.4215 88.4871 62.482 88.3356 62.5425C88.2144 62.5728 88.0933 62.6334 87.9721 62.6636C87.8812 62.6636 87.7903 62.7242 87.7297 62.7544C87.4571 62.8453 87.2147 62.9664 86.9724 63.0572C86.9118 63.0572 86.8209 63.1177 86.7603 63.148C86.4271 63.2994 86.1242 63.4507 85.8212 63.6323C85.3668 63.9048 84.9124 64.1772 84.4883 64.5102C83.8522 64.9946 83.2463 65.5092 82.701 66.1147C80.4593 68.4759 78.7629 71.715 77.5511 75.378L76.4909 75.9834C76.5818 75.6807 76.6726 75.378 76.7635 75.0753C76.8241 74.8634 76.915 74.6515 76.9756 74.4396C77.0664 74.1974 77.1573 73.9552 77.2179 73.713C77.2179 73.713 77.2179 73.6827 77.2179 73.6525C77.3997 73.1984 77.5511 72.7746 77.7329 72.3508C77.8238 72.1389 77.9147 71.927 78.0055 71.715C78.0964 71.5031 78.1873 71.3215 78.2782 71.1096C78.2782 71.0491 78.3388 70.9885 78.3691 70.928C78.5205 70.595 78.672 70.2922 78.8235 69.9895C79.5505 68.597 80.3381 67.4164 81.0955 66.4477C81.2167 66.3266 81.3378 66.1752 81.4287 66.0239C81.5196 65.9028 81.6105 65.7817 81.7316 65.6606C81.8225 65.5698 81.9134 65.479 82.0043 65.3881C82.4587 64.9038 82.9131 64.48 83.3675 64.0864C83.4584 64.0259 83.5492 63.9653 83.6098 63.9048C83.7007 63.814 83.7916 63.7534 83.8825 63.6929C84.0339 63.5718 84.1854 63.481 84.3369 63.3599C84.458 63.2691 84.6095 63.1783 84.761 63.0874C84.8519 63.0269 84.9427 62.9664 85.0033 62.9361C85.0942 62.8755 85.1851 62.815 85.276 62.7847C85.6395 62.5728 86.003 62.3912 86.3665 62.2095C87.8206 61.5436 89.4262 61.15 91.1226 61.0592C95.5454 60.7868 100.756 62.3609 106.693 65.7817C116.357 71.3518 124.173 79.6161 129.898 90.3022C134.048 98.0217 139.289 111.311 140.774 130.807C141.682 142.431 140.804 150.877 140.774 150.968L140.804 150.938Z" fill="#B9BCCE"/>
<path d="M65.7367 74.0763C65.7367 74.0763 65.5852 74.1671 65.5247 74.2277C65.3732 74.3185 65.2217 74.4396 65.0703 74.5606C65.04 74.5909 64.9794 74.6515 64.9491 74.6817C64.8279 74.7726 64.737 74.8634 64.6159 74.9542C64.5553 75.0147 64.4947 75.045 64.4644 75.1055C64.3432 75.2266 64.222 75.3175 64.1009 75.4385C64.0706 75.4688 64.0403 75.4991 63.9797 75.5596C63.8282 75.711 63.6768 75.8624 63.5253 76.044C63.495 76.0743 63.4344 76.1348 63.4041 76.1651C63.283 76.2862 63.1618 76.4375 63.0406 76.5586C62.98 76.6192 62.9194 76.6797 62.8891 76.7403C62.768 76.8916 62.6771 77.0127 62.5559 77.1641C62.4953 77.2246 62.465 77.2851 62.4044 77.3457C62.253 77.5576 62.1015 77.7392 61.95 77.9511C61.95 77.9511 61.9197 78.0117 61.8895 78.042C61.7683 78.2236 61.6168 78.4355 61.4956 78.6171C61.4351 78.7079 61.3745 78.829 61.2836 78.9199C61.223 79.0107 61.1624 79.1015 61.1018 79.2226C61.0412 79.3437 60.9807 79.4648 60.9201 79.5556C60.8595 79.6767 60.7989 79.7675 60.7383 79.8886C60.6777 80.0097 60.6171 80.1307 60.5565 80.2518C60.496 80.3729 60.4354 80.494 60.3748 80.6151C60.3142 80.7362 60.2536 80.8573 60.193 80.9784C60.1324 81.0995 60.0718 81.2205 60.0113 81.3416C59.9507 81.493 59.8598 81.6746 59.7689 81.826C59.7689 81.8865 59.7083 81.9774 59.678 82.0379C59.5569 82.2801 59.466 82.5223 59.3448 82.7947C59.3448 82.8553 59.3145 82.8855 59.2842 82.9158C59.1933 83.1277 59.1025 83.3699 59.0116 83.5818C58.9813 83.6726 58.951 83.7331 58.9207 83.824C58.8601 83.9753 58.7995 84.157 58.7389 84.3083C58.6178 84.6716 58.4663 85.0349 58.3451 85.3981C58.3451 85.4284 58.3451 85.4889 58.3148 85.5192C58.1937 85.8522 58.1028 86.2155 57.9816 86.5787L56.7699 87.275L55.7096 87.8805C55.8005 87.608 55.8914 87.3658 55.9519 87.0934C55.9519 87.0026 56.0125 86.9117 56.0125 86.8512C56.0731 86.6998 56.1337 86.5182 56.1943 86.3668C56.2549 86.2155 56.2852 86.0338 56.3761 85.8825C56.7699 84.7927 57.1637 83.7937 57.6181 82.8855C57.6181 82.8552 57.6181 82.7947 57.6484 82.7644C57.6484 82.7644 57.6484 82.7342 57.6787 82.7039C57.709 82.6433 57.7393 82.5525 57.7695 82.492C57.8907 82.2498 58.0119 81.9774 58.1331 81.7352C58.1634 81.6444 58.2239 81.5838 58.2542 81.5233C58.2845 81.4627 58.3148 81.4022 58.3451 81.3416C58.5269 80.9784 58.7389 80.6454 58.9207 80.3124C59.0419 80.1307 59.1328 79.9491 59.2539 79.7675C59.6174 79.1923 60.0113 78.6777 60.3748 78.1933C60.496 78.042 60.6171 77.9209 60.708 77.7695C60.7989 77.6484 60.8898 77.5576 60.9504 77.4668C61.1321 77.2549 61.3442 77.043 61.5562 76.8311C61.6471 76.7402 61.738 76.6494 61.7986 76.5889C62.0712 76.3164 62.3439 76.0743 62.6165 75.8321C62.7074 75.7715 62.7983 75.6807 62.8891 75.6202C62.98 75.5596 63.0709 75.4991 63.1618 75.4083C63.3132 75.2872 63.4647 75.1964 63.6162 75.0753C63.7374 74.9845 63.8888 74.8936 64.0403 74.8028C64.1312 74.7423 64.222 74.6817 64.3129 74.6515C64.4038 74.5909 64.4947 74.5304 64.5856 74.5001L65.6761 73.9552L65.7367 74.0763Z" fill="#535454"/>
<path d="M122.052 156.054C122.052 155.721 122.052 155.388 122.052 155.024C122.052 154.994 122.052 154.964 122.052 154.903C122.052 154.54 122.052 154.177 122.052 153.783C122.052 153.39 122.052 152.996 122.052 152.603V152.451C122.052 152.118 122.052 151.785 122.052 151.452C122.052 151.361 122.052 151.301 122.052 151.21C122.052 150.938 122.052 150.665 122.052 150.362C122.052 150.272 122.052 150.181 122.052 150.06C122.052 149.696 122.052 149.363 122.052 149C122.052 148.576 122.052 148.183 122.022 147.789C122.022 147.759 122.022 147.729 122.022 147.668C122.022 147.577 122.022 147.517 122.022 147.426C122.022 147.214 122.022 146.972 122.022 146.73C122.022 146.609 122.022 146.488 122.022 146.366C122.022 146.124 122.022 145.882 121.992 145.61C121.992 145.489 121.992 145.398 121.992 145.277C121.992 145.004 121.992 144.732 121.961 144.429C121.961 144.338 121.961 144.247 121.961 144.157C121.901 143.097 121.84 142.007 121.749 140.887C121.658 139.585 121.537 138.223 121.386 136.831C121.386 136.74 121.386 136.649 121.355 136.528C121.295 135.953 121.234 135.347 121.143 134.742C121.143 134.681 121.143 134.651 121.143 134.591C121.143 134.53 121.143 134.469 121.143 134.379C120.992 133.259 120.84 132.138 120.659 130.988C120.659 130.928 120.659 130.897 120.659 130.837C120.659 130.776 120.659 130.716 120.659 130.685C120.568 130.201 120.507 129.717 120.416 129.202C120.416 129.172 120.416 129.111 120.416 129.081C120.325 128.566 120.235 128.021 120.144 127.507C120.144 127.446 120.144 127.416 120.144 127.386C120.144 127.295 120.113 127.204 120.083 127.144C120.023 126.78 119.932 126.417 119.871 126.054C119.871 125.902 119.81 125.751 119.78 125.6C119.689 125.206 119.629 124.813 119.538 124.419C119.538 124.328 119.508 124.268 119.477 124.177C119.477 124.177 119.477 124.147 119.477 124.116C119.386 123.662 119.265 123.178 119.174 122.694C119.174 122.603 119.144 122.542 119.114 122.451C119.023 122.058 118.932 121.664 118.841 121.271C118.841 121.24 118.841 121.18 118.841 121.15C118.841 121.089 118.841 121.059 118.811 121.029C118.599 120.211 118.387 119.364 118.144 118.546C118.144 118.516 118.144 118.455 118.144 118.425C118.144 118.365 118.114 118.304 118.084 118.274C117.872 117.547 117.66 116.79 117.448 116.064C117.448 116.034 117.448 115.973 117.417 115.943C117.417 115.882 117.387 115.822 117.357 115.761C117.145 115.065 116.902 114.369 116.69 113.642C116.69 113.642 116.69 113.612 116.69 113.582C116.69 113.521 116.66 113.46 116.63 113.4C116.448 112.855 116.266 112.34 116.084 111.795C116.054 111.705 116.024 111.644 115.994 111.553C115.994 111.493 115.963 111.463 115.933 111.432C115.721 110.857 115.509 110.282 115.297 109.707C115.297 109.676 115.297 109.646 115.266 109.616C115.236 109.525 115.206 109.434 115.176 109.343C115.024 108.95 114.842 108.526 114.691 108.133C114.661 108.042 114.63 107.951 114.6 107.86C114.6 107.8 114.539 107.709 114.509 107.648C114.358 107.255 114.176 106.861 114.024 106.468C113.994 106.377 113.934 106.286 113.903 106.195C113.903 106.195 113.903 106.135 113.873 106.135C113.661 105.65 113.419 105.166 113.207 104.682C113.207 104.651 113.176 104.591 113.146 104.56C113.085 104.47 113.055 104.349 112.994 104.258C112.813 103.894 112.631 103.501 112.449 103.138C112.419 103.047 112.389 102.986 112.328 102.895C112.298 102.835 112.267 102.744 112.207 102.684C111.995 102.29 111.783 101.896 111.601 101.473C111.571 101.382 111.51 101.291 111.48 101.23C111.48 101.17 111.419 101.14 111.389 101.079C110.995 100.353 110.601 99.626 110.177 98.9298C110.147 98.8692 110.117 98.8087 110.056 98.7481C109.935 98.506 109.783 98.2941 109.632 98.0519C109.42 97.7189 109.238 97.3859 109.026 97.0529C108.844 96.7502 108.662 96.4777 108.481 96.175C108.269 95.842 108.057 95.5393 107.845 95.2063C107.784 95.1155 107.754 95.0549 107.693 94.9641C107.602 94.8127 107.481 94.6614 107.39 94.51C107.087 94.0559 106.754 93.6019 106.421 93.1478C106.33 93.0267 106.239 92.9056 106.178 92.7845C106.057 92.6331 105.936 92.4818 105.815 92.3304C105.663 92.1185 105.482 91.9066 105.33 91.6947C105.239 91.5736 105.148 91.4525 105.058 91.3314C104.876 91.0893 104.694 90.8773 104.512 90.6352C104.391 90.4838 104.3 90.3627 104.179 90.2114C104.118 90.1508 104.088 90.0903 104.058 90.0297C103.725 89.6059 103.361 89.2124 103.028 88.8188C103.028 88.8188 103.028 88.8188 102.998 88.7886C102.937 88.728 102.876 88.6372 102.786 88.5767C102.513 88.2739 102.24 87.9409 101.937 87.6382C101.846 87.5474 101.786 87.4869 101.695 87.396C101.544 87.2447 101.422 87.0933 101.271 86.9419C101.119 86.7906 100.938 86.609 100.786 86.4576C100.635 86.3062 100.514 86.1851 100.362 86.0338C100.18 85.8824 100.029 85.7008 99.8774 85.5494C99.7562 85.4586 99.6653 85.3375 99.5745 85.2467C99.3927 85.0651 99.1807 84.8834 98.9989 84.7018C98.8171 84.5504 98.6657 84.3688 98.4839 84.2174C98.4233 84.1569 98.3627 84.0964 98.3022 84.0358C98.0598 83.8239 97.8175 83.5817 97.5448 83.3698C97.3631 83.2185 97.2116 83.0671 97.0298 82.9157C96.9995 82.8855 96.9692 82.8552 96.9389 82.8249C96.5754 82.5222 96.2119 82.2195 95.8484 81.9168C95.7575 81.8259 95.6666 81.7654 95.5454 81.6746C95.5454 81.6746 95.5454 81.6746 95.5152 81.6443C95.0305 81.2508 94.5155 80.8875 94.0308 80.5242C94.0308 80.5242 94.0308 80.5242 94.0005 80.5242C93.8793 80.4334 93.7581 80.3426 93.637 80.2518C93.2734 79.9793 92.8796 79.7069 92.5161 79.4647C92.4858 79.4647 92.4555 79.4344 92.4252 79.4042C92.2132 79.2528 92.0011 79.1014 91.7588 78.9803C91.4861 78.7987 91.2135 78.6171 90.9106 78.4354C90.85 78.4052 90.7894 78.3749 90.7288 78.3446C90.4864 78.1933 90.2441 78.0419 90.0017 77.8905C89.7594 77.7392 89.4868 77.5878 89.2444 77.4365C89.1232 77.3456 88.9718 77.2851 88.8506 77.1943C88.4265 76.9521 88.0024 76.7099 87.5783 76.4677C87.5177 76.4375 87.4571 76.4072 87.4268 76.3769C87.1845 76.2256 86.9118 76.1045 86.6695 75.9834C86.4574 75.8623 86.2454 75.7715 86.0333 75.6504C85.9727 75.6504 85.9121 75.5898 85.8516 75.5596C85.6395 75.4688 85.4274 75.3477 85.2154 75.2569C85.0033 75.166 84.7913 75.0449 84.5792 74.9541C84.4883 74.9239 84.4278 74.8936 84.3369 74.8633C84.1551 74.7725 83.9431 74.7119 83.7613 74.6211C83.5795 74.5303 83.3978 74.4698 83.216 74.379C83.1251 74.3487 83.004 74.3184 82.9131 74.2579C82.7313 74.1973 82.5496 74.1065 82.3375 74.046C82.1861 73.9854 82.0346 73.9249 81.8831 73.8643C81.7619 73.8038 81.6105 73.7735 81.4893 73.7432C81.3075 73.6827 81.1258 73.6221 80.944 73.5616C80.8228 73.5313 80.732 73.5011 80.6108 73.4405C80.429 73.38 80.2776 73.3497 80.0958 73.2891C79.914 73.2286 79.7626 73.1983 79.5808 73.1378C79.5202 73.1378 79.4293 73.1075 79.3688 73.0772C79.1567 73.0167 78.9144 72.9864 78.7023 72.9259C78.5508 72.8956 78.3994 72.8653 78.2782 72.8351C78.2479 72.8351 78.1873 72.8351 78.157 72.8351C77.8844 72.7745 77.5815 72.7443 77.3088 72.6837C77.2179 72.6837 77.0968 72.6534 77.0059 72.6232C77.0059 72.6232 77.0059 72.6232 76.9756 72.6232C76.5818 72.5626 76.1577 72.5323 75.7638 72.5021C75.7638 72.5021 75.4912 72.5021 75.37 72.5021C75.0974 72.5021 74.7945 72.5021 74.5218 72.5021C74.128 72.5021 73.7645 72.5021 73.401 72.5626C73.3707 72.5626 73.3404 72.5626 73.3101 72.5626C73.3101 72.5626 73.3101 72.5626 73.2798 72.5626C72.9466 72.5626 72.6133 72.6232 72.2801 72.6837C72.2195 72.6837 72.1286 72.6837 72.0681 72.714C71.9772 72.714 71.8863 72.714 71.8257 72.7443C71.6136 72.7745 71.4319 72.8351 71.2501 72.8956C71.1592 72.8956 71.0987 72.9259 71.0078 72.9562C70.7048 73.047 70.3716 73.1378 70.0687 73.2286H70.0081C69.9778 73.2286 69.9475 73.2286 69.9172 73.2589C69.584 73.38 69.2811 73.5011 68.9478 73.6524C68.9478 73.6524 68.9175 73.6524 68.8872 73.6524C68.554 73.8038 68.2511 73.9854 67.9178 74.167C67.1605 74.6211 66.4032 75.0449 65.6458 75.499C65.9488 75.3174 66.282 75.1358 66.6152 74.9844C66.6152 74.9844 66.6455 74.9844 66.6758 74.9541C66.9788 74.8028 67.312 74.6817 67.6452 74.5606C67.6755 74.5606 67.7058 74.5606 67.7361 74.5303C68.0693 74.4092 68.4025 74.3184 68.7358 74.2276C68.8267 74.2276 68.8872 74.1973 68.9781 74.167C69.2508 74.1065 69.5234 74.046 69.796 73.9854C69.8566 73.9854 69.9475 73.9854 70.0081 73.9551C70.3413 73.8946 70.7048 73.8643 71.0381 73.8341C71.0684 73.8341 71.0987 73.8341 71.129 73.8341C71.4925 73.8038 71.8863 73.7735 72.2498 73.7735C72.5224 73.7735 72.8254 73.7735 73.1283 73.7735C73.2495 73.7735 73.401 73.7735 73.5221 73.7735C73.9462 73.7735 74.3401 73.8341 74.7642 73.8946C74.855 73.8946 74.9762 73.9249 75.0974 73.9551C75.4003 74.0157 75.7336 74.046 76.0668 74.1065C76.2182 74.1065 76.3697 74.167 76.4909 74.1973C76.7635 74.2579 77.0665 74.3184 77.3391 74.4092C77.5209 74.4395 77.6723 74.5 77.8541 74.5606C78.1267 74.6211 78.3994 74.7119 78.672 74.8028C78.8538 74.8633 79.0355 74.9239 79.2173 74.9844C79.4899 75.0752 79.7626 75.166 80.0352 75.2871C80.217 75.3477 80.3987 75.4385 80.6108 75.499C80.8834 75.6201 81.1864 75.7109 81.459 75.832C81.6408 75.9228 81.8528 75.9834 82.0346 76.0742C82.3072 76.1953 82.6102 76.3467 82.9131 76.4677C83.1251 76.5586 83.3372 76.6796 83.5493 76.7705C83.8219 76.8916 84.0945 77.0429 84.3369 77.164C84.5792 77.2851 84.8519 77.4062 85.0942 77.5575C85.5789 77.7997 86.0636 78.0722 86.5483 78.3446C86.9421 78.5565 87.3056 78.7987 87.6995 79.0409C87.9418 79.1922 88.1841 79.3436 88.4265 79.495C88.79 79.7069 89.1232 79.9491 89.4868 80.1912C89.6685 80.3123 89.8806 80.4334 90.0926 80.5848C90.5167 80.8875 90.9408 81.1599 91.3347 81.4627C91.4558 81.5535 91.577 81.614 91.6982 81.7048C92.2435 82.0984 92.7585 82.4919 93.2734 82.9157C93.3643 83.0066 93.4552 83.0671 93.5461 83.1579C93.9702 83.4909 94.364 83.8239 94.7578 84.1569C94.9396 84.3083 95.091 84.4596 95.2728 84.5807C95.606 84.8532 95.909 85.1559 96.2422 85.4283C96.424 85.5797 96.6057 85.7613 96.7875 85.9127C97.0904 86.1851 97.3933 86.4879 97.666 86.7603C97.8478 86.9117 97.9992 87.0933 98.181 87.2749C98.4839 87.5777 98.7565 87.8804 99.0595 88.1831C99.211 88.3345 99.3624 88.4858 99.5139 88.6372C99.8774 89.0005 100.211 89.394 100.574 89.7875C100.635 89.8784 100.726 89.9389 100.786 90.0297C101.18 90.4838 101.604 90.9682 101.998 91.4525C102.119 91.6039 102.24 91.725 102.361 91.8763C102.634 92.2093 102.937 92.5726 103.21 92.9359C103.391 93.1478 103.543 93.3597 103.725 93.6019C103.937 93.8743 104.118 94.1468 104.331 94.4192C104.664 94.8733 104.967 95.3274 105.3 95.7815C105.451 96.0236 105.603 96.2355 105.754 96.4474C105.966 96.7804 106.178 97.0832 106.39 97.4162C106.572 97.6886 106.754 97.9913 106.936 98.2638C107.148 98.5968 107.33 98.9298 107.542 99.2628C107.723 99.5352 107.875 99.8379 108.057 100.141C108.481 100.837 108.875 101.563 109.268 102.29C109.329 102.411 109.42 102.562 109.48 102.684C109.692 103.077 109.905 103.471 110.117 103.894C110.207 104.046 110.268 104.197 110.359 104.349C110.541 104.712 110.722 105.105 110.904 105.469C110.965 105.62 111.056 105.741 111.116 105.892C111.328 106.377 111.571 106.861 111.783 107.345C111.843 107.467 111.874 107.588 111.934 107.678C112.116 108.072 112.267 108.466 112.449 108.859C112.51 109.01 112.57 109.162 112.631 109.313C112.782 109.707 112.964 110.131 113.116 110.524C113.176 110.645 113.207 110.766 113.267 110.887C113.479 111.463 113.691 112.038 113.903 112.583C113.964 112.704 113.994 112.855 114.055 112.976C114.236 113.491 114.418 114.036 114.6 114.55C114.6 114.641 114.661 114.702 114.691 114.792C114.933 115.489 115.145 116.215 115.357 116.912C115.388 117.002 115.418 117.123 115.448 117.214C115.691 117.941 115.872 118.698 116.084 119.424C116.084 119.515 116.145 119.606 116.175 119.727C116.418 120.544 116.63 121.392 116.811 122.209C116.811 122.27 116.842 122.361 116.872 122.421C117.114 123.39 117.326 124.358 117.569 125.327C117.569 125.418 117.599 125.509 117.629 125.63C117.72 126.023 117.811 126.417 117.872 126.811C117.872 126.962 117.932 127.113 117.963 127.295C118.023 127.658 118.114 128.021 118.175 128.385C118.175 128.506 118.235 128.657 118.235 128.778C118.326 129.323 118.417 129.838 118.508 130.383C118.508 130.413 118.508 130.473 118.508 130.504C118.599 130.988 118.659 131.503 118.75 131.987C118.75 132.078 118.78 132.199 118.811 132.29C118.993 133.44 119.144 134.56 119.295 135.68C119.295 135.801 119.326 135.892 119.356 136.013C119.417 136.619 119.508 137.194 119.568 137.799C119.568 137.89 119.568 137.981 119.568 138.102C119.629 138.708 119.689 139.313 119.75 139.918C119.81 140.675 119.871 141.402 119.932 142.128C119.992 142.855 120.053 143.581 120.083 144.278C120.083 144.671 120.113 145.034 120.144 145.398C120.144 145.489 120.144 145.579 120.144 145.67C120.144 145.943 120.144 146.215 120.174 146.518C120.174 146.639 120.174 146.76 120.174 146.851C120.174 147.093 120.174 147.335 120.204 147.608C120.204 147.729 120.204 147.85 120.204 147.971C120.204 148.213 120.204 148.425 120.204 148.667C120.204 148.788 120.204 148.909 120.204 149C120.204 149.394 120.204 149.787 120.204 150.15V150.211C120.204 150.574 120.204 150.938 120.204 151.271C120.204 151.361 120.204 151.452 120.204 151.573C120.204 151.846 120.204 152.148 120.204 152.421V153.813C120.204 154.177 120.204 154.57 120.204 154.903C120.204 154.933 120.204 154.964 120.204 155.024C120.204 155.388 120.204 155.751 120.204 156.084C120.204 156.144 120.204 156.205 120.204 156.265C120.204 156.598 120.204 156.931 120.204 157.234C120.204 157.264 120.204 157.295 120.204 157.325C120.204 157.628 120.204 157.93 120.174 158.203V158.294C120.174 158.475 120.174 158.627 120.174 158.778V158.839C120.144 159.384 120.113 159.898 120.083 160.322C120.083 160.443 120.083 160.564 120.083 160.685C120.083 160.716 120.083 160.776 120.083 160.806C120.083 160.897 120.083 160.958 120.083 161.018C120.083 161.079 120.083 161.139 120.083 161.17C120.083 161.23 120.083 161.291 120.083 161.321C120.083 161.381 120.083 161.412 120.083 161.442C120.083 161.503 120.083 161.563 120.083 161.593V161.654C120.083 161.714 120.083 161.775 120.083 161.836C120.083 161.836 120.083 161.866 120.083 161.896C120.083 161.957 120.083 161.987 120.083 162.047C120.083 162.078 120.083 162.108 120.083 162.138C120.083 162.138 120.083 162.138 120.083 162.169C120.083 162.169 120.083 162.199 120.083 162.229L120.78 162.623L122.264 161.775L122.355 160.927C122.355 160.927 122.355 160.927 122.355 160.897C122.355 160.897 122.355 160.897 122.355 160.867C122.355 160.867 122.355 160.806 122.355 160.776C122.355 160.776 122.355 160.655 122.355 160.594C122.355 160.594 122.355 160.564 122.355 160.534C122.355 160.473 122.355 160.413 122.355 160.352C122.355 160.352 122.355 160.322 122.355 160.292C122.355 160.292 122.355 160.171 122.355 160.11C122.355 160.08 122.355 160.019 122.355 159.989C122.355 159.959 122.355 159.898 122.355 159.838C122.355 159.777 122.355 159.717 122.355 159.656C122.355 159.595 122.355 159.535 122.355 159.474C122.355 159.414 122.355 159.353 122.355 159.323C122.355 159.232 122.355 159.111 122.355 158.99C122.355 158.99 122.355 158.929 122.355 158.899C122.355 158.627 122.385 158.294 122.416 157.961C122.416 157.779 122.416 157.597 122.416 157.446C122.416 157.416 122.416 157.386 122.416 157.355C122.416 157.204 122.416 157.053 122.416 156.901C122.416 156.901 122.416 156.841 122.416 156.81C122.416 156.538 122.416 156.235 122.446 155.902V155.842L122.052 156.054Z" fill="#9DA4BE"/>
<path d="M55.0128 90.6052L55.0435 90.5746V90.6052H55.0128Z" fill="#2E3135"/>
<path d="M120.174 162.835L119.477 162.441C119.477 162.441 119.477 162.29 119.508 162.048C119.508 161.987 119.508 161.896 119.508 161.805C119.568 161.139 119.629 159.959 119.72 158.354C119.72 158.203 119.72 158.082 119.72 157.931C119.72 157.598 119.72 157.265 119.75 156.901C119.75 156.75 119.75 156.568 119.75 156.417C119.75 156.266 119.75 156.144 119.75 155.993C119.75 155.721 119.75 155.448 119.75 155.176C119.75 154.752 119.75 154.328 119.75 153.904C119.75 153.662 119.75 153.42 119.75 153.147C119.75 152.936 119.75 152.754 119.75 152.542C119.75 152.27 119.75 151.997 119.75 151.694C119.75 150.877 119.75 150.029 119.689 149.121C119.689 148.667 119.689 148.183 119.629 147.729C119.598 146.942 119.568 146.124 119.508 145.277C119.508 145.004 119.508 144.702 119.447 144.429C119.386 143.37 119.295 142.31 119.205 141.19C119.205 140.827 119.144 140.433 119.114 140.07C119.114 139.767 119.053 139.464 119.023 139.162C118.993 138.738 118.932 138.284 118.902 137.86C118.841 137.315 118.78 136.74 118.69 136.195C118.69 136.074 118.69 135.983 118.659 135.862C118.599 135.408 118.538 134.954 118.478 134.5C118.326 133.44 118.175 132.381 117.993 131.291C117.963 131.049 117.932 130.807 117.872 130.564C117.781 130.019 117.69 129.505 117.599 128.96C117.599 128.839 117.569 128.718 117.538 128.566C117.357 127.658 117.175 126.75 116.993 125.842C116.872 125.267 116.751 124.692 116.599 124.116C116.569 123.874 116.508 123.662 116.448 123.42C116.387 123.087 116.296 122.784 116.206 122.451C116.206 122.361 116.145 122.239 116.115 122.118C115.994 121.634 115.872 121.15 115.751 120.665C115.751 120.665 115.751 120.635 115.751 120.605C115.66 120.272 115.569 119.969 115.479 119.666C115.266 118.94 115.054 118.183 114.842 117.456C114.812 117.366 114.782 117.245 114.751 117.154C114.509 116.336 114.236 115.519 113.964 114.702C113.812 114.217 113.631 113.733 113.449 113.249C113.449 113.249 113.449 113.218 113.449 113.188C113.388 112.976 113.297 112.764 113.237 112.552C112.873 111.523 112.479 110.524 112.055 109.495C111.995 109.343 111.934 109.192 111.874 109.041C111.449 108.042 111.025 107.043 110.541 106.074C110.541 106.074 110.541 106.074 110.541 106.044C110.48 105.923 110.42 105.771 110.359 105.65C110.177 105.257 109.995 104.893 109.814 104.53C109.632 104.167 109.45 103.834 109.268 103.471C109.087 103.138 108.935 102.805 108.753 102.472C108.572 102.108 108.36 101.745 108.148 101.382C107.602 100.383 107.027 99.4142 106.421 98.4455C105.421 96.8108 104.331 95.2669 103.21 93.7533C103.058 93.5414 102.876 93.3295 102.695 93.0873C102.301 92.5727 101.907 92.0883 101.513 91.6039C101.331 91.3618 101.119 91.1196 100.907 90.8774C100.635 90.5444 100.362 90.2417 100.089 89.939C99.7562 89.5454 99.3927 89.1519 99.0292 88.7886C98.4233 88.1529 97.8175 87.5172 97.1813 86.9117C96.3937 86.1549 95.606 85.4284 94.7881 84.7321C94.5458 84.5202 94.3337 84.3386 94.0914 84.1267C93.7581 83.824 93.3946 83.5515 93.0614 83.2791C92.9705 83.1883 92.8796 83.1277 92.7887 83.0672C92.2738 82.6434 91.7285 82.2498 91.1832 81.8563C91.062 81.7655 90.9408 81.6746 90.8197 81.6141C90.3956 81.3114 90.0018 81.0086 89.5776 80.7362C89.5776 80.7362 89.5171 80.7059 89.4868 80.6756C89.1535 80.4335 88.79 80.2216 88.4568 79.9794C88.275 79.8583 88.0933 79.7372 87.9418 79.6464C87.6995 79.495 87.4571 79.3437 87.2148 79.1923C86.8209 78.9501 86.4574 78.7382 86.0636 78.496C85.8213 78.3447 85.5789 78.2236 85.3366 78.0722C85.0942 77.9511 84.8519 77.7998 84.6095 77.6787C84.0945 77.4062 83.5493 77.1338 83.0646 76.8916C82.8525 76.7705 82.6404 76.6797 82.4284 76.5889C82.1558 76.4375 81.8831 76.3164 81.6105 76.2256L81.5499 76.1954C80.8834 75.8926 80.217 75.6202 79.5808 75.4083C79.3082 75.3175 79.0355 75.1964 78.7629 75.1055C78.672 75.0753 78.5811 75.045 78.4903 75.0147C78.4297 75.0147 78.3691 74.9845 78.3388 74.9542C78.157 74.8936 78.0056 74.8331 77.8238 74.8028C77.5512 74.712 77.2785 74.6515 77.0362 74.5909C76.7029 74.5001 76.3697 74.4093 76.0365 74.3487C75.885 74.3185 75.7335 74.2882 75.6124 74.2579C75.2489 74.1671 74.855 74.1066 74.4915 74.0763C74.3401 74.0763 74.1583 74.0158 74.0068 74.0158C73.8251 74.0158 73.613 73.9552 73.4312 73.9552H73.401C73.401 73.9552 73.098 73.9552 72.9466 73.9249H72.886C72.5527 73.9249 72.2195 73.8947 71.9166 73.8947C71.7045 73.8947 71.4622 73.8947 71.2501 73.8947C71.0684 73.8947 70.8563 73.8947 70.6745 73.9249C70.6745 73.9249 70.614 73.9249 70.5837 73.9249C70.4019 73.9249 70.2504 73.9552 70.0687 73.9855C69.8263 73.9855 69.584 74.046 69.3416 74.1066C69.1902 74.1066 69.069 74.1368 68.9175 74.1974C68.7055 74.2277 68.4934 74.2882 68.2814 74.3487C68.0996 74.4093 67.8876 74.4396 67.7058 74.5001C67.5846 74.5304 67.4937 74.5909 67.3726 74.6212C67.2211 74.6515 67.0999 74.712 66.9788 74.7726C66.7061 74.8936 66.4335 74.9845 66.1608 75.1055C66.0094 75.1661 65.8276 75.2569 65.6761 75.3477C65.5247 75.4385 65.3732 75.4991 65.2217 75.5899C64.7673 75.8624 64.3129 76.1348 63.8888 76.4678C63.2527 76.9522 62.6468 77.4668 62.1015 78.0722C59.8295 80.4637 58.1331 83.7331 56.9213 87.4264L55.8611 88.0318C55.9519 87.7594 56.0125 87.5172 56.1034 87.2447C56.1943 87.0026 56.2549 86.7604 56.3458 86.5182C56.4063 86.3668 56.4366 86.1852 56.5275 86.0338C56.9213 84.944 57.3152 83.9451 57.7696 83.0369C57.8301 82.9158 57.8907 82.7644 57.9513 82.6433C58.1331 82.2498 58.3451 81.8563 58.5572 81.493C58.7389 81.1297 58.951 80.7967 59.1328 80.4637C59.2539 80.2821 59.3448 80.1005 59.466 79.9188C59.8295 79.3437 60.2233 78.829 60.5868 78.3447C60.708 78.1933 60.8292 78.0722 60.9201 77.9209C61.011 77.7998 61.1018 77.709 61.1624 77.6181C61.3442 77.4062 61.5562 77.1943 61.7683 76.9824C61.8592 76.8916 61.95 76.8008 62.0106 76.7403C62.2833 76.4678 62.5559 76.2256 62.8286 75.9834C62.9194 75.9229 63.0103 75.8321 63.1012 75.7715C63.1921 75.711 63.283 75.6202 63.3738 75.5596C63.5253 75.4385 63.6768 75.3477 63.8282 75.2266C63.9494 75.1358 64.1009 75.045 64.2523 74.9542C64.3432 74.8936 64.4341 74.8331 64.525 74.8028C64.6159 74.7423 64.7067 74.6817 64.7976 74.6515C65.1611 74.4396 65.5247 74.2579 65.8882 74.1066C67.3423 73.4406 68.9175 73.047 70.614 72.9562C73.2495 72.7746 76.1274 73.2589 79.3082 74.4093C81.4893 75.1964 83.7916 76.2862 86.2151 77.6787C95.8787 83.2488 103.694 91.5131 109.42 102.199C109.995 103.259 110.601 104.439 111.177 105.741C114.933 113.733 118.993 125.933 120.295 142.704C121.174 154.116 120.356 162.471 120.295 162.865L120.174 162.835Z" fill="#B9BCCE"/>
<path d="M112.055 50.9482C102.755 45.59 87.6389 45.59 78.3388 50.9482C73.6736 53.6424 71.341 57.154 71.3713 60.6656C71.3713 64.1772 73.7039 67.6888 78.3388 70.383C87.6389 75.7412 102.725 75.7412 112.055 70.383C116.721 67.6888 119.023 64.1772 119.023 60.6656C119.023 57.154 116.69 53.6122 112.055 50.9482Z" fill="#293035"/>
<path d="M112.055 70.4133C102.755 75.7715 87.6389 75.7715 78.3388 70.4133C73.6736 67.7191 71.3713 64.2075 71.3713 60.6959V66.5082C71.3713 70.0198 73.7039 73.5616 78.3388 76.2256C87.6389 81.5838 102.725 81.5838 112.055 76.2256C116.721 73.5314 119.023 70.0198 119.023 66.5082V60.6959C119.023 64.2075 116.69 67.7191 112.055 70.4133Z" fill="#2C2A41"/>
<path d="M164.16 18.5569C164.16 18.5569 164.16 18.678 164.16 18.7688C164.16 18.7688 164.16 18.7688 164.16 18.7991C164.16 18.8596 164.13 18.9202 164.099 18.9504C164.099 18.9807 164.069 19.011 164.069 19.0412C164.069 19.0715 164.039 19.1018 164.009 19.1623C163.948 19.2229 163.918 19.3137 163.857 19.4045C163.797 19.4953 163.706 19.5861 163.615 19.677C163.615 19.7072 163.554 19.7375 163.524 19.7678C163.463 19.798 163.433 19.8586 163.372 19.8889C163.342 19.8889 163.282 19.9494 163.251 19.9797C163.191 20.0402 163.13 20.0705 163.039 20.131C162.979 20.1613 162.948 20.1916 162.888 20.2219L32.9289 95.6604C32.7472 95.7512 32.5654 95.842 32.3837 95.9328C32.3231 95.9631 32.2322 95.9934 32.1716 96.0237C32.0504 96.0842 31.9293 96.1145 31.8081 96.1447C31.5657 96.2356 31.3234 96.2658 31.081 96.3264C30.8993 96.3566 30.7175 96.3869 30.5661 96.4172C30.3843 96.4172 30.1722 96.4172 29.9905 96.4172H29.9602C29.7784 96.4172 29.5967 96.4172 29.4149 96.3869C29.2634 96.3869 29.0817 96.3264 28.9605 96.2658C28.9605 96.2658 28.9302 96.2658 28.8999 96.2658C28.7485 96.2053 28.6273 96.175 28.5061 96.0842C28.1123 95.842 27.9002 95.5393 27.9002 95.176C27.9002 96.2961 27.9002 97.4464 27.9002 98.5665C27.9002 98.9298 28.082 99.2325 28.5061 99.4747C28.597 99.5352 28.6879 99.5655 28.7787 99.5958C28.809 99.5958 28.8696 99.5958 28.8999 99.6261C28.8999 99.6261 28.9302 99.6261 28.9605 99.6261C28.9605 99.6261 28.9908 99.6261 29.0211 99.6261C29.0817 99.6261 29.1726 99.6563 29.2331 99.6866C29.2937 99.6866 29.3543 99.6866 29.4149 99.7169C29.4755 99.7169 29.5664 99.7169 29.627 99.7169C29.7178 99.7169 29.8087 99.7169 29.8996 99.7169H30.2025C30.2025 99.7169 30.4146 99.7169 30.5358 99.7169C30.5358 99.7169 30.8387 99.6866 30.9902 99.6563C30.9902 99.6563 31.0205 99.6563 31.0508 99.6563C31.2931 99.5958 31.5354 99.5352 31.7778 99.4747C31.899 99.4444 31.9899 99.3839 32.0807 99.3536C32.1716 99.3536 32.2322 99.2931 32.3231 99.2628C32.5048 99.172 32.6866 99.0812 32.8684 98.9903L162.827 23.6124C162.827 23.6124 162.888 23.6124 162.888 23.5821C162.888 23.5821 162.948 23.5518 162.979 23.5215C163.039 23.461 163.13 23.4307 163.191 23.3702C163.221 23.3702 163.282 23.3096 163.312 23.2794C163.372 23.2188 163.433 23.1885 163.494 23.128C163.494 23.128 163.524 23.0977 163.554 23.0675C163.554 23.0675 163.554 23.0675 163.584 23.0372C163.675 22.9464 163.766 22.8555 163.827 22.7647C163.887 22.6739 163.948 22.6134 163.978 22.5226C163.978 22.5226 163.978 22.462 164.009 22.4317C164.009 22.4015 164.039 22.3712 164.069 22.3106C164.069 22.2501 164.099 22.2198 164.099 22.1593C164.099 22.1593 164.099 22.1593 164.099 22.129C164.099 22.129 164.099 22.0079 164.099 21.9474C164.099 20.9484 164.099 19.9797 164.099 18.9807V18.5872L164.16 18.5569Z" fill="#5AC245"/>
<path d="M163.584 17.6487C164.614 18.2541 164.281 19.4045 162.827 20.2218L32.9289 95.6604C31.4749 96.508 29.5058 96.6896 28.4758 96.0842C27.4458 95.509 27.7791 94.3284 29.2331 93.511L159.101 18.1028C160.525 17.2551 162.524 17.0735 163.554 17.6487H163.584Z" fill="#78E876"/>
<path d="M27.8699 17.9515C27.8699 17.9515 27.8699 18.0726 27.8699 18.1634C27.8699 18.1634 27.8699 18.1634 27.8699 18.1937C27.8699 18.2543 27.87 18.2845 27.9305 18.3451C27.9305 18.3754 27.9608 18.4056 27.9608 18.4359C27.9608 18.4662 27.9911 18.5267 28.0214 18.557C28.0517 18.6478 28.1123 18.7083 28.1729 18.7992C28.2335 18.89 28.3244 18.9808 28.4152 19.0716C28.4455 19.0716 28.4758 19.1322 28.5061 19.1624C28.5667 19.1927 28.597 19.2532 28.6576 19.2835C28.6879 19.2835 28.7485 19.3441 28.7788 19.3743C28.8393 19.4349 28.8999 19.4652 28.9908 19.4954C29.0514 19.5257 29.0817 19.556 29.1423 19.5862L159.101 95.0853C159.283 95.1761 159.465 95.2669 159.646 95.3578C159.707 95.388 159.798 95.4183 159.858 95.4486C159.98 95.4789 160.101 95.5394 160.222 95.5697C160.464 95.6605 160.707 95.721 160.949 95.7513C161.131 95.7816 161.312 95.8118 161.494 95.8421C161.676 95.8421 161.888 95.8421 162.07 95.8421C162.252 95.8421 162.433 95.8421 162.615 95.8118C162.797 95.8118 162.948 95.7513 163.1 95.6908C163.1 95.6908 163.13 95.6908 163.16 95.6908C163.312 95.6302 163.433 95.5999 163.554 95.5091C163.948 95.2669 164.16 94.9642 164.16 94.601C164.16 95.721 164.16 96.8714 164.16 97.9914C164.16 98.3547 163.978 98.6574 163.554 98.8996C163.463 98.9602 163.372 98.9904 163.282 99.0207C163.251 99.0207 163.191 99.0207 163.16 99.051C163.16 99.051 163.13 99.051 163.1 99.051C163.1 99.051 163.069 99.051 163.039 99.051C162.979 99.051 162.888 99.0813 162.827 99.1115C162.767 99.1115 162.706 99.1115 162.645 99.1418C162.554 99.1418 162.494 99.1418 162.403 99.1418C162.312 99.1418 162.221 99.1418 162.161 99.1418C162.161 99.1418 162.161 99.1418 162.13 99.1418C162.13 99.1418 162.13 99.1418 162.1 99.1418C162.039 99.1418 161.949 99.1418 161.888 99.1418C161.767 99.1418 161.676 99.1418 161.555 99.1418C161.403 99.1418 161.252 99.1115 161.1 99.0813C161.1 99.0813 161.07 99.0813 161.04 99.0813C160.797 99.0207 160.555 98.9602 160.313 98.8996C160.192 98.8996 160.101 98.8088 160.01 98.7785C159.919 98.7785 159.828 98.718 159.768 98.6877C159.586 98.5969 159.404 98.5061 159.222 98.4153L29.2029 23.0373C29.2029 23.0373 29.1423 23.0373 29.1423 23.007C29.112 23.007 29.0817 22.9767 29.0514 22.9465C28.9908 22.8859 28.8999 22.8556 28.8393 22.7951C28.809 22.7951 28.7788 22.7346 28.7182 22.7043C28.6576 22.6437 28.597 22.6135 28.5364 22.5529C28.5364 22.5529 28.5061 22.5227 28.4758 22.4924C28.4758 22.4924 28.4758 22.4924 28.4455 22.4621C28.3546 22.3713 28.2638 22.2805 28.2032 22.1897C28.2032 22.1897 28.082 22.0383 28.0517 21.9475C28.0517 21.9475 28.0517 21.8869 28.0214 21.8567C28.0214 21.8264 27.9911 21.7961 27.9608 21.7356C27.9608 21.675 27.9305 21.6448 27.9305 21.5842C27.9305 21.5842 27.9305 21.5842 27.9305 21.5539C27.9305 21.5539 27.9305 21.4329 27.9305 21.3723C27.9305 20.3733 27.9305 19.4046 27.9305 18.4056V18.0121L27.8699 17.9515Z" fill="#5AC245"/>
<path d="M28.4759 17.0433C27.4459 17.6488 27.7792 18.7991 29.2332 19.6165L159.101 95.0853C160.555 95.9329 162.524 96.1145 163.554 95.5091C164.584 94.9036 164.251 93.7533 162.797 92.9359L32.929 17.4974C31.475 16.6498 29.5059 16.4682 28.4759 17.0433Z" fill="#78E876"/>
<path d="M121.204 52.0078C121.174 52.1894 121.143 52.3711 121.083 52.5527C121.083 52.6133 121.083 52.6435 121.052 52.7041C120.447 55.5497 117.963 58.3347 113.6 60.5143C103.452 65.6001 86.9724 65.6001 76.8241 60.5143C72.583 58.3953 70.099 55.7313 69.4022 52.9463C69.3719 52.7949 69.3416 52.6738 69.3113 52.5224C69.3113 52.4014 69.2508 52.2803 69.2205 52.1592V61.3619C68.8872 64.9038 71.4016 68.5062 76.7938 71.2004C86.9421 76.2862 103.422 76.2862 113.57 71.2004C118.962 68.5062 121.507 64.9038 121.143 61.3619V51.9775L121.204 52.0078Z" fill="#0B0B27"/>
<path d="M121.719 46.8918C121.719 48.6476 121.537 50.3428 121.204 52.0078C121.204 52.0078 121.204 52.0381 121.204 52.1289C121.204 52.1895 121.204 52.2197 121.174 52.3105C121.174 52.3711 121.174 52.4619 121.113 52.583C121.113 52.6435 121.113 52.6738 121.083 52.7344C121.053 52.916 120.992 53.0976 120.931 53.2793C120.901 53.4306 120.84 53.6123 120.78 53.7636C120.78 53.7636 120.78 53.8242 120.75 53.8544C120.689 54.0058 120.628 54.1874 120.538 54.3388C120.447 54.5204 120.356 54.7021 120.265 54.8534C120.204 54.9745 120.144 55.0956 120.053 55.2167C120.023 55.2772 119.962 55.368 119.901 55.4589C119.689 55.7616 119.477 56.0643 119.235 56.3368C119.114 56.4579 118.993 56.6092 118.871 56.7606C118.69 56.9422 118.538 57.1238 118.356 57.3055C118.266 57.3963 118.175 57.4871 118.053 57.5779C117.811 57.7898 117.538 58.032 117.266 58.2439C117.084 58.365 116.933 58.5164 116.721 58.6375C116.539 58.7888 116.327 58.9099 116.115 59.0613C116.115 59.0613 116.084 59.0613 116.054 59.0915C115.903 59.2126 115.721 59.3034 115.539 59.4245C115.266 59.6062 114.994 59.7575 114.691 59.9392C114.63 59.9392 114.6 59.9997 114.539 59.9997C114.388 60.0602 114.267 60.1511 114.115 60.2116C113.934 60.3327 113.722 60.4235 113.54 60.5143C103.391 65.6001 86.9118 65.6001 76.7635 60.5143C76.3697 60.3024 76.0062 60.1208 75.6427 59.9089C75.6124 59.9089 75.5821 59.8786 75.5518 59.8483C75.3397 59.7273 75.158 59.6062 74.9762 59.5153C74.9762 59.5153 74.9459 59.5153 74.9156 59.4851C74.7036 59.3337 74.4915 59.2126 74.2795 59.0613C74.0674 58.9099 73.8554 58.7585 73.6433 58.6072C73.4313 58.4558 73.2495 58.3045 73.0677 58.1531C72.886 58.0017 72.7042 57.8504 72.5225 57.699C72.1892 57.3963 71.856 57.0936 71.5531 56.7606C71.5531 56.7606 71.5531 56.7606 71.5531 56.7303C71.4319 56.5789 71.3107 56.4579 71.1895 56.3065C71.1895 56.3065 71.1895 56.3065 71.1895 56.2762C71.1895 56.2762 71.1895 56.2762 71.1895 56.2459C70.8563 55.8524 70.5837 55.4589 70.3413 55.0351C70.2504 54.8837 70.1899 54.7626 70.099 54.6112C70.0081 54.4599 69.9475 54.3388 69.8869 54.1874C69.8263 54.0663 69.7658 53.9453 69.7355 53.8242L69.6749 53.6425C69.6749 53.6425 69.584 53.4306 69.5537 53.3398C69.4931 53.1884 69.4628 53.0674 69.4325 52.916C69.4022 52.7646 69.3719 52.6435 69.3416 52.4922C69.3114 52.3105 69.2811 52.0986 69.2508 51.917V52.1289C68.9175 50.4337 68.7358 48.6476 68.7358 46.8615C68.7358 46.0442 68.7661 45.2268 68.8569 44.4095C69.069 42.0785 69.584 39.8081 70.3716 37.689C70.9775 36.0241 71.7348 34.4802 72.6436 32.9968C77.3088 25.4288 85.6698 20.3733 95.2122 20.3733C104.179 20.3733 112.116 24.8233 116.933 31.6649C117.236 32.0887 117.538 32.5427 117.811 32.9968C118.72 34.4802 119.508 36.0543 120.113 37.689C121.174 40.5346 121.749 43.6224 121.749 46.8615L121.719 46.8918Z" fill="#5AC245"/>
<path d="M191 14.9848C191 14.9848 191 14.9545 191 14.9242C190.394 6.62963 178.792 0.0302734 164.554 0.0302734C150.316 0.0302734 138.683 6.6599 138.108 14.9242V14.9848C138.108 15.1664 138.108 15.3783 138.108 15.5902C138.108 15.8324 138.108 16.0746 138.108 16.347V20.7668H139.592C139.138 20.0402 138.804 19.2834 138.562 18.5266C138.956 17.2855 139.622 16.0746 140.531 14.9545C144.712 9.59631 153.891 5.9031 164.584 5.9031C175.278 5.9031 184.457 9.62659 188.637 14.9545C189.516 16.0746 190.182 17.2855 190.606 18.5266C190.364 19.3137 190 20.0402 189.576 20.7668H191.061V16.347C191.061 16.1049 191.061 15.8627 191.061 15.5902C191.061 15.3783 191.061 15.1967 191.061 14.9848H191Z" fill="#5AC245"/>
<path d="M145.166 7.14429C145.166 7.14429 145.166 7.17456 145.166 7.20483C145.166 7.20483 145.166 7.2351 145.166 7.26538C145.166 7.26538 145.166 7.26538 145.166 7.29565C145.166 7.29565 145.196 7.32592 145.227 7.35619C145.227 7.35619 145.287 7.41674 145.287 7.44701C145.287 7.44701 145.318 7.44701 145.348 7.47728C145.348 7.47728 145.348 7.47728 145.378 7.47728C145.378 7.47728 145.408 7.47728 145.439 7.50755C145.439 7.50755 145.439 7.50755 145.469 7.50755L182.366 28.9403C182.366 28.9403 182.457 29.0009 182.518 29.0311C182.518 29.0311 182.548 29.0311 182.578 29.0311C182.609 29.0311 182.639 29.0311 182.669 29.0614C182.73 29.0614 182.791 29.0917 182.881 29.122C182.942 29.122 182.972 29.122 183.033 29.122C183.033 29.122 183.154 29.122 183.184 29.122C183.184 29.122 183.275 29.122 183.336 29.122C183.336 29.122 183.427 29.122 183.457 29.122C183.487 29.122 183.548 29.122 183.578 29.0614C183.699 29.0009 183.76 28.9101 183.76 28.8192V29.788C183.76 29.788 183.699 29.9696 183.578 30.0301C183.578 30.0301 183.518 30.0301 183.487 30.0604C183.487 30.0604 183.487 30.0604 183.457 30.0604C183.457 30.0604 183.427 30.0604 183.396 30.0604C183.396 30.0604 183.366 30.0604 183.336 30.0604C183.336 30.0604 183.305 30.0604 183.275 30.0604H183.215H183.124C183.124 30.0604 183.063 30.0604 183.033 30.0604C183.033 30.0604 182.942 30.0604 182.912 30.0604C182.851 30.0604 182.791 30.0301 182.7 29.9999C182.7 29.9999 182.639 29.9999 182.609 29.9696H182.548C182.488 29.9696 182.457 29.909 182.397 29.8788L145.499 8.446C145.499 8.446 145.469 8.446 145.439 8.41572C145.439 8.41572 145.439 8.41572 145.408 8.41572C145.408 8.41572 145.378 8.41572 145.348 8.38545L145.287 8.32491C145.287 8.32491 145.287 8.26436 145.257 8.26436C145.257 8.26436 145.257 8.26436 145.257 8.23409C145.257 8.23409 145.257 8.23409 145.257 8.20382C145.257 8.20382 145.257 8.17355 145.257 8.14327V7.17456L145.166 7.14429Z" fill="#1F2023"/>
<path d="M145.348 6.87185C145.045 7.05348 145.166 7.3562 145.56 7.59838L182.457 29.0312C182.851 29.2733 183.427 29.3339 183.73 29.1522C184.033 29.0009 183.911 28.6679 183.518 28.4257L146.62 6.99293C146.226 6.75076 145.651 6.69021 145.348 6.87185Z" fill="#323338"/>
<path d="M183.881 7.14429C183.881 7.14429 183.881 7.17456 183.881 7.20483C183.881 7.20483 183.881 7.2351 183.881 7.26538C183.881 7.26538 183.881 7.26538 183.881 7.29565C183.881 7.29565 183.851 7.32592 183.82 7.35619C183.82 7.35619 183.79 7.41674 183.76 7.41674C183.76 7.41674 183.73 7.41674 183.699 7.44701C183.699 7.44701 183.699 7.44701 183.669 7.44701C183.669 7.44701 183.639 7.44701 183.608 7.47728H183.578L146.681 28.9101C146.681 28.9101 146.59 28.9706 146.529 29.0009C146.529 29.0009 146.499 29.0009 146.469 29.0009C146.438 29.0009 146.408 29.0009 146.378 29.0311C146.317 29.0311 146.257 29.0614 146.166 29.0917C146.105 29.0917 146.075 29.0917 146.014 29.0917C146.014 29.0917 145.893 29.0917 145.863 29.0917C145.863 29.0917 145.772 29.0917 145.711 29.0917C145.711 29.0917 145.62 29.0917 145.59 29.0917C145.56 29.0917 145.499 29.0917 145.469 29.0311C145.348 28.9706 145.287 28.8798 145.287 28.789V29.7577C145.287 29.7577 145.348 29.9393 145.469 29.9999C145.469 29.9999 145.499 29.9999 145.53 30.0301C145.53 30.0301 145.53 30.0301 145.56 30.0301C145.56 30.0301 145.59 30.0301 145.62 30.0301C145.62 30.0301 145.651 30.0301 145.681 30.0301C145.681 30.0301 145.711 30.0301 145.742 30.0301H145.802H145.893C145.893 30.0301 145.954 30.0301 145.984 30.0301C145.984 30.0301 146.075 30.0301 146.105 30.0301C146.166 30.0301 146.226 29.9999 146.317 29.9696C146.317 29.9696 146.378 29.9696 146.408 29.9393H146.469C146.529 29.9393 146.56 29.8788 146.62 29.8485L183.518 8.41572C183.518 8.41572 183.548 8.41572 183.578 8.38545C183.578 8.38545 183.608 8.38545 183.639 8.35518L183.699 8.29463L183.73 8.23409C183.73 8.23409 183.73 8.23409 183.73 8.20382C183.73 8.20382 183.73 8.17354 183.73 8.14327C183.73 8.14327 183.73 8.113 183.73 8.08273V7.11401L183.881 7.14429Z" fill="#1F2023"/>
<path d="M183.73 6.87185C184.033 7.05348 183.911 7.3562 183.518 7.59838L146.62 29.0312C146.226 29.2733 145.651 29.3339 145.348 29.1522C145.045 29.0009 145.166 28.6679 145.56 28.4257L182.457 6.99293C182.851 6.75076 183.427 6.69021 183.73 6.87185Z" fill="#323338"/>
<path d="M191 21.4025C191 29.9998 179.125 36.9927 164.524 36.9927C149.922 36.9927 138.047 30.0301 138.047 21.4025C138.047 21.1906 138.047 20.9484 138.047 20.7365V20.6759C138.108 19.9494 138.259 19.2229 138.502 18.4963C138.744 19.2834 139.107 20.01 139.532 20.7365C143.136 26.7909 152.951 31.1502 164.524 31.1502C176.096 31.1502 185.88 26.8212 189.516 20.7365C189.97 20.01 190.303 19.2531 190.546 18.4963C190.788 19.1926 190.939 19.9494 191 20.6759V20.7365C191 20.9484 191 21.1906 191 21.4025Z" fill="#50AF53"/>
<path d="M171.067 16.1957C171.006 16.9828 170.37 17.7396 169.158 18.345C166.614 19.6164 162.464 19.6164 159.919 18.345C158.768 17.7698 158.132 17.013 158.041 16.2562V16.1957V18.6477C158.041 18.6477 158.041 18.7688 158.041 18.7991C158.132 19.5862 158.768 20.343 159.949 20.9484C160.555 21.2512 161.252 21.4631 161.949 21.6144C163.615 21.9777 165.523 21.9777 167.189 21.6144C167.916 21.4631 168.583 21.2512 169.189 20.9484C170.461 20.3127 171.097 19.4651 171.097 18.6477V16.1957H171.067Z" fill="#5DB362"/>
<path d="M159.919 18.3753C162.464 19.6467 166.614 19.6467 169.158 18.3753C170.34 17.7698 170.976 17.013 171.067 16.2259C171.067 16.0443 171.067 15.8627 171.067 15.681C171.067 12.0484 168.128 9.14221 164.524 9.14221C160.919 9.14221 157.98 12.0786 157.98 15.681C157.98 15.8929 157.98 16.1048 158.01 16.2865C158.132 17.0433 158.738 17.8001 159.889 18.3753H159.919Z" fill="#78E876"/>
<path d="M117.023 33.9655C117.023 47.8908 105.724 59.1824 91.7891 59.1824C81.5802 59.1824 72.7951 53.1279 68.8266 44.4095C69.0387 42.0785 69.5537 39.8081 70.3413 37.689C70.9472 36.0241 71.7045 34.4802 72.6133 32.9968C77.2785 25.4288 85.6395 20.3733 95.1819 20.3733C104.149 20.3733 112.086 24.8233 116.902 31.6649C116.963 32.4217 116.993 33.1785 116.993 33.9353L117.023 33.9655Z" fill="#50AF53"/>
<path d="M52.9529 14.9848C52.9529 14.9848 52.9529 14.9545 52.9529 14.9242C52.347 6.62963 40.7446 0.0302734 26.5067 0.0302734C12.2688 0.0302734 0.636162 6.62963 0 14.894V14.9545C0 15.1361 0 15.348 0 15.56C0 15.8021 0 16.0443 0 16.3168V20.7365H1.51467C1.06027 20.01 0.727042 19.2532 0.484695 18.4964C0.878509 17.2552 1.54496 16.0443 2.45377 14.9242C6.63426 9.56604 15.8132 5.87282 26.5067 5.87282C37.2003 5.87282 46.3792 9.59631 50.5597 14.9242C51.4382 16.0443 52.1047 17.2552 52.5288 18.4964C52.2864 19.2834 51.9229 20.01 51.4988 20.7365H52.9832V16.3168C52.9832 16.0746 52.9832 15.8324 52.9832 15.56C52.9832 15.348 52.9832 15.1664 52.9832 14.9545L52.9529 14.9848Z" fill="#5AC245"/>
<path d="M7.11896 7.14429C7.11896 7.14429 7.11896 7.17456 7.11896 7.20483C7.11896 7.20483 7.11896 7.2351 7.11896 7.26538C7.11896 7.26538 7.11896 7.26538 7.11896 7.29565C7.11896 7.29565 7.11896 7.32592 7.14925 7.35619C7.14925 7.35619 7.17954 7.41674 7.20984 7.44701C7.20984 7.44701 7.20984 7.44701 7.24013 7.47728C7.24013 7.47728 7.24013 7.47728 7.27043 7.47728C7.27043 7.47728 7.30072 7.47728 7.33101 7.50755C7.33101 7.50755 7.33101 7.50755 7.36131 7.50755L44.2587 28.9403C44.2587 28.9403 44.3496 29.0009 44.4102 29.0311C44.4102 29.0311 44.4404 29.0311 44.4707 29.0311C44.501 29.0311 44.5313 29.0311 44.5616 29.0614C44.6222 29.0614 44.6828 29.0917 44.7737 29.122C44.8343 29.122 44.8646 29.122 44.9251 29.122C44.9251 29.122 45.0463 29.122 45.0766 29.122C45.0766 29.122 45.1978 29.122 45.2281 29.122C45.2281 29.122 45.319 29.122 45.3493 29.122C45.3795 29.122 45.4401 29.122 45.4704 29.0614C45.5916 29.0009 45.6522 28.9101 45.6522 28.8192C45.6522 29.1522 45.6522 29.455 45.6522 29.788C45.6522 29.8788 45.5916 29.9696 45.4704 30.0301C45.4704 30.0301 45.4098 30.0301 45.3795 30.0604C45.3795 30.0604 45.3795 30.0604 45.3493 30.0604C45.3493 30.0604 45.319 30.0604 45.2887 30.0604C45.2887 30.0604 45.2584 30.0604 45.2281 30.0604C45.2281 30.0604 45.1978 30.0604 45.1675 30.0604H45.1069H45.016C45.016 30.0604 44.9554 30.0604 44.9251 30.0604C44.9251 30.0604 44.8343 30.0604 44.804 30.0604C44.7434 30.0604 44.6828 30.0301 44.5919 29.9999C44.5919 29.9999 44.5313 29.9999 44.501 29.9696H44.4404C44.3799 29.9696 44.3193 29.909 44.289 29.8788L7.51277 8.56708C7.51277 8.56708 7.48248 8.56708 7.45219 8.53681C7.45219 8.53681 7.42189 8.53681 7.3916 8.50654L7.33101 8.446C7.33101 8.446 7.33101 8.41572 7.30072 8.38545C7.30072 8.38545 7.30072 8.38545 7.30072 8.35518C7.30072 8.35518 7.30072 8.32491 7.30072 8.29463C7.30072 8.29463 7.30072 8.26436 7.30072 8.23409C7.30072 7.93137 7.30072 7.65892 7.30072 7.38647V7.26538L7.11896 7.14429Z" fill="#1F2023"/>
<path d="M7.30084 6.87185C6.9979 7.05348 7.11907 7.3562 7.51289 7.59838L44.4103 29.0312C44.8344 29.2733 45.3797 29.3339 45.6826 29.1522C45.9855 29.0009 45.8947 28.6679 45.4705 28.4257L8.57316 6.99293C8.17934 6.75076 7.60377 6.69021 7.30084 6.87185Z" fill="#323338"/>
<path d="M45.834 7.14429C45.834 7.14429 45.834 7.17456 45.834 7.20483C45.834 7.20483 45.834 7.2351 45.834 7.26538C45.834 7.26538 45.834 7.26538 45.834 7.29565C45.834 7.29565 45.834 7.32592 45.8037 7.35619C45.8037 7.35619 45.7734 7.41674 45.7431 7.41674C45.7431 7.41674 45.7128 7.41674 45.7128 7.44701C45.7128 7.44701 45.7128 7.44701 45.6825 7.44701C45.6825 7.44701 45.6522 7.44701 45.6219 7.47728C45.6219 7.47728 45.6219 7.47728 45.5916 7.47728L8.57305 29.0311C8.57305 29.0311 8.48217 29.0917 8.42158 29.122C8.42158 29.122 8.39129 29.122 8.36099 29.122C8.3307 29.122 8.30041 29.122 8.27011 29.1522C8.20953 29.1522 8.14894 29.1825 8.05806 29.2128C7.99747 29.2128 7.96718 29.2128 7.90659 29.2128C7.90659 29.2128 7.78542 29.2128 7.75513 29.2128C7.75513 29.2128 7.63395 29.2128 7.60366 29.2128C7.60366 29.2128 7.51278 29.2128 7.48248 29.2128C7.45219 29.2128 7.3916 29.2128 7.36131 29.1522C7.24014 29.0917 7.17955 29.0009 7.17955 28.9101C7.17955 29.2431 7.17955 29.5458 7.17955 29.8788C7.17955 29.9696 7.24014 30.0604 7.36131 30.1209C7.36131 30.1209 7.4219 30.1209 7.45219 30.1512C7.45219 30.1512 7.45219 30.1512 7.48248 30.1512C7.48248 30.1512 7.51278 30.1512 7.54307 30.1512C7.54307 30.1512 7.57336 30.1512 7.60366 30.1512C7.60366 30.1512 7.63395 30.1512 7.66425 30.1512H7.72483H7.81571C7.81571 30.1512 7.8763 30.1512 7.90659 30.1512C7.90659 30.1512 7.99747 30.1512 8.02777 30.1512C8.08835 30.1512 8.17923 30.1209 8.23982 30.0907C8.23982 30.0907 8.30041 30.0907 8.3307 30.0604C8.3307 30.0604 8.36099 30.0604 8.39129 30.0604C8.45187 30.0604 8.51246 29.9999 8.54275 29.9696L45.4704 8.56708C45.4704 8.56708 45.5007 8.56708 45.531 8.53681C45.531 8.53681 45.531 8.53681 45.5613 8.53681C45.5613 8.53681 45.5916 8.53681 45.6219 8.50654L45.6825 8.446C45.6825 8.446 45.7128 8.38545 45.7431 8.38545C45.7431 8.38545 45.7431 8.38545 45.7431 8.35518C45.7431 8.35518 45.7431 8.35518 45.7431 8.32491C45.7431 8.32491 45.7431 8.29463 45.7431 8.26436C45.7431 7.96164 45.7431 7.68919 45.7431 7.41674V7.29565L45.834 7.14429Z" fill="#1F2023"/>
<path d="M45.6825 6.87185C45.9855 7.05348 45.8643 7.3562 45.4705 7.59838L8.57308 29.0312C8.17926 29.2733 7.60369 29.3339 7.30076 29.1522C6.99782 29.0009 7.0887 28.6679 7.51281 28.4257L44.4102 6.99293C44.8343 6.75076 45.3796 6.69021 45.6825 6.87185Z" fill="#323338"/>
<path d="M52.9832 21.4025C52.9832 29.9998 41.1082 36.9927 26.5067 36.9927C11.9053 36.9927 0 30.0301 0 21.4025C0 21.1906 0 20.9484 0 20.7365V20.6759C0.0605868 19.9494 0.212054 19.2229 0.424108 18.4963C0.666455 19.2834 1.02998 20.01 1.45408 20.7365C5.08929 26.7909 14.8741 31.1502 26.4462 31.1502C38.0182 31.1502 47.803 26.8212 51.4382 20.7365C51.8926 20.01 52.2259 19.2531 52.4682 18.4963C52.7105 19.1926 52.8317 19.9494 52.9226 20.6759V20.7365C52.9226 20.9484 52.9226 21.1906 52.9226 21.4025H52.9832Z" fill="#50AF53"/>
<path d="M33.0198 16.1957C32.929 16.9828 32.3231 17.7396 31.1114 18.345C28.5667 19.6164 24.4165 19.6164 21.8719 18.345C20.7207 17.7698 20.0845 17.013 19.9937 16.2562V16.1957V18.6477C19.9937 18.6477 19.9937 18.7688 19.9937 18.7991C20.0543 19.5862 20.7207 20.343 21.9022 20.9484C22.508 21.2512 23.1745 21.4631 23.9318 21.6144C25.598 21.9777 27.5064 21.9777 29.1726 21.6144C29.8996 21.4631 30.5661 21.2512 31.1719 20.9484C32.4443 20.3127 33.0804 19.4651 33.0804 18.6477V16.1957H33.0198Z" fill="#5DB362"/>
<path d="M21.8719 18.3753C24.4165 19.6467 28.5667 19.6467 31.1113 18.3753C32.2928 17.7698 32.929 17.013 33.0198 16.2259C33.0198 16.0443 33.0198 15.8627 33.0198 15.681C33.0198 12.0484 30.0814 9.14221 26.4765 9.14221C22.8715 9.14221 19.9331 12.0786 19.9331 15.681C19.9331 15.8929 19.9331 16.1048 19.9634 16.2865C20.0542 17.0433 20.6904 17.8001 21.8416 18.3753H21.8719Z" fill="#78E876"/>
<path d="M75.9759 39.0513C75.9759 35.4489 78.9144 30.8172 82.5193 28.7284C86.1242 26.6397 89.0626 27.8808 89.0626 31.4832C89.0626 35.0856 86.1242 39.7173 82.5193 41.8061C78.9144 43.8949 75.9759 42.6537 75.9759 39.0513Z" fill="#91FF99"/>
<path d="M191 92.7846V92.724C190.394 84.4294 178.792 77.8301 164.554 77.8301C150.316 77.8301 138.683 84.4294 138.108 92.724V92.7846C138.108 92.9662 138.108 93.1781 138.108 93.39C138.108 93.6322 138.108 93.8744 138.108 94.1468V98.5666H139.592C139.138 97.8401 138.804 97.0833 138.562 96.3264C138.956 95.055 139.622 93.8744 140.531 92.724C144.712 87.3658 153.891 83.6424 164.584 83.6424C175.278 83.6424 184.457 87.3658 188.637 92.724C189.516 93.8441 190.182 95.055 190.606 96.3264C190.364 97.0833 190 97.8401 189.576 98.5666H191.061V94.1468C191.061 93.9047 191.061 93.6625 191.061 93.39C191.061 93.2084 191.061 92.9965 191.061 92.7846H191Z" fill="#5AC245"/>
<path d="M145.166 84.9441C145.166 84.9441 145.166 84.9744 145.166 85.0046C145.166 85.0046 145.166 85.0349 145.166 85.0652C145.166 85.0652 145.166 85.0652 145.166 85.0955C145.166 85.0955 145.196 85.156 145.227 85.156C145.227 85.156 145.287 85.2165 145.287 85.2468C145.287 85.2468 145.318 85.2468 145.348 85.2771C145.348 85.2771 145.348 85.2771 145.378 85.2771C145.378 85.2771 145.408 85.2771 145.439 85.3074C145.439 85.3074 145.439 85.3074 145.469 85.3074L182.366 106.74C182.366 106.74 182.457 106.801 182.518 106.831C182.518 106.831 182.548 106.831 182.578 106.831C182.609 106.831 182.639 106.831 182.669 106.861C182.73 106.861 182.791 106.891 182.881 106.922C182.942 106.922 182.972 106.922 183.033 106.922C183.033 106.922 183.154 106.922 183.184 106.922C183.184 106.922 183.275 106.922 183.336 106.922C183.336 106.922 183.427 106.922 183.457 106.922C183.487 106.922 183.548 106.922 183.578 106.861C183.699 106.801 183.76 106.71 183.76 106.589V107.557C183.76 107.557 183.699 107.739 183.578 107.8C183.578 107.8 183.518 107.8 183.487 107.83C183.487 107.83 183.487 107.83 183.457 107.83C183.457 107.83 183.427 107.83 183.396 107.83C183.396 107.83 183.366 107.83 183.336 107.83C183.336 107.83 183.305 107.83 183.275 107.83H183.215H183.124C183.124 107.83 183.063 107.83 183.033 107.83C183.033 107.83 182.942 107.83 182.912 107.83C182.851 107.83 182.791 107.83 182.7 107.769C182.7 107.769 182.639 107.769 182.609 107.739H182.548C182.488 107.739 182.457 107.679 182.397 107.648L145.499 86.2155C145.499 86.2155 145.469 86.2155 145.439 86.1853C145.439 86.1853 145.439 86.1853 145.408 86.1853C145.408 86.1853 145.378 86.1853 145.348 86.155L145.287 86.0944C145.287 86.0944 145.287 86.0339 145.257 86.0339C145.257 86.0339 145.257 86.0339 145.257 86.0036C145.257 86.0036 145.257 86.0036 145.257 85.9733C145.257 85.9733 145.257 85.9431 145.257 85.9128V84.9441H145.166Z" fill="#1F2023"/>
<path d="M145.348 84.7019C145.045 84.8836 145.166 85.1863 145.56 85.4285L182.457 106.861C182.851 107.103 183.427 107.164 183.73 106.982C184.033 106.801 183.911 106.498 183.518 106.256L146.62 84.823C146.226 84.5808 145.651 84.5203 145.348 84.7019Z" fill="#323338"/>
<path d="M183.881 84.9441C183.881 84.9441 183.881 84.9744 183.881 85.0046C183.881 85.0046 183.881 85.0349 183.881 85.0652C183.881 85.0652 183.881 85.0652 183.881 85.0955C183.881 85.0955 183.851 85.156 183.82 85.156C183.82 85.156 183.79 85.2165 183.76 85.2468C183.76 85.2468 183.73 85.2468 183.699 85.2771C183.699 85.2771 183.699 85.2771 183.669 85.2771C183.669 85.2771 183.639 85.2771 183.608 85.3074H183.578L146.681 106.74C146.681 106.74 146.59 106.801 146.529 106.831C146.529 106.831 146.499 106.831 146.469 106.831C146.438 106.831 146.408 106.831 146.378 106.861C146.317 106.861 146.257 106.891 146.166 106.922C146.105 106.922 146.075 106.922 146.014 106.922C146.014 106.922 145.893 106.922 145.863 106.922C145.863 106.922 145.772 106.922 145.711 106.922C145.711 106.922 145.62 106.922 145.59 106.922C145.56 106.922 145.499 106.922 145.469 106.861C145.348 106.801 145.287 106.71 145.287 106.589V107.557C145.287 107.557 145.348 107.739 145.469 107.8C145.469 107.8 145.499 107.8 145.53 107.83C145.53 107.83 145.53 107.83 145.56 107.83C145.56 107.83 145.59 107.83 145.62 107.83C145.62 107.83 145.651 107.83 145.681 107.83C145.681 107.83 145.711 107.83 145.742 107.83H145.802H145.893C145.893 107.83 145.954 107.83 145.984 107.83C145.984 107.83 146.075 107.83 146.105 107.83C146.166 107.83 146.226 107.83 146.317 107.769C146.317 107.769 146.378 107.769 146.408 107.739H146.469C146.529 107.739 146.56 107.679 146.62 107.648L183.518 86.2155C183.518 86.2155 183.548 86.2155 183.578 86.1853C183.578 86.1853 183.608 86.1853 183.639 86.155L183.699 86.0944L183.73 86.0339C183.73 86.0339 183.73 86.0339 183.73 86.0036C183.73 86.0036 183.73 86.0036 183.73 85.9431C183.73 85.9431 183.73 85.9128 183.73 85.8825V84.9441H183.881Z" fill="#1F2023"/>
<path d="M183.73 84.7019C184.033 84.8836 183.911 85.1863 183.518 85.4285L146.62 106.861C146.226 107.103 145.651 107.164 145.348 106.982C145.045 106.801 145.166 106.498 145.56 106.256L182.457 84.823C182.851 84.5808 183.427 84.5203 183.73 84.7019Z" fill="#323338"/>
<path d="M191 99.2326C191 107.83 179.125 114.793 164.524 114.793C149.922 114.793 138.047 107.83 138.047 99.2326C138.047 99.0206 138.047 98.7785 138.047 98.5666V98.506C138.108 97.7795 138.259 97.053 138.502 96.3264C138.744 97.0832 139.107 97.84 139.532 98.5666C143.136 104.621 152.951 108.98 164.524 108.98C176.096 108.98 185.88 104.651 189.516 98.5666C189.97 97.84 190.303 97.0832 190.546 96.3264C190.788 97.0227 190.939 97.7492 191 98.506V98.5666C191 98.7785 191 99.0206 191 99.2326Z" fill="#50AF53"/>
<path d="M171.067 94.0258C171.006 94.8128 170.37 95.5696 169.158 96.1751C166.614 97.4465 162.464 97.4465 159.919 96.1751C158.768 95.5999 158.132 94.8431 158.041 94.0863V94.0258V96.4778C158.041 96.4778 158.041 96.5686 158.041 96.6292C158.132 97.4163 158.768 98.1731 159.949 98.7785C160.555 99.0812 161.252 99.2931 161.949 99.4445C163.615 99.8078 165.523 99.8078 167.189 99.4445C167.916 99.2931 168.583 99.0812 169.189 98.7785C170.461 98.1428 171.097 97.2952 171.097 96.4778V94.0258H171.067Z" fill="#5DB362"/>
<path d="M159.919 96.1751C162.464 97.4465 166.614 97.4465 169.158 96.1751C170.34 95.5696 170.976 94.8128 171.067 94.0257C171.067 93.8441 171.067 93.6625 171.067 93.4808C171.067 89.8784 168.128 86.942 164.524 86.942C160.919 86.942 157.98 89.8784 157.98 93.4808C157.98 93.6927 157.98 93.9046 158.01 94.0863C158.132 94.8431 158.738 95.5999 159.889 96.1751H159.919Z" fill="#78E876"/>
<path d="M52.9529 93.9651V93.9046C52.347 85.61 40.7446 78.9803 26.5067 78.9803C12.2688 78.9803 0.636162 85.61 0 93.9046C0 93.9046 0 93.9349 0 93.9651C0 94.1468 0 94.3587 0 94.5706C0 94.8127 0 95.0549 0 95.3274V99.7471H1.51467C1.06027 99.0206 0.727042 98.2638 0.484695 97.507C0.878509 96.2355 1.54496 95.0549 2.45377 93.9046C6.63426 88.5464 15.8132 84.8229 26.5067 84.8229C37.2003 84.8229 46.3792 88.5464 50.5597 93.9046C51.4382 95.0247 52.1047 96.2355 52.5288 97.507C52.2864 98.2638 51.9229 99.0206 51.4988 99.7471H52.9832V95.3274C52.9832 95.0852 52.9832 94.843 52.9832 94.5706C52.9832 94.3587 52.9832 94.177 52.9832 93.9651H52.9529Z" fill="#5AC245"/>
<path d="M7.11896 86.1246C7.11896 86.1246 7.11896 86.1549 7.11896 86.1852C7.11896 86.1852 7.11896 86.1852 7.11896 86.2457C7.11896 86.2457 7.11896 86.2457 7.11896 86.276C7.11896 86.276 7.11896 86.3063 7.14925 86.3365C7.14925 86.3365 7.17954 86.3971 7.20984 86.4274C7.20984 86.4274 7.20984 86.4274 7.24013 86.4576C7.24013 86.4576 7.24013 86.4576 7.27043 86.4576C7.27043 86.4576 7.30072 86.4576 7.33101 86.4879C7.33101 86.4879 7.33101 86.4879 7.36131 86.4879L44.2587 107.921C44.2587 107.921 44.3496 107.981 44.4102 108.011C44.4102 108.011 44.4404 108.011 44.4707 108.011C44.501 108.011 44.5313 108.011 44.5616 108.042C44.6222 108.042 44.6828 108.072 44.7737 108.102C44.8343 108.102 44.8646 108.102 44.9251 108.102C44.9251 108.102 45.0463 108.102 45.0766 108.102C45.0766 108.102 45.1978 108.102 45.2281 108.102C45.2281 108.102 45.319 108.102 45.3493 108.102C45.3795 108.102 45.4401 108.102 45.4704 108.042C45.5916 107.981 45.6522 107.89 45.6522 107.769C45.6522 108.102 45.6522 108.405 45.6522 108.738C45.6522 108.829 45.5916 108.92 45.4704 108.98C45.4704 108.98 45.4098 108.98 45.3795 109.01C45.3795 109.01 45.3795 109.01 45.3493 109.01C45.3493 109.01 45.319 109.01 45.2887 109.01C45.2887 109.01 45.2584 109.01 45.2281 109.01C45.2281 109.01 45.1978 109.01 45.1675 109.01H45.1069C45.1069 109.01 45.0766 109.01 45.0463 109.01C45.016 109.01 44.9857 109.01 44.9554 109.01C44.9554 109.01 44.8646 109.01 44.8343 109.01C44.7737 109.01 44.7131 109.01 44.6222 108.95C44.5919 108.95 44.5616 108.95 44.5313 108.92H44.4707C44.4102 108.92 44.3496 108.859 44.3193 108.829L7.51277 87.5777C7.51277 87.5777 7.48248 87.5777 7.45219 87.5474C7.45219 87.5474 7.42189 87.5474 7.3916 87.5172L7.33101 87.4566C7.33101 87.4566 7.33101 87.3961 7.30072 87.3961C7.30072 87.3961 7.30072 87.3961 7.30072 87.3658V87.3355C7.30072 87.3355 7.30072 87.3053 7.30072 87.275C7.30072 86.9723 7.30072 86.6998 7.30072 86.4274V86.3063L7.11896 86.1246Z" fill="#1F2023"/>
<path d="M7.30084 85.8825C6.9979 86.0641 7.11907 86.3668 7.51289 86.609L44.4103 108.042C44.8344 108.284 45.3797 108.344 45.6826 108.163C45.9855 107.981 45.8947 107.679 45.4705 107.436L8.57316 86.0036C8.17934 85.7614 7.60377 85.7008 7.30084 85.8825Z" fill="#323338"/>
<path d="M45.834 86.1246C45.834 86.1246 45.834 86.1549 45.834 86.1852C45.834 86.1852 45.834 86.2154 45.834 86.2457C45.834 86.2457 45.834 86.2457 45.834 86.276C45.834 86.276 45.834 86.3063 45.8037 86.3365C45.8037 86.3365 45.7734 86.3971 45.7431 86.3971C45.7431 86.3971 45.7128 86.3971 45.7128 86.4274C45.7128 86.4274 45.7128 86.4274 45.6825 86.4274C45.6825 86.4274 45.6522 86.4274 45.6219 86.4576C45.6219 86.4576 45.6219 86.4576 45.5916 86.4576L8.69422 107.89C8.69422 107.89 8.60334 107.951 8.54275 107.981C8.54275 107.981 8.51246 107.981 8.48216 107.981C8.45187 107.981 8.42158 107.981 8.39128 108.011C8.3307 108.011 8.27011 108.042 8.17923 108.072C8.11864 108.072 8.08835 108.072 8.02776 108.072C8.02776 108.072 7.90659 108.072 7.87629 108.072C7.87629 108.072 7.75512 108.072 7.72483 108.072C7.72483 108.072 7.63395 108.072 7.60365 108.072C7.57336 108.072 7.51277 108.072 7.48248 108.011C7.36131 107.951 7.30072 107.86 7.30072 107.739C7.30072 108.072 7.30072 108.375 7.30072 108.708C7.30072 108.799 7.36131 108.889 7.48248 108.95C7.48248 108.95 7.54307 108.95 7.57336 108.98C7.57336 108.98 7.57336 108.98 7.60365 108.98C7.60365 108.98 7.63395 108.98 7.66424 108.98C7.66424 108.98 7.69453 108.98 7.72483 108.98C7.72483 108.98 7.75512 108.98 7.78541 108.98H7.846C7.846 108.98 7.87629 108.98 7.90659 108.98C7.93688 108.98 7.96718 108.98 7.99747 108.98C7.99747 108.98 8.08835 108.98 8.11864 108.98C8.17923 108.98 8.27011 108.98 8.3307 108.92C8.3307 108.92 8.39128 108.92 8.42158 108.889C8.42158 108.889 8.45187 108.889 8.48216 108.889C8.54275 108.889 8.60334 108.829 8.63363 108.799L45.531 87.3658C45.531 87.3658 45.5613 87.3658 45.5916 87.3355C45.5916 87.3355 45.5916 87.3355 45.6219 87.3355C45.6219 87.3355 45.6522 87.3355 45.6825 87.3053L45.7431 87.2447C45.7431 87.2447 45.7734 87.1842 45.8037 87.1842C45.8037 87.1842 45.8037 87.1842 45.8037 87.1539C45.8037 87.1539 45.8037 87.1539 45.8037 87.1236C45.8037 87.1236 45.8037 87.0933 45.8037 87.0631C45.8037 86.7603 45.8037 86.4879 45.8037 86.2154V86.0944L45.834 86.1246Z" fill="#1F2023"/>
<path d="M45.6825 85.8825C45.9855 86.0641 45.8643 86.3668 45.4705 86.609L8.57308 108.042C8.17926 108.284 7.60369 108.344 7.30076 108.163C6.99782 107.981 7.0887 107.679 7.51281 107.436L44.4102 86.0036C44.8343 85.7614 45.3796 85.7008 45.6825 85.8825Z" fill="#323338"/>
<path d="M52.9832 100.413C52.9832 109.01 41.1082 115.973 26.5067 115.973C11.9053 115.973 0 109.01 0 100.413C0 100.171 0 99.959 0 99.7471V99.6866C0.0605868 98.96 0.212054 98.2335 0.424108 97.507C0.666455 98.2638 1.02998 99.0206 1.45408 99.7471C5.08929 105.802 14.8741 110.161 26.4462 110.161C38.0182 110.161 47.803 105.832 51.4382 99.7471C51.8926 99.0206 52.2259 98.2638 52.4682 97.507C52.7105 98.2032 52.8317 98.9298 52.9226 99.6866V99.7471C52.9226 99.9893 52.9226 100.201 52.9226 100.413H52.9832Z" fill="#50AF53"/>
<path d="M33.0198 95.2063C32.929 95.9934 32.3231 96.7502 31.1114 97.3556C28.5667 98.6271 24.4165 98.6271 21.8719 97.3556C20.7207 96.7805 20.0845 96.0236 19.9937 95.2668V95.2063V97.6583C19.9937 97.6583 19.9937 97.7794 19.9937 97.8097C20.0543 98.5968 20.7207 99.3536 21.9022 99.959C22.508 100.262 23.1745 100.474 23.9318 100.625C25.598 100.988 27.5064 100.988 29.1726 100.625C29.8996 100.474 30.5661 100.231 31.1719 99.959C32.4443 99.3233 33.0804 98.4757 33.0804 97.6583V95.2063H33.0198Z" fill="#5DB362"/>
<path d="M21.8719 97.3556C24.4165 98.627 28.5667 98.627 31.1113 97.3556C32.2928 96.7502 32.929 95.9934 33.0198 95.2063C33.0198 95.0246 33.0198 94.843 33.0198 94.6614C33.0198 91.059 30.0814 88.1226 26.4765 88.1226C22.8715 88.1226 19.9331 91.059 19.9331 94.6614C19.9331 94.8733 19.9331 95.0852 19.9634 95.2971C20.0542 96.0539 20.6904 96.8107 21.8416 97.3859L21.8719 97.3556Z" fill="#78E876"/>
</g>
<defs>
<clipPath id="clip0_430_13473">
<rect width="191" height="179" fill="white"/>
</clipPath>
</defs>
</svg>
