<svg width="721" height="1024" viewBox="0 0 721 1024" fill="none" xmlns="http://www.w3.org/2000/svg">
<g clip-path="url(#clip0_1150_30627)">
<rect width="721" height="1024" fill="#1E1E1E"/>
<g clip-path="url(#clip1_1150_30627)">
<path d="M465.026 433.342C465.026 433.342 454.289 353.274 473.635 327.905C492.982 302.56 614.454 322.559 621.283 342.829C626.775 359.14 599.685 362.605 599.685 362.605C599.685 362.605 616.013 372.555 612.426 382.381C608.838 392.207 583.629 390.945 583.629 390.945C583.629 390.945 594.44 405.176 588.156 412.552C580.61 421.388 555.326 410.324 555.326 410.324C555.326 410.324 567.424 424.927 558.716 431.56C550.255 437.995 532.516 428.491 532.516 428.491C532.516 428.491 530.834 444.084 519.429 445.841C508.024 447.574 497.88 439.159 497.88 439.159L465.001 433.342H465.026Z" fill="white"/>
<path d="M552.11 335.429C552.11 335.429 584.074 339.488 585.212 353.67C586.325 367.852 554.93 368.298 554.93 368.298C554.93 368.298 575.019 377.975 569.576 388.816C564.158 399.657 532.293 390.895 532.293 390.895C532.293 390.895 541.967 401.686 534.743 410.671C527.519 419.655 507.207 408.69 507.207 408.69" stroke="#1D2E3D" stroke-width="0.5" stroke-linecap="round" stroke-linejoin="round"/>
<path d="M522.818 337.483C522.818 337.483 545.975 343.597 543.575 357.977C541.175 372.357 512.576 368.125 512.576 368.125C512.576 368.125 527.717 377.975 522.843 386.935C517.969 395.895 499.513 393.544 499.513 393.544" stroke="#1D2E3D" stroke-width="0.5" stroke-linecap="round" stroke-linejoin="round"/>
<path d="M285.068 527.865C285.068 527.865 225.396 463.142 190.686 461.732C155.976 460.321 88.2134 576.154 100.46 595.979C110.306 611.918 132.077 591.623 132.077 591.623C132.077 591.623 129.034 612.24 139.771 616.076C150.508 619.913 166.985 597.86 166.985 597.86C166.985 597.86 171.413 616.844 181.953 616.695C194.619 616.522 202.932 587.613 202.932 587.613C202.932 587.613 206.742 607.933 218.394 605.236C229.701 602.612 234.055 581.128 234.055 581.128C234.055 581.128 248.305 590.558 257.706 582.217C267.107 573.876 267.082 559.496 267.082 559.496L285.093 527.865H285.068Z" fill="white"/>
<path d="M142.418 532.815C142.418 532.815 123.567 562.467 134.699 573.283C145.808 584.099 168.049 558.061 168.049 558.061C168.049 558.061 162.185 581.648 175.05 584.618C187.915 587.613 202.734 554.769 202.734 554.769C202.734 554.769 205.06 570.387 217.627 570.585C230.195 570.783 235.118 546.107 235.118 546.107" stroke="#1D2E3D" stroke-width="0.5" stroke-linecap="round" stroke-linejoin="round"/>
<path d="M164.486 509.674C164.486 509.674 153.477 533.36 167.208 541.355C180.938 549.349 197.291 522.396 197.291 522.396C197.291 522.396 195.015 541.949 205.926 544.102C216.836 546.255 227.697 529.128 227.697 529.128" stroke="#1D2E3D" stroke-width="0.5" stroke-linecap="round" stroke-linejoin="round"/>
<path d="M589.121 565.981C579.646 577.812 373.142 695.724 336.502 707.901C318.195 712.554 248.899 561.749 250.927 554.695C253.797 544.597 502.556 408.667 511.067 410.102C523.981 412.28 599.141 553.433 589.121 565.981Z" fill="#00B75A"/>
<path d="M508.494 420.794C508.494 420.794 436.723 565.733 427.52 571.228C418.317 576.723 272.599 556.922 260.155 558.828" stroke="#1D2E3D" stroke-width="0.5" stroke-linecap="round" stroke-linejoin="round"/>
<path d="M560.2 554.225C560.2 554.225 475.466 528.41 453.225 528.558" stroke="#1D2E3D" stroke-width="0.5" stroke-linecap="round" stroke-linejoin="round"/>
<path d="M372.103 569.051C350.53 608.973 350.802 670.627 350.802 670.627" stroke="#1D2E3D" stroke-width="0.5" stroke-linecap="round" stroke-linejoin="round"/>
<path d="M422.053 552.814C451.518 517.965 493.056 550.042 439.89 599.964C375.888 605.607 362.281 541.553 422.053 552.814Z" fill="#A7F3D0"/>
</g>
<g clip-path="url(#clip2_1150_30627)">
<path d="M576.734 878.213C576.734 878.213 600.302 847.939 615.33 846.057C630.358 844.176 663.994 892.03 659.411 901.084C655.716 908.366 645.517 900.336 645.517 900.336C645.517 900.336 647.573 909.182 643.059 911.243C638.53 913.295 630.58 904.33 630.58 904.33C630.58 904.33 629.346 912.724 624.769 913.052C619.27 913.438 614.592 901.186 614.592 901.186C614.592 901.186 613.67 910.154 608.51 909.398C603.509 908.68 600.835 899.494 600.835 899.494C600.835 899.494 594.985 904.12 590.604 900.82C586.215 897.534 585.702 891.291 585.702 891.291L576.734 878.213Z" fill="white"/>
<path d="M638.901 875.178C638.901 875.178 648.156 887.364 643.729 892.462C639.302 897.56 628.688 887.058 628.688 887.058C628.688 887.058 632.089 897.094 626.615 898.846C621.133 900.614 613.509 886.891 613.509 886.891C613.509 886.891 613.073 893.759 607.622 894.296C602.171 894.832 599.138 884.297 599.138 884.297" stroke="#1D2E3D" stroke-width="0.5" stroke-linecap="round" stroke-linejoin="round"/>
<path d="M628.463 865.932C628.463 865.932 634.097 875.81 628.428 879.781C622.759 883.752 614.673 872.648 614.673 872.648C614.673 872.648 616.375 881.054 611.711 882.377C607.046 883.7 601.715 876.669 601.715 876.669" stroke="#1D2E3D" stroke-width="0.5" stroke-linecap="round" stroke-linejoin="round"/>
<path d="M494.277 858.883C494.277 858.883 496.405 816.404 485.13 803.962C473.879 791.515 411 807.337 408.31 818.262C406.147 827.052 420.514 827.687 420.514 827.687C420.514 827.687 412.367 833.62 414.693 838.62C417.005 843.611 430.188 841.845 430.188 841.845C430.188 841.845 425.14 849.787 428.754 853.381C433.1 857.688 445.881 850.776 445.881 850.776C445.881 850.776 440.171 858.975 445.039 862.072C449.761 865.078 458.649 859.317 458.649 859.317C458.649 859.317 460.23 867.428 466.283 867.846C472.336 868.264 477.291 863.39 477.291 863.39L494.292 858.892L494.277 858.883Z" fill="white"/>
<path d="M444.294 811.352C444.294 811.352 427.687 814.883 427.735 822.372C427.76 829.867 444.273 828.718 444.273 828.718C444.273 828.718 434.159 834.671 437.478 840.121C440.798 845.571 457.129 839.572 457.129 839.572C457.129 839.572 452.538 845.658 456.715 850.043C460.906 854.436 471.081 847.795 471.081 847.795" stroke="#1D2E3D" stroke-width="0.5" stroke-linecap="round" stroke-linejoin="round"/>
<path d="M459.73 811.134C459.73 811.134 447.842 815.35 449.738 822.787C451.633 830.223 466.455 826.743 466.455 826.743C466.455 826.743 458.948 832.587 461.899 837.064C464.849 841.541 474.425 839.51 474.425 839.51" stroke="#1D2E3D" stroke-width="0.5" stroke-linecap="round" stroke-linejoin="round"/>
<path d="M574.626 950.703C568.435 951.328 474.586 924.727 460.494 917.487C453.872 913.473 478.099 849.856 480.739 848.416C484.52 846.367 595.78 880.154 597.806 883.054C600.878 887.465 581.163 950.007 574.621 950.679L574.626 950.703Z" fill="#A7F3D0"/>
<path d="M593.946 885.396C593.946 885.396 530.898 906.013 526.65 904.891C522.392 903.783 486.327 855.422 482.183 852.328" stroke="#1D2E3D" stroke-width="0.5" stroke-linecap="round" stroke-linejoin="round"/>
<path d="M569.75 938.871C569.75 938.871 552.951 906.64 546.521 900.184" stroke="#1D2E3D" stroke-width="0.5" stroke-linecap="round" stroke-linejoin="round"/>
<path d="M511.355 888.04C493.463 893.199 475.506 910.979 475.506 910.979" stroke="#1D2E3D" stroke-width="0.5" stroke-linecap="round" stroke-linejoin="round"/>
<path d="M530.464 898.004C549.132 896.629 551.673 917.99 521.778 916.772C501.742 899.665 516.576 877.261 530.464 898.004Z" fill="#00B75A"/>
</g>
<path d="M154.917 140.124L106.552 119.283C106.193 119.129 106.142 118.667 106.45 118.41L148.448 86.6348C153.377 82.8874 150.399 75.0334 144.238 75.4954L93.6654 79.3968C92.4332 79.4994 91.5091 78.2161 92.0738 77.0868L113.638 31.1945C116.256 25.5992 109.992 20.0038 104.704 23.2892L60.0874 51.266C59.7794 51.4713 59.3173 51.266 59.3173 50.8553L57.0069 -1.76161C56.7502 -7.97298 48.5867 -9.97499 45.4548 -4.63629L18.9621 40.8453C18.7567 41.2046 18.2946 41.2046 18.0892 40.8453L-8.45485 -4.63629C-11.5867 -9.97499 -19.7502 -7.97298 -20.0069 -1.76161L-22.3173 50.8553C-22.3173 51.266 -22.7794 51.4713 -23.0875 51.266L-67.7041 23.2378C-72.9411 19.9525 -79.2562 25.5478 -76.6377 31.1432L-54.2524 78.7808C-54.0984 79.1401 -54.3551 79.5508 -54.7658 79.4994L-107.289 75.4441C-113.45 74.9821 -116.428 82.8361 -111.499 86.5835L-69.5011 118.359C-69.1931 118.616 -69.2444 119.078 -69.6038 119.232L-117.968 140.124C-123.667 142.588 -122.641 150.904 -116.531 151.931L-64.5722 160.555C-64.2128 160.606 -64.0075 161.068 -64.2642 161.376L-97.4315 202.289C-101.333 207.115 -96.5586 214.045 -90.6542 212.094L-40.6466 195.616C-40.2872 195.513 -39.9278 195.821 -39.9792 196.181L-50.299 247.822C-51.5312 253.88 -44.0866 257.781 -39.7738 253.366L-3.16657 215.533C-2.90986 215.277 -2.44777 215.379 -2.29375 215.739L12.5442 266.251C14.2899 272.206 22.7101 272.206 24.4557 266.251L39.2937 215.739C39.3964 215.379 39.8585 215.225 40.1665 215.533L76.7737 253.366C81.0865 257.832 88.5312 253.88 87.299 247.822L76.9791 196.181C76.9278 195.821 77.2872 195.462 77.6466 195.616L127.654 212.094C133.559 214.045 138.333 207.115 134.431 202.289L101.264 161.376C101.007 161.068 101.213 160.606 101.572 160.555L153.531 151.931C159.641 150.904 160.667 142.537 154.968 140.124H154.917Z" stroke="#00B75A" stroke-width="0.5" stroke-linecap="round" stroke-linejoin="round"/>
<g clip-path="url(#clip3_1150_30627)">
<path d="M722.57 263.39C720.85 261.06 718.96 258.85 716.93 256.79C714.76 254.6 712.42 252.58 710.07 250.58C705.36 246.56 700.51 242.47 697.28 237.11C694.57 232.62 693.11 227.09 694.53 221.92C694.7 221.31 694.91 220.7 695.15 220.12C695.36 219.6 694.53 219.36 694.32 219.87C692.34 224.63 692.97 230.1 695.04 234.72C697.59 240.41 702.16 244.88 706.8 248.91C709.17 250.97 711.59 252.96 713.9 255.08C716.08 257.08 718.13 259.22 720.01 261.51C723.68 265.98 726.7 270.98 728.98 276.29C731.28 281.62 732.82 287.28 733.53 293.04C733.62 293.77 733.7 294.5 733.76 295.24C733.81 295.79 734.67 295.83 734.63 295.27C734.14 289.53 732.85 283.9 730.81 278.52C728.77 273.13 725.99 268.03 722.56 263.4L722.57 263.39Z" fill="#364153"/>
<path d="M714.44 222.2C712.39 220.99 710.02 220.48 707.67 220.39C705.33 220.3 703 220.63 700.69 220.98L697.38 223.59C699.24 225.49 700.94 227.54 702.48 229.73C703.93 231.79 705.31 234.04 707.47 235.26C708.99 236.11 710.76 236.36 712.46 236.24C714.19 236.12 715.95 235.59 717.21 234.39C718.92 232.77 719.46 230.06 718.82 227.72C718.18 225.38 716.47 223.42 714.42 222.21L714.44 222.2Z" fill="white"/>
<path d="M730.03 213.77C728.72 211.79 726.47 210.57 724.14 210.1C721.81 209.63 719.4 209.84 717.06 210.24C710.02 211.47 703.31 214.51 697.65 218.88L700.2 221.55C703.74 220.37 707.61 220.66 711.28 221.32C714.95 221.98 718.59 222.99 722.32 223.21C723.77 223.3 725.25 223.26 726.65 222.86C728.05 222.46 729.37 221.66 730.2 220.47C731.55 218.52 731.34 215.74 730.03 213.77Z" fill="white"/>
<path d="M704.08 231.92C702.66 228.45 700.2 225.41 697.1 223.3L691.17 225.65C689.74 227.7 688.34 229.84 687.76 232.26C687.18 234.69 687.56 237.48 689.32 239.25C690.47 240.41 692.08 241.01 693.68 241.37C695.98 241.88 698.44 241.96 700.62 241.07C702.8 240.18 704.62 238.2 704.85 235.85C704.98 234.51 704.6 233.16 704.09 231.92H704.08Z" fill="white"/>
<path d="M670.56 238.9C669.93 236.61 670.48 234.11 671.65 232.05C672.82 229.98 674.56 228.3 676.4 226.8C681.95 222.29 688.64 219.22 695.65 217.82L696 221.5C692.78 223.4 690.47 226.51 688.55 229.72C686.64 232.93 685.02 236.33 682.74 239.29C681.85 240.44 680.85 241.53 679.64 242.32C678.42 243.11 676.95 243.59 675.51 243.43C673.15 243.17 671.19 241.19 670.56 238.91V238.9Z" fill="white"/>
<path d="M692.37 199.66C689.81 197.55 686.04 196.76 683.06 198.23C681.55 198.97 680.34 200.23 679.5 201.69C678.74 203.01 678.27 204.56 678.5 206.06C678.72 207.44 679.51 208.68 680.48 209.69C681.46 210.69 682.62 211.49 683.75 212.31C686.4 214.23 689.01 216.38 690.54 219.27L697.03 218.17C697.32 214.86 697.53 211.51 696.95 208.25C696.37 204.98 694.91 201.77 692.35 199.66H692.37Z" fill="white"/>
<path d="M714.1 196.11C711.28 195.58 708.49 197.1 706.22 198.86C699.18 204.32 694.51 212.73 693.61 221.59L698.68 222.58C702.43 217.61 707.92 214.33 712.96 210.68C714.48 209.58 715.99 208.41 717.15 206.93C718.31 205.45 719.11 203.61 719.02 201.73C718.88 199.05 716.75 196.61 714.11 196.11H714.1Z" fill="white"/>
<path d="M666.22 215.06C667.98 212.79 671.08 212.08 673.94 211.89C682.83 211.31 691.9 214.51 698.46 220.54L695.32 224.64C689.22 223.41 682.93 224.6 676.74 225.2C674.87 225.38 672.97 225.51 671.11 225.17C669.25 224.83 667.44 223.99 666.27 222.52C664.6 220.43 664.57 217.18 666.22 215.06Z" fill="white"/>
<path d="M695.67 225.44C683.42 229.09 681.48 218.2 694.37 215.41C707.26 212.61 711.37 220.76 695.67 225.44Z" fill="#C14256"/>
<path d="M698.44 217.38C696.28 218.02 695.94 216.1 698.21 215.61C700.48 215.12 701.21 216.55 698.44 217.38Z" fill="#364153"/>
<path d="M696.4 219.44C694.76 219.93 694.5 218.47 696.23 218.09C697.96 217.71 698.51 218.81 696.4 219.44Z" fill="#364153"/>
<path d="M691.35 223C689.71 223.49 689.45 222.03 691.18 221.65C692.91 221.27 693.46 222.37 691.35 223Z" fill="#364153"/>
<path d="M699.44 218.41C698.56 218.67 698.43 217.89 699.35 217.69C700.27 217.49 700.57 218.07 699.44 218.41Z" fill="#364153"/>
<path d="M689.59 224.17C688.71 224.43 688.58 223.65 689.5 223.45C690.42 223.25 690.72 223.83 689.59 224.17Z" fill="#364153"/>
<path d="M717.97 213.92C714.07 213.85 710.19 214.77 706.74 216.6C706.49 216.73 706.7 217.11 706.95 216.98C710.33 215.19 714.13 214.29 717.95 214.36C718.23 214.36 718.24 213.93 717.97 213.93V213.92Z" fill="#E8CAB0"/>
<path d="M707.31 205.67C704.37 207.84 701.84 210.53 699.85 213.6C699.7 213.83 700.07 214.06 700.22 213.83C702.19 210.79 704.7 208.14 707.61 205.99C707.83 205.83 707.53 205.51 707.31 205.68V205.67Z" fill="#E8CAB0"/>
<path d="M686.55 205.66C686.32 205.5 686.09 205.87 686.32 206.03C689.28 208.05 691.71 210.79 693.35 213.97C693.48 214.22 693.86 214.01 693.73 213.76C692.05 210.51 689.56 207.72 686.54 205.65L686.55 205.66Z" fill="#E8CAB0"/>
<path d="M685.63 217.99C683.09 217.14 680.31 217.1 677.75 217.89C677.48 217.97 677.58 218.4 677.85 218.31C680.34 217.54 683.03 217.58 685.51 218.41C685.78 218.5 685.9 218.08 685.63 217.99Z" fill="#E8CAB0"/>
<path d="M684.43 225.57C682.28 227.26 680.46 229.35 679.08 231.7C678.94 231.94 679.31 232.17 679.45 231.93C680.82 229.6 682.61 227.55 684.73 225.88C684.95 225.71 684.65 225.39 684.43 225.57Z" fill="#E8CAB0"/>
<path d="M694.67 227.06C694.6 228.85 694.75 230.65 695.12 232.41C695.18 232.68 695.6 232.59 695.54 232.31C695.18 230.59 695.03 228.83 695.1 227.07C695.11 226.79 694.68 226.78 694.67 227.05V227.06Z" fill="#E8CAB0"/>
<path d="M710.16 226.88C708.48 225.17 706.5 223.76 704.33 222.73C704.08 222.61 703.85 222.98 704.1 223.1C706.24 224.11 708.19 225.49 709.84 227.18C710.04 227.38 710.35 227.08 710.15 226.88H710.16Z" fill="#E8CAB0"/>
<path d="M678.92 224.95C680.45 223.77 682.16 222.81 683.97 222.13" stroke="#364153" stroke-width="0.5" stroke-linecap="round" stroke-linejoin="round"/>
<path d="M684.91 213.06C687.3 213.34 689.61 214.23 691.57 215.64" stroke="#364153" stroke-width="0.5" stroke-linecap="round" stroke-linejoin="round"/>
<path d="M696.98 210.1C696.04 211.68 695.33 213.4 694.9 215.19" stroke="#364153" stroke-width="0.5" stroke-linecap="round" stroke-linejoin="round"/>
<path d="M711.31 211.71C708.93 212.56 706.64 213.68 704.5 215.02" stroke="#364153" stroke-width="0.5" stroke-linecap="round" stroke-linejoin="round"/>
<path d="M713.34 221.6C711.08 220.52 708.6 219.91 706.1 219.83" stroke="#364153" stroke-width="0.5" stroke-linecap="round" stroke-linejoin="round"/>
<path d="M699.5 224.52C701.36 226.56 702.84 228.93 703.85 231.49" stroke="#364153" stroke-width="0.5" stroke-linecap="round" stroke-linejoin="round"/>
<path d="M690.52 226.279C690.15 226.669 689.86 227.139 689.69 227.649" stroke="#364153" stroke-width="0.5" stroke-linecap="round" stroke-linejoin="round"/>
<path d="M724.41 265.9C711.02 250.56 716.39 232.86 726.88 226.05C734.15 225.22 730.41 239 727.07 241.72C731.31 248.36 724.14 254.75 724.14 254.75C726.77 259.16 724.41 265.9 724.41 265.9Z" fill="#364153"/>
<path d="M725.29 268.65C718.42 257.43 706.48 257.31 700.25 262.47C698.33 266.79 707.55 267.15 709.87 265.62C713.14 269.52 718.47 266.33 718.47 266.33C720.68 268.8 725.29 268.65 725.29 268.65Z" fill="#364153"/>
</g>
</g>
<defs>
<clipPath id="clip0_1150_30627">
<rect width="721" height="1024" fill="white"/>
</clipPath>
<clipPath id="clip1_1150_30627">
<rect width="523" height="392" fill="white" transform="translate(99 316)"/>
</clipPath>
<clipPath id="clip2_1150_30627">
<rect width="257.484" height="144.23" fill="white" transform="translate(453.771 744.022) rotate(31.6056)"/>
</clipPath>
<clipPath id="clip3_1150_30627">
<rect width="69.64" height="99.66" fill="white" transform="translate(665 196)"/>
</clipPath>
</defs>
</svg>
