<svg width="56" height="100" viewBox="0 0 56 100" fill="none" xmlns="http://www.w3.org/2000/svg">
<g clip-path="url(#clip0_1268_816)">
<path d="M57.5699 67.3903C55.8499 65.0603 53.9599 62.8503 51.9299 60.7903C49.7599 58.6003 47.4199 56.5803 45.0699 54.5803C40.3599 50.5603 35.5099 46.4703 32.2799 41.1103C29.5699 36.6203 28.1099 31.0903 29.5299 25.9203C29.6999 25.3103 29.9099 24.7003 30.1499 24.1203C30.3599 23.6003 29.5299 23.3603 29.3199 23.8703C27.3399 28.6303 27.9699 34.1003 30.0399 38.7203C32.5899 44.4103 37.1599 48.8803 41.7999 52.9103C44.1699 54.9703 46.5899 56.9603 48.8999 59.0803C51.0799 61.0803 53.1299 63.2203 55.0099 65.5103C58.6799 69.9803 61.6999 74.9803 63.9799 80.2903C66.2799 85.6203 67.8199 91.2803 68.5299 97.0403C68.6199 97.7703 68.6999 98.5003 68.7599 99.2403C68.8099 99.7903 69.6699 99.8303 69.6299 99.2703C69.1399 93.5303 67.8499 87.9003 65.8099 82.5203C63.7699 77.1303 60.9899 72.0303 57.5599 67.4003L57.5699 67.3903Z" fill="#364153"/>
<path d="M49.4404 26.2C47.3904 24.99 45.0204 24.48 42.6704 24.39C40.3304 24.3 38.0004 24.63 35.6904 24.98L32.3804 27.59C34.2404 29.49 35.9404 31.54 37.4804 33.73C38.9304 35.79 40.3104 38.04 42.4704 39.26C43.9904 40.11 45.7604 40.36 47.4604 40.24C49.1904 40.12 50.9504 39.59 52.2104 38.39C53.9204 36.77 54.4604 34.06 53.8204 31.72C53.1804 29.38 51.4704 27.42 49.4204 26.21L49.4404 26.2Z" fill="white"/>
<path d="M65.0304 17.77C63.7204 15.79 61.4704 14.57 59.1404 14.1C56.8104 13.63 54.4004 13.84 52.0604 14.24C45.0204 15.47 38.3104 18.51 32.6504 22.88L35.2004 25.55C38.7404 24.37 42.6104 24.66 46.2804 25.32C49.9504 25.98 53.5904 26.99 57.3204 27.21C58.7704 27.3 60.2504 27.26 61.6504 26.86C63.0504 26.46 64.3704 25.66 65.2004 24.47C66.5504 22.52 66.3404 19.74 65.0304 17.77Z" fill="white"/>
<path d="M39.0801 35.9198C37.6601 32.4498 35.2001 29.4098 32.1001 27.2998L26.1701 29.6498C24.7401 31.6998 23.3401 33.8398 22.7601 36.2598C22.1801 38.6898 22.5601 41.4798 24.3201 43.2498C25.4701 44.4098 27.0801 45.0098 28.6801 45.3698C30.9801 45.8798 33.4401 45.9598 35.6201 45.0698C37.8001 44.1798 39.6201 42.1998 39.8501 39.8498C39.9801 38.5098 39.6001 37.1598 39.0901 35.9198H39.0801Z" fill="white"/>
<path d="M5.55998 42.9003C4.92998 40.6103 5.47998 38.1103 6.64998 36.0503C7.81998 33.9803 9.55998 32.3003 11.4 30.8003C16.95 26.2903 23.64 23.2203 30.65 21.8203L31 25.5003C27.78 27.4003 25.47 30.5103 23.55 33.7203C21.64 36.9303 20.02 40.3303 17.74 43.2903C16.85 44.4403 15.85 45.5303 14.64 46.3203C13.42 47.1103 11.95 47.5903 10.51 47.4303C8.14998 47.1703 6.18998 45.1903 5.55998 42.9103V42.9003Z" fill="white"/>
<path d="M27.37 3.65982C24.81 1.54982 21.04 0.759819 18.06 2.22982C16.55 2.96982 15.34 4.22982 14.5 5.68982C13.74 7.00982 13.27 8.55982 13.5 10.0598C13.72 11.4398 14.51 12.6798 15.48 13.6898C16.46 14.6898 17.62 15.4898 18.75 16.3098C21.4 18.2298 24.01 20.3798 25.54 23.2698L32.03 22.1698C32.32 18.8598 32.53 15.5098 31.95 12.2498C31.37 8.97982 29.91 5.76982 27.35 3.65982H27.37Z" fill="white"/>
<path d="M49.1003 0.109987C46.2803 -0.420013 43.4904 1.09999 41.2204 2.85999C34.1804 8.31999 29.5104 16.73 28.6104 25.59L33.6804 26.58C37.4304 21.61 42.9204 18.33 47.9604 14.68C49.4804 13.58 50.9904 12.41 52.1504 10.93C53.3104 9.44999 54.1104 7.60999 54.0204 5.72999C53.8804 3.04999 51.7504 0.609987 49.1104 0.109987H49.1003Z" fill="white"/>
<path d="M1.22018 19.0604C2.98018 16.7904 6.08018 16.0804 8.94018 15.8904C17.8302 15.3104 26.9002 18.5104 33.4602 24.5404L30.3202 28.6404C24.2202 27.4104 17.9302 28.6004 11.7402 29.2004C9.87018 29.3804 7.97018 29.5104 6.11018 29.1704C4.25018 28.8304 2.44018 27.9904 1.27018 26.5204C-0.399819 24.4304 -0.429819 21.1804 1.22018 19.0604Z" fill="white"/>
<path d="M30.6702 29.4396C18.4202 33.0896 16.4802 22.1996 29.3702 19.4096C42.2602 16.6096 46.3702 24.7596 30.6702 29.4396Z" fill="#C14256"/>
<path d="M33.4403 21.3796C31.2803 22.0196 30.9403 20.0996 33.2103 19.6096C35.4803 19.1196 36.2103 20.5496 33.4403 21.3796Z" fill="#364153"/>
<path d="M31.4003 23.4397C29.7603 23.9297 29.5003 22.4697 31.2303 22.0897C32.9603 21.7097 33.5103 22.8097 31.4003 23.4397Z" fill="#364153"/>
<path d="M26.35 27.0002C24.71 27.4902 24.45 26.0302 26.18 25.6502C27.91 25.2702 28.46 26.3702 26.35 27.0002Z" fill="#364153"/>
<path d="M34.4403 22.4104C33.5603 22.6704 33.4303 21.8904 34.3503 21.6904C35.2703 21.4904 35.5703 22.0704 34.4403 22.4104Z" fill="#364153"/>
<path d="M24.5902 28.1701C23.7102 28.4301 23.5802 27.6501 24.5002 27.4501C25.4202 27.2501 25.7202 27.8301 24.5902 28.1701Z" fill="#364153"/>
<path d="M52.9704 17.9197C49.0704 17.8497 45.1904 18.7697 41.7404 20.5997C41.4904 20.7297 41.7004 21.1097 41.9504 20.9797C45.3304 19.1897 49.1304 18.2897 52.9504 18.3597C53.2304 18.3597 53.2404 17.9297 52.9704 17.9297V17.9197Z" fill="#E8CAB0"/>
<path d="M42.3101 9.67024C39.3701 11.8402 36.84 14.5302 34.85 17.6002C34.7 17.8302 35.0701 18.0602 35.2201 17.8302C37.1901 14.7902 39.7001 12.1402 42.6101 9.99024C42.8301 9.83024 42.5301 9.51024 42.3101 9.68024V9.67024Z" fill="#E8CAB0"/>
<path d="M21.5504 9.66038C21.3204 9.50038 21.0904 9.87038 21.3204 10.0304C24.2804 12.0504 26.7104 14.7904 28.3504 17.9704C28.4804 18.2204 28.8604 18.0104 28.7304 17.7604C27.0504 14.5104 24.5604 11.7204 21.5404 9.65038L21.5504 9.66038Z" fill="#E8CAB0"/>
<path d="M20.6301 21.9903C18.0901 21.1403 15.3101 21.1003 12.7501 21.8903C12.4801 21.9703 12.5801 22.4003 12.8501 22.3103C15.3401 21.5403 18.0301 21.5803 20.5101 22.4103C20.7801 22.5003 20.9001 22.0803 20.6301 21.9903Z" fill="#E8CAB0"/>
<path d="M19.4304 29.5699C17.2804 31.2599 15.4604 33.3499 14.0804 35.6999C13.9404 35.9399 14.3104 36.1699 14.4504 35.9299C15.8204 33.5999 17.6104 31.5499 19.7304 29.8799C19.9504 29.7099 19.6504 29.3899 19.4304 29.5699Z" fill="#E8CAB0"/>
<path d="M29.67 31.0599C29.6 32.8499 29.75 34.6499 30.12 36.4099C30.18 36.6799 30.6 36.5899 30.54 36.3099C30.18 34.5899 30.03 32.8299 30.1 31.0699C30.11 30.7899 29.68 30.7799 29.67 31.0499V31.0599Z" fill="#E8CAB0"/>
<path d="M45.16 30.8797C43.48 29.1697 41.5 27.7597 39.33 26.7297C39.08 26.6097 38.85 26.9797 39.1 27.0997C41.24 28.1097 43.19 29.4897 44.84 31.1797C45.04 31.3797 45.35 31.0797 45.15 30.8797H45.16Z" fill="#E8CAB0"/>
<path d="M13.9204 28.9499C15.4504 27.7699 17.1604 26.8099 18.9704 26.1299" stroke="#364153" stroke-width="0.5" stroke-linecap="round" stroke-linejoin="round"/>
<path d="M19.9106 17.0596C22.3006 17.3396 24.6106 18.2296 26.5706 19.6396" stroke="#364153" stroke-width="0.5" stroke-linecap="round" stroke-linejoin="round"/>
<path d="M31.9804 14.0996C31.0404 15.6796 30.3304 17.3996 29.9004 19.1896" stroke="#364153" stroke-width="0.5" stroke-linecap="round" stroke-linejoin="round"/>
<path d="M46.3105 15.71C43.9305 16.56 41.6405 17.68 39.5005 19.02" stroke="#364153" stroke-width="0.5" stroke-linecap="round" stroke-linejoin="round"/>
<path d="M48.3406 25.6001C46.0806 24.5201 43.6006 23.9101 41.1006 23.8301" stroke="#364153" stroke-width="0.5" stroke-linecap="round" stroke-linejoin="round"/>
<path d="M34.5005 28.5195C36.3605 30.5595 37.8405 32.9295 38.8505 35.4895" stroke="#364153" stroke-width="0.5" stroke-linecap="round" stroke-linejoin="round"/>
<path d="M25.5204 30.2793C25.1504 30.6693 24.8604 31.1393 24.6904 31.6493" stroke="#364153" stroke-width="0.5" stroke-linecap="round" stroke-linejoin="round"/>
<path d="M59.4098 69.8997C46.0198 54.5597 51.3898 36.8596 61.8798 30.0496C69.1498 29.2196 65.4098 42.9997 62.0698 45.7197C66.3098 52.3596 59.1398 58.7496 59.1398 58.7496C61.7698 63.1596 59.4098 69.8997 59.4098 69.8997Z" fill="#364153"/>
<path d="M60.2899 72.6497C53.4199 61.4297 41.4799 61.3097 35.2499 66.4697C33.3299 70.7897 42.5499 71.1497 44.8699 69.6197C48.1399 73.5197 53.4699 70.3297 53.4699 70.3297C55.6799 72.7997 60.2899 72.6497 60.2899 72.6497Z" fill="#364153"/>
</g>
<defs>
<clipPath id="clip0_1268_816">
<rect width="69.64" height="99.66" fill="white"/>
</clipPath>
</defs>
</svg>
