<svg width="258" height="221" viewBox="0 0 258 221" fill="none" xmlns="http://www.w3.org/2000/svg">
<path d="M179.834 100.867V48.319C181.801 48.319 183.398 49.9224 183.398 51.8985V97.291C183.398 99.2672 181.801 100.871 179.834 100.871V100.867Z" fill="#152242"/>
<path d="M179.834 124.83V106.457C181.801 106.457 183.398 108.061 183.398 110.037V121.254C183.398 123.23 181.801 124.834 179.834 124.834V124.83Z" fill="#152242"/>
<path d="M155.182 15.7029H84.0279C73.4211 15.7029 64.8225 24.339 64.8225 34.9922V196.24C64.8225 206.894 73.4211 215.53 84.0279 215.53H155.182C165.789 215.53 174.387 206.894 174.387 196.24V34.9922C174.387 24.339 165.789 15.7029 155.182 15.7029Z" fill="url(#paint0_linear_430_13596)"/>
<g style="mix-blend-mode:multiply">
<path d="M152.064 51.8986H87.1426C82.6062 51.8986 78.9288 55.5921 78.9288 60.1483V125.353C78.9288 129.909 82.6062 133.603 87.1426 133.603H152.064C156.6 133.603 160.278 129.909 160.278 125.353V60.1483C160.278 55.5921 156.6 51.8986 152.064 51.8986Z" fill="#E5E5E5"/>
</g>
<path d="M174.387 34.9922V43.5155H64.8225V34.9922C64.8225 24.3561 73.4381 15.7029 84.0279 15.7029H155.182C165.772 15.7029 174.387 24.3561 174.387 34.9922Z" fill="url(#paint1_linear_430_13596)"/>
<path style="mix-blend-mode:multiply" d="M174.387 59.4919H64.8225V85.9404H174.387V59.4919Z" fill="url(#paint2_linear_430_13596)"/>
<path d="M66.4122 47.0814H53.1161L65.0234 31.652H75.94L66.4122 47.0814Z" fill="url(#paint3_linear_430_13596)"/>
<path d="M79.7117 47.0814H66.4122L75.94 31.652H86.8567L79.7117 47.0814Z" fill="url(#paint4_linear_430_13596)"/>
<path d="M93.0077 47.0814H79.7117L86.8567 31.652H97.7699L93.0077 47.0814Z" fill="url(#paint5_linear_430_13596)"/>
<path d="M106.307 47.0814H93.0078L97.77 31.652H108.687L106.307 47.0814Z" fill="url(#paint6_linear_430_13596)"/>
<path d="M119.603 47.0814H106.307L108.687 31.652H119.603V47.0814Z" fill="url(#paint7_linear_430_13596)"/>
<path d="M132.899 47.0814H119.603V31.652H130.52L132.899 47.0814Z" fill="url(#paint8_linear_430_13596)"/>
<path d="M146.199 47.0814H132.899L130.52 31.652H141.437L146.199 47.0814Z" fill="url(#paint9_linear_430_13596)"/>
<path d="M159.495 47.0814H146.199L141.437 31.652H152.35L159.495 47.0814Z" fill="url(#paint10_linear_430_13596)"/>
<path d="M172.791 47.0814H159.495L152.35 31.652H163.266L172.791 47.0814Z" fill="url(#paint11_linear_430_13596)"/>
<path d="M186.09 47.0814H172.791L163.266 31.652H174.183L186.09 47.0814Z" fill="url(#paint12_linear_430_13596)"/>
<path d="M53.1161 47.0814H66.4122V67.6118C66.4122 71.2974 63.4337 74.2889 59.7642 74.2889C56.0947 74.2889 53.1161 71.2974 53.1161 67.6118V47.0814Z" fill="url(#paint13_linear_430_13596)"/>
<path d="M73.0636 74.2889C69.3907 74.2889 66.4156 71.3008 66.4156 67.6118V47.0814H79.7116V67.6118C79.7116 71.3008 76.7365 74.2889 73.0636 74.2889Z" fill="url(#paint14_linear_430_13596)"/>
<path d="M86.3597 74.2889C82.6868 74.2889 79.7117 71.3008 79.7117 67.6118V47.0814H93.0077V67.6118C93.0077 71.3008 90.0326 74.2889 86.3597 74.2889Z" fill="url(#paint15_linear_430_13596)"/>
<path d="M99.6558 74.2889C95.9829 74.2889 93.0078 71.3008 93.0078 67.6118V47.0814H106.304V67.6118C106.304 71.3008 103.329 74.2889 99.6558 74.2889Z" fill="url(#paint16_linear_430_13596)"/>
<path d="M106.307 47.0814H119.603V67.6118C119.603 71.2974 116.625 74.2889 112.955 74.2889C109.286 74.2889 106.307 71.2974 106.307 67.6118V47.0814Z" fill="url(#paint17_linear_430_13596)"/>
<path d="M126.251 74.2889C122.578 74.2889 119.603 71.3008 119.603 67.6118V47.0814H132.899V67.6118C132.899 71.3008 129.924 74.2889 126.251 74.2889Z" fill="url(#paint18_linear_430_13596)"/>
<path d="M139.551 74.2889C135.878 74.2889 132.903 71.3008 132.903 67.6118V47.0814H146.199V67.6118C146.199 71.3008 143.224 74.2889 139.551 74.2889Z" fill="url(#paint19_linear_430_13596)"/>
<path d="M146.199 47.0814H159.495V67.6118C159.495 71.2974 156.516 74.2889 152.847 74.2889C149.177 74.2889 146.199 71.2974 146.199 67.6118V47.0814Z" fill="url(#paint20_linear_430_13596)"/>
<path d="M166.143 74.2889C162.47 74.2889 159.495 71.3008 159.495 67.6118V47.0814H172.791V67.6118C172.791 71.3008 169.816 74.2889 166.143 74.2889Z" fill="url(#paint21_linear_430_13596)"/>
<path d="M179.442 74.2889C175.769 74.2889 172.794 71.3008 172.794 67.6118V47.0814H186.09V67.6118C186.09 71.3008 183.115 74.2889 179.442 74.2889Z" fill="url(#paint22_linear_430_13596)"/>
<path d="M111.325 21.1287H127.882C129.536 21.1287 130.881 22.4791 130.881 24.1407C130.881 25.8023 129.536 27.1527 127.882 27.1527H111.325C109.67 27.1527 108.326 25.8023 108.326 24.1407C108.326 22.4791 109.67 21.1287 111.325 21.1287Z" fill="#152242"/>
<g style="mix-blend-mode:multiply">
<path d="M136.092 143.029H85.056C82.1044 143.029 79.7117 145.432 79.7117 148.397C79.7117 151.361 82.1044 153.764 85.056 153.764H136.092C139.044 153.764 141.437 151.361 141.437 148.397C141.437 145.432 139.044 143.029 136.092 143.029Z" fill="#E5E5E5"/>
</g>
<g style="mix-blend-mode:multiply">
<path d="M116.083 169.741H85.056C82.1047 169.741 79.7117 167.337 79.7117 164.373C79.7117 161.409 82.1047 159.005 85.056 159.005H116.083C119.035 159.005 121.428 161.409 121.428 164.373C121.428 167.337 119.035 169.741 116.083 169.741Z" fill="#E5E5E5"/>
</g>
<path d="M116.608 182.179H89.0965C83.9134 182.179 79.7117 186.399 79.7117 191.604V191.608C79.7117 196.814 83.9134 201.034 89.0965 201.034H116.608C121.791 201.034 125.993 196.814 125.993 191.608V191.604C125.993 186.399 121.791 182.179 116.608 182.179Z" fill="url(#paint23_linear_430_13596)"/>
<path d="M213.724 189.198L136.46 160.759C128.185 157.713 123.937 148.509 126.97 140.198L142.625 97.2912C145.658 88.9799 154.821 84.7131 163.096 87.7594L240.36 116.198C248.636 119.244 252.884 128.447 249.851 136.759L234.196 179.666C231.163 187.977 221.999 192.244 213.724 189.198Z" fill="url(#paint24_linear_430_13596)"/>
<path d="M240.024 117.096L162.765 88.6533C154.49 85.6069 145.323 89.8748 142.29 98.186L127.282 139.31C124.249 147.621 128.498 156.828 136.773 159.874L214.032 188.317C222.307 191.363 231.474 187.095 234.507 178.784L249.515 137.66C252.548 129.349 248.299 120.142 240.024 117.096Z" fill="url(#paint25_linear_430_13596)"/>
<path d="M171.112 111.063L157.89 106.195C155.119 105.175 152.049 106.604 151.033 109.388L148.206 117.133C147.191 119.917 148.614 123 151.385 124.02L164.607 128.888C167.378 129.908 170.448 128.479 171.464 125.696L174.291 117.95C175.307 115.166 173.884 112.083 171.112 111.063Z" fill="url(#paint26_linear_430_13596)"/>
<g style="mix-blend-mode:multiply">
<path d="M191.118 165.966L141.665 147.764C139.704 147.043 138.696 144.862 139.415 142.892C140.133 140.923 142.305 139.911 144.265 140.632L193.719 158.834C195.679 159.556 196.687 161.737 195.969 163.706C195.25 165.676 193.079 166.688 191.118 165.966Z" fill="#E5E5E5"/>
</g>
<path d="M63.5903 108.454C63.1069 108.454 62.7257 108.297 62.4465 107.979C62.1674 107.661 62.0279 107.24 62.0279 106.717C62.0279 105.989 62.1674 105.302 62.4465 104.655C62.7257 104.009 63.1988 103.343 63.8694 102.652C64.3154 102.184 64.6285 101.794 64.8055 101.476C64.9825 101.158 65.071 100.823 65.071 100.467C65.071 99.5886 64.4583 99.151 63.2295 99.151C62.6338 99.151 62.0755 99.216 61.5547 99.3459C61.0339 99.4758 60.5301 99.6741 60.0467 99.934C59.4885 100.214 58.9949 100.307 58.566 100.214C58.1371 100.122 57.8035 99.9066 57.5618 99.5681C57.3201 99.2331 57.1908 98.8399 57.1703 98.392C57.1499 97.9442 57.2691 97.5031 57.5175 97.0758C57.7694 96.645 58.1915 96.2894 58.7872 96.0091C59.5497 95.6364 60.3599 95.3595 61.2143 95.1817C62.0687 95.0039 62.8686 94.915 63.6141 94.915C64.8974 94.915 66.0276 95.1202 67.0045 95.5304C67.9815 95.9407 68.7406 96.5219 69.2784 97.2672C69.8196 98.016 70.0885 98.8741 70.0885 99.8451C70.0885 100.686 69.8979 101.466 69.5167 102.187C69.1354 102.905 68.4512 103.63 67.4641 104.358C66.5892 104.994 66.0071 105.534 65.7212 105.985C65.4319 106.433 65.231 106.912 65.1221 107.414C65.0472 107.715 64.8906 107.962 64.6489 108.156C64.4073 108.351 64.0532 108.45 63.5869 108.45L63.5903 108.454ZM63.5052 115.155C62.6508 115.155 61.9734 114.898 61.4832 114.382C60.9896 113.869 60.7445 113.209 60.7445 112.406C60.7445 111.603 60.9896 110.977 61.4832 110.471C61.9768 109.965 62.6508 109.715 63.5052 109.715C64.3596 109.715 65.0302 109.968 65.5136 110.471C65.9969 110.977 66.2386 111.62 66.2386 112.406C66.2386 113.192 65.9969 113.869 65.5136 114.382C65.0302 114.895 64.3596 115.155 63.5052 115.155Z" fill="white"/>
<path d="M19.9951 173.272C19.9951 165.655 21.0436 156.927 25.302 156.752C29.5604 156.578 30.7178 168.188 30.7178 173.272" stroke="url(#paint27_linear_430_13596)" stroke-width="2" stroke-linecap="round" stroke-linejoin="round"/>
<path d="M51.7545 220.932H9.34399L13.1667 169.669H46.5396L51.7545 220.932Z" fill="url(#paint28_linear_430_13596)"/>
<path d="M0 220.932H9.344L13.1667 169.669H6.21572L0 220.932Z" fill="url(#paint29_linear_430_13596)"/>
<path d="M0 220.932L9.54824 218.166L9.344 220.932H0Z" fill="url(#paint30_linear_430_13596)"/>
<g style="mix-blend-mode:multiply">
<path d="M26.9529 173.272C26.9529 173.717 26.5955 174.076 26.153 174.076C25.7105 174.076 25.3531 173.717 25.3531 173.272C25.3531 172.828 25.7105 172.469 26.153 172.469C26.5955 172.469 26.9529 172.828 26.9529 173.272Z" fill="#828282"/>
</g>
<g style="mix-blend-mode:multiply">
<path d="M37.6756 173.272C37.6756 173.717 37.3181 174.076 36.8756 174.076C36.4331 174.076 36.0757 173.717 36.0757 173.272C36.0757 172.828 36.4331 172.469 36.8756 172.469C37.3181 172.469 37.6756 172.828 37.6756 173.272Z" fill="#828282"/>
</g>
<path d="M26.1564 173.272C26.1564 165.655 27.2048 156.927 31.4633 156.752C35.7217 156.578 36.879 168.188 36.879 173.272" stroke="url(#paint31_linear_430_13596)" stroke-width="2" stroke-linecap="round" stroke-linejoin="round"/>
<path d="M54.9407 211.526H48.1463V220.986H54.9407V211.526Z" fill="#FFE9D2"/>
<path d="M54.9407 186.555H48.1463V196.015H54.9407V186.555Z" fill="#FFE9D2"/>
<path d="M91.6631 143.029C91.6631 144.123 90.162 144.967 89.842 145.955C89.5118 146.978 90.2198 148.544 89.6037 149.398C88.9808 150.26 87.2754 150.062 86.4176 150.687C85.57 151.306 85.233 153.002 84.2118 153.333C83.228 153.655 81.9685 152.492 80.8792 152.492C79.79 152.492 78.5305 153.655 77.5467 153.333C76.5289 153.002 76.1885 151.306 75.3409 150.687C74.4831 150.062 72.7777 150.256 72.1548 149.398C71.5386 148.547 72.2467 146.981 71.9165 145.955C71.5965 144.967 70.0953 144.126 70.0953 143.029C70.0953 141.931 71.5965 141.09 71.9165 140.102C72.2467 139.08 71.5386 137.514 72.1548 136.66C72.7777 135.798 74.4831 135.996 75.3409 135.371C76.1885 134.752 76.5255 133.056 77.5467 132.724C78.5305 132.403 79.79 133.565 80.8792 133.565C81.9685 133.565 83.228 132.403 84.2118 132.724C85.2296 133.056 85.57 134.752 86.4176 135.371C87.2754 135.996 88.9808 135.801 89.6037 136.66C90.2198 137.511 89.5118 139.077 89.842 140.102C90.162 141.09 91.6631 141.935 91.6631 143.029Z" fill="url(#paint32_linear_430_13596)"/>
<path d="M80.1712 147.255C79.8614 147.255 79.5687 147.132 79.3508 146.913L75.7052 143.251C75.2524 142.796 75.2524 142.055 75.7052 141.6C76.1579 141.145 76.8966 141.145 77.3493 141.6L80.1746 144.438L85.4372 139.152C85.8899 138.697 86.6286 138.697 87.0814 139.152C87.5341 139.607 87.5341 140.349 87.0814 140.803L80.995 146.916C80.7771 147.135 80.481 147.258 80.1746 147.258L80.1712 147.255Z" fill="white"/>
<path d="M221.608 114.659L218.061 115.134C217.475 115.213 217.057 114.584 217.349 114.071L219.13 110.953C219.245 110.748 219.256 110.502 219.153 110.29L217.608 107.049C217.353 106.515 217.819 105.917 218.398 106.04L221.901 106.778C222.129 106.826 222.367 106.758 222.537 106.597L225.128 104.119C225.556 103.708 226.264 103.972 226.326 104.56L226.707 108.132C226.731 108.365 226.87 108.573 227.075 108.686L230.223 110.396C230.741 110.676 230.713 111.435 230.176 111.678L226.911 113.148C226.697 113.244 226.544 113.438 226.503 113.671L225.856 117.206C225.75 117.787 225.025 117.996 224.627 117.558L222.227 114.891C222.071 114.717 221.836 114.632 221.604 114.662L221.608 114.659Z" fill="url(#paint33_linear_430_13596)"/>
<path d="M221.574 114.625L218.027 115.1C217.441 115.179 217.023 114.55 217.315 114.037L219.096 110.919C219.211 110.714 219.222 110.467 219.119 110.255L217.574 107.014C217.319 106.481 217.785 105.883 218.364 106.006L221.866 106.744C222.095 106.792 222.333 106.724 222.503 106.563L225.093 104.084C225.522 103.674 226.23 103.937 226.292 104.525L226.673 108.098C226.697 108.331 226.836 108.539 227.041 108.652L230.189 110.361C230.707 110.642 230.679 111.401 230.142 111.644L226.877 113.114C226.663 113.209 226.51 113.404 226.469 113.637L225.822 117.172C225.716 117.753 224.991 117.962 224.593 117.524L222.193 114.857C222.037 114.683 221.802 114.597 221.57 114.628L221.574 114.625Z" fill="url(#paint34_linear_430_13596)"/>
<path d="M221.54 114.591L217.993 115.066C217.407 115.145 216.989 114.515 217.281 114.003L219.062 110.885C219.177 110.679 219.188 110.433 219.085 110.221L217.54 106.98C217.285 106.447 217.751 105.849 218.33 105.972L221.832 106.71C222.061 106.758 222.299 106.69 222.469 106.529L225.059 104.05C225.488 103.64 226.196 103.903 226.258 104.491L226.639 108.064C226.663 108.296 226.802 108.505 227.007 108.618L230.155 110.327C230.673 110.608 230.645 111.367 230.108 111.609L226.843 113.08C226.629 113.175 226.476 113.37 226.435 113.603L225.788 117.138C225.682 117.719 224.957 117.927 224.559 117.49L222.159 114.823C222.003 114.649 221.768 114.563 221.536 114.594L221.54 114.591Z" fill="url(#paint35_linear_430_13596)"/>
<path d="M221.506 114.556L217.959 115.032C217.373 115.11 216.955 114.481 217.247 113.968L219.028 110.85C219.143 110.645 219.153 110.399 219.051 110.187L217.506 106.946C217.251 106.413 217.717 105.814 218.296 105.937L221.798 106.676C222.026 106.724 222.265 106.655 222.435 106.495L225.025 104.016C225.454 103.606 226.162 103.869 226.224 104.457L226.605 108.03C226.629 108.262 226.768 108.471 226.973 108.584L230.121 110.293C230.639 110.573 230.611 111.332 230.074 111.575L226.809 113.045C226.595 113.141 226.441 113.336 226.401 113.568L225.754 117.104C225.648 117.685 224.923 117.893 224.525 117.456L222.125 114.789C221.969 114.615 221.734 114.529 221.502 114.56L221.506 114.556Z" fill="url(#paint36_linear_430_13596)"/>
<path d="M221.472 114.522L217.925 114.998C217.339 115.076 216.92 114.447 217.213 113.934L218.993 110.816C219.109 110.611 219.119 110.365 219.017 110.153L217.472 106.912C217.217 106.379 217.683 105.78 218.262 105.903L221.764 106.642C221.992 106.69 222.231 106.621 222.401 106.461L224.991 103.982C225.42 103.572 226.128 103.835 226.19 104.423L226.571 107.996C226.595 108.228 226.734 108.437 226.938 108.55L230.087 110.259C230.605 110.539 230.577 111.298 230.039 111.541L226.775 113.011C226.561 113.107 226.407 113.302 226.367 113.534L225.72 117.069C225.614 117.651 224.889 117.859 224.491 117.422L222.091 114.755C221.935 114.58 221.7 114.495 221.468 114.526L221.472 114.522Z" fill="url(#paint37_linear_430_13596)"/>
<path d="M221.438 114.488L217.891 114.963C217.305 115.042 216.886 114.413 217.179 113.9L218.959 110.782C219.075 110.577 219.085 110.331 218.983 110.119L217.438 106.878C217.183 106.344 217.649 105.746 218.228 105.869L221.73 106.608C221.958 106.655 222.197 106.587 222.367 106.426L224.957 103.948C225.386 103.537 226.094 103.801 226.156 104.389L226.537 107.961C226.561 108.194 226.7 108.403 226.904 108.515L230.053 110.225C230.571 110.505 230.543 111.264 230.005 111.507L226.741 112.977C226.527 113.073 226.373 113.268 226.333 113.5L225.686 117.035C225.58 117.616 224.855 117.825 224.457 117.387L222.057 114.721C221.901 114.546 221.666 114.461 221.434 114.492L221.438 114.488Z" fill="url(#paint38_linear_430_13596)"/>
<path d="M221.404 114.454L217.857 114.929C217.271 115.008 216.852 114.379 217.145 113.866L218.925 110.748C219.041 110.543 219.051 110.297 218.949 110.085L217.404 106.844C217.149 106.31 217.615 105.712 218.194 105.835L221.696 106.573C221.924 106.621 222.163 106.553 222.333 106.392L224.923 103.914C225.352 103.503 226.06 103.767 226.122 104.355L226.503 107.927C226.527 108.16 226.666 108.368 226.87 108.481L230.019 110.191C230.537 110.471 230.509 111.23 229.971 111.473L226.707 112.943C226.493 113.039 226.339 113.233 226.299 113.466L225.652 117.001C225.546 117.582 224.821 117.791 224.423 117.353L222.023 114.686C221.866 114.512 221.632 114.427 221.4 114.457L221.404 114.454Z" fill="url(#paint39_linear_430_13596)"/>
<path d="M221.369 114.42L217.823 114.895C217.237 114.973 216.818 114.344 217.111 113.832L218.891 110.714C219.007 110.508 219.017 110.262 218.915 110.05L217.37 106.809C217.114 106.276 217.581 105.678 218.16 105.801L221.662 106.539C221.89 106.587 222.129 106.519 222.299 106.358L224.889 103.879C225.318 103.469 226.026 103.732 226.087 104.32L226.469 107.893C226.493 108.125 226.632 108.334 226.836 108.447L229.985 110.156C230.502 110.437 230.475 111.196 229.937 111.438L226.673 112.908C226.458 113.004 226.305 113.199 226.264 113.432L225.618 116.967C225.512 117.548 224.787 117.756 224.389 117.319L221.989 114.652C221.832 114.478 221.598 114.392 221.366 114.423L221.369 114.42Z" fill="url(#paint40_linear_430_13596)"/>
<path d="M221.335 114.385L217.789 114.861C217.203 114.939 216.784 114.31 217.077 113.797L218.857 110.679C218.973 110.474 218.983 110.228 218.881 110.016L217.336 106.775C217.08 106.242 217.547 105.643 218.126 105.766L221.628 106.505C221.856 106.553 222.095 106.484 222.265 106.324L224.855 103.845C225.284 103.435 225.992 103.698 226.053 104.286L226.435 107.859C226.459 108.091 226.598 108.3 226.802 108.413L229.951 110.122C230.468 110.402 230.441 111.161 229.903 111.404L226.639 112.874C226.424 112.97 226.271 113.165 226.23 113.397L225.584 116.933C225.478 117.514 224.753 117.722 224.355 117.285L221.955 114.618C221.798 114.444 221.564 114.358 221.332 114.389L221.335 114.385Z" fill="url(#paint41_linear_430_13596)"/>
<path d="M221.301 114.351L217.754 114.826C217.169 114.905 216.75 114.276 217.043 113.763L218.823 110.645C218.939 110.44 218.949 110.194 218.847 109.982L217.302 106.741C217.046 106.207 217.513 105.609 218.091 105.732L221.594 106.471C221.822 106.519 222.061 106.45 222.231 106.29L224.821 103.811C225.25 103.401 225.958 103.664 226.019 104.252L226.401 107.825C226.424 108.057 226.564 108.266 226.768 108.378L229.917 110.088C230.434 110.368 230.407 111.127 229.869 111.37L226.605 112.84C226.39 112.936 226.237 113.131 226.196 113.363L225.55 116.898C225.444 117.48 224.719 117.688 224.321 117.25L221.921 114.584C221.764 114.409 221.53 114.324 221.298 114.355L221.301 114.351Z" fill="url(#paint42_linear_430_13596)"/>
<path d="M221.267 114.317L217.72 114.792C217.135 114.871 216.716 114.242 217.009 113.729L218.789 110.611C218.905 110.406 218.915 110.16 218.813 109.948L217.268 106.707C217.012 106.173 217.479 105.575 218.057 105.698L221.56 106.437C221.788 106.484 222.026 106.416 222.197 106.255L224.787 103.777C225.216 103.366 225.924 103.63 225.985 104.218L226.367 107.79C226.39 108.023 226.53 108.231 226.734 108.344L229.883 110.054C230.4 110.334 230.373 111.093 229.835 111.336L226.571 112.806C226.356 112.902 226.203 113.097 226.162 113.329L225.516 116.864C225.41 117.445 224.685 117.654 224.287 117.216L221.887 114.55C221.73 114.375 221.495 114.29 221.264 114.321L221.267 114.317Z" fill="url(#paint43_linear_430_13596)"/>
<path d="M221.233 114.283L217.686 114.758C217.101 114.837 216.682 114.208 216.975 113.695L218.755 110.577C218.871 110.372 218.881 110.126 218.779 109.914L217.234 106.672C216.978 106.139 217.445 105.541 218.023 105.664L221.526 106.402C221.754 106.45 221.992 106.382 222.163 106.221L224.753 103.742C225.182 103.332 225.89 103.595 225.951 104.184L226.333 107.756C226.356 107.989 226.496 108.197 226.7 108.31L229.849 110.02C230.366 110.3 230.339 111.059 229.801 111.302L226.537 112.772C226.322 112.867 226.169 113.062 226.128 113.295L225.482 116.83C225.376 117.411 224.651 117.62 224.253 117.182L221.853 114.515C221.696 114.341 221.461 114.256 221.23 114.286L221.233 114.283Z" fill="url(#paint44_linear_430_13596)"/>
<path d="M221.199 114.249L217.652 114.724C217.067 114.803 216.648 114.174 216.941 113.661L218.721 110.543C218.837 110.338 218.847 110.091 218.745 109.879L217.2 106.638C216.944 106.105 217.411 105.507 217.989 105.63L221.492 106.368C221.72 106.416 221.958 106.348 222.129 106.187L224.719 103.708C225.148 103.298 225.856 103.561 225.917 104.149L226.299 107.722C226.322 107.955 226.462 108.163 226.666 108.276L229.815 109.985C230.332 110.266 230.305 111.025 229.767 111.267L226.503 112.738C226.288 112.833 226.135 113.028 226.094 113.261L225.448 116.796C225.342 117.377 224.617 117.586 224.219 117.148L221.819 114.481C221.662 114.307 221.427 114.221 221.196 114.252L221.199 114.249Z" fill="url(#paint45_linear_430_13596)"/>
<path d="M221.165 114.215L217.618 114.69C217.033 114.768 216.614 114.139 216.907 113.627L218.687 110.508C218.803 110.303 218.813 110.057 218.711 109.845L217.166 106.604C216.91 106.071 217.377 105.472 217.955 105.596L221.458 106.334C221.686 106.382 221.924 106.314 222.095 106.153L224.685 103.674C225.114 103.264 225.822 103.527 225.883 104.115L226.264 107.688C226.288 107.92 226.428 108.129 226.632 108.242L229.781 109.951C230.298 110.232 230.271 110.991 229.733 111.233L226.469 112.703C226.254 112.799 226.101 112.994 226.06 113.226L225.413 116.762C225.308 117.343 224.583 117.551 224.185 117.114L221.785 114.447C221.628 114.273 221.393 114.187 221.162 114.218L221.165 114.215Z" fill="url(#paint46_linear_430_13596)"/>
<path d="M221.131 114.18L217.584 114.656C216.999 114.734 216.58 114.105 216.873 113.592L218.653 110.474C218.769 110.269 218.779 110.023 218.677 109.811L217.132 106.57C216.876 106.037 217.343 105.438 217.921 105.561L221.424 106.3C221.652 106.348 221.89 106.279 222.06 106.119L224.651 103.64C225.08 103.23 225.788 103.493 225.849 104.081L226.23 107.654C226.254 107.886 226.394 108.095 226.598 108.208L229.747 109.917C230.264 110.197 230.237 110.956 229.699 111.199L226.435 112.669C226.22 112.765 226.067 112.96 226.026 113.192L225.379 116.727C225.274 117.309 224.549 117.517 224.151 117.08L221.751 114.413C221.594 114.238 221.359 114.153 221.128 114.184L221.131 114.18Z" fill="url(#paint47_linear_430_13596)"/>
<path d="M221.131 114.18L217.584 114.656C216.999 114.734 216.58 114.105 216.873 113.592L218.653 110.474C218.769 110.269 218.779 110.023 218.677 109.811L217.132 106.57C216.876 106.037 217.343 105.438 217.921 105.561L221.424 106.3C221.652 106.348 221.89 106.279 222.06 106.119L224.651 103.64C225.08 103.23 225.788 103.493 225.849 104.081L226.23 107.654C226.254 107.886 226.394 108.095 226.598 108.208L229.747 109.917C230.264 110.197 230.237 110.956 229.699 111.199L226.435 112.669C226.22 112.765 226.067 112.96 226.026 113.192L225.379 116.727C225.274 117.309 224.549 117.517 224.151 117.08L221.751 114.413C221.594 114.238 221.359 114.153 221.128 114.184L221.131 114.18Z" fill="url(#paint48_linear_430_13596)"/>
<path d="M51.2576 146.721L49.9879 150.082C49.7802 150.636 49.028 150.708 48.7182 150.205L46.8324 147.149C46.7098 146.95 46.4954 146.824 46.2605 146.81L42.6863 146.636C42.0974 146.609 41.7978 145.911 42.1757 145.46L44.487 142.714C44.6368 142.533 44.6913 142.291 44.63 142.065L43.6905 138.598C43.5339 138.027 44.099 137.525 44.647 137.747L47.9591 139.108C48.177 139.196 48.422 139.172 48.6195 139.043L51.6116 137.073C52.1052 136.749 52.7554 137.131 52.7111 137.723L52.449 141.306C52.432 141.542 52.5307 141.767 52.7145 141.914L55.5058 144.164C55.9653 144.537 55.8019 145.275 55.2301 145.415L51.7546 146.27C51.5265 146.325 51.3427 146.492 51.2576 146.711V146.721Z" fill="url(#paint49_linear_430_13596)"/>
<path d="M51.2235 146.687L49.9538 150.048C49.7462 150.602 48.9939 150.674 48.6841 150.171L46.7983 147.115C46.6758 146.916 46.4613 146.79 46.2264 146.776L42.6522 146.602C42.0633 146.574 41.7638 145.877 42.1416 145.426L44.453 142.68C44.6027 142.499 44.6572 142.256 44.5959 142.031L43.6564 138.564C43.4998 137.993 44.0649 137.49 44.6129 137.713L47.925 139.073C48.1429 139.162 48.388 139.138 48.5854 139.008L51.5775 137.039C52.0711 136.714 52.7213 137.097 52.677 137.689L52.4149 141.272C52.3979 141.508 52.4966 141.733 52.6804 141.88L55.4717 144.13C55.9313 144.503 55.7679 145.241 55.196 145.381L51.7205 146.236C51.4924 146.291 51.3086 146.458 51.2235 146.677V146.687Z" fill="url(#paint50_linear_430_13596)"/>
<path d="M51.1895 146.653L49.9198 150.014C49.7122 150.568 48.9599 150.639 48.6501 150.137L46.7643 147.08C46.6418 146.882 46.4273 146.756 46.1924 146.742L42.6182 146.568C42.0293 146.54 41.7298 145.843 42.1076 145.391L44.419 142.646C44.5687 142.465 44.6232 142.222 44.5619 141.996L43.6224 138.53C43.4658 137.959 44.0309 137.456 44.5789 137.678L47.891 139.039C48.1089 139.128 48.354 139.104 48.5514 138.974L51.5435 137.005C52.0371 136.68 52.6873 137.063 52.643 137.655L52.3809 141.238C52.3639 141.473 52.4626 141.699 52.6464 141.846L55.4377 144.096C55.8973 144.468 55.7339 145.207 55.162 145.347L51.6865 146.202C51.4584 146.256 51.2746 146.424 51.1895 146.643V146.653Z" fill="url(#paint51_linear_430_13596)"/>
<path d="M51.1555 146.619L49.8858 149.98C49.6781 150.533 48.9258 150.605 48.6161 150.103L46.7303 147.046C46.6077 146.848 46.3933 146.721 46.1584 146.708L42.5842 146.533C41.9953 146.506 41.6957 145.809 42.0736 145.357L44.3849 142.612C44.5347 142.431 44.5891 142.188 44.5279 141.962L43.5884 138.496C43.4318 137.925 43.9968 137.422 44.5449 137.644L47.857 139.005C48.0748 139.094 48.3199 139.07 48.5174 138.94L51.5095 136.971C52.0031 136.646 52.6532 137.029 52.609 137.62L52.3469 141.203C52.3299 141.439 52.4286 141.665 52.6124 141.812L55.4037 144.062C55.8632 144.434 55.6998 145.173 55.1279 145.313L51.6525 146.168C51.4244 146.222 51.2406 146.39 51.1555 146.609V146.619Z" fill="url(#paint52_linear_430_13596)"/>
<path d="M51.1214 146.585L49.8517 149.945C49.6441 150.499 48.8918 150.571 48.582 150.069L46.6962 147.012C46.5737 146.814 46.3592 146.687 46.1243 146.674L42.5501 146.499C41.9612 146.472 41.6617 145.774 42.0395 145.323L44.3508 142.578C44.5006 142.397 44.5551 142.154 44.4938 141.928L43.5543 138.461C43.3977 137.89 43.9628 137.388 44.5108 137.61L47.8229 138.971C48.0408 139.06 48.2859 139.036 48.4833 138.906L51.4754 136.937C51.969 136.612 52.6192 136.995 52.5749 137.586L52.3128 141.169C52.2958 141.405 52.3945 141.631 52.5783 141.778L55.3696 144.027C55.8292 144.4 55.6658 145.138 55.0939 145.279L51.6184 146.133C51.3903 146.188 51.2065 146.356 51.1214 146.574V146.585Z" fill="url(#paint53_linear_430_13596)"/>
<path d="M51.0874 146.55L49.8177 149.911C49.61 150.465 48.8577 150.537 48.548 150.034L46.6621 146.978C46.5396 146.78 46.3251 146.653 46.0903 146.639L42.5161 146.465C41.9272 146.438 41.6276 145.74 42.0055 145.289L44.3168 142.544C44.4666 142.362 44.521 142.12 44.4598 141.894L43.5202 138.427C43.3637 137.856 43.9287 137.354 44.4768 137.576L47.7889 138.937C48.0067 139.026 48.2518 139.002 48.4493 138.872L51.4414 136.902C51.935 136.578 52.5851 136.961 52.5409 137.552L52.2788 141.135C52.2617 141.371 52.3605 141.597 52.5443 141.744L55.3356 143.993C55.7951 144.366 55.6317 145.104 55.0598 145.244L51.5843 146.099C51.3563 146.154 51.1725 146.321 51.0874 146.54V146.55Z" fill="url(#paint54_linear_430_13596)"/>
<path d="M51.0534 146.516L49.7837 149.877C49.576 150.431 48.8237 150.503 48.514 150L46.6281 146.944C46.5056 146.745 46.2912 146.619 46.0563 146.605L42.4821 146.431C41.8932 146.403 41.5936 145.706 41.9715 145.255L44.2828 142.509C44.4326 142.328 44.487 142.085 44.4258 141.86L43.4862 138.393C43.3297 137.822 43.8947 137.32 44.4428 137.542L47.7549 138.902C47.9727 138.991 48.2178 138.967 48.4153 138.837L51.4074 136.868C51.901 136.543 52.5511 136.926 52.5069 137.518L52.2448 141.101C52.2277 141.337 52.3265 141.562 52.5103 141.709L55.3016 143.959C55.7611 144.332 55.5977 145.07 55.0258 145.21L51.5503 146.065C51.3223 146.12 51.1385 146.287 51.0534 146.506V146.516Z" fill="url(#paint55_linear_430_13596)"/>
<path d="M51.0193 146.482L49.7496 149.843C49.542 150.397 48.7897 150.469 48.4799 149.966L46.5941 146.909C46.4716 146.711 46.2571 146.585 46.0222 146.571L42.448 146.397C41.8591 146.369 41.5596 145.672 41.9374 145.221L44.2487 142.475C44.3985 142.294 44.453 142.051 44.3917 141.826L43.4522 138.359C43.2956 137.788 43.8607 137.285 44.4087 137.508L47.7208 138.868C47.9387 138.957 48.1838 138.933 48.3812 138.803L51.3733 136.834C51.8669 136.509 52.5171 136.892 52.4728 137.484L52.2107 141.067C52.1937 141.303 52.2924 141.528 52.4762 141.675L55.2675 143.925C55.727 144.297 55.5637 145.036 54.9918 145.176L51.5163 146.031C51.2882 146.086 51.1044 146.253 51.0193 146.472V146.482Z" fill="url(#paint56_linear_430_13596)"/>
<path d="M50.9852 146.448L49.7156 149.809C49.5079 150.362 48.7556 150.434 48.4459 149.932L46.56 146.875C46.4375 146.677 46.223 146.55 45.9882 146.537L42.414 146.362C41.8251 146.335 41.5255 145.638 41.9034 145.186L44.2147 142.441C44.3644 142.26 44.4189 142.017 44.3576 141.791L43.4181 138.325C43.2616 137.754 43.8266 137.251 44.3747 137.473L47.6868 138.834C47.9046 138.923 48.1497 138.899 48.3471 138.769L51.3393 136.8C51.8328 136.475 52.483 136.858 52.4388 137.449L52.1766 141.032C52.1596 141.268 52.2583 141.494 52.4422 141.641L55.2334 143.89C55.693 144.263 55.5296 145.002 54.9577 145.142L51.4822 145.997C51.2542 146.051 51.0703 146.219 50.9852 146.438V146.448Z" fill="url(#paint57_linear_430_13596)"/>
<path d="M50.9512 146.414L49.6816 149.774C49.4739 150.328 48.7216 150.4 48.4119 149.897L46.526 146.841C46.4035 146.643 46.189 146.516 45.9542 146.503L42.38 146.328C41.7911 146.301 41.4915 145.603 41.8694 145.152L44.1807 142.407C44.3305 142.226 44.3849 141.983 44.3236 141.757L43.3841 138.29C43.2276 137.719 43.7926 137.217 44.3407 137.439L47.6528 138.8C47.8706 138.889 48.1157 138.865 48.3131 138.735L51.3053 136.766C51.7988 136.441 52.449 136.824 52.4048 137.415L52.1426 140.998C52.1256 141.234 52.2243 141.46 52.4082 141.607L55.1995 143.856C55.659 144.229 55.4956 144.967 54.9237 145.108L51.4482 145.962C51.2202 146.017 51.0363 146.185 50.9512 146.403V146.414Z" fill="url(#paint58_linear_430_13596)"/>
<path d="M50.9172 146.379L49.6475 149.74C49.4399 150.294 48.6876 150.366 48.3778 149.863L46.492 146.807C46.3694 146.609 46.155 146.482 45.9201 146.468L42.3459 146.294C41.757 146.267 41.4575 145.569 41.8353 145.118L44.1466 142.373C44.2964 142.191 44.3509 141.949 44.2896 141.723L43.3501 138.256C43.1935 137.685 43.7586 137.183 44.3066 137.405L47.6187 138.766C47.8366 138.855 48.0817 138.831 48.2791 138.701L51.2712 136.731C51.7648 136.407 52.415 136.789 52.3707 137.381L52.1086 140.964C52.0916 141.2 52.1903 141.426 52.3741 141.573L55.1654 143.822C55.6249 144.195 55.4615 144.933 54.8897 145.073L51.4142 145.928C51.1861 145.983 51.0023 146.15 50.9172 146.369V146.379Z" fill="url(#paint59_linear_430_13596)"/>
<path d="M50.8831 146.345L49.6134 149.706C49.4058 150.26 48.6535 150.332 48.3437 149.829L46.4579 146.773C46.3354 146.574 46.1209 146.448 45.886 146.434L42.3118 146.26C41.7229 146.232 41.4234 145.535 41.8012 145.084L44.1126 142.338C44.2623 142.157 44.3168 141.914 44.2555 141.689L43.316 138.222C43.1594 137.651 43.7245 137.148 44.2725 137.371L47.5846 138.731C47.8025 138.82 48.0476 138.796 48.245 138.666L51.2372 136.697C51.7307 136.372 52.3809 136.755 52.3366 137.347L52.0745 140.93C52.0575 141.166 52.1562 141.391 52.34 141.538L55.1313 143.788C55.5909 144.161 55.4275 144.899 54.8556 145.039L51.3801 145.894C51.1521 145.949 50.9682 146.116 50.8831 146.335V146.345Z" fill="url(#paint60_linear_430_13596)"/>
<path d="M50.8491 146.311L49.5794 149.672C49.3717 150.226 48.6195 150.298 48.3097 149.795L46.4239 146.738C46.3013 146.54 46.0869 146.414 45.852 146.4L42.2778 146.226C41.6889 146.198 41.3893 145.501 41.7672 145.05L44.0785 142.304C44.2283 142.123 44.2827 141.88 44.2215 141.655L43.282 138.188C43.1254 137.617 43.6904 137.114 44.2385 137.337L47.5506 138.697C47.7685 138.786 48.0135 138.762 48.211 138.632L51.2031 136.663C51.6967 136.338 52.3468 136.721 52.3026 137.313L52.0405 140.896C52.0235 141.131 52.1222 141.357 52.306 141.504L55.0973 143.754C55.5568 144.126 55.3934 144.865 54.8216 145.005L51.3461 145.86C51.118 145.915 50.9342 146.082 50.8491 146.301V146.311Z" fill="url(#paint61_linear_430_13596)"/>
<path d="M50.8151 146.277L49.5454 149.638C49.3377 150.192 48.5855 150.263 48.2757 149.761L46.3899 146.704C46.2673 146.506 46.0529 146.379 45.818 146.366L42.2438 146.191C41.6549 146.164 41.3553 145.467 41.7332 145.015L44.0445 142.27C44.1943 142.089 44.2487 141.846 44.1875 141.62L43.248 138.154C43.0914 137.583 43.6565 137.08 44.2045 137.302L47.5166 138.663C47.7345 138.752 47.9795 138.728 48.177 138.598L51.1691 136.629C51.6627 136.304 52.3128 136.687 52.2686 137.278L52.0065 140.861C51.9895 141.097 52.0882 141.323 52.272 141.47L55.0633 143.72C55.5228 144.092 55.3594 144.831 54.7876 144.971L51.3121 145.826C51.084 145.88 50.9002 146.048 50.8151 146.267V146.277Z" fill="url(#paint62_linear_430_13596)"/>
<path d="M50.781 146.243L49.5113 149.604C49.3037 150.157 48.5514 150.229 48.2416 149.727L46.3558 146.67C46.2333 146.472 46.0188 146.345 45.7839 146.332L42.2097 146.157C41.6208 146.13 41.3213 145.432 41.6991 144.981L44.0104 142.236C44.1602 142.055 44.2147 141.812 44.1534 141.586L43.2139 138.119C43.0573 137.549 43.6224 137.046 44.1704 137.268L47.4825 138.629C47.7004 138.718 47.9455 138.694 48.1429 138.564L51.135 136.595C51.6286 136.27 52.2788 136.653 52.2345 137.244L51.9724 140.827C51.9554 141.063 52.0541 141.289 52.2379 141.436L55.0292 143.685C55.4888 144.058 55.3254 144.797 54.7535 144.937L51.278 145.791C51.0499 145.846 50.8661 146.014 50.781 146.232V146.243Z" fill="url(#paint63_linear_430_13596)"/>
<path d="M50.781 146.243L49.5113 149.604C49.3037 150.157 48.5514 150.229 48.2416 149.727L46.3558 146.67C46.2333 146.472 46.0188 146.345 45.7839 146.332L42.2097 146.157C41.6208 146.13 41.3213 145.432 41.6991 144.981L44.0104 142.236C44.1602 142.055 44.2147 141.812 44.1534 141.586L43.2139 138.119C43.0573 137.549 43.6224 137.046 44.1704 137.268L47.4825 138.629C47.7004 138.718 47.9455 138.694 48.1429 138.564L51.135 136.595C51.6286 136.27 52.2788 136.653 52.2345 137.244L51.9724 140.827C51.9554 141.063 52.0541 141.289 52.2379 141.436L55.0292 143.685C55.4888 144.058 55.3254 144.797 54.7535 144.937L51.278 145.791C51.0499 145.846 50.8661 146.014 50.781 146.232V146.243Z" fill="url(#paint64_linear_430_13596)"/>
<path d="M51.3597 59.5569L48.4935 61.7108C48.0204 62.0663 47.3498 61.721 47.3566 61.1296L47.3974 57.5363C47.3974 57.3004 47.2885 57.0782 47.0945 56.9449L44.1704 54.873C43.6871 54.5311 43.8062 53.7824 44.3679 53.608L47.7855 52.5379C48.0102 52.4695 48.1838 52.2918 48.2518 52.0661L49.3105 48.6335C49.4841 48.066 50.2296 47.9498 50.57 48.4318L52.6396 51.3652C52.7758 51.5567 52.997 51.6695 53.2285 51.6661L56.8061 51.6182C57.395 51.6114 57.7388 52.2849 57.3882 52.7601L55.2505 55.6423C55.1109 55.8303 55.0735 56.0765 55.1484 56.2987L56.3023 59.7005C56.4929 60.2612 55.9585 60.7979 55.4003 60.6065L52.0099 59.4543C51.7886 59.3791 51.5435 59.4167 51.3563 59.5603L51.3597 59.5569Z" fill="url(#paint65_linear_430_13596)"/>
<path d="M51.3256 59.5227L48.4595 61.6766C47.9863 62.0322 47.3157 61.6869 47.3225 61.0954L47.3634 57.5021C47.3634 57.2662 47.2545 57.044 47.0604 56.9107L44.1364 54.8388C43.653 54.4969 43.7722 53.7482 44.3338 53.5738L47.7514 52.5037C47.9761 52.4354 48.1497 52.2576 48.2178 52.0319L49.2764 48.5994C49.45 48.0318 50.1955 47.9156 50.5359 48.3977L52.6056 51.3311C52.7417 51.5225 52.963 51.6353 53.1944 51.6319L56.7721 51.5806C57.361 51.5738 57.7048 52.2473 57.3541 52.7225L55.2164 55.6047C55.0769 55.7927 55.0394 56.0389 55.1143 56.2611L56.2683 59.6629C56.4589 60.2236 55.9245 60.7603 55.3662 60.5689L51.9758 59.4167C51.7546 59.3415 51.5095 59.3791 51.3222 59.5227H51.3256Z" fill="url(#paint66_linear_430_13596)"/>
<path d="M51.2916 59.4885L48.4254 61.6424C47.9523 61.998 47.2817 61.6527 47.2885 61.0612L47.3293 57.468C47.3293 57.2321 47.2204 57.0098 47.0264 56.8765L44.1023 54.8047C43.619 54.4628 43.7381 53.714 44.2998 53.5397L47.7174 52.4696C47.942 52.4012 48.1157 52.2234 48.1837 51.9977L49.2424 48.5652C49.416 47.9977 50.1615 47.8814 50.5019 48.3635L52.5715 51.2969C52.7077 51.4883 52.9289 51.6012 53.1604 51.5977L56.738 51.5465C57.3269 51.5396 57.6707 52.2131 57.3201 52.6884L55.1824 55.5705C55.0428 55.7585 55.0054 56.0047 55.0803 56.2269L56.2342 59.6287C56.4248 60.1894 55.8904 60.7262 55.3321 60.5347L51.9418 59.3825C51.7205 59.3073 51.4754 59.3449 51.2882 59.4885H51.2916Z" fill="url(#paint67_linear_430_13596)"/>
<path d="M51.2576 59.4543L48.3914 61.6082C47.9183 61.9638 47.2477 61.6185 47.2545 61.027L47.2953 57.4338C47.2953 57.1979 47.1864 56.9756 46.9924 56.8423L44.0683 54.7705C43.585 54.4286 43.7041 53.6798 44.2658 53.5055L47.6834 52.4354C47.908 52.367 48.0817 52.1892 48.1497 51.9636L49.2084 48.531C49.382 47.9635 50.1275 47.8472 50.4679 48.3293L52.5375 51.2627C52.6737 51.4542 52.8949 51.567 53.1264 51.5636L56.704 51.5157C57.2929 51.5089 57.6367 52.1824 57.2861 52.6576L55.1484 55.5397C55.0088 55.7278 54.9714 55.9739 55.0463 56.1961L56.2002 59.5979C56.3908 60.1586 55.8564 60.6954 55.2982 60.5039L51.9078 59.3518C51.6865 59.2766 51.4414 59.3142 51.2542 59.4578L51.2576 59.4543Z" fill="url(#paint68_linear_430_13596)"/>
<path d="M51.2235 59.4202L48.3574 61.5741C47.8842 61.9296 47.2136 61.5843 47.2204 60.9928L47.2613 57.3996C47.2613 57.1637 47.1523 56.9415 46.9583 56.8081L44.0343 54.7363C43.5509 54.3944 43.67 53.6457 44.2317 53.4713L47.6493 52.4012C47.874 52.3328 48.0476 52.155 48.1157 51.9294L49.1743 48.4968C49.3479 47.9293 50.0934 47.8131 50.4338 48.2951L52.5034 51.2285C52.6396 51.42 52.8609 51.5328 53.0923 51.5294L56.6699 51.4781C57.2588 51.4713 57.6026 52.1448 57.252 52.62L55.1143 55.5021C54.9748 55.6902 54.9373 55.9363 55.0122 56.1585L56.1662 59.5603C56.3568 60.121 55.8224 60.6578 55.2641 60.4663L51.8737 59.3142C51.6524 59.239 51.4074 59.2766 51.2201 59.4202H51.2235Z" fill="url(#paint69_linear_430_13596)"/>
<path d="M51.1895 59.386L48.3233 61.5399C47.8502 61.8954 47.1796 61.5501 47.1864 60.9587L47.2272 57.3654C47.2272 57.1295 47.1183 56.9073 46.9243 56.774L44.0002 54.7021C43.5168 54.3602 43.636 53.6115 44.1976 53.4371L47.6153 52.367C47.8399 52.2986 48.0135 52.1209 48.0816 51.8952L49.1403 48.4627C49.3139 47.8951 50.0593 47.7789 50.3997 48.2609L52.4694 51.1943C52.6055 51.3858 52.8268 51.4986 53.0583 51.4952L56.6359 51.4473C57.2248 51.4405 57.5686 52.114 57.218 52.5892L55.0803 55.4714C54.9407 55.6594 54.9033 55.9056 54.9781 56.1278L56.1321 59.5296C56.3227 60.0903 55.7883 60.627 55.23 60.4356L51.8396 59.2834C51.6184 59.2082 51.3733 59.2458 51.1861 59.3894L51.1895 59.386Z" fill="url(#paint70_linear_430_13596)"/>
<path d="M51.1555 59.3518L48.2893 61.5057C47.8161 61.8613 47.1456 61.516 47.1524 60.9245L47.1932 57.3312C47.1932 57.0953 47.0843 56.8731 46.8903 56.7398L43.9662 54.6679C43.4828 54.326 43.602 53.5773 44.1636 53.4029L47.5813 52.3328C47.8059 52.2645 47.9795 52.0867 48.0476 51.861L49.1063 48.4285C49.2799 47.8609 50.0254 47.7447 50.3658 48.2268L52.4354 51.1602C52.5715 51.3516 52.7928 51.4644 53.0243 51.461L56.6019 51.4097C57.1908 51.4029 57.5346 52.0764 57.184 52.5516L55.0463 55.4338C54.9067 55.6218 54.8693 55.868 54.9441 56.0902L56.0981 59.492C56.2887 60.0527 55.7543 60.5894 55.196 60.398L51.8056 59.2458C51.5844 59.1706 51.3393 59.2082 51.1521 59.3518H51.1555Z" fill="url(#paint71_linear_430_13596)"/>
<path d="M51.1214 59.3176L48.2552 61.4715C47.7821 61.8271 47.1115 61.4818 47.1183 60.8903L47.1592 57.2971C47.1592 57.0612 47.0502 56.8389 46.8562 56.7056L43.9322 54.6338C43.4488 54.2919 43.5679 53.5431 44.1296 53.3688L47.5472 52.2987C47.7719 52.2303 47.9455 52.0525 48.0136 51.8268L49.0722 48.3943C49.2458 47.8268 49.9913 47.7105 50.3317 48.1926L52.4013 51.126C52.5375 51.3174 52.7588 51.4303 52.9902 51.4268L56.5678 51.3756C57.1567 51.3687 57.5005 52.0422 57.1499 52.5175L55.0122 55.3996C54.8726 55.5876 54.8352 55.8338 54.9101 56.056L56.064 59.4578C56.2547 60.0185 55.7202 60.5553 55.162 60.3638L51.7716 59.2116C51.5503 59.1364 51.3052 59.174 51.118 59.3176H51.1214Z" fill="url(#paint72_linear_430_13596)"/>
<path d="M51.0874 59.2833L48.2212 61.4372C47.748 61.7928 47.0774 61.4475 47.0843 60.856L47.1251 57.2628C47.1251 57.0269 47.0162 56.8046 46.8221 56.6713L43.8981 54.5995C43.4147 54.2576 43.5339 53.5088 44.0955 53.3345L47.5132 52.2644C47.7378 52.196 47.9114 52.0182 47.9795 51.7926L49.0382 48.36C49.2118 47.7925 49.9572 47.6762 50.2976 48.1583L52.3673 51.0917C52.5034 51.2831 52.7247 51.396 52.9562 51.3925L56.5338 51.3447C57.1227 51.3378 57.4665 52.0114 57.1159 52.4866L54.9781 55.3687C54.8386 55.5567 54.8011 55.8029 54.876 56.0251L56.03 59.4269C56.2206 59.9876 55.6862 60.5244 55.1279 60.3329L51.7375 59.1808C51.5163 59.1055 51.2712 59.1431 51.084 59.2867L51.0874 59.2833Z" fill="url(#paint73_linear_430_13596)"/>
<path d="M51.0534 59.2491L48.1872 61.403C47.714 61.7586 47.0434 61.4133 47.0503 60.8218L47.0911 57.2286C47.0911 56.9927 46.9822 56.7705 46.7881 56.6371L43.8641 54.5653C43.3807 54.2234 43.4999 53.4746 44.0615 53.3003L47.4792 52.2302C47.7038 52.1618 47.8774 51.984 47.9455 51.7584L49.0042 48.3258C49.1778 47.7583 49.9232 47.642 50.2636 48.1241L52.3333 51.0575C52.4694 51.249 52.6907 51.3618 52.9222 51.3584L56.4998 51.3071C57.0887 51.3002 57.4325 51.9738 57.0819 52.449L54.9442 55.3311C54.8046 55.5191 54.7671 55.7653 54.842 55.9875L55.996 59.3893C56.1866 59.95 55.6522 60.4868 55.0939 60.2953L51.7035 59.1432C51.4823 59.0679 51.2372 59.1055 51.05 59.2491H51.0534Z" fill="url(#paint74_linear_430_13596)"/>
<path d="M51.0193 59.215L48.1531 61.3689C47.68 61.7244 47.0094 61.3791 47.0162 60.7876L47.0571 57.1944C47.0571 56.9585 46.9481 56.7363 46.7541 56.6029L43.83 54.5311C43.3467 54.1892 43.4658 53.4405 44.0275 53.2661L47.4451 52.196C47.6698 52.1276 47.8434 51.9498 47.9115 51.7242L48.9701 48.2916C49.1437 47.7241 49.8892 47.6079 50.2296 48.0899L52.2992 51.0233C52.4354 51.2148 52.6566 51.3276 52.8881 51.3242L56.4657 51.2763C57.0546 51.2695 57.3984 51.943 57.0478 52.4182L54.9101 55.3003C54.7705 55.4884 54.7331 55.7345 54.808 55.9568L55.9619 59.3586C56.1526 59.9192 55.6181 60.456 55.0599 60.2646L51.6695 59.1124C51.4482 59.0372 51.2031 59.0748 51.0159 59.2184L51.0193 59.215Z" fill="url(#paint75_linear_430_13596)"/>
<path d="M50.9853 59.1808L48.1191 61.3347C47.6459 61.6902 46.9753 61.3449 46.9821 60.7535L47.023 57.1602C47.023 56.9243 46.9141 56.7021 46.72 56.5688L43.796 54.4969C43.3126 54.155 43.4318 53.4063 43.9934 53.2319L47.411 52.1618C47.6357 52.0934 47.8093 51.9157 47.8774 51.69L48.936 48.2575C49.1096 47.6899 49.8551 47.5737 50.1955 48.0557L52.2652 50.9891C52.4013 51.1806 52.6226 51.2934 52.8541 51.29L56.4317 51.2387C57.0206 51.2319 57.3644 51.9054 57.0138 52.3806L54.876 55.2627C54.7365 55.4508 54.699 55.6969 54.7739 55.9192L55.9279 59.321C56.1185 59.8817 55.5841 60.4184 55.0258 60.227L51.6354 59.0748C51.4142 58.9996 51.1691 59.0372 50.9819 59.1808H50.9853Z" fill="url(#paint76_linear_430_13596)"/>
<path d="M50.9512 59.1466L48.085 61.3005C47.6119 61.6561 46.9413 61.3108 46.9481 60.7193L46.9889 57.126C46.9889 56.8901 46.88 56.6679 46.686 56.5346L43.7619 54.4627C43.2786 54.1208 43.3977 53.3721 43.9594 53.1977L47.377 52.1276C47.6017 52.0593 47.7753 51.8815 47.8433 51.6558L48.902 48.2233C49.0756 47.6557 49.8211 47.5395 50.1615 48.0216L52.2311 50.955C52.3673 51.1464 52.5885 51.2592 52.82 51.2558L56.3976 51.2045C56.9865 51.1977 57.3303 51.8712 56.9797 52.3464L54.842 55.2286C54.7024 55.4166 54.665 55.6628 54.7399 55.885L55.8938 59.2868C56.0844 59.8475 55.55 60.3842 54.9918 60.1928L51.6014 59.0406C51.3801 58.9654 51.135 59.003 50.9478 59.1466H50.9512Z" fill="url(#paint77_linear_430_13596)"/>
<path d="M50.9172 59.1124L48.051 61.2663C47.5779 61.6219 46.9073 61.2766 46.9141 60.6851L46.9549 57.0919C46.9549 56.856 46.846 56.6337 46.652 56.5004L43.7279 54.4286C43.2446 54.0867 43.3637 53.3379 43.9254 53.1636L47.343 52.0935C47.5677 52.0251 47.7413 51.8473 47.8093 51.6217L48.868 48.1891C49.0416 47.6216 49.7871 47.5053 50.1275 47.9874L52.1971 50.9208C52.3333 51.1122 52.5545 51.2251 52.786 51.2216L56.3636 51.1738C56.9525 51.1669 57.2963 51.8405 56.9457 52.3157L54.808 55.1978C54.6684 55.3858 54.631 55.632 54.7059 55.8542L55.8598 59.256C56.0504 59.8167 55.516 60.3535 54.9578 60.162L51.5674 59.0099C51.3461 58.9346 51.101 58.9722 50.9138 59.1158L50.9172 59.1124Z" fill="url(#paint78_linear_430_13596)"/>
<path d="M50.8831 59.0782L48.017 61.2321C47.5438 61.5877 46.8732 61.2424 46.88 60.6509L46.9209 57.0577C46.9209 56.8218 46.8119 56.5996 46.6179 56.4662L43.6939 54.3944C43.2105 54.0525 43.3296 53.3037 43.8913 53.1294L47.3089 52.0593C47.5336 51.9909 47.7072 51.8131 47.7753 51.5875L48.8339 48.1549C49.0075 47.5874 49.753 47.4711 50.0934 47.9532L52.1631 50.8866C52.2992 51.0781 52.5205 51.1909 52.7519 51.1875L56.3296 51.1362C56.9184 51.1293 57.2623 51.8029 56.9116 52.2781L54.7739 55.1602C54.6344 55.3482 54.5969 55.5944 54.6718 55.8166L55.8258 59.2184C56.0164 59.7791 55.482 60.3159 54.9237 60.1244L51.5333 58.9723C51.312 58.897 51.067 58.9347 50.8797 59.0782H50.8831Z" fill="url(#paint79_linear_430_13596)"/>
<path d="M50.8831 59.0782L48.017 61.2321C47.5438 61.5877 46.8732 61.2424 46.88 60.6509L46.9209 57.0577C46.9209 56.8218 46.8119 56.5996 46.6179 56.4662L43.6939 54.3944C43.2105 54.0525 43.3296 53.3037 43.8913 53.1294L47.3089 52.0593C47.5336 51.9909 47.7072 51.8131 47.7753 51.5875L48.8339 48.1549C49.0075 47.5874 49.753 47.4711 50.0934 47.9532L52.1631 50.8866C52.2992 51.0781 52.5205 51.1909 52.7519 51.1875L56.3296 51.1362C56.9184 51.1293 57.2623 51.8029 56.9116 52.2781L54.7739 55.1602C54.6344 55.3482 54.5969 55.5944 54.6718 55.8166L55.8258 59.2184C56.0164 59.7791 55.482 60.3159 54.9237 60.1244L51.5333 58.9723C51.312 58.897 51.067 58.9347 50.8797 59.0782H50.8831Z" fill="url(#paint80_linear_430_13596)"/>
<path d="M191.36 11.9114L188.494 14.0653C188.02 14.4208 187.35 14.0755 187.357 13.4841L187.398 9.89081C187.398 9.65491 187.289 9.43268 187.095 9.29935L184.17 7.2275C183.687 6.88561 183.806 6.13688 184.368 5.96252L187.786 4.89241C188.01 4.82403 188.184 4.64625 188.252 4.4206L189.311 0.988042C189.484 0.420508 190.23 0.304266 190.57 0.786328L192.64 3.71973C192.776 3.91119 192.997 4.02401 193.229 4.02059L196.806 3.97273C197.395 3.96589 197.739 4.63941 197.388 5.11463L195.251 7.99675C195.111 8.18479 195.074 8.43095 195.148 8.65318L196.302 12.055C196.493 12.6157 195.959 13.1524 195.4 12.961L192.01 11.8088C191.789 11.7336 191.544 11.7712 191.356 11.9148L191.36 11.9114Z" fill="url(#paint81_linear_430_13596)"/>
<path d="M191.326 11.8772L188.46 14.0311C187.986 14.3867 187.316 14.0413 187.323 13.4499L187.363 9.85663C187.363 9.62073 187.255 9.3985 187.06 9.26517L184.136 7.19332C183.653 6.85144 183.772 6.1027 184.334 5.92834L187.751 4.85823C187.976 4.78985 188.15 4.61207 188.218 4.38642L189.276 0.953862C189.45 0.386328 190.196 0.270086 190.536 0.752148L192.606 3.68555C192.742 3.87701 192.963 3.98983 193.195 3.98641L196.772 3.93513C197.361 3.92829 197.705 4.60181 197.354 5.07703L195.216 7.95915C195.077 8.14719 195.039 8.39335 195.114 8.61558L196.268 12.0174C196.459 12.5781 195.925 13.1148 195.366 12.9234L191.976 11.7712C191.755 11.696 191.51 11.7336 191.322 11.8772H191.326Z" fill="url(#paint82_linear_430_13596)"/>
<path d="M191.292 11.843L188.426 13.9969C187.952 14.3525 187.282 14.0072 187.289 13.4157L187.329 9.82245C187.329 9.58655 187.221 9.36432 187.026 9.23099L184.102 7.15914C183.619 6.81726 183.738 6.06852 184.3 5.89416L187.718 4.82405C187.942 4.75567 188.116 4.57789 188.184 4.35224L189.242 0.919683C189.416 0.352148 190.162 0.235906 190.502 0.717969L192.572 3.65137C192.708 3.84283 192.929 3.95565 193.161 3.95223L196.738 3.90437C197.327 3.89753 197.671 4.57105 197.32 5.04627L195.182 7.92839C195.043 8.11643 195.005 8.36259 195.08 8.58482L196.234 11.9866C196.425 12.5473 195.891 13.0841 195.332 12.8926L191.942 11.7404C191.721 11.6652 191.476 11.7028 191.288 11.8464L191.292 11.843Z" fill="url(#paint83_linear_430_13596)"/>
<path d="M191.258 11.8088L188.391 13.9627C187.918 14.3183 187.248 13.973 187.255 13.3815L187.295 9.78827C187.295 9.55237 187.186 9.33014 186.992 9.19681L184.068 7.12496C183.585 6.78308 183.704 6.03434 184.266 5.85998L187.683 4.78987C187.908 4.72149 188.082 4.54371 188.15 4.31806L189.208 0.885503C189.382 0.317968 190.128 0.201726 190.468 0.683789L192.538 3.61719C192.674 3.80865 192.895 3.92147 193.126 3.91805L196.704 3.86677C197.293 3.85993 197.637 4.53345 197.286 5.00868L195.148 7.89079C195.009 8.07883 194.971 8.32499 195.046 8.54722L196.2 11.949C196.391 12.5097 195.856 13.0465 195.298 12.855L191.908 11.7028C191.687 11.6276 191.441 11.6652 191.254 11.8088H191.258Z" fill="url(#paint84_linear_430_13596)"/>
<path d="M191.224 11.7747L188.357 13.9286C187.884 14.2841 187.214 13.9388 187.22 13.3473L187.261 9.75409C187.261 9.51819 187.152 9.29596 186.958 9.16263L184.034 7.09078C183.551 6.7489 183.67 6.00016 184.232 5.8258L187.649 4.75569C187.874 4.68731 188.048 4.50953 188.116 4.28388L189.174 0.851323C189.348 0.283789 190.093 0.167547 190.434 0.649609L192.504 3.58301C192.64 3.77447 192.861 3.88729 193.092 3.88387L196.67 3.83259C197.259 3.82575 197.603 4.49927 197.252 4.9745L195.114 7.85661C194.975 8.04465 194.937 8.29081 195.012 8.51304L196.166 11.9148C196.357 12.4755 195.822 13.0123 195.264 12.8208L191.874 11.6687C191.652 11.5935 191.407 11.6311 191.22 11.7747H191.224Z" fill="url(#paint85_linear_430_13596)"/>
<path d="M191.19 11.7405L188.323 13.8944C187.85 14.2499 187.18 13.9046 187.186 13.3132L187.227 9.71991C187.227 9.48401 187.118 9.26178 186.924 9.12845L184 7.0566C183.517 6.71472 183.636 5.96598 184.198 5.79162L187.615 4.72151C187.84 4.65313 188.014 4.47535 188.082 4.2497L189.14 0.817144C189.314 0.249609 190.059 0.133367 190.4 0.61543L192.469 3.54883C192.606 3.74029 192.827 3.85311 193.058 3.84969L196.636 3.80183C197.225 3.79499 197.569 4.46851 197.218 4.94374L195.08 7.82585C194.941 8.01389 194.903 8.26005 194.978 8.48228L196.132 11.8841C196.323 12.4448 195.788 12.9815 195.23 12.7901L191.84 11.6379C191.618 11.5627 191.373 11.6003 191.186 11.7439L191.19 11.7405Z" fill="url(#paint86_linear_430_13596)"/>
<path d="M191.156 11.7063L188.289 13.8602C187.816 14.2158 187.146 13.8704 187.152 13.279L187.193 9.68573C187.193 9.44983 187.084 9.2276 186.89 9.09427L183.966 7.02243C183.483 6.68054 183.602 5.9318 184.164 5.75744L187.581 4.68733C187.806 4.61895 187.98 4.44117 188.048 4.21552L189.106 0.782964C189.28 0.215429 190.025 0.0991874 190.366 0.58125L192.435 3.51465C192.572 3.70611 192.793 3.81893 193.024 3.81551L196.602 3.76423C197.191 3.75739 197.535 4.43091 197.184 4.90614L195.046 7.78826C194.907 7.97629 194.869 8.22245 194.944 8.44468L196.098 11.8465C196.289 12.4072 195.754 12.9439 195.196 12.7525L191.806 11.6003C191.584 11.5251 191.339 11.5627 191.152 11.7063H191.156Z" fill="url(#paint87_linear_430_13596)"/>
<path d="M191.121 11.6721L188.255 13.826C187.782 14.1816 187.112 13.8363 187.118 13.2448L187.159 9.65156C187.159 9.41565 187.05 9.19343 186.856 9.06009L183.932 6.98825C183.449 6.64636 183.568 5.89762 184.13 5.72326L187.547 4.65315C187.772 4.58477 187.946 4.40699 188.014 4.18134L189.072 0.748784C189.246 0.18125 189.991 0.0650077 190.332 0.54707L192.401 3.48047C192.538 3.67193 192.759 3.78475 192.99 3.78133L196.568 3.73347C197.157 3.72663 197.501 4.40015 197.15 4.87538L195.012 7.75749C194.873 7.94553 194.835 8.19169 194.91 8.41392L196.064 11.8157C196.255 12.3764 195.72 12.9132 195.162 12.7217L191.772 11.5695C191.55 11.4943 191.305 11.5319 191.118 11.6755L191.121 11.6721Z" fill="url(#paint88_linear_430_13596)"/>
<path d="M191.087 11.6378L188.221 13.7917C187.748 14.1473 187.077 13.802 187.084 13.2105L187.125 9.61725C187.125 9.38135 187.016 9.15912 186.822 9.02579L183.898 6.95394C183.415 6.61206 183.534 5.86332 184.096 5.68896L187.513 4.61885C187.738 4.55047 187.911 4.37269 187.98 4.14704L189.038 0.714482C189.212 0.146948 189.957 0.030706 190.298 0.512768L192.367 3.44617C192.503 3.63763 192.725 3.75045 192.956 3.74703L196.534 3.69575C197.123 3.68891 197.467 4.36243 197.116 4.83766L194.978 7.71977C194.839 7.90781 194.801 8.15397 194.876 8.3762L196.03 11.778C196.221 12.3387 195.686 12.8754 195.128 12.684L191.738 11.5318C191.516 11.4566 191.271 11.4942 191.084 11.6378H191.087Z" fill="url(#paint89_linear_430_13596)"/>
<path d="M191.053 11.6036L188.187 13.7575C187.714 14.1131 187.044 13.7678 187.05 13.1763L187.091 9.58307C187.091 9.34717 186.982 9.12494 186.788 8.99161L183.864 6.91976C183.381 6.57788 183.5 5.82914 184.062 5.65478L187.479 4.58467C187.704 4.51629 187.877 4.33851 187.946 4.11286L189.004 0.680303C189.178 0.112768 189.923 -0.00347371 190.264 0.478589L192.333 3.41199C192.47 3.60345 192.691 3.71627 192.922 3.71285L196.5 3.66157C197.089 3.65473 197.433 4.32825 197.082 4.80348L194.944 7.68559C194.805 7.87363 194.767 8.11979 194.842 8.34202L195.996 11.7438C196.187 12.3045 195.652 12.8413 195.094 12.6498L191.704 11.4976C191.482 11.4224 191.237 11.46 191.05 11.6036H191.053Z" fill="url(#paint90_linear_430_13596)"/>
<path d="M191.019 11.5695L188.153 13.7233C187.68 14.0789 187.009 13.7336 187.016 13.1421L187.057 9.54889C187.057 9.31299 186.948 9.09076 186.754 8.95743L183.83 6.88558C183.347 6.5437 183.466 5.79496 184.028 5.6206L187.445 4.55049C187.67 4.48211 187.843 4.30433 187.912 4.07868L188.97 0.646123C189.144 0.0785886 189.889 -0.0376534 190.23 0.444409L192.299 3.37781C192.435 3.56927 192.657 3.68209 192.888 3.67867L196.466 3.63081C197.055 3.62397 197.398 4.29749 197.048 4.77271L194.91 7.65483C194.771 7.84287 194.733 8.08903 194.808 8.31126L195.962 11.713C196.153 12.2737 195.618 12.8105 195.06 12.6191L191.67 11.4669C191.448 11.3917 191.203 11.4293 191.016 11.5729L191.019 11.5695Z" fill="url(#paint91_linear_430_13596)"/>
<path d="M190.985 11.5353L188.119 13.6892C187.646 14.0447 186.975 13.6994 186.982 13.108L187.023 9.51471C187.023 9.27881 186.914 9.05658 186.72 8.92325L183.796 6.8514C183.313 6.50952 183.432 5.76078 183.993 5.58642L187.411 4.51631C187.636 4.44793 187.809 4.27015 187.877 4.0445L188.936 0.611943C189.11 0.0444089 189.855 -0.0718331 190.196 0.410229L192.265 3.34363C192.401 3.53509 192.623 3.64791 192.854 3.64449L196.432 3.59321C197.021 3.58637 197.364 4.25989 197.014 4.73512L194.876 7.61723C194.737 7.80527 194.699 8.05143 194.774 8.27366L195.928 11.6754C196.119 12.2361 195.584 12.7729 195.026 12.5815L191.635 11.4293C191.414 11.3541 191.169 11.3917 190.982 11.5353H190.985Z" fill="url(#paint92_linear_430_13596)"/>
<path d="M190.951 11.5011L188.085 13.655C187.612 14.0106 186.941 13.6652 186.948 13.0738L186.989 9.48053C186.989 9.24463 186.88 9.0224 186.686 8.88907L183.762 6.81722C183.279 6.47534 183.398 5.7266 183.959 5.55224L187.377 4.48213C187.602 4.41375 187.775 4.23597 187.843 4.01032L188.902 0.577764C189.076 0.0102293 189.821 -0.106013 190.162 0.37605L192.231 3.30945C192.367 3.50091 192.589 3.61373 192.82 3.61031L196.398 3.56245C196.987 3.55561 197.33 4.22913 196.98 4.70436L194.842 7.58647C194.703 7.77451 194.665 8.02067 194.74 8.2429L195.894 11.6447C196.085 12.2054 195.55 12.7421 194.992 12.5507L191.601 11.3985C191.38 11.3233 191.135 11.3609 190.948 11.5045L190.951 11.5011Z" fill="url(#paint93_linear_430_13596)"/>
<path d="M190.917 11.4669L188.051 13.6208C187.578 13.9764 186.907 13.6311 186.914 13.0396L186.955 9.44635C186.955 9.21045 186.846 8.98822 186.652 8.85489L183.728 6.78305C183.245 6.44116 183.364 5.69242 183.925 5.51806L187.343 4.44795C187.568 4.37957 187.741 4.20179 187.809 3.97614L188.868 0.543584C189.042 -0.0239504 189.787 -0.140192 190.128 0.34187L192.197 3.27527C192.333 3.46673 192.555 3.57955 192.786 3.57613L196.364 3.52485C196.953 3.51801 197.296 4.19153 196.946 4.66676L194.808 7.54888C194.668 7.73691 194.631 7.98307 194.706 8.2053L195.86 11.6071C196.051 12.1678 195.516 12.7045 194.958 12.5131L191.567 11.3609C191.346 11.2857 191.101 11.3233 190.914 11.4669H190.917Z" fill="url(#paint94_linear_430_13596)"/>
<path d="M190.883 11.4327L188.017 13.5866C187.544 13.9422 186.873 13.5969 186.88 13.0054L186.921 9.41218C186.921 9.17627 186.812 8.95404 186.618 8.82071L183.694 6.74887C183.211 6.40698 183.33 5.65824 183.891 5.48388L187.309 4.41377C187.534 4.34539 187.707 4.16761 187.775 3.94196L188.834 0.509404C189.008 -0.0581301 189.753 -0.174372 190.093 0.30769L192.163 3.24109C192.299 3.43255 192.521 3.54537 192.752 3.54195L196.33 3.49067C196.919 3.48383 197.262 4.15735 196.912 4.63258L194.774 7.51469C194.634 7.70273 194.597 7.94889 194.672 8.17112L195.826 11.5729C196.016 12.1336 195.482 12.6704 194.924 12.4789L191.533 11.3268C191.312 11.2515 191.067 11.2891 190.88 11.4327H190.883Z" fill="url(#paint95_linear_430_13596)"/>
<path d="M190.883 11.4327L188.017 13.5866C187.544 13.9422 186.873 13.5969 186.88 13.0054L186.921 9.41218C186.921 9.17627 186.812 8.95404 186.618 8.82071L183.694 6.74887C183.211 6.40698 183.33 5.65824 183.891 5.48388L187.309 4.41377C187.534 4.34539 187.707 4.16761 187.775 3.94196L188.834 0.509404C189.008 -0.0581301 189.753 -0.174372 190.093 0.30769L192.163 3.24109C192.299 3.43255 192.521 3.54537 192.752 3.54195L196.33 3.49067C196.919 3.48383 197.262 4.15735 196.912 4.63258L194.774 7.51469C194.634 7.70273 194.597 7.94889 194.672 8.17112L195.826 11.5729C196.016 12.1336 195.482 12.6704 194.924 12.4789L191.533 11.3268C191.312 11.2515 191.067 11.2891 190.88 11.4327H190.883Z" fill="url(#paint96_linear_430_13596)"/>
<path d="M131.653 132.95L128.787 135.104C128.314 135.46 127.644 135.114 127.65 134.523L127.691 130.93C127.691 130.694 127.582 130.471 127.388 130.338L124.464 128.266C123.981 127.924 124.1 127.176 124.662 127.001L128.079 125.931C128.304 125.863 128.478 125.685 128.546 125.459L129.604 122.027C129.778 121.459 130.523 121.343 130.864 121.825L132.933 124.758C133.07 124.95 133.291 125.063 133.522 125.059L137.1 125.008C137.689 125.001 138.033 125.675 137.682 126.15L135.544 129.032C135.405 129.22 135.367 129.466 135.442 129.688L136.596 133.09C136.787 133.651 136.252 134.188 135.694 133.996L132.304 132.844C132.082 132.769 131.837 132.806 131.65 132.95H131.653Z" fill="url(#paint97_linear_430_13596)"/>
<path d="M131.619 132.916L128.753 135.07C128.28 135.425 127.609 135.08 127.616 134.489L127.657 130.895C127.657 130.659 127.548 130.437 127.354 130.304L124.43 128.232C123.947 127.89 124.066 127.141 124.628 126.967L128.045 125.897C128.27 125.829 128.443 125.651 128.512 125.425L129.57 121.993C129.744 121.425 130.489 121.309 130.83 121.791L132.899 124.724C133.035 124.916 133.257 125.029 133.488 125.025L137.066 124.977C137.655 124.97 137.999 125.644 137.648 126.119L135.51 129.001C135.371 129.189 135.333 129.435 135.408 129.658L136.562 133.059C136.753 133.62 136.218 134.157 135.66 133.965L132.27 132.813C132.048 132.738 131.803 132.776 131.616 132.919L131.619 132.916Z" fill="url(#paint98_linear_430_13596)"/>
<path d="M131.585 132.882L128.719 135.036C128.246 135.391 127.575 135.046 127.582 134.454L127.623 130.861C127.623 130.625 127.514 130.403 127.32 130.27L124.396 128.198C123.913 127.856 124.032 127.107 124.594 126.933L128.011 125.863C128.236 125.794 128.409 125.617 128.478 125.391L129.536 121.958C129.71 121.391 130.455 121.275 130.796 121.757L132.865 124.69C133.001 124.882 133.223 124.994 133.454 124.991L137.032 124.94C137.621 124.933 137.965 125.606 137.614 126.082L135.476 128.964C135.337 129.152 135.299 129.398 135.374 129.62L136.528 133.022C136.719 133.583 136.184 134.119 135.626 133.928L132.236 132.776C132.014 132.701 131.769 132.738 131.582 132.882H131.585Z" fill="url(#paint99_linear_430_13596)"/>
<path d="M131.551 132.848L128.685 135.001C128.212 135.357 127.541 135.012 127.548 134.42L127.589 130.827C127.589 130.591 127.48 130.369 127.286 130.236L124.362 128.164C123.879 127.822 123.998 127.073 124.56 126.899L127.977 125.829C128.202 125.76 128.375 125.582 128.443 125.357L129.502 121.924C129.676 121.357 130.421 121.24 130.762 121.722L132.831 124.656C132.967 124.847 133.189 124.96 133.42 124.957L136.998 124.905C137.587 124.899 137.93 125.572 137.58 126.047L135.442 128.929C135.303 129.118 135.265 129.364 135.34 129.586L136.494 132.988C136.685 133.548 136.15 134.085 135.592 133.894L132.202 132.742C131.98 132.666 131.735 132.704 131.548 132.848H131.551Z" fill="url(#paint100_linear_430_13596)"/>
<path d="M131.517 132.813L128.651 134.967C128.178 135.323 127.507 134.978 127.514 134.386L127.555 130.793C127.555 130.557 127.446 130.335 127.252 130.201L124.328 128.129C123.845 127.788 123.964 127.039 124.525 126.864L127.943 125.794C128.168 125.726 128.341 125.548 128.409 125.323L129.468 121.89C129.642 121.322 130.387 121.206 130.728 121.688L132.797 124.622C132.933 124.813 133.155 124.926 133.386 124.923L136.964 124.871C137.553 124.864 137.896 125.538 137.546 126.013L135.408 128.895C135.269 129.083 135.231 129.33 135.306 129.552L136.46 132.954C136.651 133.514 136.116 134.051 135.558 133.86L132.167 132.707C131.946 132.632 131.701 132.67 131.514 132.813H131.517Z" fill="url(#paint101_linear_430_13596)"/>
<path d="M131.483 132.779L128.617 134.933C128.144 135.289 127.473 134.943 127.48 134.352L127.521 130.759C127.521 130.523 127.412 130.3 127.218 130.167L124.294 128.095C123.811 127.753 123.93 127.005 124.491 126.83L127.909 125.76C128.134 125.692 128.307 125.514 128.375 125.288L129.434 121.856C129.608 121.288 130.353 121.172 130.694 121.654L132.763 124.588C132.899 124.779 133.121 124.892 133.352 124.888L136.93 124.837C137.519 124.83 137.862 125.504 137.512 125.979L135.374 128.861C135.235 129.049 135.197 129.295 135.272 129.518L136.426 132.919C136.617 133.48 136.082 134.017 135.524 133.825L132.133 132.673C131.912 132.598 131.667 132.636 131.48 132.779H131.483Z" fill="url(#paint102_linear_430_13596)"/>
<path d="M131.449 132.745L128.583 134.899C128.11 135.254 127.439 134.909 127.446 134.318L127.487 130.724C127.487 130.489 127.378 130.266 127.184 130.133L124.26 128.061C123.777 127.719 123.896 126.97 124.457 126.796L127.875 125.726C128.1 125.658 128.273 125.48 128.341 125.254L129.4 121.822C129.574 121.254 130.319 121.138 130.66 121.62L132.729 124.553C132.865 124.745 133.087 124.858 133.318 124.854L136.896 124.806C137.485 124.799 137.828 125.473 137.478 125.948L135.34 128.83C135.2 129.018 135.163 129.265 135.238 129.487L136.392 132.889C136.582 133.449 136.048 133.986 135.49 133.795L132.099 132.642C131.878 132.567 131.633 132.605 131.446 132.748L131.449 132.745Z" fill="url(#paint103_linear_430_13596)"/>
<path d="M131.415 132.711L128.549 134.865C128.076 135.22 127.405 134.875 127.412 134.283L127.453 130.69C127.453 130.454 127.344 130.232 127.15 130.099L124.226 128.027C123.743 127.685 123.862 126.936 124.423 126.762L127.841 125.692C128.066 125.623 128.239 125.446 128.307 125.22L129.366 121.787C129.54 121.22 130.285 121.104 130.625 121.586L132.695 124.519C132.831 124.711 133.053 124.823 133.284 124.82L136.862 124.769C137.45 124.762 137.794 125.435 137.444 125.911L135.306 128.793C135.166 128.981 135.129 129.227 135.204 129.449L136.358 132.851C136.548 133.412 136.014 133.948 135.456 133.757L132.065 132.605C131.844 132.53 131.599 132.567 131.412 132.711H131.415Z" fill="url(#paint104_linear_430_13596)"/>
<path d="M131.381 132.677L128.515 134.83C128.042 135.186 127.371 134.841 127.378 134.249L127.419 130.656C127.419 130.42 127.31 130.198 127.116 130.064L124.192 127.993C123.708 127.651 123.828 126.902 124.389 126.728L127.807 125.658C128.032 125.589 128.205 125.411 128.273 125.186L129.332 121.753C129.506 121.186 130.251 121.069 130.591 121.551L132.661 124.485C132.797 124.676 133.018 124.789 133.25 124.786L136.828 124.734C137.416 124.728 137.76 125.401 137.41 125.876L135.272 128.758C135.132 128.947 135.095 129.193 135.17 129.415L136.324 132.817C136.514 133.377 135.98 133.914 135.422 133.723L132.031 132.571C131.81 132.495 131.565 132.533 131.378 132.677H131.381Z" fill="url(#paint105_linear_430_13596)"/>
<path d="M131.347 132.642L128.481 134.796C128.008 135.152 127.337 134.806 127.344 134.215L127.385 130.622C127.385 130.386 127.276 130.164 127.082 130.03L124.158 127.958C123.674 127.617 123.794 126.868 124.355 126.693L127.773 125.623C127.998 125.555 128.171 125.377 128.239 125.152L129.298 121.719C129.472 121.151 130.217 121.035 130.557 121.517L132.627 124.451C132.763 124.642 132.984 124.755 133.216 124.752L136.794 124.7C137.382 124.693 137.726 125.367 137.376 125.842L135.238 128.724C135.098 128.912 135.061 129.158 135.136 129.381L136.29 132.783C136.48 133.343 135.946 133.88 135.388 133.689L131.997 132.536C131.776 132.461 131.531 132.499 131.344 132.642H131.347Z" fill="url(#paint106_linear_430_13596)"/>
<path d="M131.313 132.608L128.447 134.762C127.974 135.118 127.303 134.772 127.31 134.181L127.351 130.588C127.351 130.352 127.242 130.129 127.048 129.996L124.124 127.924C123.64 127.582 123.76 126.834 124.321 126.659L127.739 125.589C127.964 125.521 128.137 125.343 128.205 125.117L129.264 121.685C129.437 121.117 130.183 121.001 130.523 121.483L132.593 124.417C132.729 124.608 132.95 124.721 133.182 124.717L136.759 124.666C137.348 124.659 137.692 125.333 137.342 125.808L135.204 128.69C135.064 128.878 135.027 129.124 135.102 129.347L136.256 132.748C136.446 133.309 135.912 133.846 135.354 133.654L131.963 132.502C131.742 132.427 131.497 132.465 131.31 132.608H131.313Z" fill="url(#paint107_linear_430_13596)"/>
<path d="M131.279 132.574L128.413 134.728C127.94 135.083 127.269 134.738 127.276 134.147L127.317 130.553C127.317 130.317 127.208 130.095 127.014 129.962L124.09 127.89C123.606 127.548 123.726 126.799 124.287 126.625L127.705 125.555C127.929 125.487 128.103 125.309 128.171 125.083L129.23 121.651C129.403 121.083 130.149 120.967 130.489 121.449L132.559 124.382C132.695 124.574 132.916 124.687 133.148 124.683L136.725 124.635C137.314 124.628 137.658 125.302 137.308 125.777L135.17 128.659C135.03 128.847 134.993 129.094 135.068 129.316L136.222 132.718C136.412 133.278 135.878 133.815 135.32 133.624L131.929 132.471C131.708 132.396 131.463 132.434 131.276 132.577L131.279 132.574Z" fill="url(#paint108_linear_430_13596)"/>
<path d="M131.245 132.54L128.379 134.694C127.906 135.049 127.235 134.704 127.242 134.112L127.283 130.519C127.283 130.283 127.174 130.061 126.98 129.928L124.056 127.856C123.572 127.514 123.692 126.765 124.253 126.591L127.671 125.521C127.895 125.452 128.069 125.275 128.137 125.049L129.196 121.616C129.369 121.049 130.115 120.933 130.455 121.415L132.525 124.348C132.661 124.54 132.882 124.652 133.114 124.649L136.691 124.598C137.28 124.591 137.624 125.264 137.274 125.74L135.136 128.622C134.996 128.81 134.959 129.056 135.034 129.278L136.188 132.68C136.378 133.241 135.844 133.777 135.286 133.586L131.895 132.434C131.674 132.359 131.429 132.396 131.242 132.54H131.245Z" fill="url(#paint109_linear_430_13596)"/>
<path d="M131.211 132.506L128.345 134.66C127.872 135.015 127.201 134.67 127.208 134.078L127.249 130.485C127.249 130.249 127.14 130.027 126.946 129.894L124.022 127.822C123.538 127.48 123.657 126.731 124.219 126.557L127.637 125.487C127.861 125.418 128.035 125.24 128.103 125.015L129.162 121.582C129.335 121.015 130.081 120.899 130.421 121.381L132.491 124.314C132.627 124.505 132.848 124.618 133.08 124.615L136.657 124.564C137.246 124.557 137.59 125.23 137.239 125.705L135.102 128.588C134.962 128.776 134.925 129.022 135 129.244L136.154 132.646C136.344 133.206 135.81 133.743 135.252 133.552L131.861 132.4C131.64 132.324 131.395 132.362 131.208 132.506H131.211Z" fill="url(#paint110_linear_430_13596)"/>
<path d="M131.177 132.471L128.311 134.625C127.838 134.981 127.167 134.636 127.174 134.044L127.215 130.451C127.215 130.215 127.106 129.993 126.912 129.859L123.988 127.788C123.504 127.446 123.623 126.697 124.185 126.523L127.603 125.452C127.827 125.384 128.001 125.206 128.069 124.981L129.128 121.548C129.301 120.981 130.047 120.864 130.387 121.346L132.457 124.28C132.593 124.471 132.814 124.584 133.046 124.581L136.623 124.529C137.212 124.523 137.556 125.196 137.205 125.671L135.068 128.553C134.928 128.741 134.891 128.988 134.966 129.21L136.12 132.612C136.31 133.172 135.776 133.709 135.217 133.518L131.827 132.365C131.606 132.29 131.361 132.328 131.174 132.471H131.177Z" fill="url(#paint111_linear_430_13596)"/>
<path d="M131.177 132.471L128.311 134.625C127.838 134.981 127.167 134.636 127.174 134.044L127.215 130.451C127.215 130.215 127.106 129.993 126.912 129.859L123.988 127.788C123.504 127.446 123.623 126.697 124.185 126.523L127.603 125.452C127.827 125.384 128.001 125.206 128.069 124.981L129.128 121.548C129.301 120.981 130.047 120.864 130.387 121.346L132.457 124.28C132.593 124.471 132.814 124.584 133.046 124.581L136.623 124.529C137.212 124.523 137.556 125.196 137.205 125.671L135.068 128.553C134.928 128.741 134.891 128.988 134.966 129.21L136.12 132.612C136.31 133.172 135.776 133.709 135.217 133.518L131.827 132.365C131.606 132.29 131.361 132.328 131.174 132.471H131.177Z" fill="url(#paint112_linear_430_13596)"/>
<defs>
<linearGradient id="paint0_linear_430_13596" x1="119.603" y1="216.09" x2="119.603" y2="62.6065" gradientUnits="userSpaceOnUse">
<stop stop-color="#EDEDED"/>
<stop offset="0.32" stop-color="#E9E9E9"/>
<stop offset="0.61" stop-color="#DEDEDE"/>
<stop offset="0.89" stop-color="#CBCBCB"/>
<stop offset="1" stop-color="#C2C2C2"/>
</linearGradient>
<linearGradient id="paint1_linear_430_13596" x1="71.7224" y1="21.5663" x2="188.047" y2="45.1972" gradientUnits="userSpaceOnUse">
<stop stop-color="#EDEDED"/>
<stop offset="1" stop-color="#CCCCCC"/>
</linearGradient>
<linearGradient id="paint2_linear_430_13596" x1="119.603" y1="85.1541" x2="119.603" y2="69.3896" gradientUnits="userSpaceOnUse">
<stop stop-color="white"/>
<stop offset="0.18" stop-color="#F8F8F8"/>
<stop offset="0.45" stop-color="#E4E4E4"/>
<stop offset="0.76" stop-color="#C4C4C4"/>
<stop offset="1" stop-color="#A8A8A8"/>
</linearGradient>
<linearGradient id="paint3_linear_430_13596" x1="64.7204" y1="46.8763" x2="64.3255" y2="31.6179" gradientUnits="userSpaceOnUse">
<stop stop-color="#EF4C4C"/>
<stop offset="1" stop-color="#B11F22"/>
</linearGradient>
<linearGradient id="paint4_linear_430_13596" x1="76.8285" y1="46.907" x2="76.4336" y2="31.5871" gradientUnits="userSpaceOnUse">
<stop stop-color="#EDEDED"/>
<stop offset="1" stop-color="#CCCCCC"/>
</linearGradient>
<linearGradient id="paint5_linear_430_13596" x1="88.9331" y1="46.9344" x2="88.5382" y2="31.5563" gradientUnits="userSpaceOnUse">
<stop stop-color="#EF4C4C"/>
<stop offset="1" stop-color="#B11F22"/>
</linearGradient>
<linearGradient id="paint6_linear_430_13596" x1="101.041" y1="46.9652" x2="100.643" y2="31.5256" gradientUnits="userSpaceOnUse">
<stop stop-color="#EDEDED"/>
<stop offset="1" stop-color="#CCCCCC"/>
</linearGradient>
<linearGradient id="paint7_linear_430_13596" x1="113.149" y1="46.9959" x2="112.751" y2="31.4948" gradientUnits="userSpaceOnUse">
<stop stop-color="#EF4C4C"/>
<stop offset="1" stop-color="#B11F22"/>
</linearGradient>
<linearGradient id="paint8_linear_430_13596" x1="126.251" y1="46.9993" x2="125.85" y2="31.4367" gradientUnits="userSpaceOnUse">
<stop stop-color="#EDEDED"/>
<stop offset="1" stop-color="#CCCCCC"/>
</linearGradient>
<linearGradient id="paint9_linear_430_13596" x1="138.553" y1="47.0233" x2="138.152" y2="31.4025" gradientUnits="userSpaceOnUse">
<stop stop-color="#EF4C4C"/>
<stop offset="1" stop-color="#B11F22"/>
</linearGradient>
<linearGradient id="paint10_linear_430_13596" x1="150.661" y1="47.054" x2="150.256" y2="31.3717" gradientUnits="userSpaceOnUse">
<stop stop-color="#EDEDED"/>
<stop offset="1" stop-color="#CCCCCC"/>
</linearGradient>
<linearGradient id="paint11_linear_430_13596" x1="162.769" y1="47.0814" x2="162.364" y2="31.3409" gradientUnits="userSpaceOnUse">
<stop stop-color="#EF4C4C"/>
<stop offset="1" stop-color="#B11F22"/>
</linearGradient>
<linearGradient id="paint12_linear_430_13596" x1="174.878" y1="47.1122" x2="174.469" y2="31.3102" gradientUnits="userSpaceOnUse">
<stop stop-color="#EDEDED"/>
<stop offset="1" stop-color="#CCCCCC"/>
</linearGradient>
<linearGradient id="paint13_linear_430_13596" x1="60.1863" y1="73.841" x2="59.4892" y2="46.8217" gradientUnits="userSpaceOnUse">
<stop stop-color="#EF4C4C"/>
<stop offset="1" stop-color="#B11F22"/>
</linearGradient>
<linearGradient id="paint14_linear_430_13596" x1="73.4823" y1="73.841" x2="72.7852" y2="46.8217" gradientUnits="userSpaceOnUse">
<stop stop-color="#EDEDED"/>
<stop offset="1" stop-color="#CCCCCC"/>
</linearGradient>
<linearGradient id="paint15_linear_430_13596" x1="86.7784" y1="73.841" x2="86.0848" y2="46.8217" gradientUnits="userSpaceOnUse">
<stop stop-color="#EF4C4C"/>
<stop offset="1" stop-color="#B11F22"/>
</linearGradient>
<linearGradient id="paint16_linear_430_13596" x1="100.078" y1="73.841" x2="99.3808" y2="46.8217" gradientUnits="userSpaceOnUse">
<stop stop-color="#EDEDED"/>
<stop offset="1" stop-color="#CCCCCC"/>
</linearGradient>
<linearGradient id="paint17_linear_430_13596" x1="113.374" y1="73.841" x2="112.68" y2="46.8217" gradientUnits="userSpaceOnUse">
<stop stop-color="#EF4C4C"/>
<stop offset="1" stop-color="#B11F22"/>
</linearGradient>
<linearGradient id="paint18_linear_430_13596" x1="126.673" y1="73.841" x2="125.976" y2="46.8217" gradientUnits="userSpaceOnUse">
<stop stop-color="#EDEDED"/>
<stop offset="1" stop-color="#CCCCCC"/>
</linearGradient>
<linearGradient id="paint19_linear_430_13596" x1="139.969" y1="73.841" x2="139.272" y2="46.8217" gradientUnits="userSpaceOnUse">
<stop stop-color="#EF4C4C"/>
<stop offset="1" stop-color="#B11F22"/>
</linearGradient>
<linearGradient id="paint20_linear_430_13596" x1="153.265" y1="73.841" x2="152.572" y2="46.8217" gradientUnits="userSpaceOnUse">
<stop stop-color="#EDEDED"/>
<stop offset="1" stop-color="#CCCCCC"/>
</linearGradient>
<linearGradient id="paint21_linear_430_13596" x1="166.565" y1="73.841" x2="165.868" y2="46.8217" gradientUnits="userSpaceOnUse">
<stop stop-color="#EF4C4C"/>
<stop offset="1" stop-color="#B11F22"/>
</linearGradient>
<linearGradient id="paint22_linear_430_13596" x1="179.861" y1="73.841" x2="179.164" y2="46.8217" gradientUnits="userSpaceOnUse">
<stop stop-color="#EDEDED"/>
<stop offset="1" stop-color="#CCCCCC"/>
</linearGradient>
<linearGradient id="paint23_linear_430_13596" x1="102.852" y1="182.049" x2="102.852" y2="200.644" gradientUnits="userSpaceOnUse">
<stop stop-color="#EF4C4C"/>
<stop offset="1" stop-color="#B11F22"/>
</linearGradient>
<linearGradient id="paint24_linear_430_13596" x1="201.918" y1="101.475" x2="175.44" y2="173.399" gradientUnits="userSpaceOnUse">
<stop stop-color="#A8BFFF"/>
<stop offset="1" stop-color="#1941B5"/>
</linearGradient>
<linearGradient id="paint25_linear_430_13596" x1="201.584" y1="102.38" x2="175.752" y2="172.549" gradientUnits="userSpaceOnUse">
<stop stop-color="#6C93FF"/>
<stop offset="1" stop-color="#2155EC"/>
</linearGradient>
<linearGradient id="paint26_linear_430_13596" x1="152.488" y1="103.93" x2="172.7" y2="135.044" gradientUnits="userSpaceOnUse">
<stop stop-color="#FFE973"/>
<stop offset="1" stop-color="#DBAE00"/>
</linearGradient>
<linearGradient id="paint27_linear_430_13596" x1="19.6547" y1="165.009" x2="31.0582" y2="165.009" gradientUnits="userSpaceOnUse">
<stop stop-color="#FFE973"/>
<stop offset="1" stop-color="#DBAE00"/>
</linearGradient>
<linearGradient id="paint28_linear_430_13596" x1="27.7495" y1="170.975" x2="30.4827" y2="219.34" gradientUnits="userSpaceOnUse">
<stop stop-color="#EF4C4C"/>
<stop offset="1" stop-color="#B11F22"/>
</linearGradient>
<linearGradient id="paint29_linear_430_13596" x1="6.09998" y1="195.225" x2="12.8754" y2="196.296" gradientUnits="userSpaceOnUse">
<stop stop-color="#EF4C4C"/>
<stop offset="1" stop-color="#B11F22"/>
</linearGradient>
<linearGradient id="paint30_linear_430_13596" x1="4.31288" y1="218.672" x2="6.67427" y2="223.115" gradientUnits="userSpaceOnUse">
<stop stop-color="#EF4C4C"/>
<stop offset="1" stop-color="#B11F22"/>
</linearGradient>
<linearGradient id="paint31_linear_430_13596" x1="25.816" y1="165.009" x2="37.2194" y2="165.009" gradientUnits="userSpaceOnUse">
<stop stop-color="#FFE973"/>
<stop offset="1" stop-color="#DBAE00"/>
</linearGradient>
<linearGradient id="paint32_linear_430_13596" x1="80.8792" y1="132.359" x2="80.8792" y2="154.793" gradientUnits="userSpaceOnUse">
<stop stop-color="#A5CC2B"/>
<stop offset="1" stop-color="#2C6B00"/>
</linearGradient>
<linearGradient id="paint33_linear_430_13596" x1="225.651" y1="104.541" x2="221.445" y2="115.967" gradientUnits="userSpaceOnUse">
<stop stop-color="#E9C52D"/>
<stop offset="0.59" stop-color="#FFE973"/>
<stop offset="1" stop-color="#CC8B00"/>
</linearGradient>
<linearGradient id="paint34_linear_430_13596" x1="225.617" y1="104.507" x2="221.41" y2="115.932" gradientUnits="userSpaceOnUse">
<stop stop-color="#E9C52D"/>
<stop offset="0.59" stop-color="#FFE973"/>
<stop offset="1" stop-color="#CC8B00"/>
</linearGradient>
<linearGradient id="paint35_linear_430_13596" x1="225.582" y1="104.472" x2="221.376" y2="115.898" gradientUnits="userSpaceOnUse">
<stop stop-color="#E9C52D"/>
<stop offset="0.59" stop-color="#FFE973"/>
<stop offset="1" stop-color="#CC8B00"/>
</linearGradient>
<linearGradient id="paint36_linear_430_13596" x1="225.548" y1="104.438" x2="221.341" y2="115.863" gradientUnits="userSpaceOnUse">
<stop stop-color="#E9C52D"/>
<stop offset="0.59" stop-color="#FFE973"/>
<stop offset="1" stop-color="#CC8B00"/>
</linearGradient>
<linearGradient id="paint37_linear_430_13596" x1="225.513" y1="104.403" x2="221.307" y2="115.829" gradientUnits="userSpaceOnUse">
<stop stop-color="#E9C52D"/>
<stop offset="0.59" stop-color="#FFE973"/>
<stop offset="1" stop-color="#CC8B00"/>
</linearGradient>
<linearGradient id="paint38_linear_430_13596" x1="225.482" y1="104.37" x2="221.276" y2="115.795" gradientUnits="userSpaceOnUse">
<stop stop-color="#E9C52D"/>
<stop offset="0.59" stop-color="#FFE973"/>
<stop offset="1" stop-color="#CC8B00"/>
</linearGradient>
<linearGradient id="paint39_linear_430_13596" x1="225.447" y1="104.335" x2="221.241" y2="115.761" gradientUnits="userSpaceOnUse">
<stop stop-color="#E9C52D"/>
<stop offset="0.59" stop-color="#FFE973"/>
<stop offset="1" stop-color="#CC8B00"/>
</linearGradient>
<linearGradient id="paint40_linear_430_13596" x1="225.413" y1="104.3" x2="221.207" y2="115.726" gradientUnits="userSpaceOnUse">
<stop stop-color="#E9C52D"/>
<stop offset="0.59" stop-color="#FFE973"/>
<stop offset="1" stop-color="#CC8B00"/>
</linearGradient>
<linearGradient id="paint41_linear_430_13596" x1="225.378" y1="104.266" x2="221.172" y2="115.691" gradientUnits="userSpaceOnUse">
<stop stop-color="#E9C52D"/>
<stop offset="0.59" stop-color="#FFE973"/>
<stop offset="1" stop-color="#CC8B00"/>
</linearGradient>
<linearGradient id="paint42_linear_430_13596" x1="225.344" y1="104.231" x2="221.138" y2="115.657" gradientUnits="userSpaceOnUse">
<stop stop-color="#E9C52D"/>
<stop offset="0.59" stop-color="#FFE973"/>
<stop offset="1" stop-color="#CC8B00"/>
</linearGradient>
<linearGradient id="paint43_linear_430_13596" x1="225.309" y1="104.197" x2="221.103" y2="115.622" gradientUnits="userSpaceOnUse">
<stop stop-color="#E9C52D"/>
<stop offset="0.59" stop-color="#FFE973"/>
<stop offset="1" stop-color="#CC8B00"/>
</linearGradient>
<linearGradient id="paint44_linear_430_13596" x1="225.278" y1="104.163" x2="221.072" y2="115.589" gradientUnits="userSpaceOnUse">
<stop stop-color="#E9C52D"/>
<stop offset="0.59" stop-color="#FFE973"/>
<stop offset="1" stop-color="#CC8B00"/>
</linearGradient>
<linearGradient id="paint45_linear_430_13596" x1="225.243" y1="104.129" x2="221.037" y2="115.554" gradientUnits="userSpaceOnUse">
<stop stop-color="#E9C52D"/>
<stop offset="0.59" stop-color="#FFE973"/>
<stop offset="1" stop-color="#CC8B00"/>
</linearGradient>
<linearGradient id="paint46_linear_430_13596" x1="225.209" y1="104.094" x2="221.003" y2="115.52" gradientUnits="userSpaceOnUse">
<stop stop-color="#E9C52D"/>
<stop offset="0.59" stop-color="#FFE973"/>
<stop offset="1" stop-color="#CC8B00"/>
</linearGradient>
<linearGradient id="paint47_linear_430_13596" x1="225.174" y1="104.06" x2="220.968" y2="115.485" gradientUnits="userSpaceOnUse">
<stop stop-color="#E9C52D"/>
<stop offset="0.59" stop-color="#FFE973"/>
<stop offset="1" stop-color="#CC8B00"/>
</linearGradient>
<linearGradient id="paint48_linear_430_13596" x1="225.174" y1="104.06" x2="220.968" y2="115.485" gradientUnits="userSpaceOnUse">
<stop stop-color="#FFE973"/>
<stop offset="1" stop-color="#DBAE00"/>
</linearGradient>
<linearGradient id="paint49_linear_430_13596" x1="44.325" y1="138.31" x2="52.4025" y2="147.397" gradientUnits="userSpaceOnUse">
<stop stop-color="#E9C52D"/>
<stop offset="0.59" stop-color="#FFE973"/>
<stop offset="1" stop-color="#CC8B00"/>
</linearGradient>
<linearGradient id="paint50_linear_430_13596" x1="44.2909" y1="138.276" x2="52.3684" y2="147.363" gradientUnits="userSpaceOnUse">
<stop stop-color="#E9C52D"/>
<stop offset="0.59" stop-color="#FFE973"/>
<stop offset="1" stop-color="#CC8B00"/>
</linearGradient>
<linearGradient id="paint51_linear_430_13596" x1="44.2568" y1="138.243" x2="52.3343" y2="147.33" gradientUnits="userSpaceOnUse">
<stop stop-color="#E9C52D"/>
<stop offset="0.59" stop-color="#FFE973"/>
<stop offset="1" stop-color="#CC8B00"/>
</linearGradient>
<linearGradient id="paint52_linear_430_13596" x1="44.2226" y1="138.209" x2="52.3001" y2="147.296" gradientUnits="userSpaceOnUse">
<stop stop-color="#E9C52D"/>
<stop offset="0.59" stop-color="#FFE973"/>
<stop offset="1" stop-color="#CC8B00"/>
</linearGradient>
<linearGradient id="paint53_linear_430_13596" x1="44.1885" y1="138.176" x2="52.266" y2="147.263" gradientUnits="userSpaceOnUse">
<stop stop-color="#E9C52D"/>
<stop offset="0.59" stop-color="#FFE973"/>
<stop offset="1" stop-color="#CC8B00"/>
</linearGradient>
<linearGradient id="paint54_linear_430_13596" x1="44.1543" y1="138.142" x2="52.2296" y2="147.227" gradientUnits="userSpaceOnUse">
<stop stop-color="#E9C52D"/>
<stop offset="0.59" stop-color="#FFE973"/>
<stop offset="1" stop-color="#CC8B00"/>
</linearGradient>
<linearGradient id="paint55_linear_430_13596" x1="44.1205" y1="138.104" x2="52.198" y2="147.191" gradientUnits="userSpaceOnUse">
<stop stop-color="#E9C52D"/>
<stop offset="0.59" stop-color="#FFE973"/>
<stop offset="1" stop-color="#CC8B00"/>
</linearGradient>
<linearGradient id="paint56_linear_430_13596" x1="44.0864" y1="138.07" x2="52.1639" y2="147.157" gradientUnits="userSpaceOnUse">
<stop stop-color="#E9C52D"/>
<stop offset="0.59" stop-color="#FFE973"/>
<stop offset="1" stop-color="#CC8B00"/>
</linearGradient>
<linearGradient id="paint57_linear_430_13596" x1="44.0522" y1="138.037" x2="52.1297" y2="147.124" gradientUnits="userSpaceOnUse">
<stop stop-color="#E9C52D"/>
<stop offset="0.59" stop-color="#FFE973"/>
<stop offset="1" stop-color="#CC8B00"/>
</linearGradient>
<linearGradient id="paint58_linear_430_13596" x1="44.0181" y1="138.003" x2="52.0956" y2="147.09" gradientUnits="userSpaceOnUse">
<stop stop-color="#E9C52D"/>
<stop offset="0.59" stop-color="#FFE973"/>
<stop offset="1" stop-color="#CC8B00"/>
</linearGradient>
<linearGradient id="paint59_linear_430_13596" x1="43.984" y1="137.969" x2="52.0615" y2="147.056" gradientUnits="userSpaceOnUse">
<stop stop-color="#E9C52D"/>
<stop offset="0.59" stop-color="#FFE973"/>
<stop offset="1" stop-color="#CC8B00"/>
</linearGradient>
<linearGradient id="paint60_linear_430_13596" x1="43.9498" y1="137.936" x2="52.0273" y2="147.023" gradientUnits="userSpaceOnUse">
<stop stop-color="#E9C52D"/>
<stop offset="0.59" stop-color="#FFE973"/>
<stop offset="1" stop-color="#CC8B00"/>
</linearGradient>
<linearGradient id="paint61_linear_430_13596" x1="43.9157" y1="137.902" x2="51.9932" y2="146.989" gradientUnits="userSpaceOnUse">
<stop stop-color="#E9C52D"/>
<stop offset="0.59" stop-color="#FFE973"/>
<stop offset="1" stop-color="#CC8B00"/>
</linearGradient>
<linearGradient id="paint62_linear_430_13596" x1="43.8841" y1="137.866" x2="51.9616" y2="146.953" gradientUnits="userSpaceOnUse">
<stop stop-color="#E9C52D"/>
<stop offset="0.59" stop-color="#FFE973"/>
<stop offset="1" stop-color="#CC8B00"/>
</linearGradient>
<linearGradient id="paint63_linear_430_13596" x1="43.8477" y1="137.83" x2="51.9252" y2="146.917" gradientUnits="userSpaceOnUse">
<stop stop-color="#E9C52D"/>
<stop offset="0.59" stop-color="#FFE973"/>
<stop offset="1" stop-color="#CC8B00"/>
</linearGradient>
<linearGradient id="paint64_linear_430_13596" x1="43.8477" y1="137.83" x2="51.9252" y2="146.917" gradientUnits="userSpaceOnUse">
<stop stop-color="#FFE973"/>
<stop offset="1" stop-color="#DBAE00"/>
</linearGradient>
<linearGradient id="paint65_linear_430_13596" x1="49.9789" y1="48.7204" x2="51.905" y2="60.7473" gradientUnits="userSpaceOnUse">
<stop stop-color="#E9C52D"/>
<stop offset="0.59" stop-color="#FFE973"/>
<stop offset="1" stop-color="#CC8B00"/>
</linearGradient>
<linearGradient id="paint66_linear_430_13596" x1="49.9461" y1="48.6876" x2="51.8722" y2="60.7145" gradientUnits="userSpaceOnUse">
<stop stop-color="#E9C52D"/>
<stop offset="0.59" stop-color="#FFE973"/>
<stop offset="1" stop-color="#CC8B00"/>
</linearGradient>
<linearGradient id="paint67_linear_430_13596" x1="49.9132" y1="48.6548" x2="51.8389" y2="60.6783" gradientUnits="userSpaceOnUse">
<stop stop-color="#E9C52D"/>
<stop offset="0.59" stop-color="#FFE973"/>
<stop offset="1" stop-color="#CC8B00"/>
</linearGradient>
<linearGradient id="paint68_linear_430_13596" x1="49.8766" y1="48.6191" x2="51.8028" y2="60.646" gradientUnits="userSpaceOnUse">
<stop stop-color="#E9C52D"/>
<stop offset="0.59" stop-color="#FFE973"/>
<stop offset="1" stop-color="#CC8B00"/>
</linearGradient>
<linearGradient id="paint69_linear_430_13596" x1="49.8438" y1="48.5863" x2="51.77" y2="60.6132" gradientUnits="userSpaceOnUse">
<stop stop-color="#E9C52D"/>
<stop offset="0.59" stop-color="#FFE973"/>
<stop offset="1" stop-color="#CC8B00"/>
</linearGradient>
<linearGradient id="paint70_linear_430_13596" x1="49.8105" y1="48.5501" x2="51.7366" y2="60.577" gradientUnits="userSpaceOnUse">
<stop stop-color="#E9C52D"/>
<stop offset="0.59" stop-color="#FFE973"/>
<stop offset="1" stop-color="#CC8B00"/>
</linearGradient>
<linearGradient id="paint71_linear_430_13596" x1="49.7743" y1="48.5178" x2="51.7005" y2="60.5447" gradientUnits="userSpaceOnUse">
<stop stop-color="#E9C52D"/>
<stop offset="0.59" stop-color="#FFE973"/>
<stop offset="1" stop-color="#CC8B00"/>
</linearGradient>
<linearGradient id="paint72_linear_430_13596" x1="49.741" y1="48.4816" x2="51.6672" y2="60.5085" gradientUnits="userSpaceOnUse">
<stop stop-color="#E9C52D"/>
<stop offset="0.59" stop-color="#FFE973"/>
<stop offset="1" stop-color="#CC8B00"/>
</linearGradient>
<linearGradient id="paint73_linear_430_13596" x1="49.7082" y1="48.4487" x2="51.6344" y2="60.4756" gradientUnits="userSpaceOnUse">
<stop stop-color="#E9C52D"/>
<stop offset="0.59" stop-color="#FFE973"/>
<stop offset="1" stop-color="#CC8B00"/>
</linearGradient>
<linearGradient id="paint74_linear_430_13596" x1="49.6749" y1="48.4125" x2="51.6011" y2="60.4394" gradientUnits="userSpaceOnUse">
<stop stop-color="#E9C52D"/>
<stop offset="0.59" stop-color="#FFE973"/>
<stop offset="1" stop-color="#CC8B00"/>
</linearGradient>
<linearGradient id="paint75_linear_430_13596" x1="49.6387" y1="48.3802" x2="51.5649" y2="60.4071" gradientUnits="userSpaceOnUse">
<stop stop-color="#E9C52D"/>
<stop offset="0.59" stop-color="#FFE973"/>
<stop offset="1" stop-color="#CC8B00"/>
</linearGradient>
<linearGradient id="paint76_linear_430_13596" x1="49.6059" y1="48.3474" x2="51.5316" y2="60.3709" gradientUnits="userSpaceOnUse">
<stop stop-color="#E9C52D"/>
<stop offset="0.59" stop-color="#FFE973"/>
<stop offset="1" stop-color="#CC8B00"/>
</linearGradient>
<linearGradient id="paint77_linear_430_13596" x1="49.5726" y1="48.3112" x2="51.4988" y2="60.3381" gradientUnits="userSpaceOnUse">
<stop stop-color="#E9C52D"/>
<stop offset="0.59" stop-color="#FFE973"/>
<stop offset="1" stop-color="#CC8B00"/>
</linearGradient>
<linearGradient id="paint78_linear_430_13596" x1="49.5365" y1="48.2789" x2="51.4627" y2="60.3058" gradientUnits="userSpaceOnUse">
<stop stop-color="#E9C52D"/>
<stop offset="0.59" stop-color="#FFE973"/>
<stop offset="1" stop-color="#CC8B00"/>
</linearGradient>
<linearGradient id="paint79_linear_430_13596" x1="49.5032" y1="48.2427" x2="51.4293" y2="60.2696" gradientUnits="userSpaceOnUse">
<stop stop-color="#E9C52D"/>
<stop offset="0.59" stop-color="#FFE973"/>
<stop offset="1" stop-color="#CC8B00"/>
</linearGradient>
<linearGradient id="paint80_linear_430_13596" x1="49.5032" y1="48.2427" x2="51.4293" y2="60.2696" gradientUnits="userSpaceOnUse">
<stop stop-color="#FFE973"/>
<stop offset="1" stop-color="#DBAE00"/>
</linearGradient>
<linearGradient id="paint81_linear_430_13596" x1="189.981" y1="1.07379" x2="191.907" y2="13.0973" gradientUnits="userSpaceOnUse">
<stop stop-color="#E9C52D"/>
<stop offset="0.59" stop-color="#FFE973"/>
<stop offset="1" stop-color="#CC8B00"/>
</linearGradient>
<linearGradient id="paint82_linear_430_13596" x1="189.944" y1="1.03813" x2="191.87" y2="13.065" gradientUnits="userSpaceOnUse">
<stop stop-color="#E9C52D"/>
<stop offset="0.59" stop-color="#FFE973"/>
<stop offset="1" stop-color="#CC8B00"/>
</linearGradient>
<linearGradient id="paint83_linear_430_13596" x1="189.911" y1="1.00531" x2="191.838" y2="13.0322" gradientUnits="userSpaceOnUse">
<stop stop-color="#E9C52D"/>
<stop offset="0.59" stop-color="#FFE973"/>
<stop offset="1" stop-color="#CC8B00"/>
</linearGradient>
<linearGradient id="paint84_linear_430_13596" x1="189.878" y1="0.969113" x2="191.804" y2="12.996" gradientUnits="userSpaceOnUse">
<stop stop-color="#E9C52D"/>
<stop offset="0.59" stop-color="#FFE973"/>
<stop offset="1" stop-color="#CC8B00"/>
</linearGradient>
<linearGradient id="paint85_linear_430_13596" x1="189.842" y1="0.936829" x2="191.768" y2="12.9637" gradientUnits="userSpaceOnUse">
<stop stop-color="#E9C52D"/>
<stop offset="0.59" stop-color="#FFE973"/>
<stop offset="1" stop-color="#CC8B00"/>
</linearGradient>
<linearGradient id="paint86_linear_430_13596" x1="189.809" y1="0.90063" x2="191.735" y2="12.9275" gradientUnits="userSpaceOnUse">
<stop stop-color="#E9C52D"/>
<stop offset="0.59" stop-color="#FFE973"/>
<stop offset="1" stop-color="#CC8B00"/>
</linearGradient>
<linearGradient id="paint87_linear_430_13596" x1="189.776" y1="0.867808" x2="191.702" y2="12.8947" gradientUnits="userSpaceOnUse">
<stop stop-color="#E9C52D"/>
<stop offset="0.59" stop-color="#FFE973"/>
<stop offset="1" stop-color="#CC8B00"/>
</linearGradient>
<linearGradient id="paint88_linear_430_13596" x1="189.743" y1="0.831609" x2="191.669" y2="12.8585" gradientUnits="userSpaceOnUse">
<stop stop-color="#E9C52D"/>
<stop offset="0.59" stop-color="#FFE973"/>
<stop offset="1" stop-color="#CC8B00"/>
</linearGradient>
<linearGradient id="paint89_linear_430_13596" x1="189.706" y1="0.799203" x2="191.633" y2="12.8261" gradientUnits="userSpaceOnUse">
<stop stop-color="#E9C52D"/>
<stop offset="0.59" stop-color="#FFE973"/>
<stop offset="1" stop-color="#CC8B00"/>
</linearGradient>
<linearGradient id="paint90_linear_430_13596" x1="189.673" y1="0.763005" x2="191.599" y2="12.7899" gradientUnits="userSpaceOnUse">
<stop stop-color="#E9C52D"/>
<stop offset="0.59" stop-color="#FFE973"/>
<stop offset="1" stop-color="#CC8B00"/>
</linearGradient>
<linearGradient id="paint91_linear_430_13596" x1="189.64" y1="0.730182" x2="191.566" y2="12.7571" gradientUnits="userSpaceOnUse">
<stop stop-color="#E9C52D"/>
<stop offset="0.59" stop-color="#FFE973"/>
<stop offset="1" stop-color="#CC8B00"/>
</linearGradient>
<linearGradient id="paint92_linear_430_13596" x1="189.604" y1="0.697898" x2="191.53" y2="12.7248" gradientUnits="userSpaceOnUse">
<stop stop-color="#E9C52D"/>
<stop offset="0.59" stop-color="#FFE973"/>
<stop offset="1" stop-color="#CC8B00"/>
</linearGradient>
<linearGradient id="paint93_linear_430_13596" x1="189.571" y1="0.661699" x2="191.497" y2="12.6886" gradientUnits="userSpaceOnUse">
<stop stop-color="#E9C52D"/>
<stop offset="0.59" stop-color="#FFE973"/>
<stop offset="1" stop-color="#CC8B00"/>
</linearGradient>
<linearGradient id="paint94_linear_430_13596" x1="189.538" y1="0.628877" x2="191.464" y2="12.6558" gradientUnits="userSpaceOnUse">
<stop stop-color="#E9C52D"/>
<stop offset="0.59" stop-color="#FFE973"/>
<stop offset="1" stop-color="#CC8B00"/>
</linearGradient>
<linearGradient id="paint95_linear_430_13596" x1="189.501" y1="0.593217" x2="191.427" y2="12.6201" gradientUnits="userSpaceOnUse">
<stop stop-color="#E9C52D"/>
<stop offset="0.59" stop-color="#FFE973"/>
<stop offset="1" stop-color="#CC8B00"/>
</linearGradient>
<linearGradient id="paint96_linear_430_13596" x1="189.501" y1="0.593217" x2="191.427" y2="12.6201" gradientUnits="userSpaceOnUse">
<stop stop-color="#FFE973"/>
<stop offset="1" stop-color="#DBAE00"/>
</linearGradient>
<linearGradient id="paint97_linear_430_13596" x1="130.275" y1="122.111" x2="132.201" y2="134.138" gradientUnits="userSpaceOnUse">
<stop stop-color="#E9C52D"/>
<stop offset="0.59" stop-color="#FFE973"/>
<stop offset="1" stop-color="#CC8B00"/>
</linearGradient>
<linearGradient id="paint98_linear_430_13596" x1="130.242" y1="122.079" x2="132.168" y2="134.105" gradientUnits="userSpaceOnUse">
<stop stop-color="#E9C52D"/>
<stop offset="0.59" stop-color="#FFE973"/>
<stop offset="1" stop-color="#CC8B00"/>
</linearGradient>
<linearGradient id="paint99_linear_430_13596" x1="130.205" y1="122.043" x2="132.131" y2="134.07" gradientUnits="userSpaceOnUse">
<stop stop-color="#E9C52D"/>
<stop offset="0.59" stop-color="#FFE973"/>
<stop offset="1" stop-color="#CC8B00"/>
</linearGradient>
<linearGradient id="paint100_linear_430_13596" x1="130.172" y1="122.01" x2="132.098" y2="134.037" gradientUnits="userSpaceOnUse">
<stop stop-color="#E9C52D"/>
<stop offset="0.59" stop-color="#FFE973"/>
<stop offset="1" stop-color="#CC8B00"/>
</linearGradient>
<linearGradient id="paint101_linear_430_13596" x1="130.139" y1="121.977" x2="132.065" y2="134.001" gradientUnits="userSpaceOnUse">
<stop stop-color="#E9C52D"/>
<stop offset="0.59" stop-color="#FFE973"/>
<stop offset="1" stop-color="#CC8B00"/>
</linearGradient>
<linearGradient id="paint102_linear_430_13596" x1="130.103" y1="121.942" x2="132.029" y2="133.969" gradientUnits="userSpaceOnUse">
<stop stop-color="#E9C52D"/>
<stop offset="0.59" stop-color="#FFE973"/>
<stop offset="1" stop-color="#CC8B00"/>
</linearGradient>
<linearGradient id="paint103_linear_430_13596" x1="130.07" y1="121.909" x2="131.996" y2="133.936" gradientUnits="userSpaceOnUse">
<stop stop-color="#E9C52D"/>
<stop offset="0.59" stop-color="#FFE973"/>
<stop offset="1" stop-color="#CC8B00"/>
</linearGradient>
<linearGradient id="paint104_linear_430_13596" x1="130.037" y1="121.873" x2="131.963" y2="133.9" gradientUnits="userSpaceOnUse">
<stop stop-color="#E9C52D"/>
<stop offset="0.59" stop-color="#FFE973"/>
<stop offset="1" stop-color="#CC8B00"/>
</linearGradient>
<linearGradient id="paint105_linear_430_13596" x1="130.001" y1="121.84" x2="131.927" y2="133.867" gradientUnits="userSpaceOnUse">
<stop stop-color="#E9C52D"/>
<stop offset="0.59" stop-color="#FFE973"/>
<stop offset="1" stop-color="#CC8B00"/>
</linearGradient>
<linearGradient id="paint106_linear_430_13596" x1="129.967" y1="121.804" x2="131.893" y2="133.831" gradientUnits="userSpaceOnUse">
<stop stop-color="#E9C52D"/>
<stop offset="0.59" stop-color="#FFE973"/>
<stop offset="1" stop-color="#CC8B00"/>
</linearGradient>
<linearGradient id="paint107_linear_430_13596" x1="129.934" y1="121.771" x2="131.861" y2="133.798" gradientUnits="userSpaceOnUse">
<stop stop-color="#E9C52D"/>
<stop offset="0.59" stop-color="#FFE973"/>
<stop offset="1" stop-color="#CC8B00"/>
</linearGradient>
<linearGradient id="paint108_linear_430_13596" x1="129.901" y1="121.735" x2="131.827" y2="133.762" gradientUnits="userSpaceOnUse">
<stop stop-color="#E9C52D"/>
<stop offset="0.59" stop-color="#FFE973"/>
<stop offset="1" stop-color="#CC8B00"/>
</linearGradient>
<linearGradient id="paint109_linear_430_13596" x1="129.865" y1="121.703" x2="131.791" y2="133.73" gradientUnits="userSpaceOnUse">
<stop stop-color="#E9C52D"/>
<stop offset="0.59" stop-color="#FFE973"/>
<stop offset="1" stop-color="#CC8B00"/>
</linearGradient>
<linearGradient id="paint110_linear_430_13596" x1="129.832" y1="121.667" x2="131.758" y2="133.693" gradientUnits="userSpaceOnUse">
<stop stop-color="#E9C52D"/>
<stop offset="0.59" stop-color="#FFE973"/>
<stop offset="1" stop-color="#CC8B00"/>
</linearGradient>
<linearGradient id="paint111_linear_430_13596" x1="129.799" y1="121.634" x2="131.725" y2="133.661" gradientUnits="userSpaceOnUse">
<stop stop-color="#E9C52D"/>
<stop offset="0.59" stop-color="#FFE973"/>
<stop offset="1" stop-color="#CC8B00"/>
</linearGradient>
<linearGradient id="paint112_linear_430_13596" x1="129.799" y1="121.634" x2="131.725" y2="133.661" gradientUnits="userSpaceOnUse">
<stop stop-color="#FFE973"/>
<stop offset="1" stop-color="#DBAE00"/>
</linearGradient>
</defs>
</svg>
