<svg width="309" height="339" viewBox="0 0 309 339" fill="none" xmlns="http://www.w3.org/2000/svg">
<path d="M181.152 147.346C181.152 147.346 192.513 157.73 201.422 190.879C210.313 224.009 213.277 263.09 228.095 272.98C242.913 282.869 264.647 269.519 278.002 287.32C291.338 305.121 268.123 324.9 255.28 328.361C242.438 331.823 215.765 337.756 190.555 320.944C165.364 304.132 181.17 147.346 181.17 147.346H181.152Z" fill="#152D40"/>
<path d="M195.97 321.933H17.1259C17.1259 321.933 20.5835 148.336 38.3655 140.918C56.1474 133.501 87.2842 118.667 87.2842 118.667L139.167 125.095C139.167 125.095 173.249 133.501 181.152 147.347C183.183 150.899 185.14 164.067 186.933 181.722C188.213 194.304 189.403 209.174 190.482 224.43C193.793 271.314 195.97 321.933 195.97 321.933Z" fill="#2867A4"/>
<path d="M93.9616 89.4746L93.2115 113.209C93.2115 113.209 113.957 130.278 127.55 129.527C141.142 128.776 139.167 125.077 139.167 125.077L139.404 108.503C139.404 108.503 106.804 89.7127 93.9433 89.4563L93.9616 89.4746Z" fill="#C17638"/>
<path d="M165.272 81.1418C163.791 106.36 149.905 112.477 138.051 116.195C126.233 119.894 104.481 109.217 96.6326 95.9211C96.6326 95.8845 96.596 95.8296 96.5594 95.7929C96.1752 95.1336 95.8093 94.456 95.48 93.7784C88.949 80.8671 90.2845 66.2342 90.2845 66.2342C90.2845 66.2342 89.9186 57.8282 90.3393 47.9386C90.7601 38.0491 92.0224 26.6762 95.2239 20.7425C101.663 8.87504 121.037 6.01807 129.562 6.01807C138.087 6.01807 154.387 12.3181 161.065 21.2186C167.742 30.1192 165.766 73.7063 165.327 81.1418H165.272Z" fill="#E1964F"/>
<path d="M90.4308 45.3379C90.4308 45.3379 83.7534 45.7042 80.241 52.5719C76.7285 59.4396 79.3079 75.0064 91.5468 76.6913C103.767 78.3579 90.4308 45.3562 90.4308 45.3562V45.3379Z" fill="#E1964F"/>
<path d="M165.09 24.3685C165.09 24.3685 156.93 27.1522 138.782 26.2182C120.635 25.2842 112.292 23.6176 112.292 23.6176C112.292 23.6176 113.957 34.0016 110.06 42.3528C106.164 50.7039 101.901 48.8359 100.804 55.3374C99.6876 61.8205 100.054 65.3551 96.724 65.1719C93.3944 64.9888 93.6688 50.4292 91.6382 47.2792C89.6075 44.1292 82.5642 48.6711 81.9057 50.1545C81.2654 51.6379 72.0816 24.1854 89.7722 14.6438C89.7722 14.6438 95.2421 1.10983 118.769 0.0842528C142.295 -0.941327 161.101 7.40982 165.09 24.3868V24.3685Z" fill="#151A25"/>
<path d="M114.945 48.5428C114.945 48.5428 117.415 44.2207 124.092 44.2207C130.77 44.2207 131.373 48.3047 133.477 47.9385C135.581 47.5722 134.721 40.7594 127.916 39.4042C121.128 38.0489 114.817 41.2539 114.945 48.5611V48.5428Z" fill="#151A25"/>
<path d="M163.644 48.4146C163.644 48.4146 161.54 44.0926 155.833 44.0926C150.125 44.0926 149.613 48.1766 147.82 47.8103C146.027 47.444 146.759 40.6312 152.576 39.276C158.376 37.9208 163.772 41.1257 163.663 48.433L163.644 48.4146Z" fill="#151A25"/>
<path d="M128.41 55.6303C128.41 57.7364 127.422 59.4396 126.178 59.4396C124.934 59.4396 123.946 57.7364 123.946 55.6303C123.946 53.5242 124.934 51.821 126.178 51.821C127.422 51.821 128.41 53.5242 128.41 55.6303Z" fill="#151A25"/>
<path d="M154.168 55.4472C154.168 57.5533 153.18 59.2565 151.936 59.2565C150.692 59.2565 149.704 57.5533 149.704 55.4472C149.704 53.3411 150.692 51.6379 151.936 51.6379C153.18 51.6379 154.168 53.3411 154.168 55.4472Z" fill="#151A25"/>
<path d="M165.968 64.9887C165.968 64.9887 150.893 59.2931 138.051 60.9047C125.208 62.5163 101.737 69.1826 101.737 69.1826C101.737 69.1826 100.877 91.5622 112.86 101.085C124.842 110.609 131.264 111.964 140.905 110.975C150.546 109.986 159.053 105.169 161.906 98.4849C164.742 91.8003 167.596 69.5489 165.986 64.9704L165.968 64.9887Z" fill="#B2BFE1"/>
<path d="M93.486 56.2715L103.31 68.9813L101.92 70.0985L93.9616 59.2383L93.486 56.2715Z" fill="#EFF5E1"/>
<path d="M108.487 95.4081C108.487 95.4081 101.499 98.1369 96.6142 95.9209C96.6142 95.8843 96.5776 95.8294 96.541 95.7927C96.1569 95.1334 95.791 94.4558 95.4617 93.7782C95.9007 93.9064 102.011 95.7744 106.822 93.1189L108.487 95.4265V95.4081Z" fill="#EFF5E1"/>
<path d="M107.298 72.0397C107.298 72.0397 128.41 64.6226 142.752 64.6226C157.095 64.6226 164.12 68.9446 164.12 68.9446L163.26 82.1673C163.26 82.1673 156.473 75.4827 138.179 77.8452C119.903 80.1894 110.756 84.2734 110.756 84.2734L107.298 72.0397Z" fill="#9FAFD3"/>
<path d="M111.744 86.7457C111.744 86.7457 150.893 76.5998 162.51 84.896L161.522 91.0861C161.522 91.0861 155.595 85.3905 133.971 89.3463C112.347 93.3021 113.719 93.3021 113.719 93.3021L111.744 86.7457Z" fill="#9FAFD3"/>
<path d="M190.482 224.412C177.127 230.107 150.93 238.953 116.555 238.953C65.7884 238.953 43.1951 218.551 43.1951 218.551L52.8361 179.982C52.8361 179.982 90.2661 202.984 134.721 199.266C165.291 196.721 180.438 187.326 186.933 181.722C188.213 194.303 189.403 209.174 190.482 224.43V224.412Z" fill="#1C3B51"/>
<path d="M87.2842 118.649L92.9737 105.536C92.9737 105.536 118.421 122.348 128.044 123.099L129.782 127.549L131.757 122.348C131.757 122.348 137.685 120.865 139.167 118.63C140.648 116.396 142.88 128.776 142.88 128.776C142.88 128.776 140.648 133.977 125.83 133.977C111.012 133.977 87.3025 118.649 87.3025 118.649H87.2842Z" fill="#152D40"/>
<path d="M128.776 132.988C128.776 132.988 146.558 285.69 145.076 320.193L150.271 320.559C150.271 320.559 144.344 171.063 131.739 132.86L128.776 132.988Z" fill="#B2BFE1"/>
<path d="M178.06 367.681H106.914V231.169L176.834 233.642L178.06 367.681Z" fill="#A9402C"/>
<path d="M308.809 367.993H176.963L176.725 233.715L308.809 231.481V367.993Z" fill="#D14F2D"/>
<path d="M106.914 231.169L177.328 234.887L308.809 231.481L196.226 225.987L106.914 231.169Z" fill="#EA6F57"/>
<path d="M250.688 278.969H247.359V365.832H250.688V278.969Z" fill="#A9402C"/>
<path d="M178.938 237.103L249.078 278.895V282.851L179.176 240.326L178.938 237.103Z" fill="#A9402C"/>
<path d="M307.638 235.382L254.036 277.174V281.13L307.437 238.587L307.638 235.382Z" fill="#A9402C"/>
<path d="M149.594 346.217C142.185 359.074 49.7993 364.531 19.6687 343.763C6.8079 334.899 1.59405 309.406 0.331746 280.763C-1.35132 242.249 4.11865 198.058 7.81408 181.044C14.2354 151.376 38.4386 140.497 38.4386 140.497C38.4386 140.497 40.2497 141.633 42.8292 144.343C49.1773 150.991 60.1905 167.034 60.1905 198.369C60.1905 242.377 55.251 262.175 58.7086 271.075C62.1662 279.976 68.5875 280.47 67.5996 289.371C66.6117 298.272 122.921 287.393 142.697 300.744C162.455 314.095 157.022 333.379 149.613 346.236L149.594 346.217Z" fill="#152D40"/>
<path d="M130.751 339.734C130.751 339.734 57.1536 353.58 28.9805 337.262C15.2049 329.277 5.91147 306.403 0.313435 280.763C-1.36963 242.249 4.10034 198.058 7.79577 181.044C14.217 151.376 38.4203 140.497 38.4203 140.497C38.4203 140.497 40.2314 141.633 42.8109 144.343C39.1887 146.211 26.2181 155.24 16.1379 191.868C4.28328 234.905 17.1258 312.044 30.9563 322.446C44.7867 332.83 129.269 325.907 129.269 325.907L130.751 339.771V339.734Z" fill="#2867A4"/>
<path d="M143.612 311.11C143.612 311.11 154.168 307.776 156.217 304.626C158.247 301.476 165.474 295.177 171.968 292.942C178.444 290.708 183.64 287.558 187.354 289.426C191.067 291.276 184.39 296.111 179.944 297.026C175.499 297.96 170.505 302.411 171.602 302.777C172.718 303.143 184.024 298.693 191.982 297.777C199.94 296.843 206.069 295.927 212.728 297.777C219.405 299.627 216.057 304.077 212.545 304.645C209.032 305.194 204.953 305.011 202.172 305.396C199.391 305.762 195.312 308.179 195.312 308.179C195.312 308.179 204.568 307.429 211.246 308.179C217.923 308.93 220.686 309.663 220.686 312.08C220.686 314.498 214.392 315.413 209.014 315.413C203.635 315.413 195.495 317.446 195.495 317.446C195.495 317.446 206.617 317.263 211.795 319.113C216.972 320.963 216.057 323.197 211.795 324.113C207.532 325.047 203.087 323.563 197.891 324.863C192.696 326.164 195.659 326.53 198.824 326.53C201.989 326.53 207.166 327.647 208.081 329.131C209.014 330.614 205.117 333.031 195.11 332.281C185.103 331.53 176.212 334.515 169.535 336.181C162.858 337.848 152.485 339.148 145.643 337.482C138.782 335.815 133.605 322.08 143.612 311.146V311.11Z" fill="#E1964F"/>
</svg>
