<svg width="547" height="701" viewBox="0 0 547 701" fill="none" xmlns="http://www.w3.org/2000/svg">
<path d="M128.932 632.477C128.932 632.477 122.025 646.884 106.013 643.214C84.5934 653.929 75.0985 631.604 75.0985 631.604C75.0985 631.604 46.8116 642.084 41.7909 619.094C21.3471 612.587 15.8271 597.617 18.5277 585.148C4.68646 571.742 15.5028 542.974 15.5028 542.974C15.5028 542.974 -9.22027 530.758 3.77609 508.084C-7.23969 484.518 19.1763 460.519 19.1763 460.519C19.1763 460.519 9.29615 439.22 26.4105 428.062C27.5568 403.869 38.189 391.447 66.6311 395.096C83.9266 362.313 110.002 376.796 110.002 376.796C110.002 376.796 128.509 341.538 152.606 359.382C188.103 352.196 194.602 379.846 194.602 379.846C194.602 379.846 218.954 370.231 227.709 394.038C251.401 405.868 250.734 420.86 247.693 430.271C263.443 430.91 265.984 452.987 259.269 461.595C269.167 471.165 267.952 485.349 259.703 496.337C259.703 496.337 264.69 511.013 255.813 523.848C259.556 545.527 236.525 557.983 236.525 557.983C236.525 557.983 239.696 579.511 229.461 591.091C224.155 607.845 203.893 620.767 203.893 620.767C203.893 620.767 191.475 641.898 179.768 638.674C164.345 649.296 147.171 643.432 147.604 638.318C148.036 633.204 129.664 645.065 128.931 632.477H128.932Z" fill="#0E0E0E"/>
<path d="M409.846 519.494L350.935 521.598L312.301 447.034C279.596 426.201 237.682 462.483 280.264 495.615C280.264 495.615 302.909 553.528 327.069 564.563C335.407 568.372 377.929 558.906 414.539 549.608L409.847 519.492L409.846 519.494Z" fill="#C27761"/>
<path d="M317.233 525.006C317.233 525.006 303.495 484.209 315.89 469.645C324.835 459.134 329.174 461.774 329.174 461.774C329.174 461.774 307.523 420.776 269.755 442.986C231.987 465.196 317.231 525.008 317.231 525.008L317.233 525.006Z" fill="#5640AD"/>
<path d="M198.842 697.231C195.686 769.77 218.428 868.177 234.1 916.798C211.282 975.879 219.738 1052.58 243.13 1148.11L271.271 1146.78L288.327 912.761L309.79 679.963L198.84 697.229L198.842 697.231Z" fill="#0E0E0E"/>
<path d="M265.661 686.831C288.999 770.261 323.468 844.616 352.307 909.082C342.965 971.719 367.992 1044.72 411.713 1132.82L438.882 1125.38L404.341 893.294L374.735 693.2L265.661 686.831Z" fill="#0E0E0E"/>
<path d="M198.842 697.231C198.842 697.231 202.824 620.013 272.292 602.087C341.761 584.164 368.344 657.486 374.733 693.2C385.303 752.287 194.836 779.558 198.842 697.231Z" fill="#0E0E0E"/>
<path d="M335.651 611.702C303.395 552.93 360.951 508.227 320.517 475.833C314.421 454.014 274.823 464.221 236.343 474.33C194.551 485.308 144.289 488.313 165.587 529.446C198.657 567.766 218.214 600.004 221.235 641.054C238.31 661.544 335.355 634.405 335.651 611.703V611.702Z" fill="#FFFAD9"/>
<path d="M203.886 460.499C204.775 461.115 221.817 465.207 259.15 453.307C271.78 435.508 290.99 435.315 301.016 441.165C314.906 449.272 323.678 470.372 322.314 507.659C322.062 560.902 200.567 566.342 171.965 536.967C115.95 479.436 169.127 436.439 203.886 460.498V460.499Z" fill="#FFFAD9"/>
<path d="M269.241 464.381C270.758 474.115 271.426 482.785 270.781 486.063C270.781 486.063 225.073 471.12 197.401 456.858L171.075 420.323L227.103 411.603C231.077 416.283 234.818 420.487 238.347 424.433C243.406 430.081 248.05 435.191 252.397 440.381C258.486 447.647 263.986 455.078 269.243 464.379L269.241 464.381Z" fill="#C27761"/>
<path d="M252.395 440.383L192.93 437.072L238.068 424.18L238.343 424.434C243.402 430.082 248.047 435.193 252.393 440.383H252.395Z" fill="#9E604F"/>
<path d="M258.765 451.163C258.765 451.163 298.692 466.505 307.858 492.088C313.32 507.335 322.801 600.686 330.141 627.844C337.48 655.002 357.442 748.45 357.442 748.45C377.889 748.126 394.515 740.737 406.998 733.241C406.998 733.241 382.322 668.676 344.274 567.453C344.002 545.749 342.339 523.062 336.531 488.597C330.842 454.83 297.488 424.305 269.755 442.985L258.763 451.163H258.765Z" fill="#ED3424"/>
<path d="M197.397 456.857C197.397 456.857 171.337 443.829 153.474 468.729C135.609 493.629 159.949 534.714 159.949 534.714C159.949 534.714 185.917 595.564 184.583 612.339C183.251 629.114 118.714 706.071 117.913 773.158C146.302 786.038 278.374 768.446 278.374 768.446C278.374 768.446 277.882 604.222 250.71 550.912C233.322 516.796 197.395 456.858 197.395 456.858L197.397 456.857Z" fill="#ED3424"/>
<path d="M233.084 357.713C233.084 357.713 233.833 352.429 231.597 346.729C229.361 341.03 218.867 338 218.867 338C218.867 338 219.698 332.034 211.829 324.055C203.96 316.076 196.98 320.521 196.98 320.521C194.78 314.502 190.903 307.65 173.665 312.566C164.422 304.227 154.745 315.815 154.745 315.815C154.745 315.815 154.576 315.78 154.277 315.728C156.211 318.893 158.699 321.712 161.083 324.588C163.383 324.306 168.462 323.622 175.998 322.257C180.63 330.589 195.059 329.257 195.059 329.257C195.059 329.257 204.38 345.756 210.433 346.331C217.398 346.644 218.683 358.36 226.243 363.653C234.257 377.037 243.217 378.631 243.64 370.525C244.064 362.418 233.086 357.712 233.086 357.712L233.084 357.713Z" fill="#0E0E0E"/>
<path d="M223.276 349.859C246.944 375.299 252.183 412.67 238.067 424.182C226.854 433.574 206.701 442.603 189.23 443.345C172.915 444.039 157.005 436.714 144.26 422.951C117.865 394.448 114.158 354.981 135.976 334.796C157.796 314.613 198.911 316.015 223.274 349.858L223.276 349.859Z" fill="#C27761"/>
<path d="M212.863 376.501C212.709 376.501 212.558 376.43 212.462 376.296C212.304 376.075 212.354 375.768 212.575 375.61C212.786 375.457 217.728 371.827 215.542 367.369C213.376 362.952 202.87 367.456 202.763 367.501C202.514 367.609 202.224 367.495 202.116 367.247C202.008 366.999 202.122 366.709 202.37 366.601C202.838 366.397 213.848 361.681 216.425 366.937C217.489 369.105 217.248 371.44 215.731 373.691C214.613 375.348 213.208 376.366 213.149 376.408C213.062 376.471 212.962 376.501 212.863 376.501Z" fill="#6E4437"/>
<path d="M177.58 377.235C178.514 376.185 177.503 373.762 175.322 371.823C173.141 369.885 170.615 369.164 169.681 370.214C168.746 371.263 169.757 373.686 171.939 375.625C174.12 377.564 176.645 378.285 177.58 377.235Z" fill="#0E0E0E"/>
<path d="M157.903 370.7C157.776 370.7 157.651 370.643 157.569 370.535C157.396 370.31 153.366 364.963 156.56 360.641C159.767 356.301 164.596 358.41 164.645 358.433C164.857 358.529 164.951 358.777 164.855 358.99C164.759 359.201 164.51 359.296 164.298 359.2C164.126 359.124 160.034 357.354 157.236 361.141C154.419 364.951 158.196 369.974 158.236 370.024C158.378 370.208 158.342 370.473 158.158 370.613C158.082 370.671 157.992 370.7 157.903 370.7Z" fill="#59372D"/>
<path d="M205.431 351.972C206.365 350.922 205.354 348.499 203.173 346.56C200.991 344.621 198.466 343.9 197.532 344.95C196.597 346 197.608 348.423 199.79 350.362C201.971 352.301 204.496 353.022 205.431 351.972Z" fill="#0E0E0E"/>
<path d="M188.088 347.501C187.961 347.501 187.837 347.444 187.754 347.336C187.581 347.111 183.551 341.764 186.745 337.442C189.953 333.102 194.783 335.213 194.83 335.234C195.042 335.33 195.136 335.578 195.04 335.791C194.944 336.002 194.695 336.097 194.483 336.001C194.311 335.925 190.219 334.155 187.421 337.942C184.605 341.752 188.382 346.775 188.421 346.825C188.563 347.009 188.528 347.274 188.344 347.415C188.267 347.473 188.178 347.502 188.088 347.502V347.501Z" fill="#59372D"/>
<path d="M153.794 313.538C148.527 313.348 139.878 314.26 134.705 321.304C123.15 322.517 119.982 327.05 112.972 341.424C105.604 349.269 104.6 357.868 111.07 365.09C106.569 371.133 103.411 387.403 113.518 394.049C110.192 400.759 112.142 413.195 127.859 422.464C136.125 438.843 148.161 431.099 148.161 431.099C145.182 437.62 150.813 456.578 164.785 447.823C173.454 442.391 175.096 433.171 168.582 425.836C168.058 419.81 161.502 413.47 154.963 412.154C158.133 408.46 153.4 396.587 145.162 388.579C147.462 375.678 135.054 372.708 135.054 372.708C135.054 372.708 142.391 363.138 137.837 354.112C146.015 345.375 136.433 336.368 136.433 336.368C141.559 337.953 143.567 331.375 152.404 331.4C158.241 331.417 162.276 326.99 163.537 324.484C167.487 317.814 161.686 314.015 153.792 313.538H153.794Z" fill="#0E0E0E"/>
<path d="M221.703 416.146C217.247 418.739 210.364 415.853 200.592 407.624C197.803 405.272 194.783 402.492 191.509 399.274C213.356 396.602 227.838 378.683 227.838 378.683C228.068 379.283 228.283 379.885 228.48 380.469C235.715 401.488 227.279 412.901 221.703 416.146Z" fill="#B01C25"/>
<path d="M228.48 380.469C229.021 386.414 215.129 399.148 196.875 404.362C195.165 402.807 193.378 401.112 191.509 399.274C213.356 396.602 227.838 378.683 227.838 378.683C228.068 379.283 228.283 379.885 228.48 380.469Z" fill="#FFD1C4"/>
<path d="M183.381 392.064C186.155 389.54 187.243 386.221 185.813 384.651C184.382 383.081 180.974 383.854 178.201 386.378C175.428 388.902 174.339 392.221 175.77 393.791C177.2 395.361 180.608 394.588 183.381 392.064Z" fill="#EB7755"/>
<path d="M222.75 360.118C224.44 358.58 224.856 356.284 223.678 354.991C222.5 353.698 220.175 353.897 218.484 355.436C216.794 356.974 216.379 359.269 217.557 360.562C218.735 361.855 221.06 361.656 222.75 360.118Z" fill="#EB7755"/>
<path d="M149.143 397.985C140.619 397.587 135.588 405.658 141.568 412.166C148.776 420.011 160.955 416.362 160.955 416.362C166.983 411.831 155.898 393.046 149.144 397.985H149.143Z" fill="#C27761"/>
<path d="M166.466 442.224C164.674 442.224 162.876 441.938 161.126 441.361C156.808 439.94 153.304 436.923 151.256 432.867C148.604 427.611 148.837 421.461 151.882 416.413L153.092 417.141C150.3 421.77 150.086 427.412 152.518 432.231C154.395 435.951 157.609 438.717 161.569 440.019C165.527 441.323 169.757 441.007 173.478 439.131C181.16 435.257 184.258 425.86 180.382 418.182C176.506 410.505 167.104 407.408 159.422 411.282L158.786 410.022C167.163 405.798 177.418 409.175 181.644 417.548C185.87 425.921 182.492 436.168 174.114 440.392C171.701 441.608 169.094 442.224 166.468 442.224H166.466Z" fill="white"/>
<path d="M489.823 361.022L261.617 396.535L286.445 555.904L514.65 520.391L489.823 361.022Z" fill="#DE942F"/>
<path d="M441.825 519.316L437.253 489.97L437.899 489.869L496.814 480.701L501.386 510.046L500.74 510.147L441.825 519.316ZM438.747 491.061L442.917 517.823L499.894 508.956L495.724 482.193L438.747 491.061Z" fill="#8C6834"/>
<path d="M389.825 376.584L351.855 382.492L356.18 410.252L394.15 404.343L389.825 376.584Z" fill="#FFE7C4"/>
<path d="M355.005 492.917L292.977 502.569L298.947 540.893L360.976 531.24L355.005 492.917Z" fill="#FFE7C4"/>
<path d="M527.042 355.229L489.824 361.021L514.652 520.39L551.87 514.598L527.042 355.229Z" fill="#B57826"/>
<path d="M351.656 310.702L536.178 281.987L515.142 146.956L330.62 175.671L351.656 310.702Z" fill="#DE942F"/>
<path d="M361.153 296.826L356.582 267.482L416.141 258.212L420.713 287.557L361.153 296.826ZM358.072 268.571L362.242 295.336L419.221 286.469L415.051 259.703L358.072 268.571Z" fill="#FFE7C4"/>
<path d="M415.957 190.822L453.926 184.914L449.602 157.155L411.632 163.063L415.957 190.822Z" fill="#FFE7C4"/>
<path d="M314.438 316.497L351.656 310.705L330.62 175.674L293.402 181.466L314.438 316.497Z" fill="#B57826"/>
<g style="mix-blend-mode:soft-light" opacity="0.8">
<path d="M330.632 175.839L305.039 256.242L293.415 181.632L330.632 175.839Z" fill="black"/>
</g>
<path d="M488.406 289.699L351.578 310.992L362.46 380.841L499.288 359.548L488.406 289.699Z" fill="#D4D4D4"/>
<path d="M351.579 310.992L275.884 322.771L286.766 392.62L362.46 380.841L351.579 310.992Z" fill="white"/>
<path d="M463.989 347.916L455.028 349.311L456.423 358.267L465.384 356.872L463.989 347.916Z" fill="#B0B0B0"/>
<path d="M477.631 345.793L468.671 347.188L470.066 356.144L479.027 354.749L477.631 345.793Z" fill="#B0B0B0"/>
<path d="M491.141 343.691L482.18 345.086L483.575 354.041L492.536 352.647L491.141 343.691Z" fill="#B0B0B0"/>
<path d="M310.242 317.424L309.456 317.546L320.338 387.395L321.123 387.273L310.242 317.424Z" fill="#353535"/>
<path d="M422.868 299.898L422.083 300.02L432.965 369.869L433.75 369.747L422.868 299.898Z" fill="#353535"/>
<g style="mix-blend-mode:soft-light" opacity="0.8">
<path d="M351.583 310.987L493.85 324.617L488.409 289.693L351.583 310.987Z" fill="black"/>
</g>
<path d="M299.384 200.888L299.57 200.02C299.596 199.898 302.213 187.783 306.574 181.255C311.216 174.309 313.827 174.666 315.957 176.089C318.086 177.512 319.419 179.785 314.777 186.731C310.414 193.259 300.22 200.315 300.117 200.385L299.384 200.888ZM313.585 175.961C312.104 175.961 310.138 177.197 307.164 181.647C303.565 187.033 301.162 196.347 300.47 199.265C302.902 197.508 310.589 191.723 314.189 186.336C318.7 179.587 317.264 177.811 315.565 176.676C314.987 176.29 314.351 175.961 313.586 175.961H313.585Z" fill="black"/>
<path d="M286.769 251.957L257.553 232.454L281.695 196.327L294.985 191.622L309.785 201.502L310.912 215.83L286.769 251.957Z" fill="#F13005"/>
<path d="M288.312 217.458C286.758 219.784 283.669 220.352 281.341 218.798C279.014 217.245 278.356 214.176 279.91 211.85C281.465 209.523 284.554 208.954 286.881 210.509C289.209 212.063 289.867 215.132 288.312 217.458ZM282.163 217.569C283.795 218.658 285.956 218.205 287.027 216.601C288.099 214.998 287.691 212.829 286.059 211.74C284.427 210.651 282.267 211.103 281.194 212.708C280.122 214.313 280.53 216.48 282.163 217.571V217.569ZM297.236 216.842L297.745 218.109L271.99 229.148L271.481 227.88L297.236 216.842ZM289.85 234.496C288.296 236.823 285.207 237.392 282.879 235.837C280.551 234.283 279.894 231.214 281.448 228.886C283.002 226.56 286.091 225.992 288.419 227.546C290.747 229.099 291.404 232.168 289.85 234.495V234.496ZM283.701 234.607C285.333 235.697 287.493 235.243 288.565 233.64C289.637 232.036 289.229 229.868 287.597 228.778C285.965 227.689 283.805 228.142 282.733 229.746C281.661 231.351 282.069 233.518 283.701 234.607Z" fill="white"/>
<path d="M373.213 66.5714L224.63 89.6937L240.271 190.1L388.855 166.978L373.213 66.5714Z" fill="#DE942F"/>
<path d="M403.876 61.8002L373.212 66.572L388.854 166.978L419.518 162.206L403.876 61.8002Z" fill="#B57826"/>
<path d="M375.763 71.0526L225.37 94.4565L225.559 95.6683L375.952 72.2644L375.763 71.0526Z" fill="#B57826"/>
<path d="M370.902 38.3936L217.201 62.3122L222.276 94.8838L375.976 70.9652L370.902 38.3936Z" fill="#DE942F"/>
<path d="M402.625 33.4584L370.904 38.3948L375.978 70.9664L407.699 66.03L402.625 33.4584Z" fill="#B57826"/>
<path d="M311.513 180.098C310.986 180.098 310.523 179.715 310.439 179.178L290.455 50.909C290.362 50.3156 290.769 49.7587 291.363 49.6674C291.956 49.5746 292.512 49.9808 292.605 50.5742L312.589 178.843C312.682 179.436 312.275 179.993 311.682 180.084C311.625 180.094 311.569 180.098 311.513 180.098Z" fill="white"/>
<path d="M406.747 165.277C406.22 165.277 405.757 164.893 405.673 164.356L385.689 36.0877C385.596 35.4943 386.003 34.9374 386.597 34.8462C387.19 34.7533 387.746 35.1596 387.839 35.753L407.823 164.022C407.916 164.615 407.509 165.172 406.916 165.263C406.859 165.272 406.803 165.277 406.747 165.277Z" fill="white"/>
<path d="M293.632 48.4898C287.671 48.4898 280.574 48.2783 273.476 47.5708C263.048 46.5331 254.64 44.6448 248.484 41.9578C240.522 38.4826 236.247 33.635 235.781 27.5519C235.52 24.136 236.565 21.6742 238.892 20.2363C242.166 18.2127 247.788 18.3831 256.081 20.7597C262.432 22.581 270.311 25.7078 279.499 30.0548C295.098 37.4358 309.294 45.9092 309.436 45.9929C309.843 46.2364 310.045 46.7156 309.937 47.1767C309.827 47.6377 309.433 47.9755 308.96 48.0105C308.854 48.0181 302.5 48.4867 293.634 48.4867L293.632 48.4898ZM244.946 21.0291C242.477 21.0291 240.962 21.5144 240.036 22.088C238.436 23.077 237.754 24.8101 237.952 27.3876C238.353 32.6034 242.186 36.8348 249.347 39.9615C255.29 42.5573 263.473 44.3892 273.668 45.4056C286.421 46.6761 299.183 46.3337 305.212 46.0492C300.194 43.1629 289.735 37.3065 278.555 32.0176C269.477 27.7223 261.712 24.6397 255.475 22.8519C250.786 21.5083 247.397 21.0306 244.948 21.0306L244.946 21.0291Z" fill="white"/>
<path d="M308.876 48.0166C308.5 48.0166 308.143 47.8218 307.942 47.4886C307.699 47.0824 307.746 46.565 308.058 46.209C308.168 46.0857 319.113 33.6989 331.729 21.9268C339.16 14.9931 345.714 9.62059 351.211 5.9552C358.386 1.17149 363.69 -0.701522 367.427 0.232702C370.079 0.896092 371.825 2.92278 372.615 6.25647C374.022 12.1935 371.425 18.1092 364.897 23.8409C359.85 28.2716 352.414 32.6262 342.795 36.7831C326.511 43.8217 309.299 47.9451 309.127 47.9861C309.043 48.0059 308.958 48.0151 308.876 48.0151V48.0166ZM365.48 2.18331C363.072 2.18331 359.043 3.35033 352.42 7.76583C347.021 11.3658 340.559 16.6653 333.215 23.5183C324.175 31.9537 315.999 40.7041 312.1 44.9765C317.929 43.4139 330.19 39.8642 341.953 34.7777C351.357 30.7106 358.596 26.4792 363.467 22.2007C369.338 17.0442 371.703 11.8496 370.498 6.75857C369.902 4.24347 368.726 2.79953 366.9 2.34459C366.506 2.24569 366.036 2.18331 365.48 2.18331Z" fill="white"/>
<path d="M368.912 134.069L321.383 141.466L325.376 167.099L372.905 159.703L368.912 134.069Z" fill="#FFE7C4"/>
<path d="M339.436 50.8375C337.455 50.8375 335.514 50.7158 333.793 50.4054C325.569 48.9204 324.856 46.384 325.312 43.8643C325.767 41.3447 327.323 39.2191 335.546 40.7041C343.275 42.1009 353.815 48.6313 353.92 48.6982L354.675 49.1684L353.804 49.3449C353.71 49.3647 346.343 50.8375 339.436 50.8375ZM330.836 40.9125C326.968 40.9125 326.286 42.4554 326.009 43.9906C325.645 46.0006 325.927 48.2661 333.919 49.7085C340.298 50.8604 349.8 49.3495 352.754 48.8215C350.17 47.2923 341.799 42.5528 335.42 41.401C333.532 41.0601 332.031 40.9125 330.836 40.9125Z" fill="black"/>
<path d="M406.566 40.3724L400.318 74.928L357.541 67.2016L347.928 56.8963L351.093 39.391L363.791 32.646L406.566 40.3724Z" fill="#F13005"/>
<path d="M374.295 52.712C377.049 53.2096 378.803 55.8144 378.305 58.5669C377.807 61.3209 375.254 63.1467 372.499 62.6492C369.745 62.1516 367.991 59.5468 368.489 56.7943C368.986 54.0418 371.541 52.2145 374.295 52.712ZM376.848 58.3037C377.197 56.3728 375.921 54.5744 374.021 54.2305C372.121 53.8866 370.294 55.1267 369.946 57.056C369.597 58.9868 370.873 60.7868 372.773 61.1292C374.672 61.473 376.499 60.233 376.848 58.3021V58.3037ZM370.171 44.7787L371.131 43.808L391.528 63.0144L390.567 63.9851L370.171 44.7787ZM389.314 44.5109C392.07 45.0085 393.822 47.6133 393.324 50.3658C392.827 53.1198 390.274 54.9456 387.518 54.4481C384.764 53.9506 383.01 51.3457 383.508 48.5932C384.006 45.8408 386.559 44.0134 389.314 44.5109ZM391.867 50.1026C392.216 48.1733 390.94 46.3733 389.04 46.0294C387.141 45.6856 385.314 46.9256 384.965 48.8549C384.616 50.7858 385.894 52.5842 387.792 52.9281C389.692 53.2719 391.517 52.0334 391.867 50.1026Z" fill="white"/>
<path d="M449.738 392.703L448.951 392.289C448.841 392.231 437.888 386.422 432.788 380.451C427.363 374.099 428.416 371.684 430.365 370.023C431.214 369.298 432.42 368.536 434.215 369.087C435.889 369.601 437.876 371.225 440.29 374.05C445.39 380.021 449.412 391.744 449.452 391.863L449.738 392.704V392.703ZM433.032 369.604C432.28 369.604 431.582 369.913 430.824 370.56C429.27 371.885 428.054 373.817 433.327 379.99C437.536 384.917 445.848 389.758 448.472 391.219C447.441 388.401 443.959 379.435 439.751 374.51C437.428 371.789 435.548 370.237 434.006 369.762C433.667 369.657 433.344 369.604 433.032 369.604Z" fill="black"/>
<path d="M495.481 418.719L468.76 441.518L440.537 408.476L439.621 394.416L453.156 382.866L467.258 385.678L495.481 418.719Z" fill="#F13005"/>
<path d="M462.683 407.857C464.501 409.984 464.208 413.109 462.079 414.926C459.949 416.743 456.816 416.542 454.998 414.413C453.18 412.286 453.473 409.161 455.602 407.344C457.731 405.528 460.865 405.73 462.683 407.857ZM461.118 413.802C462.61 412.528 462.762 410.328 461.508 408.86C460.255 407.392 458.055 407.197 456.563 408.47C455.07 409.744 454.919 411.945 456.172 413.412C457.425 414.881 459.625 415.075 461.116 413.802H461.118ZM464.514 399.107L465.872 398.962L469.499 426.735L468.141 426.879L464.514 399.107ZM479.505 411.01C481.323 413.138 481.03 416.262 478.902 418.079C476.772 419.896 473.639 419.695 471.822 417.566C470.004 415.439 470.296 412.314 472.426 410.497C474.554 408.68 477.689 408.883 479.506 411.01H479.505ZM477.94 416.954C479.432 415.681 479.584 413.481 478.33 412.012C477.077 410.546 474.877 410.349 473.385 411.623C471.892 412.896 471.741 415.098 472.995 416.565C474.248 418.033 476.447 418.229 477.94 416.954Z" fill="white"/>
<path d="M405.555 537.258L409.174 557.01C409.174 557.01 430.966 559.267 441.041 555.702C451.116 552.137 476.39 526.278 466.148 527.928C446.468 531.095 405.555 537.258 405.555 537.258Z" fill="#C27761"/>
<path d="M173.432 528.104C173.432 528.104 242.255 576.793 267.448 588.302C283.265 595.528 417.079 556.936 417.079 556.936L413.179 539.178L292.337 543.496L210.781 472.267C171.945 448.698 130.82 496.442 173.432 528.104Z" fill="#C27761"/>
<path d="M183.079 541.635C183.079 541.635 182.68 517.608 196.716 502.293C210.752 486.977 226.748 486.213 226.748 486.213C226.748 486.213 185.2 433.636 155.681 468.315C127.003 502.007 183.079 541.637 183.079 541.637V541.635Z" fill="#ED3424"/>
<path d="M191.094 540.389C191.094 540.389 189.012 543.937 185.031 543.881C181.05 543.825 178.203 539.954 178.203 539.954C178.203 539.954 170.827 521.428 187.301 499.706C203.774 477.985 222.485 479.215 225.898 480.755C229.312 482.295 233.063 488.692 231.417 490.289C231.417 490.289 215.17 487.948 200.61 506.436C186.051 524.926 189.053 538.986 191.096 540.387L191.094 540.389Z" fill="#FFC7C2"/>
</svg>
