<svg width="369" height="450" viewBox="0 0 369 450" fill="none" xmlns="http://www.w3.org/2000/svg">
<g clip-path="url(#clip0_801_636)">
<path d="M155.92 443.712L10.8954 360.054C-5.23574 350.749 -3.21934 334.487 15.4184 323.746L150.138 246.032C168.765 235.291 196.949 234.122 213.081 243.427L358.105 327.085C374.236 336.39 372.22 352.652 353.582 363.393L218.862 441.107C200.236 451.848 172.051 453.017 155.92 443.712Z" fill="#414B4D"/>
<path style="mix-blend-mode:screen" d="M323.412 344.973C323.653 300.639 261.547 264.363 184.696 263.948C107.845 263.532 45.3498 299.135 45.1097 343.468C44.8696 387.802 106.975 424.078 183.826 424.493C260.678 424.909 323.172 389.306 323.412 344.973Z" fill="url(#paint0_radial_801_636)"/>
<path d="M80.4554 207.464L169.01 156.385V54.8516L80.4554 105.941V207.464Z" fill="#AAB6C0"/>
<path d="M84.6441 200.24L164.81 153.992V62.0752L84.6441 108.323V200.24Z" fill="#012A3A"/>
<path d="M157.491 66.2937V149.773L84.6441 191.791V200.24L164.81 153.992V62.0752L157.491 66.2937Z" fill="#7D8E9E"/>
<path d="M50.5548 123.183V224.705L88.8329 202.622V101.1L50.5548 123.183ZM84.6441 200.24L54.7436 217.493V125.576L84.6441 108.323V200.24Z" fill="#AAB6C0"/>
<path d="M54.7436 217.492L84.6441 200.24V108.323L54.7436 125.576V217.492Z" fill="#3B637D"/>
<path d="M82.2044 109.737V198.837L54.7436 214.676V217.492L84.6441 200.24V108.323L82.2044 109.737Z" fill="#7D8E9E"/>
<path d="M44.6839 73.0169L171.26 0V40.1148L44.6839 113.132V73.0169Z" fill="#BEC3C7"/>
<path d="M45.8759 74.0629L170.068 2.41504V39.0682L45.8759 110.716V74.0629Z" fill="#4C9F29"/>
<path d="M68.279 79.3066C68.279 82.4899 67.5883 85.3282 66.2181 87.8215C64.8478 90.3147 62.8537 92.3071 60.2692 93.7986L56.1138 96.1917V76.8356L60.7148 74.1753C63.1099 72.7951 64.9704 72.5503 66.2961 73.463C67.6218 74.3646 68.279 76.3124 68.279 79.3066ZM65.0483 81.2767C65.0483 77.1249 63.6558 75.8449 60.8707 77.4477L59.2108 78.405V91.016L60.5477 90.248C63.5444 88.5227 65.0372 85.5286 65.0372 81.2878L65.0483 81.2767Z" fill="#BEC3C7"/>
<path d="M81.2352 81.6882L72.7909 86.5634V67.2072L81.2352 62.332V65.6935L75.899 68.7767V73.0286L80.8676 70.168V73.5294L75.899 76.39V81.3877L81.2352 78.3045V81.6882Z" fill="#BEC3C7"/>
<path d="M85.7804 79.072V59.7159L88.8886 57.9238V73.8963L94.8375 70.468V73.8517L85.7804 79.0831V79.072Z" fill="#BEC3C7"/>
<path d="M98.8591 71.5261V52.17L101.967 50.3779V69.7341L98.8591 71.5261Z" fill="#BEC3C7"/>
<path d="M115.514 42.5643L118.655 40.75L113.665 62.989L110.278 64.948L105.298 48.4524L108.44 46.6381L111.203 56.5666C111.359 57.1565 111.515 57.8578 111.682 58.6703C111.849 59.4828 111.949 60.0505 111.982 60.3844C112.06 59.5274 112.305 57.9691 112.74 55.6873L115.514 42.5643Z" fill="#BEC3C7"/>
<path d="M130.42 53.3269L121.975 58.2021V38.8459L130.42 33.9707V37.3322L125.083 40.4153V44.6672L130.052 41.8067V45.1681L125.083 48.0287V53.0263L130.42 49.9431V53.338V53.3269Z" fill="#BEC3C7"/>
<path d="M138.073 41.4846V48.9088L134.965 50.7008V31.3446L139.243 28.8848C141.237 27.7383 142.707 27.3599 143.665 27.7717C144.623 28.1835 145.103 29.3523 145.103 31.3112C145.103 32.4466 144.869 33.6042 144.39 34.7617C143.91 35.9193 143.242 37.0101 142.373 38.0119C144.579 41.0951 146.016 43.0763 146.684 43.9556L143.231 45.948L139.733 40.5385L138.073 41.4958V41.4846ZM138.073 38.1455L139.076 37.5667C140.056 36.999 140.78 36.3646 141.248 35.6633C141.716 34.9621 141.95 34.1496 141.95 33.2146C141.95 32.2796 141.716 31.7787 141.237 31.6674C140.758 31.5561 140.023 31.7899 139.02 32.3687L138.073 32.9141V38.1455Z" fill="#BEC3C7"/>
<path d="M154.572 28.0051L157.635 18.2658L160.989 16.3291L156.12 30.9659V38.5013L153.034 40.2822V32.8803L148.166 23.731L151.542 21.7831L154.583 28.0051H154.572Z" fill="#BEC3C7"/>
<path d="M50.5548 224.717V234.033L169.01 165.702V156.386L50.5548 224.717Z" fill="#7D8E9E"/>
<path d="M159.396 388.938L281.226 318.659C292.11 312.381 290.74 301.418 278.173 294.171C265.607 286.925 246.602 286.135 235.718 292.413L113.887 362.692C103.003 368.969 104.374 379.933 116.94 387.179C129.506 394.425 148.511 395.215 159.396 388.938Z" fill="#2D383A"/>
<path d="M251.76 293.37C251.76 294.973 252.083 296.331 252.617 297.366C254.121 300.149 257.33 300.794 261.04 298.646C266.142 295.719 270.319 288.551 270.319 282.674C270.319 278.466 268.147 276.04 265.006 276.151C263.791 276.185 262.477 276.574 261.04 277.398C255.937 280.359 251.76 287.527 251.76 293.37Z" fill="#676A68"/>
<path d="M264.582 275.772C264.337 275.939 264.081 276.106 263.836 276.273C264.994 275.605 266.075 275.194 267.156 275.116V275.038C267.156 274.871 267.156 274.704 267.078 274.626C266.242 274.96 265.418 275.294 264.593 275.784L264.582 275.772Z" fill="#4C4C4C"/>
<path d="M250.813 299.481C250.813 300.394 250.891 301.307 251.058 302.13C251.804 301.885 252.629 301.463 253.464 301.051C252.64 299.726 252.139 297.99 252.139 295.83C252.139 294.918 252.216 294.005 252.384 293.092C252.462 292.18 252.718 291.189 253.052 290.276C253.297 289.364 253.631 288.451 254.043 287.538C251.971 291.434 250.813 295.663 250.813 299.47V299.481Z" fill="#4C4C4C"/>
<path d="M240.33 312.526C240.987 312.893 242.257 313.728 242.257 313.728L249.643 317.958L250.557 316.299L254.623 309.164C254.957 308.997 255.202 308.831 255.447 308.664C265.741 301.696 273.951 287.604 275.032 275.338V275.261C275.11 274.593 275.11 273.847 275.11 273.19L278.095 267.803L279.588 265.154L272.536 261.091C272.536 261.091 271.122 260.312 270.42 259.978C267.557 258.587 263.312 259.511 257.519 262.839C245.655 269.64 236.03 286.302 236.03 299.971C236.03 306.782 237.456 310.912 240.319 312.526H240.33ZM252.127 295.83C252.127 293.181 252.796 290.276 254.032 287.538C254.277 287.037 254.445 286.547 254.779 286.046C256.684 282.807 259.09 279.913 261.741 277.676C262.321 277.264 262.9 276.763 263.479 276.518C263.557 276.44 263.646 276.351 263.724 276.351C263.724 276.273 263.802 276.273 263.802 276.273C266.287 274.949 268.448 274.693 270.275 275.283C271.266 276.363 271.857 278.021 272.013 280.091C272.091 280.425 272.091 280.837 272.091 281.249C272.091 288.295 267.111 296.91 260.895 300.483C258.243 302.052 255.748 302.386 253.843 301.729C253.765 301.729 253.765 301.64 253.765 301.64C252.773 300.316 252.105 298.323 252.105 295.841L252.127 295.83Z" fill="url(#paint1_linear_801_636)"/>
<path d="M243.015 303.956C243.015 307.684 243.761 310.834 245.009 313.239C248.496 319.706 255.96 321.197 264.582 316.222C276.447 309.432 286.15 292.758 286.15 279.09C286.15 269.306 281.092 263.674 273.784 263.919C270.966 263.997 267.891 264.909 264.571 266.824C252.707 273.703 243.003 290.365 243.003 303.956H243.015ZM254.055 287.549C254.3 287.048 254.467 286.558 254.801 286.058C256.706 282.819 259.112 279.925 261.764 277.687C262.432 277.186 263.178 276.697 263.836 276.274C266.32 274.949 268.481 274.693 270.308 275.283C271.467 276.608 272.135 278.678 272.135 281.249C272.135 288.295 267.156 296.91 260.939 300.483C258.288 302.052 255.792 302.386 253.887 301.73C253.809 301.73 253.809 301.64 253.809 301.64C252.818 300.316 252.15 298.324 252.15 295.841C252.15 293.192 252.818 290.287 254.055 287.549Z" fill="url(#paint2_linear_801_636)"/>
<path d="M245.421 304.033C245.421 307.517 246.078 310.511 247.404 312.748C248.239 314.229 249.32 315.475 250.568 316.31C254.222 318.881 259.513 318.792 265.34 315.397C276.291 309.02 285.247 293.682 285.247 281.16C285.247 274.114 282.507 269.472 278.107 267.825C277.026 267.413 275.867 267.146 274.62 267.146C271.89 266.99 268.726 267.892 265.34 269.806C254.378 276.106 245.432 291.433 245.432 304.044L245.421 304.033ZM253.798 301.64C252.807 300.304 252.127 298.323 252.127 295.83C252.127 293.192 252.807 290.287 254.043 287.549C254.3 287.048 254.456 286.558 254.79 286.057C256.706 282.829 259.101 279.924 261.753 277.687C262.343 277.275 262.911 276.852 263.502 276.529C263.568 276.44 263.658 276.351 263.747 276.351C263.747 276.284 263.836 276.284 263.836 276.284C266.32 274.949 268.481 274.704 270.297 275.283C271.289 276.362 271.879 278.021 272.035 280.091C272.124 280.425 272.124 280.837 272.124 281.249C272.124 288.294 267.156 296.909 260.928 300.482C258.266 302.063 255.77 302.397 253.876 301.718C253.787 301.718 253.787 301.651 253.787 301.651L253.798 301.64Z" fill="url(#paint3_linear_801_636)"/>
<path d="M250.2 300.015C250.2 302.608 250.701 304.834 251.682 306.504C252.317 307.606 253.108 308.53 254.032 309.142C256.751 311.067 260.694 310.99 265.028 308.463C273.171 303.71 279.844 292.301 279.844 282.985C279.844 277.742 277.806 274.303 274.53 273.067C273.728 272.756 272.859 272.567 271.946 272.567C269.907 272.455 267.568 273.123 265.039 274.548C256.884 279.223 250.211 290.643 250.211 300.015H250.2ZM252.127 295.818C252.127 293.181 252.807 290.275 254.043 287.537C254.3 287.036 254.456 286.547 254.79 286.046C256.706 282.818 259.101 279.913 261.753 277.676C262.343 277.264 262.911 276.841 263.502 276.518C263.568 276.429 263.658 276.34 263.747 276.34C263.747 276.273 263.836 276.273 263.836 276.273C266.32 274.937 268.481 274.693 270.297 275.271C271.289 276.351 271.879 278.009 272.035 280.08C272.124 280.414 272.124 280.826 272.124 281.237C272.124 288.283 267.156 296.898 260.928 300.471C258.266 302.052 255.77 302.386 253.876 301.707C253.787 301.707 253.787 301.64 253.787 301.64C252.796 300.304 252.116 298.323 252.116 295.83L252.127 295.818Z" fill="#2C2C2C"/>
<path d="M250.813 299.481C250.813 300.394 250.891 301.306 251.058 302.13C251.559 305.447 253.219 307.684 255.458 308.675C257.865 309.665 261.106 309.331 264.582 307.35C272.213 302.954 278.352 292.346 278.352 283.642C278.352 279.746 277.104 276.841 275.032 275.35V275.272C273.038 273.78 270.297 273.446 267.066 274.604C266.231 274.938 265.407 275.272 264.582 275.761C264.337 275.928 264.081 276.095 263.836 276.262C264.994 275.595 266.075 275.183 267.156 275.105V275.027C268.314 274.86 269.317 274.949 270.308 275.272C271.467 276.596 272.135 278.667 272.135 281.238C272.135 288.283 267.156 296.899 260.939 300.471C258.288 302.041 255.793 302.375 253.888 301.718C253.81 301.718 253.81 301.629 253.81 301.629C253.642 301.462 253.564 301.295 253.475 301.05C252.651 299.726 252.15 297.989 252.15 295.83C252.15 294.917 252.228 294.005 252.395 293.092C252.473 292.179 252.729 291.189 253.063 290.276C253.308 289.363 253.642 288.45 254.055 287.538C251.983 291.433 250.824 295.663 250.824 299.47L250.813 299.481Z" fill="#9FA1A0"/>
<path d="M262.911 306.816C270.542 302.419 276.681 291.812 276.681 283.108C276.681 279.212 275.433 276.307 273.361 274.815V274.738C273.004 274.47 272.603 274.248 272.202 274.059C273.26 274.259 274.219 274.66 275.032 275.272V275.35C277.104 276.841 278.352 279.746 278.352 283.642C278.352 292.346 272.213 302.954 264.582 307.35C261.095 309.343 257.865 309.665 255.458 308.675C255.369 308.63 255.28 308.575 255.18 308.53C257.386 308.942 260.059 308.441 262.911 306.816Z" fill="#686B6A"/>
<path d="M253.876 301.718C255.87 304.123 259.357 304.457 263.334 302.219C269.473 298.657 274.53 289.953 274.53 282.908C274.53 278.767 272.871 276.107 270.297 275.283C271.456 276.608 272.124 278.678 272.124 281.249C272.124 288.295 267.144 296.91 260.928 300.483C258.277 302.052 255.781 302.386 253.876 301.73V301.718Z" fill="#CCCECD"/>
<path d="M261.764 277.676C262.432 277.175 263.179 276.686 263.836 276.263C263.669 276.341 263.502 276.43 263.334 276.508C262.755 276.841 262.254 277.175 261.753 277.665L261.764 277.676Z" fill="#0C100F"/>
<path d="M254.79 286.046C256.695 282.807 259.101 279.913 261.753 277.676C258.934 279.668 256.439 282.651 254.79 286.046Z" fill="#0C100F"/>
<path d="M253.208 294.205C253.208 295.808 253.531 297.166 254.066 298.201C255.57 300.984 258.778 301.629 262.488 299.481C267.59 296.554 271.768 289.386 271.768 283.509C271.768 279.301 269.595 276.875 266.454 276.986C265.239 277.019 263.925 277.409 262.488 278.233C257.386 281.193 253.208 288.362 253.208 294.205Z" fill="#9FA1A0"/>
<path d="M258.277 292.914C258.277 293.938 258.477 294.806 258.823 295.463C259.781 297.243 261.831 297.655 264.203 296.286C267.468 294.416 270.13 289.83 270.13 286.079C270.13 283.386 268.738 281.839 266.732 281.905C265.952 281.928 265.117 282.184 264.203 282.707C260.939 284.599 258.277 289.185 258.277 292.914Z" fill="#B9BAB9"/>
<path d="M262.131 290.688C262.131 291.044 262.198 291.344 262.321 291.578C262.655 292.202 263.379 292.346 264.203 291.868C265.34 291.211 266.276 289.608 266.276 288.295C266.276 287.36 265.785 286.814 265.084 286.837C264.816 286.837 264.515 286.937 264.203 287.115C263.067 287.772 262.131 289.374 262.131 290.688Z" fill="#959795"/>
<path d="M257.241 283.119C264.125 271.187 264.682 266.023 274.285 262.673C283.899 259.322 281.638 236.749 268.704 229.648C255.77 222.547 241.867 256.64 241.867 256.64L257.23 283.119H257.241Z" fill="#313942"/>
<path d="M157.067 321.075C160.253 321.909 162.069 321.386 166.514 320.073C170.959 318.759 220.255 289.052 220.255 289.052L239.093 299.915L242.101 309.666L240.508 313.84C240.508 313.84 239.706 315.509 238.492 316.244C234.537 318.615 224.31 325.082 215.509 329.89C206.965 334.565 199.813 337.626 197.919 338.182C193.474 339.496 191.669 340.019 188.472 339.184L169.633 328.321L157.078 321.075H157.067Z" fill="#9BA1A6"/>
<path d="M191.312 334.932C192.783 334.932 194.443 334.442 197.183 333.629C200.269 332.639 221.18 320.284 243.003 307.25L220.266 289.819C208.391 296.921 171.561 319.048 167.216 320.339C166.581 320.529 165.991 320.707 165.422 320.863L189.407 334.698C190.109 334.865 190.722 334.943 191.312 334.943V334.932Z" fill="#535C5E"/>
<path d="M195.446 302.041C194.253 310.946 166.915 321.709 166.915 321.709C166.915 321.709 160.821 321.097 166.013 317.412C171.193 313.728 195.446 302.041 195.446 302.041Z" fill="#535C5E"/>
<path d="M165.356 318.214C164.676 318.481 162.804 319.093 162.025 320.15C161.245 321.208 161.512 322.187 162.504 323.723C163.495 325.248 165.367 325.493 169.411 324.981C173.466 324.469 177.51 321.308 178.769 319.95C180.027 318.592 182.679 316.722 182.679 316.722C182.679 316.722 184.784 315.91 185.909 315.943C187.035 315.976 192.271 313.695 193.128 312.648C193.975 311.591 193.774 309.32 193.128 308.563C192.482 307.818 189.218 308.051 189.218 308.051L165.356 318.214Z" fill="#363953"/>
<path d="M179.883 307.095C176.953 307.84 171.616 310.189 169.778 311.714C167.94 313.239 164.264 317.123 162.838 319.071C161.412 321.03 162.704 324.225 168.118 324.225C173.533 324.225 180.061 316.3 181.219 315.654C182.378 315.008 193.062 313.305 192.248 308.508C191.435 303.711 189.352 301.908 186.968 301.974C184.584 302.041 179.894 307.072 179.894 307.072L179.883 307.095Z" fill="#7280AB"/>
<path d="M172.396 276.73C180.841 278.566 182.177 282.852 183.481 289.519C184.784 296.186 188.661 302.642 188.661 305.024C188.661 307.406 186.01 309.921 181.509 310.534C177.019 311.146 175.449 309.855 174.223 307.74C172.998 305.625 162.047 286.469 161.055 283.943C160.064 281.416 172.385 276.719 172.385 276.719L172.396 276.73Z" fill="#082A47"/>
<path d="M201.049 307.918C201.049 307.918 187.213 262.917 203.021 246.811C217.436 232.118 222.817 235.925 228.075 237.706C240.586 241.924 264.56 240.31 265.919 261.102C247.426 271.765 201.049 307.929 201.049 307.929V307.918Z" fill="#AFB4B8"/>
<path d="M193.763 260.068C193.763 260.068 200.002 271.599 201.06 280.081C202.119 288.551 201.06 307.929 201.06 307.929L219.898 318.793L258.912 263.919C258.912 263.919 258.511 245.954 246.368 235.814C236.876 227.889 219.23 236.282 219.23 236.282L191.58 254.981L193.763 260.068Z" fill="#AFB4B8"/>
<path d="M236.041 223.27C252.261 214.365 268.437 227.199 274.285 234.055C280.134 240.901 273.996 251.319 267.668 256.829C261.352 262.338 233.389 297.121 226.137 296.108C218.874 295.096 186.344 282.852 188.65 267.18C190.956 251.497 236.041 223.281 236.041 223.281V223.27Z" fill="#AFB4B8"/>
<path d="M218.64 228.835L192.438 247.624C192.438 247.624 188.249 257.764 189.441 258.721C190.644 259.678 202.386 267.169 202.386 267.169L222.828 245.208C222.828 245.208 231.618 235.079 232.108 233.621C232.598 232.163 227.34 224.962 227.195 224.873C227.051 224.783 218.628 228.835 218.628 228.835H218.64Z" fill="#484848"/>
<path d="M190.299 339.651L183.592 335.767V335.778C183.592 335.778 183.603 335.789 183.626 335.811C184.807 337.492 185.976 338.727 187.514 339.295C188.316 339.607 189.24 339.729 190.299 339.651Z" fill="#AFB4B8"/>
<path d="M132.525 362.147C132.525 363.749 132.848 365.107 133.383 366.142C134.887 368.925 138.095 369.571 141.805 367.422C146.907 364.495 151.085 357.327 151.085 351.45C151.085 347.243 148.913 344.816 145.771 344.927C144.557 344.961 143.242 345.35 141.805 346.174C136.703 349.135 132.525 356.303 132.525 362.147Z" fill="#676A68"/>
<path d="M145.348 344.549C145.103 344.716 144.846 344.883 144.601 345.05C145.76 344.382 146.84 343.97 147.921 343.892V343.814C147.921 343.647 147.921 343.48 147.843 343.402C147.008 343.736 146.183 344.07 145.359 344.56L145.348 344.549Z" fill="#4C4C4C"/>
<path d="M131.578 368.258C131.578 369.17 131.656 370.083 131.823 370.907C132.57 370.662 133.394 370.239 134.23 369.827C133.405 368.503 132.904 366.766 132.904 364.607C132.904 363.694 132.993 362.781 133.149 361.869C133.227 360.956 133.483 359.965 133.817 359.053C134.063 358.14 134.397 357.227 134.809 356.314C132.737 360.21 131.578 364.44 131.578 368.246V368.258Z" fill="#4C4C4C"/>
<path d="M121.095 381.302C121.752 381.67 123.022 382.504 123.022 382.504L130.408 386.734L131.322 385.076L135.388 377.941C135.722 377.774 135.967 377.607 136.213 377.44C146.506 370.472 154.717 356.381 155.797 344.115V344.037C155.875 343.369 155.875 342.623 155.875 341.967L158.861 336.579L160.354 333.93L153.302 329.868C153.302 329.868 151.887 329.089 151.185 328.755C148.322 327.363 144.078 328.287 138.285 331.615C126.42 338.416 116.795 355.079 116.795 368.747C116.795 375.57 118.221 379.688 121.084 381.302H121.095ZM132.893 364.606C132.893 361.957 133.561 359.052 134.798 356.314C135.043 355.813 135.21 355.323 135.544 354.823C137.449 351.584 139.855 348.69 142.507 346.452C143.086 346.04 143.665 345.54 144.245 345.295C144.323 345.217 144.412 345.128 144.49 345.128C144.49 345.05 144.568 345.05 144.568 345.05C147.052 343.725 149.213 343.469 151.04 344.059C152.032 345.139 152.622 346.797 152.778 348.868C152.856 349.202 152.856 349.613 152.856 350.025C152.856 357.071 147.876 365.686 141.66 369.259C139.009 370.828 136.513 371.162 134.608 370.506C134.53 370.506 134.53 370.428 134.53 370.428C133.539 369.103 132.87 367.111 132.87 364.629L132.893 364.606Z" fill="url(#paint4_linear_801_636)"/>
<path d="M123.78 372.732C123.78 376.461 124.526 379.611 125.774 382.015C129.261 388.482 136.725 389.973 145.348 384.998C157.212 378.197 166.915 361.535 166.915 347.866C166.915 338.082 161.858 332.45 154.549 332.695C151.731 332.773 148.656 333.686 145.336 335.6C133.472 342.479 123.769 359.142 123.769 372.732H123.78ZM134.82 356.325C135.065 355.825 135.232 355.335 135.566 354.834C137.471 351.595 139.878 348.701 142.529 346.464C143.198 345.963 143.944 345.473 144.601 345.05C147.086 343.726 149.247 343.47 151.074 344.06C152.232 345.384 152.901 347.454 152.901 350.026C152.901 357.071 147.921 365.686 141.705 369.259C139.053 370.829 136.558 371.163 134.653 370.506C134.575 370.506 134.575 370.428 134.575 370.428C133.583 369.103 132.915 367.111 132.915 364.629C132.915 361.98 133.583 359.075 134.82 356.337V356.325Z" fill="url(#paint5_linear_801_636)"/>
<path d="M126.186 372.821C126.186 376.305 126.844 379.299 128.169 381.536C129.005 383.017 130.074 384.263 131.333 385.098C134.987 387.669 140.279 387.58 146.105 384.185C157.056 377.808 166.013 362.47 166.013 349.948C166.013 342.902 163.272 338.261 158.872 336.613C157.791 336.201 156.633 335.934 155.385 335.934C152.656 335.778 149.492 336.68 146.105 338.594C135.143 344.894 126.197 360.221 126.197 372.832L126.186 372.821ZM134.564 370.428C133.572 369.092 132.893 367.111 132.893 364.618C132.893 361.98 133.572 359.075 134.798 356.337C135.054 355.836 135.21 355.346 135.544 354.845C137.46 351.617 139.855 348.712 142.507 346.475C143.097 346.063 143.665 345.64 144.256 345.317C144.323 345.228 144.412 345.139 144.501 345.139C144.501 345.072 144.59 345.072 144.59 345.072C147.074 343.737 149.236 343.492 151.051 344.071C152.043 345.15 152.633 346.809 152.789 348.879C152.878 349.213 152.878 349.625 152.878 350.037C152.878 357.082 147.91 365.698 141.682 369.27C139.02 370.851 136.525 371.185 134.631 370.506C134.542 370.506 134.542 370.439 134.542 370.439L134.564 370.428Z" fill="url(#paint6_linear_801_636)"/>
<path d="M130.977 368.791C130.977 371.385 131.478 373.611 132.458 375.28C133.093 376.382 133.884 377.306 134.809 377.918C137.527 379.844 141.471 379.766 145.804 377.239C153.948 372.486 160.621 361.078 160.621 351.761C160.621 346.519 158.582 343.079 155.307 341.844C154.505 341.532 153.636 341.343 152.722 341.343C150.684 341.232 148.344 341.9 145.815 343.324C137.661 347.999 130.988 359.419 130.988 368.791H130.977ZM132.904 364.595C132.904 361.957 133.583 359.052 134.809 356.314C135.065 355.813 135.221 355.323 135.555 354.822C137.471 351.594 139.867 348.689 142.518 346.452C143.108 346.04 143.677 345.617 144.267 345.294C144.334 345.205 144.423 345.116 144.512 345.116C144.512 345.049 144.601 345.049 144.601 345.049C147.085 343.714 149.247 343.469 151.063 344.048C152.054 345.127 152.645 346.786 152.8 348.856C152.89 349.19 152.89 349.602 152.89 350.014C152.89 357.059 147.921 365.675 141.694 369.247C139.031 370.828 136.536 371.162 134.642 370.483C134.553 370.483 134.553 370.416 134.553 370.416C133.561 369.08 132.882 367.099 132.882 364.606L132.904 364.595Z" fill="#2C2C2C"/>
<path d="M131.578 368.257C131.578 369.17 131.656 370.083 131.823 370.906C132.325 374.223 133.985 376.46 136.224 377.451C138.63 378.442 141.872 378.108 145.348 376.127C152.979 371.73 159.117 361.122 159.117 352.418C159.117 348.523 157.869 345.618 155.797 344.126V344.048C153.803 342.557 151.063 342.223 147.832 343.38C146.996 343.714 146.172 344.048 145.348 344.538C145.103 344.705 144.846 344.872 144.601 345.039C145.76 344.371 146.84 343.959 147.921 343.881V343.803C149.08 343.636 150.082 343.725 151.074 344.048C152.232 345.373 152.901 347.443 152.901 350.014C152.901 357.06 147.921 365.675 141.705 369.248C139.053 370.817 136.558 371.151 134.653 370.494C134.575 370.494 134.575 370.417 134.575 370.417C134.408 370.25 134.33 370.083 134.241 369.838C133.416 368.513 132.915 366.777 132.915 364.617C132.915 363.705 133.004 362.792 133.16 361.879C133.238 360.967 133.494 359.976 133.829 359.063C134.074 358.151 134.408 357.238 134.82 356.325C132.748 360.221 131.589 364.451 131.589 368.257H131.578Z" fill="#9FA1A0"/>
<path d="M143.677 375.592C151.308 371.196 157.446 360.588 157.446 351.884C157.446 347.988 156.198 345.083 154.126 343.592V343.514C153.77 343.247 153.369 343.024 152.968 342.835C154.026 343.035 154.984 343.436 155.797 344.048V344.126C157.869 345.618 159.117 348.523 159.117 352.418C159.117 361.123 152.979 371.73 145.348 376.127C141.861 378.119 138.63 378.442 136.224 377.451C136.123 377.407 136.045 377.351 135.945 377.307C138.151 377.718 140.825 377.217 143.677 375.592Z" fill="#686B6A"/>
<path d="M134.642 370.495C136.636 372.899 140.123 373.233 144.1 370.996C150.238 367.434 155.296 358.73 155.296 351.684C155.296 347.543 153.636 344.883 151.063 344.06C152.221 345.384 152.89 347.454 152.89 350.026C152.89 357.071 147.91 365.686 141.694 369.259C139.042 370.829 136.547 371.163 134.642 370.506V370.495Z" fill="#CCCECD"/>
<path d="M142.529 346.463C143.198 345.963 143.944 345.473 144.601 345.05C144.434 345.128 144.267 345.217 144.1 345.295C143.521 345.629 143.019 345.963 142.518 346.452L142.529 346.463Z" fill="#0C100F"/>
<path d="M135.555 354.834C137.46 351.595 139.867 348.701 142.518 346.464C139.699 348.456 137.215 351.439 135.555 354.834Z" fill="#0C100F"/>
<path d="M133.973 362.982C133.973 364.584 134.296 365.942 134.831 366.977C136.335 369.76 139.544 370.406 143.253 368.257C148.356 365.33 152.533 358.162 152.533 352.285C152.533 348.078 150.361 345.651 147.219 345.762C146.005 345.796 144.69 346.185 143.253 347.009C138.151 349.97 133.973 357.138 133.973 362.982Z" fill="#9FA1A0"/>
<path d="M139.042 361.69C139.042 362.714 139.243 363.582 139.588 364.239C140.546 366.02 142.596 366.432 144.969 365.063C148.233 363.193 150.896 358.607 150.896 354.856C150.896 352.162 149.503 350.615 147.498 350.682C146.718 350.704 145.882 350.96 144.969 351.483C141.705 353.375 139.042 357.961 139.042 361.69Z" fill="#B9BAB9"/>
<path d="M142.897 359.475C142.897 359.831 142.964 360.132 143.086 360.365C143.42 360.989 144.145 361.133 144.969 360.655C146.105 359.998 147.041 358.395 147.041 357.082C147.041 356.147 146.551 355.601 145.849 355.624C145.582 355.624 145.281 355.724 144.969 355.902C143.833 356.559 142.897 358.161 142.897 359.475Z" fill="#959795"/>
<path d="M145.738 361.401C145.381 361.067 145.258 360.733 145.325 360.443L148.155 348.879C148.088 349.168 151.564 334.075 151.92 334.409C152.678 335.121 155.363 335.488 156.454 335.288C157.034 335.177 152.845 350.381 152.923 350.047L150.093 361.612C150.015 361.946 149.67 362.213 149.08 362.324C147.988 362.536 146.495 362.124 145.738 361.412V361.401Z" fill="url(#paint7_linear_801_636)"/>
<path d="M168.519 318.76C168.508 319.261 168.519 319.917 168.564 320.641C168.553 320.652 168.564 320.674 168.564 320.674C168.698 322.5 169.043 324.804 170.046 326.429C170.335 326.896 170.993 327.642 171.895 328.544C172.285 328.911 172.697 329.334 173.154 329.757C173.154 329.768 173.165 329.768 173.165 329.768C177.376 333.753 184.316 339.485 185.731 340.442H185.742C185.965 340.598 186.043 340.631 185.932 340.487C185.82 340.331 185.43 339.952 184.717 339.296C183.236 337.927 181.799 336.057 180.495 334.009C178.546 330.959 176.852 327.497 175.594 324.659C175.594 324.659 175.582 324.626 175.582 324.614C175.571 324.57 175.538 324.537 175.516 324.481C174.112 321.32 173.287 318.982 173.287 318.982C173.287 318.982 172.575 319.283 171.962 319.06C171.817 319.016 171.683 318.949 171.527 318.904C171.516 318.893 171.494 318.893 171.46 318.871C171.271 318.804 171.071 318.726 170.859 318.648C170.09 318.326 169.299 318.003 168.854 317.814C168.742 317.769 168.642 317.736 168.597 317.702C168.553 317.691 168.519 317.669 168.519 317.669C168.519 317.669 168.486 318.092 168.486 318.76H168.519Z" fill="#9BA1A6"/>
<path d="M258.667 266.29C263.279 274.026 276.09 282.663 264.203 291.879C252.317 301.084 248.718 298.758 228.922 309.232L235.729 311.581L218.328 315.098C218.328 315.098 229.813 309.61 242.09 289.063C254.367 268.516 258.667 266.301 258.667 266.301V266.29Z" fill="#313942"/>
<path d="M274.04 245.208C276.558 256.639 249.665 269.506 245.722 299.926C244.184 311.769 238.481 316.255 238.481 316.255L242.09 309.677L218.328 315.097L251.637 267.169L274.04 245.208Z" fill="#BEC3C7"/>
<path d="M218.328 315.097C224.923 310.144 239.494 308.931 242.09 309.677C228.153 317.535 198.721 340.063 189.408 334.698L180.094 329.333L209.26 317.98L218.317 315.108L218.328 315.097Z" fill="#535C5E"/>
<path d="M222.717 263.907C218.484 268.905 214.573 307.105 218.339 315.086C213.649 321.475 189.33 313.494 192.616 305.502C195.902 297.511 187.859 275.138 187.859 275.138L222.717 263.918V263.907Z" fill="#404B4D"/>
<path d="M256.472 247.445C240.831 266.278 223.987 278.611 222.706 286.046C221.425 293.482 218.328 315.086 218.328 315.086C218.328 315.086 204.491 310.088 207.455 294.828C210.407 279.579 205.037 272.189 222.238 265.477C239.439 258.765 256.472 247.445 256.472 247.445Z" fill="#404B4D"/>
<path d="M256.472 247.446C248.362 258.276 222.851 272.745 214.44 275.439C206.051 278.133 198.944 284.366 190.221 277.365C184.985 273.168 183.793 268.527 184.406 263.908C184.773 260.88 185.932 257.853 187.224 254.981C190.466 247.824 203.912 240.211 203.912 240.211L227.207 224.884C232.532 224.85 236.609 225.707 241.321 227.388C253.42 231.673 262.321 239.621 256.472 247.457V247.446Z" fill="#535C5E"/>
<path d="M189.452 258.72C190.41 260.913 210.095 272.712 213.671 272.689C216.879 270.697 253.642 242.548 251.437 238.841C249.231 235.135 229.468 224.304 227.218 224.872C225.146 227.499 189.452 258.72 189.452 258.72Z" fill="#535C5E"/>
<path d="M256.472 247.446C248.362 258.276 222.851 272.745 214.44 275.439C206.051 278.133 198.944 284.366 190.221 277.365C184.985 273.168 183.793 268.527 184.406 263.908C187.191 267.759 194.877 270.82 197.573 270.664C200.637 270.475 210.83 265.867 216.646 261.615C222.494 257.33 242.859 242.804 242.859 242.804C242.859 242.804 247.326 238.096 246.869 236.259C246.379 234.389 239.984 228.735 227.218 224.884C232.543 224.85 236.62 225.707 241.332 227.388C253.431 231.673 262.332 239.621 256.483 247.457L256.472 247.446Z" fill="#4B5557"/>
<path d="M194.788 229.358C175.393 247.724 162.325 272.612 160.989 276.797C159.652 280.982 161.189 284.856 161.902 285.668C162.615 286.481 168.842 288.829 172.318 287.193C175.794 285.557 191.613 271.588 199.478 267.303C207.343 263.017 207.856 240.066 204.581 236.193C201.316 232.319 194.777 229.358 194.777 229.358H194.788Z" fill="#082A47"/>
<path d="M225.112 348.2C225.112 348.2 221.38 350.448 219.798 353.81C218.216 357.171 218.929 359.42 219.341 360.288C219.754 361.156 224.299 362.225 227.106 361.457C229.914 360.689 233.746 357.839 235.172 354.956C236.598 352.073 237.366 346.152 237.723 345.796C238.079 345.44 239.249 343.347 239.249 343.347C239.249 343.347 241.232 340.052 240.909 337.737C240.586 335.422 238.135 333.151 238.135 333.151L225.112 348.2Z" fill="#363953"/>
<path d="M223.53 332.906C226.85 335.154 225.469 340.052 224.199 342.089C222.917 344.126 220.779 351.728 220.11 355.145C219.442 358.562 222.305 359.842 224.299 359.887C226.293 359.942 231.651 358.562 233.946 354.934C236.241 351.316 237.166 343.814 237.723 342.846C238.28 341.877 240.074 338.972 239.762 336.012C239.461 333.051 233.534 325.215 233.534 325.215L223.53 332.895V332.906Z" fill="#7280AB"/>
<path d="M196.827 242.214C193.864 249.46 190.187 256.595 191.012 260.368C191.836 264.141 197.852 270.976 198.264 275.572C198.676 280.169 199.545 298.68 199.946 303.878C200.358 309.076 203.678 311.68 205.917 312.493C208.168 313.305 212.758 314.63 216.278 313.205C219.798 311.78 217.96 300.961 217.96 300.249C217.96 299.537 228.176 261.281 229.802 251.686C231.44 242.092 227.797 232.697 224.221 230.271C221.893 228.679 196.816 242.203 196.816 242.203L196.827 242.214Z" fill="#143450"/>
<path d="M205.817 300.616C205.817 300.616 199.946 298.68 200.147 303.622C200.347 308.564 202.085 311.524 206.174 316.633C210.262 321.731 222.973 334.643 224.811 338.36C230.838 339.685 234.203 339.64 236.353 337.191C238.492 334.743 237.99 329.433 235.896 327.196C233.802 324.948 226.048 307.862 223.241 304.289C220.433 300.716 211.042 298.936 211.042 298.936L205.839 300.616H205.817Z" fill="#143450"/>
<path d="M168.876 177.255C168.675 177.2 166.659 175.708 165.623 174.25C164.587 172.792 163.874 171.601 162.593 171.145C161.312 170.688 159.017 170.655 158.683 170.688C158.348 170.71 155.062 171.122 154.193 171.401C153.324 171.679 153.914 173.771 153.914 173.771C153.914 173.771 154.115 175.552 154.505 176.12C154.895 176.688 155.496 178.391 156.321 178.825C157.134 179.259 158.95 179.437 159.54 179.971C160.131 180.505 159.997 181.017 161.757 182.142C163.517 183.266 164.843 183.266 164.843 183.266C164.843 183.266 167.35 183.7 168.363 182.275C169.388 180.85 168.876 177.278 168.876 177.278V177.255Z" fill="#FF9C78"/>
<path d="M171.226 176.554C167.639 176.098 166.436 178.246 166.403 181.83C166.369 185.414 168.274 185.881 168.787 186.226C169.299 186.572 191.725 194.407 196.548 193.294C201.372 192.181 200.046 181.563 195.824 180.906C191.602 180.238 171.226 176.565 171.226 176.565V176.554Z" fill="#F99822"/>
<path d="M213.626 171.935C210.44 168.051 205.071 166.581 200.169 168.93C195.267 171.279 191.691 180.595 191.691 180.595L213.626 171.935Z" fill="#FFFEF4"/>
<path d="M225.747 230.282C227.752 237.595 225.925 239.698 224.667 241.98C224.065 243.082 219.252 247.1 211.131 247.334C200.314 247.657 193.641 244.729 190.098 239.654C188.572 237.472 189.218 221.511 189.218 221.511C189.218 221.511 188.85 203.201 188.483 192.36C188.238 185.236 189.731 177.122 193.986 172.993C196.203 170.844 200.269 170.811 202.887 170.321C208.335 169.32 212.624 170.477 214.663 173.193C216.701 175.909 219.018 177.89 220.868 196.066C222.227 209.401 225.747 230.293 225.747 230.293V230.282Z" fill="#CA8122"/>
<path d="M217.637 179.449C213.136 170.444 205.995 170.377 201.027 171.535C191.97 176.566 191.702 176.644 191.702 176.644C191.702 176.644 194.02 167.038 207.288 167.862C213.549 169.019 220.422 175.809 217.637 179.449Z" fill="#1C6A13"/>
<path d="M194.688 189.51C200.269 181.44 210.786 185.87 213.626 192.404C216.467 198.938 218.874 213.229 218.874 213.229C218.874 213.229 221.581 211.181 221.28 208.655C220.979 206.128 222.639 181.607 203.544 179.57C196.827 179.159 188.839 182.509 189.218 192.482C191.747 194.842 194.677 189.51 194.677 189.51H194.688Z" fill="#1C6A13"/>
<path d="M196.314 208.21C194.799 221.01 209.404 232.931 223.697 229.358C225.803 229.525 222.995 230.883 222.995 230.883C222.995 230.883 211.922 233.832 202.185 227.443C192.449 221.054 189.82 216.892 191.268 208.866C193.295 205.36 196.314 208.221 196.314 208.221V208.21Z" fill="#307F17"/>
<path d="M182.913 149.785C182.3 154.326 181.631 156.519 181.787 157.744C181.943 158.968 181.019 162.385 181.275 163.765C181.531 165.145 182.857 166.214 182.913 166.57C182.968 166.926 183.013 172.792 184.294 173.816C185.575 174.84 188.683 174.94 189.096 175.241C189.508 175.541 191.034 177.79 191.034 178.914C191.034 180.038 201.751 179.27 204.001 177.69C206.252 176.109 206.452 174.829 206.452 173.349C206.452 171.868 205.427 170.188 205.383 168.652C205.327 167.127 207.121 156.508 206.708 155.952C206.296 155.395 182.924 149.785 182.924 149.785H182.913Z" fill="#FF9C78"/>
<path d="M208.702 159.269C208.391 163.198 207.288 168.552 205.617 170.01C203.946 171.468 201.194 171.713 198.531 171.156C195.88 170.6 194.086 169.631 193.685 168.407C193.284 167.183 192.716 163.71 190.065 162.385C187.413 161.061 186.801 161.473 186.589 163.298L186.388 165.134L184.962 164.834C184.962 164.834 184.294 160.604 184.049 159.636C183.793 158.668 183.436 158.924 182.924 157.499C182.411 156.074 181.754 155.974 182.111 153.314C182.467 150.654 191.346 150.097 193.34 150.453C195.334 150.809 208.714 159.28 208.714 159.28L208.702 159.269Z" fill="#553012"/>
<path d="M209.248 160.894C209.226 160.949 209.204 161.016 209.17 161.072C208.023 163.242 201.149 163.999 196.181 163.353C191.079 162.686 183.269 158 181.687 154.07C180.105 150.141 182.2 145.344 182.712 144.788C183.225 144.231 186.589 138.621 199.556 141.37C212.524 144.12 209.259 160.894 209.259 160.894H209.248Z" fill="#143450"/>
<path d="M188.449 164.878C187.38 162.53 187.658 161.762 188.906 162.429C190.154 163.097 190.845 165.513 190.845 166.837C190.845 168.162 189.797 169.308 189.318 168.496C188.839 167.683 188.862 165.713 188.828 165.479C188.806 165.257 188.449 164.867 188.449 164.867V164.878Z" fill="#FF9C78"/>
<path d="M201.06 186.171C197.25 185.626 189.43 189.388 186.366 192.037C183.303 194.686 164.721 202.856 163.428 204.281C162.136 205.706 163.93 218.973 167.74 219.241C171.55 219.508 197.351 210.881 204.224 205.761C211.098 200.641 209.404 192.427 207.7 189.644C205.884 186.361 201.06 186.171 201.06 186.171Z" fill="#F99822"/>
<mask id="mask0_801_636" style="mask-type:luminance" maskUnits="userSpaceOnUse" x="134" y="192" width="28" height="17">
<path d="M161.378 193.607L134.865 209C135.277 208.756 135.511 208.188 135.41 207.398L161.924 192.004C162.025 192.794 161.791 193.362 161.378 193.607Z" fill="white"/>
</mask>
<g mask="url(#mask0_801_636)">
<path d="M135.41 207.408L161.924 192.015C162.025 192.805 161.791 193.373 161.378 193.617L134.865 209.011C135.277 208.766 135.511 208.199 135.41 207.408Z" fill="#6C5438"/>
</g>
<mask id="mask1_801_636" style="mask-type:luminance" maskUnits="userSpaceOnUse" x="121" y="142" width="33" height="25">
<path d="M147.676 142.973C147.676 145.588 150.428 149.295 153.836 151.265C145.002 156.396 136.157 161.527 127.323 166.659C123.914 164.689 121.162 160.982 121.162 158.366C129.116 153.747 139.722 147.592 147.676 142.973Z" fill="white"/>
</mask>
<g mask="url(#mask1_801_636)">
<path d="M121.162 158.377L147.676 142.983C147.676 145.599 150.428 149.306 153.836 151.276C155.04 151.966 156.154 152.355 157.101 152.444L130.587 167.838C129.64 167.749 128.515 167.359 127.323 166.669C123.914 164.699 121.162 160.993 121.162 158.377Z" fill="#6C5438"/>
</g>
<path d="M130.587 167.839L157.101 152.435L161.924 192.015L135.41 207.409L130.587 167.839Z" fill="#5A462F"/>
<mask id="mask2_801_636" style="mask-type:luminance" maskUnits="userSpaceOnUse" x="127" y="151" width="31" height="17">
<path d="M153.836 151.266C155.04 151.956 156.154 152.345 157.101 152.434L130.587 167.828C129.64 167.739 128.515 167.349 127.323 166.659C136.157 161.528 145.002 156.397 153.836 151.266Z" fill="white"/>
</mask>
<g mask="url(#mask2_801_636)">
<path d="M121.162 158.378L147.676 142.984C147.676 145.6 150.428 149.307 153.836 151.277C155.04 151.967 156.154 152.356 157.101 152.445L130.587 167.839C129.64 167.75 128.515 167.36 127.323 166.67C123.914 164.7 121.162 160.994 121.162 158.378Z" fill="#6C5438"/>
</g>
<path d="M121.162 158.378C121.162 160.994 123.914 164.7 127.323 166.67C128.526 167.36 129.64 167.75 130.587 167.839L135.41 207.408C135.589 208.866 134.675 209.557 133.483 208.878L117.497 199.661C116.305 198.971 115.391 197.224 115.581 195.977L121.162 158.389V158.378Z" fill="#9B7950"/>
<mask id="mask3_801_636" style="mask-type:luminance" maskUnits="userSpaceOnUse" x="122" y="140" width="32" height="18">
<path d="M122.187 156.352L148.701 140.958C149.804 140.313 151.709 140.569 153.859 141.804L127.345 157.198C125.195 155.951 123.301 155.707 122.187 156.352Z" fill="white"/>
</mask>
<g mask="url(#mask3_801_636)">
<path d="M122.187 156.352L148.701 140.958C149.804 140.313 151.709 140.569 153.859 141.804L127.345 157.198C125.195 155.951 123.301 155.707 122.187 156.352Z" fill="#6C5438"/>
</g>
<mask id="mask4_801_636" style="mask-type:luminance" maskUnits="userSpaceOnUse" x="127" y="141" width="34" height="27">
<path d="M158.994 152.112L132.481 167.505C133.127 167.127 133.505 166.448 133.505 165.491C133.505 162.875 130.754 159.168 127.345 157.198L153.859 141.805C157.268 143.764 160.019 147.481 160.019 150.097C160.019 151.065 159.641 151.744 158.994 152.112Z" fill="white"/>
</mask>
<g mask="url(#mask4_801_636)">
<path d="M127.345 157.198L153.859 141.805C157.268 143.764 160.019 147.481 160.019 150.097C160.019 151.065 159.641 151.744 158.994 152.112L132.481 167.505C133.127 167.127 133.505 166.448 133.505 165.491C133.505 162.875 130.754 159.168 127.345 157.198Z" fill="#6C5438"/>
</g>
<path d="M127.345 157.198C130.754 159.157 133.505 162.875 133.505 165.491C133.505 167.183 132.336 168.006 130.587 167.828C129.64 167.739 128.515 167.35 127.323 166.659C123.914 164.689 121.162 160.983 121.162 158.367C121.162 155.751 123.936 155.228 127.345 157.198Z" fill="#9B7950"/>
<path d="M136.937 196.277C136.937 196.277 133.851 195.866 133.394 194.753C132.937 193.628 133.294 190.901 132.96 190.189C132.625 189.477 132.503 185.492 132.425 184.479C132.347 183.455 132.347 182.698 131.043 182.487C129.74 182.286 129.662 184.301 129.695 185.169C129.718 186.037 129.617 189.054 129.283 189.388C128.949 189.721 125.663 189.332 124.972 189.054C124.281 188.775 119.87 184.924 118.232 184.468C116.594 184.011 117.675 186.605 117.976 186.861C118.288 187.117 117.798 188.108 117.853 188.72C117.909 189.332 118.522 190.757 118.522 190.757C118.522 190.757 118.856 193.74 119.134 194.43C119.413 195.12 121.92 198.025 124.671 198.815C127.423 199.605 134.397 203.869 135.622 204.047C136.848 204.225 136.948 196.289 136.948 196.289L136.937 196.277Z" fill="#FF9C78"/>
<path d="M169.076 205.917C169.076 205.917 173.02 206.663 163.428 204.281C153.836 201.899 138.452 195.376 135.656 195.098C132.859 194.831 129.116 201.086 131.433 204.348C134.363 206.596 158.203 219.04 167.74 219.24C174.747 216.447 169.076 205.906 169.076 205.906V205.917Z" fill="#F99822"/>
<path d="M164.843 174.885C164.464 174.685 163.517 173.171 162.314 172.614C161.111 172.058 159.162 171.234 157.858 171.29C156.555 171.345 155.875 172.77 157.925 173.316C159.975 173.861 160.354 174.885 160.354 174.885C160.354 174.885 160.153 177.211 162.036 177.812C163.93 178.425 165.177 176.432 165.155 175.898C165.133 175.364 164.843 174.874 164.843 174.874V174.885Z" fill="#FF9C78"/>
<path d="M150.316 304.267C151.241 307.072 153.458 309.91 155.586 312.359C157.09 314.084 158.527 315.609 159.396 316.822C159.752 317.301 160.075 317.769 160.398 318.236C164.721 324.536 166.236 329.2 171.449 328.766L172.24 329.222L173.165 329.756L173.176 329.767L180.518 334.008L183.57 335.767C182.066 333.652 180.54 330.836 178.245 327.697C177.588 326.796 176.618 325.694 175.538 324.491C175.46 324.391 175.36 324.28 175.259 324.169C173.845 322.577 172.296 320.763 171.048 318.904C171.004 318.826 170.937 318.748 170.892 318.659C170.892 318.648 170.881 318.648 170.881 318.648C170.135 317.49 169.522 316.322 169.154 315.164C167.851 311.179 170.046 302.175 172.441 291.845C176.039 276.307 180.117 257.775 173.455 248.881C172.842 248.057 172.018 247.267 171.082 246.533C166.358 242.793 158.593 240.311 158.593 240.311C158.582 242.18 158.437 244.295 158.192 246.566C156.176 265.299 147.397 295.396 150.316 304.301V304.267Z" fill="#AFB4B8"/>
<path d="M158.894 321.531C153.302 321.987 151.174 317.123 146.061 310.111C143.911 307.172 139.321 301.785 137.761 297.032C134.497 287.059 149.904 252.721 150.038 235.357C150.038 235.357 161.156 238.908 164.888 243.928C164.754 261.292 153.346 297.934 156.599 307.907C158.159 312.66 163.54 317.524 165.69 320.462C170.814 327.474 172.14 332.873 177.744 332.416L158.905 321.553L158.894 321.531Z" fill="#AFB4B8"/>
<path d="M141.638 304.557L150.818 317.123L152.678 319.672C152.678 319.672 163.696 332.906 178.813 338.516C181.041 339.351 183.358 340.019 185.754 340.431H185.765C185.831 340.442 185.898 340.464 185.954 340.475C187.291 340.698 188.65 340.865 190.02 340.943C189.33 340.653 188.405 340.008 187.503 339.284C185.709 337.871 183.927 336.112 183.615 335.8C183.615 335.8 183.603 335.797 183.581 335.789V335.756L175.616 324.647C175.616 324.647 175.605 324.614 175.605 324.603L175.27 324.147L171.516 318.893V318.859L171.483 318.848L170.881 318.603L168.898 317.802C168.787 317.758 168.687 317.724 168.642 317.691L168.564 317.657L167.316 317.145L155.608 312.359L154.917 312.07L141.66 304.557H141.638Z" fill="#9BA1A6"/>
<path d="M167.094 322.889C162.938 317.023 153.435 313.205 148.3 312.493C148.278 312.493 148.255 312.493 148.244 312.493C147.754 312.426 147.275 312.37 146.84 312.359C134.074 311.635 118.344 324.157 115.948 339.674C115.859 340.909 121.017 345.072 126.008 345.484C130.676 343.636 132.057 335.945 138.875 330.992C142.362 330.212 145.504 330.046 147.264 330.936C152.21 333.463 154.115 334.965 155.63 335.711C157.145 336.457 163.618 334.442 163.618 334.442C163.618 334.442 163.462 331.303 162.381 327.396C165.578 326.384 168.854 325.404 167.094 322.911V322.889Z" fill="#BEC3C7"/>
<path d="M126.008 345.461C128.158 345.461 130.409 345.762 132.681 344.437C137.683 341.521 152.388 334.197 157.335 336.724C162.281 339.25 164.186 340.753 165.701 341.499C167.216 342.244 173.689 340.23 173.689 340.23C173.689 340.23 172.664 319.048 156.9 318.158C144.133 317.434 128.403 329.956 126.008 345.472V345.461Z" fill="#AFB4B8"/>
<path d="M190.522 340.965C191.346 340.965 192.259 340.876 193.295 340.675C197.139 339.93 199.088 339.328 205.806 335.544C212.301 331.882 215.164 330.09 215.498 329.901L214.217 327.742C213.883 327.942 211.042 329.712 204.569 333.362C198.153 336.991 196.437 337.514 192.816 338.215C189.664 338.816 187.547 339.161 186.01 338.46C183.236 335.166 174.023 319.249 173.354 316.054C172.842 313.617 172.352 304.478 173.689 296.342C174.201 293.214 175.482 284.221 178.044 272.044C180.473 260.579 175.025 255.214 175.449 249.137L172.385 246.722C171.973 252.721 177.989 260.19 175.594 271.532C173.399 281.939 169.6 293.726 169.032 297.199C168.219 302.152 166.971 311.023 167.762 314.774C168.698 319.26 183.771 338.171 184.751 339.306L185.174 339.629C186.533 340.252 188.115 340.976 190.522 340.976V340.965Z" fill="#AFB4B8"/>
<path d="M124.37 301.685C124.961 311.903 143.253 317.034 148.489 318.292C148.634 318.325 148.779 318.358 148.946 318.392C151.074 318.848 164.431 319.705 167.851 318.715C168.085 318.648 168.319 318.748 168.531 318.759C169.5 318.804 170.358 318.859 171.059 318.893C171.227 318.893 171.371 318.904 171.516 318.904H171.561C172.652 318.948 173.321 318.982 173.321 318.982L172.452 291.823L171.616 265.844L171.438 260.457L168.241 257.107L163.439 252.031L158.215 246.532L148.879 236.704C142.429 240.945 123.49 286.157 124.393 301.685H124.37Z" fill="#BEC3C7"/>
<path d="M171.594 265.845C169.11 277.599 163.74 302.153 164.565 307.15C164.921 309.343 165.901 313.038 167.305 317.146C167.461 317.658 167.662 318.181 167.84 318.704C168.063 319.35 168.308 319.995 168.564 320.641C168.553 320.652 168.564 320.674 168.564 320.674C169.567 323.334 170.692 326.039 171.906 328.543L172.24 329.222C174.29 333.363 176.585 336.858 178.802 338.516C181.03 339.351 183.347 340.019 185.742 340.431H185.754C185.976 340.587 186.054 340.62 185.943 340.475C187.28 340.698 188.639 340.865 190.009 340.943C189.318 340.654 188.394 340.008 187.491 339.285C188.293 339.596 189.218 339.719 190.276 339.641L183.57 335.756H183.559C182.055 333.641 180.529 330.825 178.234 327.686C177.577 326.785 176.607 325.683 175.527 324.481C174.123 321.32 173.299 318.982 173.299 318.982L172.43 291.824C176.028 276.285 180.105 257.753 173.443 248.859C172.831 248.036 172.006 247.245 171.071 246.511L163.406 252.043L160.354 254.247C163.841 255.36 166.369 256.328 168.208 257.118C171.416 258.476 172.485 259.311 172.742 259.589C172.842 259.701 172.352 262.138 171.583 265.856L171.594 265.845Z" fill="#AFB4B8"/>
<path d="M126.721 210.17C127.39 209.869 127.969 209.902 128.37 210.192L129.205 210.804C128.804 210.515 128.214 210.481 127.557 210.782C126.309 211.338 125.262 212.863 125.228 214.177C125.206 214.8 125.418 215.256 125.774 215.512L124.939 214.9C124.582 214.644 124.37 214.177 124.393 213.564C124.426 212.251 125.473 210.726 126.721 210.17Z" fill="url(#paint8_linear_801_636)"/>
<path d="M127.557 210.782C128.459 210.381 129.228 210.581 129.562 211.227C129.651 211.383 129.729 211.55 129.818 211.706C129.506 211.116 128.804 210.926 127.98 211.294C126.833 211.806 125.886 213.197 125.852 214.399C125.83 215.201 126.22 215.713 126.821 215.824C126.643 215.791 126.465 215.757 126.287 215.724C125.629 215.601 125.206 215.045 125.228 214.165C125.262 212.852 126.309 211.327 127.557 210.771V210.782Z" fill="url(#paint9_linear_801_636)"/>
<path d="M127.991 211.294C128.593 211.027 129.139 211.049 129.506 211.316L139.009 218.24C138.641 217.972 138.106 217.939 137.494 218.217C136.346 218.729 135.399 220.121 135.366 221.323C135.355 221.89 135.544 222.313 135.867 222.547L126.365 215.624C126.041 215.39 125.852 214.967 125.863 214.399C125.897 213.197 126.855 211.806 127.991 211.294Z" fill="url(#paint10_linear_801_636)"/>
<path d="M135.856 222.557L133.283 220.688C133.004 220.443 132.848 220.053 132.859 219.541C132.893 218.339 133.851 216.948 134.987 216.436C135.589 216.169 136.135 216.191 136.502 216.458L135.812 215.957C135.812 215.957 135.878 215.979 135.901 216.002L138.998 218.261C138.63 217.994 138.095 217.961 137.483 218.239C136.335 218.751 135.388 220.142 135.355 221.344C135.344 221.912 135.533 222.335 135.856 222.569V222.557Z" fill="#C5C7C8"/>
<path d="M137.494 218.217C137.739 218.106 137.973 218.05 138.196 218.028C138.552 218.005 138.897 217.983 139.254 217.961C138.975 217.983 138.663 218.061 138.352 218.206C136.881 218.863 135.644 220.655 135.6 222.202C135.6 222.447 135.611 222.669 135.667 222.87C135.578 222.524 135.5 222.179 135.411 221.846C135.366 221.69 135.355 221.512 135.355 221.322C135.388 220.12 136.346 218.729 137.483 218.217H137.494Z" fill="url(#paint11_linear_801_636)"/>
<path d="M138.352 218.206C139.131 217.861 139.822 217.894 140.301 218.239L142.039 219.497C141.571 219.152 140.869 219.118 140.089 219.463C138.619 220.12 137.382 221.912 137.338 223.459C137.316 224.183 137.561 224.728 137.984 225.04L136.246 223.782C135.823 223.482 135.578 222.936 135.6 222.201C135.644 220.654 136.87 218.862 138.352 218.206Z" fill="url(#paint12_linear_801_636)"/>
<path d="M137.338 223.47C137.293 225.017 138.452 225.741 139.922 225.084C141.393 224.427 142.629 222.635 142.674 221.077C142.719 219.53 141.56 218.806 140.078 219.463C138.608 220.12 137.371 221.912 137.327 223.459L137.338 223.47Z" fill="#394344"/>
<path d="M151.285 234.534L155.34 230.327L142.273 220.565C141.994 220.231 141.482 220.075 140.814 220.198C139.499 220.443 138.541 222.057 138.095 223.303C137.873 223.915 137.939 224.427 138.207 224.761L138.218 224.772L151.274 234.523L151.285 234.534Z" fill="#C5C7C8"/>
<path d="M151.152 233.054C150.706 234.3 151.408 235.124 152.722 234.879C154.037 234.634 154.995 233.02 155.441 231.774C155.886 230.527 155.184 229.704 153.87 229.948C152.555 230.193 151.597 231.807 151.152 233.054Z" fill="#C5C7C8"/>
<path d="M178.813 255.537C188.672 248.269 172.407 239.721 169.032 237.773C165.656 235.825 153.714 243.605 156.321 245.108C158.928 246.611 174.947 258.398 178.813 255.537Z" fill="#AFB4B8"/>
<path d="M181.821 251.519C182.98 247.222 183.325 246.354 183.481 243.538C183.637 240.722 139.711 222.089 139.454 223.414C139.198 224.739 139.165 233.131 139.332 233.966C139.488 234.789 174.279 252.843 181.821 251.53V251.519Z" fill="#AFB4B8"/>
<path d="M140.279 222.802C152.622 219.663 166.581 228.1 171.327 231.05C176.128 233.966 189.82 242.537 180.072 247.29C176.284 249.137 162.125 238.841 157.791 235.903C152.856 233.154 135.477 224.038 140.279 222.813V222.802Z" fill="#AFB4B8"/>
<path d="M139.466 223.403C137.082 228.624 135.277 235.625 138.73 241.056C148.623 256.639 162.927 257.274 177.855 255.927C173.633 246.321 139.466 223.403 139.466 223.403Z" fill="#AFB4B8"/>
<path d="M175.538 245.464L179.504 246.722C179.504 246.722 174.97 249.727 165.79 248.681C156.611 247.634 147.141 241.835 143.61 237.984C140.078 234.133 137.349 228.49 138.396 225.952L139.443 223.414L175.516 245.475L175.538 245.464Z" fill="#CFD3D6"/>
<path d="M165.189 230.027C162.292 229.404 154.806 229.092 156.967 231.006C159.128 232.921 167.316 238.798 168.976 237.384C170.792 235.837 171.26 235.648 171.193 234.535C171.126 233.433 165.189 230.027 165.189 230.027Z" fill="#FFF0FF"/>
<path d="M156.711 231.295C156.098 230.761 156.131 230.327 156.276 230.049C157.012 228.602 163.428 229.247 165.278 229.637L165.389 229.681C167.227 230.739 171.516 233.321 171.594 234.501C171.672 235.647 171.204 236.037 169.945 237.072C169.734 237.25 169.5 237.439 169.232 237.662C168.999 237.862 168.664 237.951 168.274 237.951C165.133 237.951 157.747 232.186 156.711 231.273V231.295ZM156.978 230.394C156.978 230.394 156.989 230.494 157.234 230.717C159.93 233.11 167.472 238.163 168.72 237.094C168.987 236.872 169.221 236.671 169.433 236.493C170.681 235.447 170.848 235.291 170.792 234.579C170.692 234.011 167.751 231.974 165.044 230.416C162.103 229.793 157.301 229.793 156.978 230.416V230.394Z" fill="#C5C7C8"/>
<path d="M187.046 255.015L196.961 254.28L182.601 247.112C182.2 247.023 181.732 247.201 181.309 247.669C180.462 248.604 179.949 249.906 180.339 251.097C180.529 251.687 180.863 252.032 181.264 252.121H181.286L187.068 255.004L187.046 255.015Z" fill="#C5C7C8"/>
<path d="M188.082 249.738C188.917 249.171 189.63 249.282 189.976 249.916C190.165 250.284 190.366 250.64 190.555 251.007C190.288 250.506 189.742 250.428 189.084 250.863C188.149 251.497 187.358 253 187.313 254.202C187.291 255.126 187.703 255.604 188.316 255.504C187.904 255.571 187.503 255.638 187.09 255.704C186.299 255.838 185.765 255.204 185.798 254.024C185.843 252.465 186.856 250.54 188.071 249.727L188.082 249.738Z" fill="url(#paint13_linear_801_636)"/>
<path d="M185.954 248.681C186.522 248.302 187.023 248.224 187.402 248.414L189.53 249.46C189.151 249.271 188.65 249.349 188.082 249.727C186.868 250.551 185.854 252.476 185.809 254.023C185.787 254.858 186.043 255.415 186.478 255.626L184.35 254.58C183.915 254.368 183.659 253.812 183.681 252.977C183.726 251.419 184.74 249.493 185.954 248.681Z" fill="url(#paint14_linear_801_636)"/>
<path d="M189.084 250.874C189.519 250.573 189.92 250.518 190.21 250.662L201.862 256.417C201.573 256.272 201.183 256.328 200.737 256.628C199.801 257.263 199.01 258.765 198.966 259.968C198.944 260.613 199.144 261.047 199.478 261.214L187.826 255.46C187.491 255.293 187.291 254.859 187.313 254.213C187.347 253.011 188.138 251.508 189.084 250.874Z" fill="url(#paint15_linear_801_636)"/>
<path d="M200.737 256.628C201.049 256.417 201.328 256.328 201.573 256.339C201.773 256.35 201.974 256.361 202.185 256.372C201.918 256.361 201.606 256.45 201.272 256.684C200.247 257.374 199.389 259.01 199.345 260.324C199.333 260.847 199.445 261.236 199.657 261.481C199.523 261.325 199.389 261.169 199.255 261.025C199.066 260.802 198.955 260.446 198.966 259.967C198.999 258.765 199.79 257.263 200.737 256.628Z" fill="url(#paint16_linear_801_636)"/>
<path d="M201.272 256.683C201.751 256.361 202.174 256.294 202.497 256.45L203.533 256.962C203.21 256.806 202.787 256.873 202.308 257.195C201.283 257.885 200.425 259.522 200.381 260.835C200.358 261.536 200.581 262.015 200.949 262.193L199.913 261.681C199.545 261.503 199.334 261.024 199.345 260.323C199.378 259.01 200.247 257.373 201.272 256.683Z" fill="url(#paint17_linear_801_636)"/>
<path d="M200.37 260.835C200.336 262.149 201.127 262.661 202.152 261.959C203.177 261.269 204.035 259.633 204.079 258.32C204.113 257.006 203.322 256.494 202.297 257.196C201.272 257.886 200.414 259.522 200.37 260.835Z" fill="#394344"/>
<path d="M167.149 216.825C157.947 211.182 146.651 200.419 140.49 223.96C146.651 243.082 175.538 245.453 175.538 245.453C175.538 245.453 180.573 225.051 167.149 216.814V216.825Z" fill="#313942"/>
<path d="M140.446 256.472C146.93 252.243 159.964 265.833 159.964 265.833C159.964 265.833 146.395 284.967 140.323 283.152C130.241 280.136 140.446 256.472 140.446 256.472Z" fill="#DBDCE2"/>
<path d="M162.738 269.562C162.325 271.632 157.791 276.051 156.131 277.064C154.471 278.077 147.498 281.695 147.91 279.635C148.322 277.565 158.003 265.822 159.953 265.822C161.902 265.822 163.139 267.492 162.726 269.562H162.738Z" fill="#FFB317"/>
<path d="M141.404 255.982C141.627 256.104 138.374 266.667 137.806 268.526C137.238 270.385 136.235 274.748 135.789 273.19C135.21 271.164 136.123 260.723 137.962 256.627C138.753 254.858 140.635 255.57 141.404 255.982Z" fill="#FFB317"/>
<path d="M260.026 205.816L260.293 233.241C260.293 233.164 260.293 233.074 260.271 232.985L260.003 205.56C260.003 205.649 260.015 205.727 260.015 205.816H260.026Z" fill="#4C9F29"/>
<path d="M217.124 196.678L216.857 169.252C216.846 167.883 218.105 166.681 219.787 166.536L220.054 193.962C218.372 194.107 217.113 195.309 217.124 196.678Z" fill="#307F17"/>
<path d="M255.425 193.583L255.157 166.157L260.015 205.571L260.282 232.986L255.425 193.583Z" fill="#307F17"/>
<path d="M220.054 193.962L219.787 166.536L251.581 163.765L251.849 191.179L220.054 193.962Z" fill="#4C9F29"/>
<path d="M251.849 191.179L251.581 163.753C253.364 163.597 254.979 164.677 255.157 166.157L255.425 193.583C255.247 192.103 253.631 191.023 251.849 191.179Z" fill="#4C9F29"/>
<path d="M251.849 191.179C253.631 191.023 255.247 192.103 255.425 193.583L260.282 232.986C260.46 234.466 259.157 235.791 257.374 235.946L225.58 238.729C223.798 238.885 222.182 237.805 222.004 236.336L217.147 196.934C216.969 195.453 218.283 194.118 220.066 193.962L251.86 191.179H251.849Z" fill="#BEC3C7"/>
<path d="M225.235 237.527C224.21 237.527 223.296 236.926 223.207 236.18L218.35 196.778C218.305 196.411 218.473 196.11 218.628 195.921C218.963 195.509 219.531 195.231 220.166 195.175L251.96 192.393C252.038 192.393 252.116 192.393 252.194 192.393C253.219 192.393 254.121 192.994 254.211 193.739L259.068 233.142C259.112 233.509 258.945 233.81 258.789 233.999C258.455 234.411 257.887 234.689 257.252 234.745L225.457 237.527C225.38 237.527 225.302 237.527 225.224 237.527H225.235Z" fill="#1C6A13"/>
</g>
<defs>
<radialGradient id="paint0_radial_801_636" cx="0" cy="0" r="1" gradientTransform="matrix(0.431668 79.713 -139.049 0.751682 192.23 462.958)" gradientUnits="userSpaceOnUse">
<stop offset="0.09" stop-color="#1E2121"/>
<stop offset="0.57" stop-color="#0F1111"/>
<stop offset="1"/>
</radialGradient>
<linearGradient id="paint1_linear_801_636" x1="240.363" y1="312.637" x2="270.703" y2="260.033" gradientUnits="userSpaceOnUse">
<stop stop-color="#181818"/>
<stop offset="0.27" stop-color="#262626"/>
<stop offset="0.77" stop-color="#2E2E2E"/>
</linearGradient>
<linearGradient id="paint2_linear_801_636" x1="275.255" y1="310.055" x2="253.871" y2="272.996" gradientUnits="userSpaceOnUse">
<stop stop-color="#141414"/>
<stop offset="0.44" stop-color="#1E1E1E"/>
<stop offset="0.78" stop-color="#202020"/>
<stop offset="0.98" stop-color="#282828"/>
<stop offset="1" stop-color="#2A2A2A"/>
</linearGradient>
<linearGradient id="paint3_linear_801_636" x1="275.221" y1="309.676" x2="255.495" y2="275.468" gradientUnits="userSpaceOnUse">
<stop stop-color="#161616"/>
<stop offset="0.3" stop-color="#1A1A1A"/>
<stop offset="0.79" stop-color="#1D1D1D"/>
<stop offset="0.8" stop-color="#1E1E1E"/>
</linearGradient>
<linearGradient id="paint4_linear_801_636" x1="121.129" y1="381.414" x2="151.469" y2="328.821" gradientUnits="userSpaceOnUse">
<stop stop-color="#181818"/>
<stop offset="0.27" stop-color="#262626"/>
<stop offset="0.77" stop-color="#2E2E2E"/>
</linearGradient>
<linearGradient id="paint5_linear_801_636" x1="156.02" y1="378.843" x2="134.636" y2="341.773" gradientUnits="userSpaceOnUse">
<stop stop-color="#141414"/>
<stop offset="0.44" stop-color="#1E1E1E"/>
<stop offset="0.78" stop-color="#202020"/>
<stop offset="0.98" stop-color="#282828"/>
<stop offset="1" stop-color="#2A2A2A"/>
</linearGradient>
<linearGradient id="paint6_linear_801_636" x1="155.998" y1="378.464" x2="136.261" y2="344.256" gradientUnits="userSpaceOnUse">
<stop stop-color="#161616"/>
<stop offset="0.3" stop-color="#1A1A1A"/>
<stop offset="0.79" stop-color="#1D1D1D"/>
<stop offset="0.8" stop-color="#1E1E1E"/>
</linearGradient>
<linearGradient id="paint7_linear_801_636" x1="154.307" y1="349.718" x2="148.109" y2="347.768" gradientUnits="userSpaceOnUse">
<stop offset="0.05" stop-color="#7D7D7D"/>
<stop offset="0.95" stop-color="#8E8E8E"/>
</linearGradient>
<linearGradient id="paint8_linear_801_636" x1="124.928" y1="215.034" x2="127.876" y2="209.9" gradientUnits="userSpaceOnUse">
<stop offset="0.05" stop-color="#424E50"/>
<stop offset="0.95" stop-color="#545F61"/>
</linearGradient>
<linearGradient id="paint9_linear_801_636" x1="125.796" y1="215.535" x2="128.7" y2="210.501" gradientUnits="userSpaceOnUse">
<stop offset="0.05" stop-color="#364041"/>
<stop offset="0.95" stop-color="#475152"/>
</linearGradient>
<linearGradient id="paint10_linear_801_636" x1="130.431" y1="219.419" x2="133.702" y2="213.74" gradientUnits="userSpaceOnUse">
<stop offset="0.05" stop-color="#424E50"/>
<stop offset="0.95" stop-color="#545F61"/>
</linearGradient>
<linearGradient id="paint11_linear_801_636" x1="135.333" y1="222.691" x2="138.359" y2="217.447" gradientUnits="userSpaceOnUse">
<stop offset="0.05" stop-color="#364041"/>
<stop offset="0.95" stop-color="#475152"/>
</linearGradient>
<linearGradient id="paint12_linear_801_636" x1="136.58" y1="224.238" x2="140.118" y2="218.125" gradientUnits="userSpaceOnUse">
<stop offset="0.05" stop-color="#424E50"/>
<stop offset="0.95" stop-color="#545F61"/>
</linearGradient>
<linearGradient id="paint13_linear_801_636" x1="186.277" y1="255.526" x2="189.704" y2="249.569" gradientUnits="userSpaceOnUse">
<stop offset="0.05" stop-color="#364041"/>
<stop offset="0.95" stop-color="#475152"/>
</linearGradient>
<linearGradient id="paint14_linear_801_636" x1="184.506" y1="254.68" x2="188.01" y2="248.589" gradientUnits="userSpaceOnUse">
<stop offset="0.05" stop-color="#424E50"/>
<stop offset="0.95" stop-color="#545F61"/>
</linearGradient>
<linearGradient id="paint15_linear_801_636" x1="192.783" y1="258.309" x2="195.865" y2="252.964" gradientUnits="userSpaceOnUse">
<stop offset="0.05" stop-color="#424E50"/>
<stop offset="0.95" stop-color="#545F61"/>
</linearGradient>
<linearGradient id="paint16_linear_801_636" x1="198.854" y1="261.036" x2="201.703" y2="256.103" gradientUnits="userSpaceOnUse">
<stop offset="0.05" stop-color="#364041"/>
<stop offset="0.95" stop-color="#475152"/>
</linearGradient>
<linearGradient id="paint17_linear_801_636" x1="199.668" y1="261.547" x2="202.616" y2="256.447" gradientUnits="userSpaceOnUse">
<stop offset="0.05" stop-color="#424E50"/>
<stop offset="0.95" stop-color="#545F61"/>
</linearGradient>
<clipPath id="clip0_801_636">
<rect width="369" height="450" fill="white"/>
</clipPath>
</defs>
</svg>
