<svg width="375" height="547" viewBox="0 0 375 547" fill="none" xmlns="http://www.w3.org/2000/svg">
<path d="M-30 14.5H269.959C294.625 14.5 316.99 28.9881 327.074 51.4988C334.053 67.0785 334.365 84.8332 327.937 100.648L327.324 102.156C317.153 127.183 292.831 143.552 265.816 143.552H107.977C75.6809 143.552 49.5 169.733 49.5 202.029C49.5 234.324 75.6809 260.505 107.977 260.505H255.045C293.404 260.505 324.5 291.601 324.5 329.96C324.5 368.319 293.404 399.415 255.045 399.415H102.542C65.792 399.415 36 429.207 36 465.958C36 502.708 65.792 532.5 102.542 532.5H400" stroke="#00B75A" stroke-opacity="0.1" stroke-width="29"/>
</svg>
