<svg width="374" height="313" viewBox="0 0 374 313" fill="none" xmlns="http://www.w3.org/2000/svg">
<g clip-path="url(#clip0_330_42174)">
<path d="M364.041 134.75C360.436 136.555 355.913 138.943 351.169 141.464L348.504 142.878C337.951 148.481 326.937 154.292 322.848 155.481C316.55 157.308 294.016 169.504 294.016 169.504L272.708 175.601L274.533 193.895C274.533 193.895 308.02 182.706 328.724 181.589C349.422 180.477 354.901 185.964 355.517 190.235C356.127 194.505 340.903 198.776 329.938 200.603C318.979 202.43 287.311 212.188 287.311 212.188C287.311 212.188 210.196 267.673 199.737 271.024C192.279 273.413 185.502 275.031 180.457 277.535H180.451C179.611 277.947 178.825 278.382 178.094 278.856C177.038 279.521 176.093 280.259 175.274 281.084C170.405 285.96 144.222 318.276 144.222 318.276L82.4186 271.024C82.4186 271.024 102.039 247.288 104.155 227.685C104.276 226.568 104.342 225.462 104.342 224.378V224.059C104.265 203.916 97.0546 171.259 100.687 156.703C104.342 142.069 112.564 110.975 104.342 97.2554C96.1202 83.5355 91.7344 76.2216 95.1474 70.7347C98.555 65.2479 117.659 68.9021 127.596 86.5899C130.152 91.1357 131.965 96.2483 133.312 101.444C133.515 102.203 133.702 102.962 133.878 103.722C134.153 104.9 134.406 106.072 134.642 107.244L135.01 109.154C136.967 119.737 137.549 129.692 139.077 134.942C139.341 135.834 139.627 136.594 139.957 137.193C140.198 137.639 140.451 138.074 140.71 138.487C142.424 141.216 144.568 143.176 147.778 143.132C148.41 143.126 149.075 143.038 149.795 142.867C153.213 142.053 157.659 139.279 163.661 133.534C178.319 119.506 255.648 68.9021 264.777 59.1501C273.912 49.3927 300.644 29.2723 304.937 28.0506C309.229 26.8344 318.364 30.4886 310.444 44.5112C308.438 48.0608 304.525 53.2175 299.787 58.9355C299.16 59.6895 298.523 60.4544 297.874 61.2304C283.98 77.6965 264.777 97.5471 264.777 97.5471L267.217 116.451C267.217 116.451 295.165 99.3797 304.937 91.4494C314.709 83.5245 339.067 67.064 346.981 64.626C354.896 62.1825 360.375 70.7237 346.981 86.5734C343.013 91.2678 338.507 95.3733 333.89 99.0605C333.082 99.7044 332.28 100.337 331.466 100.954C321.249 108.779 310.872 114.74 304.937 120.716C295.835 129.868 271.477 146.929 269.042 146.929C266.607 146.929 269.042 156.075 269.042 156.075L274.522 149.411C274.522 149.411 303.75 137.788 313.489 134.128C323.233 130.468 339.672 122.543 348.801 120.105C357.935 117.662 368.894 115.229 371.939 117.662C374.984 120.105 376.204 128.636 364.025 134.733L364.041 134.75Z" fill="#87473D"/>
<path d="M103.435 389C103.435 389 45.5127 361.83 21.8413 345.71C6.61723 335.348 0 332.469 0 332.469C0 332.469 66.2932 271.327 79.6871 257.299C79.6871 257.299 139.968 293.274 156.406 323.147C156.406 323.147 114.395 374.361 103.43 388.994L103.435 389Z" fill="#BF3030"/>
<path d="M239.528 0.710007L140.149 29.3825C130.58 32.1452 125.057 42.1504 127.81 51.7317L194.51 283.561C197.269 293.148 207.267 298.679 216.835 295.922L316.215 267.249C325.783 264.486 331.307 254.481 328.548 244.894L261.848 13.0651C259.089 3.4837 249.097 -2.04718 239.528 0.710007Z" fill="#666666"/>
<path d="M318.776 251.234C317.176 252.957 315.104 254.283 312.686 254.982L266.278 268.372L259.891 270.215L213.301 283.655C210.965 284.326 208.591 284.331 206.382 283.781C201.886 282.669 198.088 279.241 196.714 274.469L132.268 50.4494C130.223 43.339 134.334 35.8875 141.43 33.8402L178.407 23.1747C181.886 22.1676 185.524 24.1763 186.53 27.671L186.558 27.77C187.58 31.3142 191.273 33.3614 194.813 32.3433C198.352 31.3197 200.397 27.6214 199.38 24.0773L199.352 23.9727C198.352 20.4891 200.358 16.8458 203.843 15.8387L240.82 5.1732C247.915 3.12595 255.362 7.24246 257.407 14.3583L321.859 238.378C323.211 243.073 321.876 247.91 318.781 251.245L318.776 251.234Z" fill="white"/>
<path d="M155.368 105.18C155.368 105.18 151.229 94.658 161.913 91.6037C174.648 87.9604 196.143 81.7306 196.143 81.7306C196.143 81.7306 204.172 78.258 208.025 89.9912C211.878 101.73 220.666 133.93 220.666 133.93C220.666 133.93 223.634 142.592 213.23 146.07C202.826 149.549 179.001 155.944 179.001 155.944C179.001 155.944 170.828 159.73 167.684 149.213C164.535 138.701 155.368 105.18 155.368 105.18Z" fill="#FCE9DE"/>
<path d="M214.758 88.0483C214.758 88.0483 210.619 77.5259 221.304 74.4715C234.038 70.8283 255.533 64.5985 255.533 64.5985C255.533 64.5985 263.563 61.1204 267.415 72.8591C271.268 84.5977 280.056 116.798 280.056 116.798C280.056 116.798 283.024 125.46 272.62 128.938C262.216 132.416 238.391 138.811 238.391 138.811C238.391 138.811 230.218 142.598 227.074 132.081C223.925 121.569 214.758 88.0483 214.758 88.0483Z" fill="#FCE9DE"/>
<path d="M141.649 57.4055C141.649 57.4055 139.325 51.6435 161.693 45.2046C188.355 37.5329 233.373 24.5229 233.373 24.5229C233.373 24.5229 250.647 18.8434 253.609 25.6841C256.572 32.5193 261.177 51.9902 261.177 51.9902C261.177 51.9902 263.612 56.9873 241.628 63.6133C219.649 70.2394 169.949 84.295 169.949 84.295C169.949 84.295 152.268 90.2496 150.218 84.0033C148.168 77.757 141.649 57.4055 141.649 57.4055Z" fill="#F2A096"/>
<path d="M175.12 173.829C175.12 173.829 170.982 163.307 181.666 160.253C194.4 156.609 215.895 150.38 215.895 150.38C215.895 150.38 223.925 146.907 227.778 158.64C231.631 170.379 240.419 202.579 240.419 202.579C240.419 202.579 243.387 211.241 232.983 214.719C222.579 218.198 198.753 224.592 198.753 224.592C198.753 224.592 190.581 228.379 187.437 217.862C184.288 207.35 175.12 173.829 175.12 173.829Z" fill="#FCE9DE"/>
<path d="M234.511 156.697C234.511 156.697 230.372 146.175 241.056 143.12C253.791 139.477 275.286 133.247 275.286 133.247C275.286 133.247 283.315 129.769 287.168 141.508C291.021 153.247 299.809 185.447 299.809 185.447C299.809 185.447 302.777 194.109 292.373 197.587C281.969 201.065 258.143 207.46 258.143 207.46C258.143 207.46 249.971 211.247 246.827 200.73C243.678 190.218 234.511 156.697 234.511 156.697Z" fill="#FCE9DE"/>
<path d="M259.897 270.215L213.307 283.654C210.971 284.326 208.597 284.331 206.387 283.781C202.716 271.156 194.868 242.473 194.868 242.473C194.868 242.473 190.729 231.945 201.419 228.896C214.153 225.253 235.643 219.017 235.643 219.017C235.643 219.017 243.672 215.545 247.525 227.283C250.971 237.784 258.374 264.668 259.891 270.215H259.897Z" fill="#FCE9DE"/>
<path d="M318.776 251.234C317.176 252.957 315.104 254.283 312.686 254.982L266.278 268.372C262.887 256.892 254.258 225.341 254.258 225.341C254.258 225.341 250.119 214.818 260.804 211.764C273.543 208.121 295.033 201.891 295.033 201.891C295.033 201.891 303.063 198.418 306.915 210.152C310.07 219.771 316.539 243.106 318.776 251.24V251.234Z" fill="#FCE9DE"/>
<path d="M158.698 62.3918L213.845 46.4815C215.796 45.9202 216.923 43.8784 216.357 41.9247C215.797 39.9711 213.757 38.8429 211.806 39.4097L156.659 55.3199C154.708 55.8813 153.581 57.923 154.147 59.8767C154.708 61.8304 156.747 62.9586 158.698 62.3918Z" fill="#E37D7D"/>
<path d="M160.853 72.2536L216 56.3433C217.951 55.782 219.078 53.7403 218.512 51.7866C217.951 49.8329 215.912 48.7047 213.961 49.2715L158.814 65.1818C156.862 65.7431 155.736 67.7848 156.302 69.7385C156.863 71.6922 158.902 72.8204 160.853 72.2536Z" fill="#E37D7D"/>
<path d="M192.433 136.708L173.589 142.143C172.434 142.476 171.767 143.684 172.1 144.841L172.271 145.433C172.603 146.59 173.809 147.257 174.964 146.924L193.808 141.488C194.963 141.155 195.63 139.948 195.297 138.791L195.127 138.199C194.794 137.042 193.588 136.375 192.433 136.708Z" fill="#F2786A"/>
<path d="M212.317 205.843L193.473 211.279C192.318 211.612 191.652 212.819 191.984 213.976L192.155 214.568C192.487 215.725 193.693 216.392 194.849 216.059L213.692 210.624C214.847 210.291 215.514 209.083 215.181 207.926L215.011 207.334C214.678 206.177 213.472 205.51 212.317 205.843Z" fill="#F2786A"/>
<path d="M272.291 188.542L253.448 193.978C252.293 194.311 251.626 195.518 251.959 196.675L252.129 197.267C252.462 198.424 253.668 199.091 254.823 198.758L273.667 193.323C274.822 192.99 275.488 191.782 275.156 190.625L274.985 190.033C274.652 188.876 273.446 188.209 272.291 188.542Z" fill="#F2786A"/>
<path d="M233.564 124.842L252.402 119.408C253.559 119.075 254.764 119.746 255.096 120.899L255.266 121.492C255.599 122.65 254.929 123.857 253.777 124.189L234.939 129.623C233.782 129.957 232.577 129.285 232.245 128.132L232.075 127.54C231.742 126.382 232.412 125.174 233.564 124.842Z" fill="#F2786A"/>
<path d="M172.949 131.217C173.268 126.709 174.005 118.157 175.329 112.709C175.329 112.709 194.323 107.866 196.5 107.712C198.676 107.558 206.64 122.868 206.442 124.514C206.277 125.884 184.2 131.921 175.846 133.726C174.285 134.062 172.839 132.813 172.949 131.217Z" fill="#BF3030"/>
<path d="M175.324 112.709C175.324 112.709 175.505 100.282 177.566 95.8852C179.627 91.488 189.262 90.2883 196.494 107.717L194.054 109.693C194.054 109.693 187.767 93.8985 182.666 94.8946C177.566 95.8907 177.066 105.709 178.418 112.615C179.77 119.522 175.324 112.715 175.324 112.715V112.709Z" fill="#BF3030"/>
<path d="M227.162 102.687L231.878 114.272C232.329 115.384 233.615 115.895 234.703 115.4L263.502 102.357C264.59 101.862 265.058 100.563 264.524 99.4898L258.896 88.1639C258.391 87.1403 257.165 86.711 256.126 87.1843L228.24 99.9686C227.212 100.442 226.734 101.642 227.162 102.693V102.687Z" fill="#B5B5B5"/>
<path d="M264.964 113.678C263.029 113.678 260.87 113.1 258.506 111.944C249.119 107.349 238.721 94.4929 237.792 90.3709C237.149 87.5146 239.545 83.7008 243.018 82.0443C245.162 81.0207 250.768 79.4412 256.577 86.8212L255.665 87.5421C251.938 82.8092 247.509 81.1858 243.513 83.0954C240.226 84.6639 238.451 88.0595 238.918 90.1232C239.677 93.4968 249.559 106.281 259.012 110.909C262.612 112.671 265.64 112.995 268.025 111.867C272.263 109.869 272.785 105.681 272.477 102.517C271.856 96.1604 267.443 89.2152 264.475 88.4722C259.518 87.2284 258.369 86.1883 252.851 81.1802C252.312 80.6904 251.73 80.1621 251.098 79.5953C247.998 76.7996 243.189 75.864 238.242 77.1023C234.12 78.1314 230.735 80.5309 229.811 83.0734C227.75 88.7474 227.97 100.547 227.97 100.662L226.811 100.684C226.8 100.189 226.585 88.5548 228.718 82.6717C229.784 79.7384 233.406 77.1078 237.957 75.9686C243.282 74.6367 248.481 75.6659 251.873 78.7257C252.505 79.2981 253.087 79.8264 253.626 80.3162C259.089 85.2748 260.078 86.1663 264.755 87.3385C268.449 88.2631 273.01 96.0063 273.631 102.396C274.12 107.393 272.301 111.124 268.52 112.907C267.437 113.419 266.25 113.672 264.959 113.672L264.964 113.678Z" fill="#B5B5B5"/>
<path d="M256.737 148.541C256.737 148.541 256.55 145.168 258.38 144.111C260.21 143.054 263.81 142.207 265.86 145.911L264.052 147.237C264.052 147.237 263.722 144.689 261.837 144.705C259.952 144.722 259.105 145.597 259.369 147.534C259.627 149.466 256.742 148.547 256.742 148.547L256.737 148.541Z" fill="#E06F63"/>
<path d="M267.08 146.769C267.08 146.769 270.009 144.403 274.192 146.747C278.374 149.092 285.706 152.256 288.163 161.491C290.62 170.725 283.194 175.244 283.194 175.244L281.661 173.411C281.661 173.411 286.849 170.186 285.041 163.202C283.233 156.213 275.544 147.98 271.015 148.272C266.486 148.563 267.075 146.769 267.075 146.769H267.08Z" fill="#E06F63"/>
<path d="M256.22 150.341C256.22 150.341 250.141 151.755 247.135 160.753C244.129 169.751 248.245 185.53 258.16 182.552L260.084 180.059C260.084 180.059 255.461 180.885 252.807 177.522C250.152 174.16 248.372 165.404 249.806 160.858C251.246 156.312 255.852 152.867 255.852 152.867L256.225 150.341H256.22Z" fill="#E06F63"/>
<path d="M191.839 181.628C191.394 181.754 195.934 198.446 199.094 202.821C199.094 202.821 220.226 198.094 225.277 195.265C225.277 195.265 224.618 181.952 221.139 173.175C221.139 173.175 204.106 178.089 191.839 181.628Z" fill="#FFB730"/>
<path d="M201.095 181.694C201.095 181.694 200.094 171.067 201.221 167.82C202.348 164.573 208.558 169.085 213.235 178.193L210.751 178.909C210.751 178.909 206.371 170.483 204.403 170.439C202.436 170.39 203.727 180.934 203.727 180.934L201.095 181.694Z" fill="#FFB730"/>
<path d="M271.136 180.301C274.087 179.553 284.024 177.005 285.036 175.761C286.052 174.517 277.819 141.145 260.842 146.362C243.859 151.579 256.17 183.35 258.71 183.356C261.249 183.367 270.251 180.521 271.136 180.301Z" fill="#E06F63"/>
<path d="M257.143 171.331C257.555 171.634 258.951 179.058 261.546 180.004C264.14 180.951 275.896 177.027 277.347 176.185C278.792 175.343 278.809 170.263 277.044 165.591L257.143 171.331Z" fill="#F2786A"/>
<path d="M274.044 154.925C274.044 154.925 277.325 162.542 273.368 164.215C269.41 165.882 267.701 159.928 266.855 157L274.038 154.925H274.044Z" fill="#F2786A"/>
<path d="M262.342 158.299C262.342 158.299 265.624 165.915 261.666 167.588C257.709 169.256 256 163.301 255.154 160.374L262.337 158.299H262.342Z" fill="#F2786A"/>
<path d="M254.527 162.25C254.527 162.25 254.335 160.467 254.741 158.943L262.909 156.587C262.909 156.587 264.607 158.497 264.508 159.372C264.409 160.247 255.373 162.641 254.527 162.25Z" fill="#BF3030"/>
<path d="M265.937 158.959C265.937 158.959 265.745 157.176 266.151 155.652L274.318 153.296C274.318 153.296 276.017 155.206 275.918 156.081C275.819 156.956 266.783 159.35 265.937 158.959Z" fill="#BF3030"/>
<path d="M272.329 256.204C272.329 256.204 269.773 244.569 271.252 233.194C271.252 233.194 290.01 232.858 298.298 228.087C298.298 228.087 305.157 237.052 307.432 246.072C307.432 246.072 293.593 256.886 272.323 256.198L272.329 256.204Z" fill="#FFB730"/>
<path d="M272.587 239L270.812 236.854C277.858 223.805 285.157 222.369 290.042 223.464C295.319 224.647 298.875 228.907 299.029 229.089L297.594 231.741L298.314 230.415L297.6 231.741C297.077 231.114 284.684 216.613 272.593 239H272.587Z" fill="#FFB730"/>
<path d="M217.198 270.518C215.753 270.457 210.641 265.906 210.976 255.499L238.33 247.607C238.33 247.607 245.678 252.786 242.799 263.132L217.198 270.518Z" fill="#A6A6A6"/>
<path d="M213.038 257.304L211.136 256.308C212.95 251.553 214.719 244.019 212.972 242.165C212.691 241.867 212.422 241.581 212.158 241.306C209.487 238.505 207.184 236.083 209.487 232.638C210.784 230.701 214.274 230.239 215.714 230.129C220.303 229.782 226.679 231.108 230.812 235.863C237.165 243.177 237.704 248.174 237.72 248.383L235.648 248.653C235.648 248.62 235.093 244.223 229.35 237.608C225.706 233.42 219.985 232.259 215.846 232.572C213.016 232.787 211.471 233.634 211.125 234.152C210.169 235.583 210.482 236.282 213.543 239.501C213.807 239.782 214.082 240.068 214.368 240.37C217.841 244.069 213.862 255.136 213.027 257.315L213.038 257.304Z" fill="#A6A6A6"/>
<path d="M133.889 103.722C132.691 103.997 131.454 104.135 130.416 104.267C127.272 104.674 124.238 104.443 121.166 103.722C120.66 103.606 120.77 102.764 121.287 102.814C124.326 103.094 127.415 102.995 130.41 102.395C131.355 102.208 132.339 101.829 133.323 101.443C133.526 102.203 133.713 102.962 133.889 103.722Z" fill="#6E2215"/>
<path d="M135.021 109.154C132.147 110.672 127.761 109.72 124.881 108.966C124.738 108.933 124.766 108.702 124.914 108.702C127.101 108.774 129.311 108.631 131.416 107.992C132.581 107.646 133.565 107.315 134.647 107.244L135.016 109.154H135.021Z" fill="#6E2215"/>
<path d="M158.187 168.607C158.374 170.747 155.104 171.034 154.554 169.102C153.23 164.413 152.554 159.487 151.361 154.749C150.789 152.465 150.141 150.198 149.542 147.908C149.124 146.312 148.706 144.54 147.789 143.137C148.421 143.131 149.086 143.043 149.806 142.873C151.603 144.832 152.526 147.914 153.372 150.247C155.483 156.07 157.632 162.41 158.187 168.612V168.607Z" fill="#6E2215"/>
<path d="M351.169 141.464C351.147 141.321 351.093 141.172 351.032 141.018C348.476 135.091 346.212 128.449 342.541 123.105C342.101 122.461 341.15 122.863 341.299 123.628C342.535 129.995 345.673 136.274 348.103 142.256C348.207 142.51 348.339 142.719 348.504 142.884L351.169 141.47V141.464Z" fill="#6E2215"/>
<path d="M350.394 123.545C350.219 125.372 350.147 127.639 350.702 129.406C351.125 130.743 353.384 130.589 353.263 129.059C353.11 127.117 352.203 125.014 351.307 123.297C351.065 122.83 350.438 123.099 350.394 123.545Z" fill="#6E2215"/>
<path d="M325.69 79.0446C325.734 82.5062 326.69 85.7147 328.46 88.6975C329.944 91.2016 332.4 94.5146 335.335 95.2851C336.187 95.5052 337.133 94.4926 336.561 93.6891C334.907 91.3502 332.384 89.8202 330.741 87.3657C329.02 84.8011 327.965 81.8293 327.289 78.83C327.086 77.9274 325.679 78.1311 325.69 79.0446Z" fill="#6E2215"/>
<path d="M333.901 99.0769C333.093 99.7208 332.291 100.354 331.477 100.97C330.004 99.9079 328.746 98.1028 327.943 96.9196C325.888 93.8542 324.717 90.4146 323.689 86.909C323.502 86.2596 324.464 85.8468 324.783 86.4467C326.239 89.1984 327.668 92.0271 329.471 94.5697C330.482 95.995 331.691 97.3489 333.054 98.444C333.373 98.6972 333.654 98.8953 333.895 99.0824L333.901 99.0769Z" fill="#6E2215"/>
<path d="M299.798 58.9409C299.545 58.7043 299.254 58.4511 298.946 58.165C297.633 56.9157 296.412 55.5729 295.308 54.1255C293.087 51.2087 291.279 47.9727 289.762 44.6377C289.487 44.0433 288.657 44.4946 288.767 45.0614C289.553 49.0294 291.109 52.6451 293.445 55.9526C294.483 57.4165 296.033 60.0746 297.885 61.2358L299.798 58.9409Z" fill="#6E2215"/>
<path d="M296.649 50.8565C295.896 53.4046 297.781 56.7506 300.639 56.7121C301.617 56.7011 302.035 55.3308 301.144 54.8355C299.452 53.8889 298.045 52.9203 297.693 50.8565C297.6 50.3007 296.786 50.3777 296.643 50.8565H296.649Z" fill="#6E2215"/>
<path d="M326.773 191.77C326.553 192.998 326.333 194.225 326.201 195.463C326.08 196.569 325.893 197.912 326.498 198.886C326.762 199.31 327.361 199.31 327.624 198.886C328.229 197.912 328.037 196.569 327.921 195.463C327.789 194.225 327.569 192.998 327.35 191.77C327.3 191.484 326.827 191.484 326.773 191.77Z" fill="#6E2215"/>
<path d="M180.462 277.529C179.622 277.942 178.836 278.377 178.105 278.85C176.901 277.601 175.637 276.406 174.499 275.24C171.955 272.631 169.41 270.056 166.7 267.607C163.881 265.048 161.001 262.549 157.967 260.232C155.78 258.559 152.196 257.101 151.24 254.415C150.965 253.639 151.674 252.946 152.394 252.902C154.406 252.775 155.818 254.217 157.401 255.34C158.874 256.391 160.319 257.475 161.748 258.587C164.876 261.03 167.904 263.6 170.723 266.396C173.526 269.175 176.181 272.075 178.577 275.207C179.116 275.911 179.803 276.693 180.468 277.529H180.462Z" fill="#6E2215"/>
<path d="M162.562 225.099C159.385 230.162 153.422 233.601 148.03 235.869C142.364 238.252 136.208 239.402 130.058 239.132C123.644 238.857 117.434 237.09 111.833 233.948C109.41 232.589 106.074 230.409 104.155 227.685C104.276 226.568 104.342 225.462 104.342 224.378V224.064C105.557 225.82 106.898 227.305 108.871 228.555C111.339 230.107 113.927 231.527 116.664 232.567C121.688 234.482 127.14 235.511 132.515 235.417C137.94 235.318 143.348 234.031 148.239 231.692C152.878 229.463 156.494 226.1 160.666 223.2C161.82 222.402 163.271 223.959 162.562 225.099Z" fill="#6E2215"/>
<path d="M166.151 274.53C165.783 271.321 162.062 268.482 159.841 266.374C156.786 263.474 153.411 260.92 149.954 258.515C143.001 253.672 135.455 249.721 127.854 246.011C125.947 245.081 124.018 244.19 122.089 243.298C120.847 242.726 119.088 241.526 117.681 242.076C116.873 242.39 116.489 242.979 116.516 243.81C116.576 245.544 118.742 246.215 120.012 246.859C127.585 250.673 135.164 254.487 142.391 258.939C146.656 261.564 150.784 264.321 154.752 267.381C156.549 268.768 158.33 270.16 160.05 271.641C161.589 272.967 163.133 274.866 165.189 275.273C165.618 275.355 166.211 275.069 166.151 274.541V274.53Z" fill="#6E2215"/>
<path d="M140.721 138.487C137.698 140.958 134.109 143.137 130.163 143.307C129.338 143.346 129.223 142.3 129.778 141.893C132.993 139.527 136.313 137.667 139.088 134.942C139.352 135.834 139.638 136.593 139.968 137.193C140.209 137.639 140.462 138.074 140.721 138.487Z" fill="#6E2215"/>
<path d="M101.864 93.095C101.864 93.095 92.6357 83.9264 91.4156 76.2052C90.1955 68.484 94.301 72.6445 94.301 72.6445C94.301 72.6445 98.7089 85.9627 101.864 91.0423V93.095Z" fill="#AB7268"/>
<path d="M75.7684 258.691C78.8737 261.504 82.6165 263.765 86.013 266.214C89.3711 268.641 92.6797 271.134 95.9224 273.704C102.792 279.142 109.591 284.662 116.175 290.44C129.118 301.799 141.166 314.182 152.02 327.56C153.224 329.041 155.719 328.788 156.972 327.56C158.44 326.124 158.16 324.06 156.972 322.602C145.914 309.031 133.625 296.483 120.424 285.003C113.812 279.252 106.925 273.754 99.7146 268.779C96.1092 266.291 92.4434 263.875 88.7335 261.548C85.2161 259.341 81.5502 256.914 77.6645 255.422C75.8288 254.718 74.3669 257.431 75.7629 258.697L75.7684 258.691Z" fill="#D15A5A"/>
<path d="M75.587 295.057C82.8583 295.057 82.8693 283.748 75.587 283.748C68.3048 283.748 68.3048 295.057 75.587 295.057Z" fill="#D15A5A"/>
<path d="M98.7254 308.794C104.842 308.794 104.853 299.279 98.7254 299.279C92.5973 299.279 92.5973 308.794 98.7254 308.794Z" fill="#D15A5A"/>
<path d="M62.7978 313.775C67.4804 313.775 67.4859 306.488 62.7978 306.488C58.1096 306.488 58.1096 313.775 62.7978 313.775Z" fill="#D15A5A"/>
<path d="M46.3591 304.848C46.8922 304.87 47.3869 304.76 47.843 304.518C48.3212 304.364 48.7334 304.094 49.0851 303.72C49.4589 303.368 49.7282 302.955 49.8821 302.476C50.1239 302.014 50.2338 301.518 50.2118 300.99C50.1679 300.649 50.1184 300.308 50.0744 299.961C49.8931 299.306 49.5633 298.739 49.0851 298.255C48.8268 298.051 48.563 297.853 48.3047 297.65C47.7056 297.303 47.0571 297.127 46.3591 297.121C45.826 297.099 45.3313 297.215 44.8752 297.451C44.397 297.606 43.9848 297.875 43.6331 298.249C43.2593 298.602 42.99 299.014 42.8361 299.493C42.5943 299.956 42.4844 300.451 42.5064 300.979C42.5503 301.32 42.5998 301.662 42.6438 302.008C42.8251 302.663 43.1549 303.23 43.6331 303.714C43.8914 303.918 44.1552 304.116 44.4135 304.32C45.0126 304.666 45.6611 304.843 46.3591 304.848Z" fill="#D15A5A"/>
<path d="M62.7977 284.089C67.7277 284.089 67.7332 276.423 62.7977 276.423C57.8623 276.423 57.8623 284.089 62.7977 284.089Z" fill="#D15A5A"/>
</g>
<defs>
<clipPath id="clip0_330_42174">
<rect width="374" height="389" fill="white"/>
</clipPath>
</defs>
</svg>
