<svg width="203" height="187" viewBox="0 0 203 187" fill="none" xmlns="http://www.w3.org/2000/svg">
<g clip-path="url(#clip0_430_13748)">
<path d="M48.0483 21.0379C48.016 20.8233 47.6927 20.7453 47.557 20.9078C46.3805 22.2995 46.1607 24.3806 45.7406 26.1234C45.2493 28.1589 44.6352 30.24 44.493 32.334C44.4542 32.9258 45.2687 32.9453 45.4561 32.4641C46.2318 30.4285 46.6003 28.1979 47.1498 26.0844C47.5764 24.4391 48.3262 22.7417 48.0483 21.0379Z" fill="#593D2D"/>
<path d="M68.5656 24.6667C66.0898 21.3045 61.4162 19.7112 56.9688 19.4056C51.1382 19.0089 48.0806 20.7713 47.4342 21.4866C46.7554 20.4721 41.2092 17.0839 36.9558 16.18C33.2518 15.3931 28.6558 16.232 26.3157 17.4871C26.3351 17.149 26.3674 16.8043 26.4127 16.4726C27.5504 7.67378 36.7489 -1.04703 50.7051 0.104035C61.9786 1.02749 68.7013 11.5952 69.0698 20.303C69.1279 21.6752 68.8306 23.4376 68.5656 24.6667Z" fill="#E2342B"/>
<path d="M68.5656 24.6667C66.0898 21.3045 61.4162 19.7112 56.9688 19.4056C51.1382 19.0089 48.0806 20.7712 47.4342 21.4866C46.7554 20.4721 41.2092 17.0839 36.9558 16.18C33.2518 15.3931 28.6558 16.232 26.3157 17.4871C26.3157 17.4871 28.339 12.3561 32.5666 11.6082C36.7942 10.8538 40.0327 12.6357 40.7567 14.4566C40.7567 14.4566 43.8595 11.6732 48.3069 11.3286C52.7542 10.9839 57.4666 14.1705 57.8092 16.8433C57.8092 16.8433 61.3968 13.8063 64.4091 14.6777C67.4214 15.5427 68.8306 21.0704 68.572 24.6667H68.5656Z" fill="#851F1A"/>
<path d="M68.21 24.6407C64.0277 25.6422 59.8777 26.7672 55.7471 27.9573C52.696 28.8352 49.4251 29.5766 46.4451 30.7927C51.0412 26.8192 54.952 21.3305 58.4297 16.4986C58.7982 15.9849 57.9643 15.5167 57.5894 16.0044C55.3334 18.9829 53.0451 21.9223 50.6081 24.7512C48.8821 26.7477 46.9299 28.6011 45.2751 30.6561C45.2687 30.6561 45.2622 30.6561 45.2557 30.6496C44.8873 27.9703 44.2861 25.33 43.6332 22.7027C42.9092 19.7958 42.2822 16.6222 40.7696 14.0144C40.5498 13.6372 40.0585 13.9104 40.1167 14.294C40.5433 17.2465 41.7974 20.1209 42.5925 22.9954C43.2777 25.4731 43.8013 27.9833 44.396 30.4741C42.5085 28.354 40.1814 26.6892 37.8866 25.0179C34.2343 22.3515 30.6208 19.334 26.6389 17.175C26.2769 16.9799 25.8697 17.4611 26.1864 17.7668C31.5452 22.8783 38.3972 26.1559 43.5686 31.4821C38.8756 33.9728 34.4218 37.1399 29.9744 40.0078C25.6305 42.8042 21.4417 45.7566 18.0351 49.6911C17.3046 50.5365 18.7074 51.551 19.4314 50.7186C26.2898 42.7976 36.3675 38.8047 44.5576 32.5291C44.6869 32.6461 44.8485 32.6786 45.0036 32.6461C50.7697 39.533 55.3722 47.0378 59.4446 55.0562C59.8389 55.8366 61.0348 55.3033 60.6857 54.4904C57.2015 46.3679 52.2176 38.8177 46.555 32.0543C49.9681 31.3065 53.3489 29.9538 56.6844 28.9978C60.6211 27.8663 64.5836 26.8322 68.5461 25.7982C69.2895 25.6031 68.9728 24.4651 68.2294 24.6407H68.21Z" fill="#75513B"/>
<path d="M6.10352e-05 90.4207C11.1637 95.5647 28.6299 103.076 40.4529 108.506C44.299 107.966 47.9965 107.29 51.5583 106.542C54.9779 105.827 58.2746 105.04 61.455 104.234C66.6522 102.92 71.5326 101.561 76.1416 100.364C63.6786 95.2331 45.663 88.6713 32.3339 83.8004C22.7346 84.0345 8.30006 87.3902 0.00652521 90.4272L6.10352e-05 90.4207Z" fill="#AA7445"/>
<path d="M9.3537 88.008C12.0622 89.1655 14.5703 90.2646 17.1753 91.6368C19.58 90.9929 21.9653 89.7248 24.37 89.0745C22.5988 88.073 20.5432 86.8699 18.772 85.8684C15.4623 86.1871 12.5599 87.0975 9.3537 88.0015V88.008Z" fill="#875B37"/>
<path d="M6.10352e-05 90.4208C3.05762 89.6079 6.18628 88.7885 9.35372 88.0146C12.463 87.2472 15.6175 86.5254 18.772 85.8815C23.3163 84.9646 27.8671 84.2102 32.3274 83.8005C34.2214 71.1518 36.1865 58.9907 36.4321 45.1454C32.224 46.0428 27.8736 47.0703 23.4909 48.1239C20.2329 48.9042 16.9621 49.7041 13.717 50.4715C10.6659 51.1869 7.64718 51.8827 4.69951 52.5135C3.54243 65.0387 1.15068 77.9086 6.10352e-05 90.4338L6.10352e-05 90.4208Z" fill="#CC955D"/>
<path d="M32.3274 83.7939C33.8723 70.4233 35.0294 59.1402 36.4321 45.1388C51.0735 50.7251 65.3852 56.8381 80.0265 62.4243C80.2075 74.8 77.5249 89.8809 76.1351 100.358C59.729 95.051 48.1388 89.7248 32.3274 83.7939Z" fill="#FECB94"/>
<path d="M13.1288 56.0643C14.2018 55.7976 19.761 55.0628 22.741 54.0938C22.9931 52.0973 23.2387 50.1073 23.4844 48.1108C20.2264 48.8912 16.9556 49.6911 13.7106 50.4585C13.5296 52.1949 13.368 53.7686 13.1223 56.0643H13.1288Z" fill="#B3804F"/>
<path d="M9.3537 88.0081C12.463 87.2407 15.6175 86.5188 18.772 85.875C19.0629 84.0801 19.3473 82.2852 19.6382 80.4904C16.4384 80.7765 13.3356 81.1602 10.1359 81.4398C9.79326 83.4688 9.52177 85.8035 9.36016 88.0081H9.3537Z" fill="#B3804F"/>
<path d="M46.2835 103.856C47.6022 104.63 50.1555 105.658 51.5518 106.542C54.9714 105.827 58.2681 105.04 61.4485 104.234C59.2377 103.271 55.8699 102.185 53.6527 101.223C50.4852 102.003 48.6559 103.193 46.2835 103.863V103.856Z" fill="#875B37"/>
<path d="M70.3044 93.1326C70.9637 92.2026 72.0691 91.1556 73.0517 90.3297C73.5559 91.6108 73.8661 92.853 73.9825 94.1536C73.6528 94.1211 73.3296 94.0691 73.0193 94.004L72.541 96.1241C71.901 95.916 71.2675 95.7079 70.6276 95.4933C70.8086 94.8364 71.0865 94.1731 71.3128 93.5163C70.9767 93.3992 70.6405 93.2692 70.3044 93.1326Z" fill="#875B37"/>
<path d="M66.6263 88.2551C66.3354 88.8664 66.0122 89.6533 65.9993 90.3296C65.9799 91.006 66.316 91.7473 66.9495 91.975C67.6347 92.2286 68.4169 91.7929 68.8112 91.1816C69.2055 90.5638 69.3025 89.8094 69.393 89.081C68.5462 88.8469 67.4796 88.4892 66.6328 88.2551H66.6263Z" fill="#875B37"/>
<path d="M65.6179 93.4252C65.857 93.4967 66.0962 93.5683 66.3354 93.6398C66.497 93.009 66.6521 92.3782 66.8137 91.7474C66.8978 91.4222 67.3761 91.6173 67.2985 91.936C67.1434 92.5538 66.9883 93.1716 66.8267 93.7894C67.0206 93.8479 67.221 93.9064 67.4149 93.9715C67.7316 94.069 67.5442 94.5568 67.2274 94.4592C66.6263 94.2771 66.0316 94.095 65.4304 93.9129C65.1137 93.8154 65.3011 93.3277 65.6179 93.4252Z" fill="#875B37"/>
<path d="M16.6001 85.3807C23.1806 89.4777 29.9938 92.9244 37.0527 96.1175C37.0656 96.124 37.085 96.1305 37.098 96.137C37.544 95.9744 37.99 95.8119 38.4231 95.6558C42.9351 93.991 48.0224 91.8839 52.8382 91.4677C53.3101 91.4287 53.5751 92.092 53.0903 92.3001C48.5977 94.2576 43.6009 95.2071 38.9855 96.9044C38.9532 96.9174 38.9209 96.9304 38.8885 96.9434C44.8356 99.6032 50.8667 102.211 56.4646 105.567C56.9365 105.853 56.497 106.679 55.9992 106.425C49.8324 103.297 43.5815 100.416 37.2919 97.5742C33.2776 99.2261 29.3604 101.379 25.2685 102.647C24.7514 102.809 24.1826 102.133 24.7191 101.749C27.8219 99.5577 31.7262 98.075 35.4431 96.7288C35.4044 96.7093 35.3656 96.6963 35.3333 96.6768C28.6752 93.6723 21.8878 90.5703 15.8696 86.3757C15.2103 85.914 15.9278 84.958 16.6001 85.3742V85.3807Z" fill="#593D2D"/>
<path d="M54.0212 82.3242C54.7258 79.1246 55.3851 75.9185 56.0057 72.6995C56.6262 69.4804 57.2015 66.2613 57.7381 63.0292C58.2487 59.9531 58.5138 56.7276 59.4252 53.7361C59.5804 53.2223 60.2591 53.489 60.272 53.9442C60.3302 57.3454 59.5286 60.8441 58.9727 64.1932C58.4362 67.4253 57.8609 70.6509 57.2339 73.8635C56.6133 77.0761 55.9475 80.2887 55.2429 83.4818C54.59 86.4342 54.2151 89.9395 52.8641 92.6513C52.6055 93.1651 51.8751 93.0025 51.888 92.4107C51.9591 89.0811 53.3036 85.5823 54.0212 82.3177V82.3242Z" fill="#6B4A36"/>
<path d="M18.9982 49.3204C19.0693 49.0603 19.5283 49.0993 19.5412 49.379C19.7933 55.2969 18.6362 61.4034 18.1967 67.3083C17.964 70.3713 17.77 73.4278 17.602 76.4974C17.4274 79.6904 17.5632 83.0396 17.0525 86.1937C16.9685 86.7269 16.1152 86.8245 16.057 86.2262C15.4947 80.2042 16.4578 73.714 16.9038 67.692C17.3499 61.6765 17.3822 55.1603 19.0047 49.3269L18.9982 49.3204Z" fill="#614331"/>
<path d="M26.3868 78.975C27.0526 78.6304 27.8607 78.7214 28.5976 78.6824C29.4379 78.6369 30.3235 78.5068 31.1574 78.6499C31.3643 78.6824 31.3836 79.0075 31.1768 79.0661C30.3623 79.2937 29.4702 79.2612 28.6299 79.3067C27.893 79.3457 27.1044 79.5213 26.3998 79.2547C26.2963 79.2157 26.2834 79.0336 26.3868 78.9815V78.975Z" fill="#8C663F"/>
<path d="M22.5148 79.2157C22.9931 79.0531 23.4909 79.0271 23.9951 78.9946C24.4282 78.9686 24.913 78.871 25.3138 79.0596C25.3913 79.0986 25.3978 79.2157 25.3267 79.2677C24.9453 79.5018 24.4605 79.4563 24.0274 79.4758C23.5297 79.5018 23.0255 79.5278 22.5342 79.4173C22.4308 79.3978 22.4243 79.2482 22.5213 79.2157H22.5148Z" fill="#8C663F"/>
<path d="M29.8904 80.2692C30.1361 80.2497 30.3882 80.2367 30.6338 80.2302C30.8148 80.2302 30.9829 80.2172 31.1122 80.3278C31.1251 80.3278 31.138 80.3278 31.1509 80.3278C31.3255 80.3538 31.3449 80.6399 31.1703 80.6789C31.1574 80.6789 31.1445 80.6854 31.1315 80.6919C31.0152 80.8155 30.8471 80.822 30.6661 80.8415C30.4205 80.861 30.1684 80.874 29.9227 80.887C29.5284 80.9 29.4961 80.2952 29.8904 80.2692Z" fill="#8C663F"/>
<path d="M22.8897 80.8415C23.8852 80.6269 24.8871 80.5423 25.902 80.4773C26.904 80.4122 27.9641 80.2432 28.9531 80.4513C29.1276 80.4903 29.1406 80.7439 28.9725 80.8024C28.0158 81.1146 26.9363 81.0626 25.9408 81.1016C24.9259 81.1471 23.9175 81.1731 22.9026 81.0626C22.7928 81.0496 22.7798 80.861 22.8897 80.835V80.8415Z" fill="#8C663F"/>
<path d="M27.5568 81.9926C28.701 82.0121 29.9098 81.8235 31.041 81.9471C31.2608 81.9731 31.2608 82.3177 31.0669 82.3763C29.9874 82.6819 28.6945 82.5844 27.5892 82.5584C27.2272 82.5519 27.1948 81.9861 27.5568 81.9926Z" fill="#8C663F"/>
<path d="M25.624 82.012C25.7663 82.012 25.9085 81.9925 26.0442 81.999C26.1089 81.999 26.18 82.0055 26.2381 82.0185C26.3157 82.0315 26.3868 82.0771 26.4644 82.0901C26.6454 82.1096 26.6648 82.4152 26.4838 82.4542C26.4062 82.4737 26.3416 82.5258 26.2705 82.5453C26.2123 82.5648 26.1412 82.5778 26.0765 82.5843C25.9408 82.6038 25.7921 82.6038 25.6564 82.6168C25.2685 82.6428 25.2362 82.0185 25.624 82.0055V82.012Z" fill="#8C663F"/>
<path d="M57.8027 16.8434C59.6708 11.2571 57.9514 0.318718 50.3301 0.0455829C42.7088 -0.221049 40.7567 14.4502 40.7567 14.4502C40.7567 14.4502 43.8595 11.6668 48.3068 11.3222C52.7542 10.9775 57.4665 14.1641 57.8091 16.8369L57.8027 16.8434Z" fill="#E2C4C2"/>
</g>
<g clip-path="url(#clip1_430_13748)">
<path d="M200.735 146.165C200.218 146.463 199.536 146.836 198.698 147.274C184.628 154.667 127.688 180.791 121.925 183.145C120.763 183.62 119.225 184.334 117.569 185.023C114.436 186.319 110.893 187.508 108.786 186.776C101.936 184.389 78.4575 157.767 76.5522 151.884C75.7337 149.353 79.897 147.316 82.4467 146.001C82.7525 145.843 83.0394 145.698 83.2887 145.559C90.8344 141.414 150.903 118.158 156.026 116.979C157.851 116.554 159.733 115.869 161.615 115.389C164.569 114.634 167.523 114.391 170.252 116.503C175.295 120.414 192.305 133.094 195.565 135.909C197.927 137.942 205.769 143.246 200.735 146.165Z" fill="#EDD8D1"/>
<path d="M76.4723 132.571C76.2182 134.711 75.602 143.582 77.6577 146.029C78.8244 147.419 97.6085 167.612 100.647 170.134C102.51 171.677 104.872 173.728 107.398 174.017C115.546 174.95 193.481 135.629 195.688 134.669C197.296 133.97 196.21 128.017 195.885 125.309L76.4723 132.571Z" fill="#564953"/>
<path d="M192.7 133.275C177.825 140.058 162.447 147.717 147.356 154.877C145.521 155.744 143.691 156.611 141.866 157.46C132.9 161.655 124.07 165.613 115.546 169.039C115.438 167.967 115.461 165.543 115.259 164.606C123.948 160.625 132.679 156.644 141.429 152.663C158.496 144.897 175.487 136.879 192.437 129.113C192.634 130.362 192.7 131.891 192.7 133.275Z" fill="#BFAFA7"/>
<path d="M141.866 157.46C132.9 161.655 124.07 165.613 115.546 169.039C115.438 167.967 115.461 165.543 115.259 164.606C123.948 160.625 132.679 156.644 141.429 152.663L141.866 157.46Z" fill="#7A9C02"/>
<path d="M194.37 128.059C193.881 128.343 193.232 128.698 192.437 129.113C179.086 136.128 125.063 160.914 119.596 163.147C118.495 163.599 117.032 164.275 115.461 164.927C112.488 166.158 109.129 167.286 107.13 166.592C100.633 164.326 78.354 139.065 76.5475 133.485C75.7713 131.084 79.7229 129.15 82.1409 127.905C82.4326 127.756 82.7054 127.616 82.9406 127.486C90.1005 123.556 147.093 101.488 151.952 100.369C153.683 99.9684 155.471 99.3158 157.254 98.859C160.057 98.1411 162.861 97.9127 165.449 99.9172C170.233 103.628 186.373 115.659 189.464 118.33C191.703 120.26 199.145 125.29 194.37 128.059Z" fill="#77758A"/>
<path d="M192.437 129.113C184.915 133.066 164.47 142.664 147.083 150.686C145.178 151.567 143.31 152.425 141.504 153.255C141.471 153.269 141.438 153.287 141.405 153.301C130.458 158.331 121.638 162.317 119.596 163.147C118.495 163.599 117.032 164.275 115.461 164.927C113.655 162.713 111.82 160.508 109.962 158.322C108.899 157.068 107.821 155.814 106.735 154.569C98.7987 145.419 90.4863 136.524 82.1409 127.905C82.4326 127.756 82.7054 127.616 82.9407 127.486C85.7726 125.933 96.4042 121.538 108.522 116.722C110.385 115.986 112.286 115.235 114.196 114.485C125.081 110.205 136.357 105.893 143.785 103.176C145.855 102.416 147.629 101.777 149.007 101.302C150.447 100.808 151.463 100.481 151.952 100.369C153.683 99.9685 155.471 99.3158 157.254 98.859C159.023 100.397 160.796 101.936 162.584 103.479C164.037 104.733 165.496 105.991 166.959 107.245C172.585 112.084 178.263 116.923 183.899 121.757L189.135 126.26C190.24 127.211 191.341 128.162 192.437 129.113Z" fill="#E2CEC5"/>
<path d="M153.98 117.076L129.254 131.061L114.196 114.485C125.081 110.205 136.357 105.893 143.785 103.176L153.98 117.076Z" fill="#8CB302"/>
<path d="M87.8424 145.279C88.6657 146.794 94.4895 153.096 95.3692 153.786C96.4841 154.663 100.666 151.292 100.953 150.551C101.245 149.796 94.0426 142.654 93.0736 141.946C92.1703 141.284 87.1274 143.964 87.8424 145.279Z" fill="#403A44"/>
<path d="M88.9668 145.684C88.9668 145.684 95.1905 152.388 95.7785 152.733C96.3666 153.078 99.4243 150.812 99.716 150.346C100.008 149.88 93.4264 143.41 93.0124 143.121C92.5985 142.832 88.4117 145.046 88.9621 145.684H88.9668Z" fill="#5C606C"/>
<path d="M179.566 114.293C177.308 112.256 175.05 110.219 172.792 108.182C172.119 107.576 171.122 108.564 171.795 109.17C174.053 111.207 176.311 113.245 178.569 115.282C179.241 115.888 180.239 114.899 179.566 114.293Z" fill="#BDCBD8"/>
<path d="M189.134 126.26C189.134 126.26 163.52 144.477 148.165 127.015L133.521 135.755L147.083 150.686C145.178 151.567 143.31 152.425 141.504 153.255L135.746 146.878L109.962 158.322C108.899 157.068 107.821 155.814 106.735 154.569L132.157 142.897L108.522 116.722C110.385 115.986 112.286 115.235 114.196 114.485L129.254 131.061C136.113 127.155 153.98 117.076 153.98 117.076L143.785 103.176C145.855 102.416 147.629 101.777 149.007 101.302L153.302 107.236L162.584 103.479C164.037 104.733 165.496 105.991 166.959 107.245L156.468 111.613L161.751 118.908L153.5 123.831C157.79 127.733 168.765 133.863 185.141 122.824L189.134 126.26Z" fill="#FFFFFD"/>
<path d="M147.356 154.877C145.521 155.744 143.691 156.611 141.866 157.46L141.476 153.171L147.074 150.64L147.356 154.872V154.877Z" fill="#D9D9D7"/>
<path d="M141.476 153.176L141.405 153.301C130.458 158.331 121.638 162.317 119.596 163.147C118.495 163.599 117.032 164.275 115.461 164.927C113.655 162.713 111.82 160.508 109.962 158.322L135.746 146.878L141.476 153.176Z" fill="#8CB302"/>
<path d="M98.0366 123.966L107.398 119.64L118.481 132.571L109.411 136.655L98.0366 123.966Z" fill="#B99D88"/>
<path d="M112.507 141.843L117.032 147.885L126.168 143.097L121.784 138.286L112.507 141.843Z" fill="#B99D88"/>
<path d="M102.948 146.878L109.962 143.097L113.862 149.199L106.975 152.663L102.948 146.878Z" fill="#B99D88"/>
<path d="M137.289 136.655L141.866 134.091L144.416 138.287L140.281 140.617L137.289 136.655Z" fill="#B99D88"/>
<path d="M141.476 141.843L149.468 137.354L156.995 144.463L147.356 148.659L141.476 141.843Z" fill="#B99D88"/>
<path d="M160.523 112.881L166.404 110.065L168.991 114.279L162.64 117.118L160.523 112.881Z" fill="#B99D88"/>
<path d="M82.8418 146.281C81.8351 145.284 80.8284 144.291 79.8217 143.293C79.1772 142.654 78.1799 143.647 78.8244 144.281C79.8311 145.279 80.8378 146.272 81.8445 147.269C82.489 147.908 83.4863 146.92 82.8418 146.281Z" fill="#362F34"/>
<path d="M83.9191 147.61C83.0112 147.61 83.0112 149.008 83.9191 149.008C84.827 149.008 84.827 147.61 83.9191 147.61Z" fill="#362F34"/>
<path d="M98.3706 162.093C98.1965 163.044 97.9425 164.475 97.6838 165.976C100.431 168.452 103.376 170.708 106.415 172.661C106.763 171.332 106.914 169.85 106.885 168.479C103.889 166.568 101.043 164.429 98.3659 162.093H98.3706Z" fill="#61525E"/>
<path d="M110.333 172.605C110.221 171.169 110.056 169.668 109.948 168.228C109.411 168.442 108.64 168.493 108.066 168.41C108.113 169.808 108.16 171.207 108.207 172.605C108.701 172.824 109.802 172.703 110.333 172.605Z" fill="#61525E"/>
<path d="M191.868 123.584C191.83 123.584 191.792 123.575 191.75 123.57C191.383 123.528 191.03 123.92 191.044 124.269C191.063 124.684 191.355 124.927 191.75 124.968C191.788 124.968 191.825 124.978 191.868 124.982C192.235 125.024 192.587 124.633 192.573 124.283C192.554 123.868 192.263 123.626 191.868 123.584Z" fill="#BDCBD8"/>
<path d="M116.364 118.027C114.953 120.754 112.163 126.031 108.456 125.612C106.499 125.388 104.895 123.85 103.559 122.036C102.36 120.414 101.381 118.573 100.558 117.282C97.8343 112.993 96.2536 106.229 98.3847 101.451C99.6031 98.7098 101.753 96.6867 104.26 95.5913C107.224 94.2953 110.696 94.2907 113.744 95.9176C114.398 96.2625 115.028 96.6867 115.635 97.1902C121.61 102.15 119.431 112.093 116.364 118.027Z" fill="#E2342B"/>
<path d="M115.635 97.1902C115.028 96.6868 114.398 96.2626 113.744 95.9176C111.989 94.9806 110.089 94.5844 108.231 94.6683C109.788 94.7336 111.35 95.1345 112.817 95.9176C113.471 96.2626 114.102 96.6868 114.708 97.1902C120.683 102.15 118.505 112.093 115.438 118.027C114.139 120.535 111.674 125.197 108.405 125.602C108.424 125.602 108.442 125.607 108.461 125.612C112.168 126.031 114.958 120.754 116.369 118.027C119.436 112.093 121.614 102.15 115.64 97.1902H115.635Z" fill="#E27971"/>
<path d="M114.906 111.31C114.055 112.396 112.907 113.217 111.627 113.739C111.096 113.958 110.54 114.121 109.976 114.228C108.494 114.522 106.937 114.424 105.526 113.888C102.28 112.657 100.045 109.208 100.248 105.772C100.563 100.374 105.803 97.5025 110.357 98.528C110.912 98.6539 111.453 98.8357 111.98 99.0781C112.488 99.3112 112.982 99.6049 113.443 99.9638C114.055 100.425 114.624 100.999 115.113 101.679C117.136 104.481 117.042 108.597 114.906 111.31Z" fill="#FED772"/>
<path d="M105.526 113.888C102.28 112.657 100.045 109.208 100.248 105.772C100.563 100.374 105.803 97.5025 110.357 98.528C111.533 103.073 108.184 109.679 105.526 113.888Z" fill="#F3C452"/>
<path d="M111.627 113.739C111.096 113.958 110.54 114.121 109.976 114.228C111.66 109.32 112.333 104.229 111.98 99.0781C112.488 99.3112 112.982 99.6049 113.443 99.9638C113.659 104.635 113.048 109.268 111.627 113.739Z" fill="#F3C452"/>
</g>
<defs>
<clipPath id="clip0_430_13748">
<rect width="80.0329" height="108.506" fill="white"/>
</clipPath>
<clipPath id="clip1_430_13748">
<rect width="126.206" height="92.3457" fill="white" transform="translate(76.1853 94.6543)"/>
</clipPath>
</defs>
</svg>
