<svg width="275" height="201" viewBox="0 0 275 201" fill="none" xmlns="http://www.w3.org/2000/svg">
<g clip-path="url(#clip0_549_4556)">
<path d="M271.392 112.117C270.264 112.767 268.778 113.579 266.953 114.532C236.294 130.624 112.222 187.485 99.6655 192.609C97.1336 193.644 93.7817 195.196 90.1735 196.698C83.3467 199.518 75.6281 202.106 71.0359 200.513C56.1112 195.318 4.95098 137.372 0.799534 124.567C-0.98405 119.058 8.08763 114.624 13.6434 111.762C14.3097 111.417 14.935 111.103 15.4782 110.798C31.92 101.778 162.808 51.158 173.971 48.5909C177.948 47.6676 182.049 46.1761 186.149 45.131C192.586 43.4873 199.023 42.9597 204.969 47.556C215.957 56.0688 253.023 83.667 260.127 89.7954C265.272 94.2193 282.36 105.766 271.392 112.117Z" fill="#141110"/>
<path d="M0.62526 82.5307C0.0717334 87.1879 -1.27108 106.497 3.20838 111.823C5.7505 114.847 46.6807 158.801 53.3025 164.29C57.3617 167.649 62.5074 172.113 68.0119 172.742C85.7658 174.772 255.586 89.1868 260.393 87.0966C263.899 85.5746 261.531 72.6177 260.824 66.7227L0.62526 82.5307Z" fill="#564953"/>
<path d="M253.884 84.0627C221.472 98.8257 187.963 115.496 155.079 131.081C151.082 132.968 147.094 134.856 143.117 136.702C123.58 145.834 104.34 154.448 85.7657 161.906C85.5299 159.572 85.5812 154.296 85.1404 152.257C104.073 143.592 123.098 134.927 142.164 126.262C179.353 109.358 216.377 91.9058 253.31 75.002C253.74 77.7212 253.884 81.0492 253.884 84.0627Z" fill="#BFAFA7"/>
<path d="M143.117 136.702C123.58 145.834 104.34 154.448 85.7657 161.906C85.5299 159.572 85.5812 154.296 85.1404 152.257C104.073 143.592 123.098 134.926 142.164 126.261L143.117 136.702Z" fill="#7A9C02"/>
<path d="M257.523 72.7089C256.457 73.3279 255.042 74.099 253.31 75.002C224.219 90.2723 106.503 144.221 94.5914 149.081C92.1928 150.065 89.0049 151.536 85.5813 152.957C79.103 155.635 71.7841 158.091 67.4277 156.579C53.2717 151.648 4.72544 96.6646 0.789254 84.5193C-0.902076 79.2939 7.70833 75.0832 12.9771 72.3741C13.6126 72.0494 14.2071 71.745 14.7197 71.4609C30.3209 62.9075 154.506 14.8745 165.094 12.4394C168.866 11.5668 172.762 10.1463 176.647 9.15194C182.756 7.5894 188.865 7.09223 194.503 11.4552C204.928 19.5317 240.097 45.7195 246.832 51.5334C251.711 55.734 267.927 66.682 257.523 72.7089Z" fill="#77758A"/>
<path d="M253.31 75.0019C236.92 83.6061 192.371 104.497 154.485 121.959C150.334 123.877 146.264 125.744 142.328 127.55C142.256 127.581 142.185 127.621 142.113 127.652C118.26 138.6 99.0404 147.275 94.5916 149.081C92.193 150.065 89.0051 151.536 85.5815 152.957C81.6453 148.137 77.6476 143.338 73.5987 138.579C71.2821 135.85 68.9347 133.12 66.5668 130.411C49.2743 110.494 31.1617 91.1347 12.9773 72.374C13.6128 72.0493 14.2074 71.7449 14.7199 71.4608C20.8907 68.0821 44.0568 58.514 70.462 48.0328C74.5212 46.4297 78.6624 44.7961 82.8241 43.1626C106.544 33.8482 131.114 24.4628 147.3 18.5474C151.81 16.8936 155.674 15.5035 158.678 14.4686C161.814 13.393 164.028 12.6828 165.094 12.4393C168.867 11.5667 172.762 10.1462 176.647 9.15186C180.501 12.5002 184.365 15.8485 188.261 19.2069C191.428 21.9363 194.606 24.6758 197.794 27.4052C210.053 37.9372 222.425 48.4691 234.706 58.9909L246.114 68.7923C248.523 70.8622 250.922 72.9321 253.31 75.0019Z" fill="#E2CEC5"/>
<path d="M169.512 48.8041L115.636 79.2433L82.824 43.1628C106.544 33.8484 131.114 24.463 147.3 18.5476L169.512 48.8041Z" fill="#8CB302"/>
<path d="M25.4005 110.19C27.1943 113.487 39.8844 127.205 41.8013 128.707C44.2306 130.614 53.3433 123.279 53.9686 121.665C54.6041 120.022 38.9106 104.477 36.799 102.935C34.8309 101.494 23.8424 107.329 25.4005 110.19Z" fill="#403A44"/>
<path d="M27.8504 111.072C27.8504 111.072 41.4118 125.663 42.6931 126.414C43.9744 127.165 50.6372 122.233 51.2728 121.219C51.9083 120.204 37.5679 106.121 36.6658 105.492C35.7638 104.863 26.6408 109.682 27.8402 111.072H27.8504Z" fill="#5C606C"/>
<path d="M225.265 42.7467C220.344 38.3127 215.424 33.8787 210.504 29.4447C209.038 28.1257 206.865 30.2767 208.331 31.5958C213.251 36.0297 218.171 40.4637 223.092 44.8977C224.557 46.2167 226.731 44.0657 225.265 42.7467Z" fill="#BDCBD8"/>
<path d="M246.114 68.7925C246.114 68.7925 190.3 108.445 156.843 70.4362L124.933 89.4607L154.485 121.96C150.334 123.877 146.264 125.744 142.328 127.55L129.781 113.67L73.5985 138.579C71.2819 135.85 68.9345 133.121 66.5667 130.412L121.96 105.005L70.4618 48.033C74.521 46.4299 78.6622 44.7963 82.8239 43.1627L115.636 79.2433C130.581 70.7406 169.512 48.8041 169.512 48.8041L147.299 18.5476C151.81 16.8937 155.674 15.5037 158.677 14.4688L168.036 27.3851L188.26 19.2071C191.428 21.9365 194.605 24.676 197.793 27.4054L174.935 36.9126L186.446 52.7917L168.467 63.5063C177.815 71.9988 201.73 85.3413 237.411 61.3146L246.114 68.7925Z" fill="#FFFFFD"/>
<path d="M155.079 131.081C151.082 132.968 147.094 134.856 143.117 136.702L142.266 127.368L154.464 121.858L155.079 131.071V131.081Z" fill="#D9D9D7"/>
<path d="M142.266 127.378L142.113 127.652C118.26 138.6 99.0401 147.275 94.5914 149.081C92.1928 150.065 89.0049 151.536 85.5812 152.957C81.645 148.137 77.6473 143.338 73.5984 138.579L129.781 113.67L142.266 127.378Z" fill="#8CB302"/>
<path d="M47.6135 63.8004L68.012 54.3845L92.1621 82.5306L72.3992 91.4188L47.6135 63.8004Z" fill="#B99D88"/>
<path d="M79.1438 102.712L89.0048 115.862L108.911 105.441L99.3578 94.9702L79.1438 102.712Z" fill="#B99D88"/>
<path d="M58.3152 113.67L73.5987 105.441L82.0963 118.723L67.0896 126.262L58.3152 113.67Z" fill="#B99D88"/>
<path d="M133.143 91.4189L143.117 85.8384L148.673 94.9701L139.663 100.043L133.143 91.4189Z" fill="#B99D88"/>
<path d="M142.266 102.712L159.682 92.9409L176.083 108.414L155.079 117.546L142.266 102.712Z" fill="#B99D88"/>
<path d="M183.771 39.6724L196.584 33.5439L202.222 42.7163L188.383 48.8954L183.771 39.6724Z" fill="#B99D88"/>
<path d="M14.5045 112.371C12.3109 110.2 10.1173 108.039 7.92365 105.867C6.51933 104.477 4.34623 106.638 5.75055 108.018C7.94415 110.19 10.1378 112.351 12.3314 114.522C13.7357 115.912 15.9088 113.761 14.5045 112.371Z" fill="#362F34"/>
<path d="M16.8517 115.263C14.8733 115.263 14.8733 118.307 16.8517 118.307C18.83 118.307 18.83 115.263 16.8517 115.263Z" fill="#362F34"/>
<path d="M48.3411 146.788C47.9618 148.858 47.4083 151.973 46.8445 155.24C52.8308 160.628 59.2476 165.538 65.8694 169.79C66.6279 166.898 66.9559 163.671 66.8944 160.688C60.3649 156.528 54.1633 151.871 48.3308 146.788H48.3411Z" fill="#61525E"/>
<path d="M74.4083 169.668C74.1623 166.543 73.8035 163.276 73.5677 160.14C72.3992 160.607 70.7181 160.719 69.4675 160.536C69.57 163.58 69.6725 166.624 69.775 169.668C70.8513 170.145 73.25 169.881 74.4083 169.668Z" fill="#61525E"/>
<path d="M252.07 62.9683C251.988 62.9683 251.906 62.948 251.814 62.9379C251.014 62.8466 250.245 63.6989 250.276 64.4599C250.317 65.3629 250.953 65.8905 251.814 65.9818C251.896 65.9818 251.978 66.0021 252.07 66.0123C252.869 66.1036 253.638 65.2513 253.607 64.4903C253.566 63.5873 252.931 63.0597 252.07 62.9683Z" fill="#BDCBD8"/>
<path d="M87.5492 50.8741C84.4741 56.8097 78.3956 68.2954 70.3182 67.3823C66.054 66.8952 62.5586 63.5469 59.6474 59.6C57.0335 56.069 54.9014 52.0612 53.1076 49.2507C47.1726 39.916 43.7284 25.1936 48.3719 14.7935C51.0268 8.82743 55.7112 4.4239 61.1747 2.03949C67.6325 -0.781203 75.1974 -0.791349 81.8397 2.74974C83.2645 3.50057 84.6381 4.4239 85.9604 5.51971C98.9785 16.3155 94.2326 37.9577 87.5492 50.8741Z" fill="#E2342B"/>
<path d="M85.9602 5.51964C84.6379 4.42383 83.2643 3.50051 81.8395 2.74967C78.0161 0.71025 73.8749 -0.152193 69.8259 0.0304421C73.2188 0.172492 76.622 1.04508 79.8201 2.74967C81.245 3.50051 82.6185 4.42383 83.9408 5.51964C96.959 16.3154 92.213 37.9576 85.5297 50.874C82.7005 56.3328 77.3293 66.4791 70.2052 67.3619C70.2462 67.3619 70.2872 67.372 70.3282 67.3822C78.4056 68.2954 84.4841 56.8096 87.5593 50.874C94.2426 37.9576 98.9886 16.3154 85.9704 5.51964H85.9602Z" fill="#E27971"/>
<path d="M84.3717 36.2531C82.5164 38.6173 80.0153 40.403 77.2272 41.5394C76.0688 42.0163 74.8593 42.3714 73.6292 42.6048C70.4003 43.244 67.0074 43.0309 63.9323 41.8641C56.8594 39.1854 51.9905 31.6771 52.4312 24.1992C53.118 12.4497 64.5371 6.19953 74.4595 8.43174C75.6691 8.70569 76.8479 9.1014 77.9959 9.62901C79.103 10.1363 80.1793 10.7756 81.1838 11.5568C82.5164 12.5613 83.7567 13.8093 84.8228 15.2907C89.2305 21.3887 89.0255 30.3479 84.3717 36.2531Z" fill="#FED772"/>
<path d="M63.9323 41.8641C56.8594 39.1854 51.9905 31.6771 52.4312 24.1992C53.118 12.4497 64.5371 6.19953 74.4595 8.43174C77.0221 18.3245 69.7238 32.7019 63.9323 41.8641Z" fill="#F3C452"/>
<path d="M77.2271 41.5393C76.0688 42.0162 74.8592 42.3713 73.6292 42.6047C77.2988 31.9205 78.7646 20.8407 77.9959 9.62891C79.1029 10.1362 80.1792 10.7754 81.1838 11.5567C81.6553 21.7234 80.3227 31.8089 77.2271 41.5393Z" fill="#F3C452"/>
</g>
<defs>
<clipPath id="clip0_549_4556">
<rect width="275" height="201" fill="white"/>
</clipPath>
</defs>
</svg>
