<svg width="392" height="323" viewBox="0 0 392 323" fill="none" xmlns="http://www.w3.org/2000/svg">
<g clip-path="url(#clip0_549_4530)">
<path d="M69.041 30.0524C68.9945 29.7458 68.5301 29.6343 68.3351 29.8666C66.6446 31.8546 66.3288 34.8273 65.725 37.317C65.0191 40.2247 64.1367 43.1974 63.9323 46.1887C63.8766 47.0341 65.047 47.062 65.3163 46.3745C66.4309 43.4668 66.9604 40.2804 67.7499 37.2613C68.3629 34.9109 69.4404 32.4863 69.041 30.0524Z" fill="#593D2D"/>
<path d="M98.5224 35.2362C94.9649 30.4333 88.2494 28.1573 81.8589 27.7207C73.4808 27.154 69.0874 29.6716 68.1585 30.6934C67.1832 29.2442 59.2138 24.4043 53.102 23.113C47.7797 21.9889 41.1756 23.1873 37.8132 24.9802C37.8411 24.4972 37.8875 24.0048 37.9526 23.531C39.5873 10.962 52.8048 -1.49564 72.8585 0.148647C89.0575 1.4678 98.7174 16.5637 99.2469 29.0027C99.3305 30.9629 98.9032 33.4804 98.5224 35.2362Z" fill="#E2342B"/>
<path d="M98.5224 35.2361C94.9649 30.4333 88.2494 28.1573 81.8589 27.7206C73.4808 27.154 69.0874 29.6715 68.1585 30.6934C67.1832 29.2442 59.2138 24.4042 53.102 23.1129C47.7797 21.9889 41.1756 23.1872 37.8132 24.9802C37.8132 24.9802 40.7205 17.6505 46.7951 16.5822C52.8698 15.5046 57.5233 18.05 58.5636 20.6511C58.5636 20.6511 63.022 16.6751 69.4125 16.1827C75.8029 15.6904 82.5742 20.2424 83.0664 24.0605C83.0664 24.0605 88.2215 19.7221 92.5499 20.967C96.8783 22.2025 98.9032 30.0988 98.5317 35.2361H98.5224Z" fill="#851F1A"/>
<path d="M98.0115 35.199C92.0018 36.6296 86.0387 38.2367 80.1034 39.9367C75.7192 41.1909 71.0193 42.2499 66.7373 43.9871C73.3414 38.311 78.9609 30.4705 83.9581 23.5682C84.4875 22.8343 83.2893 22.1654 82.7506 22.8621C79.5089 27.1168 76.2208 31.3158 72.7191 35.3569C70.2391 38.2088 67.434 40.8564 65.0561 43.792C65.0468 43.792 65.0375 43.792 65.0283 43.7827C64.4988 39.9553 63.635 36.1837 62.6969 32.4306C61.6566 28.2781 60.7556 23.7447 58.5821 20.0195C58.2663 19.4806 57.5604 19.8708 57.644 20.4189C58.257 24.6365 60.0589 28.7426 61.2014 32.8486C62.186 36.3881 62.9384 39.9739 63.7929 43.5319C61.0807 40.5034 57.7368 38.1252 54.4394 35.7378C49.1915 31.929 43.9993 27.6185 38.2776 24.5343C37.7574 24.2556 37.1723 24.943 37.6274 25.3797C45.3275 32.6814 55.1732 37.3635 62.604 44.9718C55.8606 48.5298 49.4609 53.0539 43.0704 57.1507C36.8286 61.1453 30.8097 65.3629 25.9147 70.9832C24.8651 72.1909 26.8807 73.6401 27.921 72.451C37.776 61.136 52.2567 55.4321 64.0251 46.4675C64.2109 46.6347 64.4431 46.6811 64.666 46.6347C72.9513 56.4726 79.5646 67.193 85.4163 78.6473C85.9829 79.762 87.7013 79.0003 87.1997 77.8391C82.1933 66.2361 75.0319 55.4507 66.8952 45.7893C71.7995 44.721 76.6574 42.7887 81.4502 41.4231C87.1068 39.8067 92.8006 38.3296 98.4945 36.8525C99.5626 36.5738 99.1075 34.9481 98.0393 35.199H98.0115Z" fill="#75513B"/>
<path d="M0 129.165C16.0411 136.513 41.1384 147.243 58.127 155C63.6536 154.229 68.9666 153.263 74.0845 152.194C78.9981 151.172 83.7352 150.048 88.3051 148.896C95.773 147.02 102.786 145.078 109.408 143.369C91.5003 136.039 65.6134 126.666 46.4607 119.708C32.6674 120.042 11.9263 124.836 0.00928843 129.174L0 129.165Z" fill="#AA7445"/>
<path d="M13.4404 125.719C17.3323 127.372 20.9362 128.942 24.6794 130.902C28.1347 129.983 31.5621 128.171 35.0174 127.242C32.4724 125.812 29.5187 124.093 26.9737 122.662C22.218 123.118 18.0475 124.418 13.4404 125.709V125.719Z" fill="#875B37"/>
<path d="M0 129.165C4.39343 128.004 8.88902 126.833 13.4404 125.728C17.9081 124.632 22.4408 123.601 26.9736 122.681C33.5034 121.371 40.0424 120.293 46.4514 119.708C49.1729 101.64 51.9966 84.2677 52.3496 64.4897C46.3028 65.7717 40.0517 67.2395 33.7541 68.7445C29.0728 69.8592 24.3728 71.0019 19.71 72.0981C15.3259 73.12 10.9882 74.114 6.75269 75.0151C5.09006 92.9072 1.65334 111.292 0 129.184L0 129.165Z" fill="#CC955D"/>
<path d="M46.4514 119.699C48.6714 100.599 50.334 84.4814 52.3496 64.4805C73.3879 72.4604 93.9524 81.1928 114.991 89.1727C115.251 106.851 111.396 128.394 109.399 143.36C85.8251 135.78 69.1709 128.171 46.4514 119.699Z" fill="#FECB94"/>
<path d="M18.8648 80.0872C20.4066 79.7063 28.3947 78.6566 32.6766 77.2724C33.0389 74.4205 33.3919 71.5778 33.7448 68.7258C29.0635 69.8406 24.3635 70.9832 19.7007 72.0794C19.4406 74.5598 19.2084 76.8079 18.8555 80.0872H18.8648Z" fill="#B3804F"/>
<path d="M13.4404 125.719C17.9082 124.623 22.4409 123.591 26.9737 122.672C27.3916 120.108 27.8003 117.544 28.2183 114.98C23.6205 115.388 19.1621 115.937 14.5643 116.336C14.072 119.234 13.6819 122.569 13.4497 125.719H13.4404Z" fill="#B3804F"/>
<path d="M66.5051 148.358C68.4 149.463 72.0689 150.931 74.0752 152.195C78.9888 151.173 83.7259 150.049 88.2958 148.897C85.1191 147.522 80.2799 145.97 77.0939 144.595C72.5426 145.71 69.914 147.41 66.5051 148.367V148.358Z" fill="#875B37"/>
<path d="M101.021 133.039C101.968 131.711 103.557 130.215 104.969 129.035C105.693 130.865 106.139 132.64 106.306 134.498C105.832 134.451 105.368 134.377 104.922 134.284L104.235 137.312C103.315 137.015 102.405 136.718 101.485 136.411C101.745 135.473 102.145 134.525 102.47 133.587C101.987 133.42 101.504 133.234 101.021 133.039Z" fill="#875B37"/>
<path d="M95.7359 126.072C95.3179 126.945 94.8535 128.069 94.8349 129.035C94.807 130.001 95.29 131.06 96.2003 131.385C97.1849 131.748 98.3088 131.125 98.8753 130.252C99.4419 129.369 99.5813 128.292 99.7113 127.251C98.4945 126.917 96.9619 126.406 95.7452 126.072H95.7359Z" fill="#875B37"/>
<path d="M94.2868 133.457C94.6305 133.559 94.9742 133.661 95.3179 133.764C95.5501 132.862 95.773 131.961 96.0052 131.06C96.126 130.596 96.8133 130.874 96.7018 131.33C96.4789 132.212 96.256 133.095 96.0238 133.977C96.3024 134.061 96.5904 134.144 96.869 134.237C97.3242 134.377 97.0548 135.073 96.5997 134.934C95.7358 134.674 94.8813 134.414 94.0175 134.154C93.5623 134.014 93.8317 133.318 94.2868 133.457Z" fill="#875B37"/>
<path d="M23.8527 121.965C33.3083 127.818 43.0983 132.742 53.2413 137.303C53.2598 137.312 53.2877 137.322 53.3063 137.331C53.9472 137.099 54.5881 136.866 55.2104 136.643C61.6937 134.265 69.0037 131.255 75.9236 130.661C76.6017 130.605 76.9825 131.553 76.2858 131.85C69.8304 134.646 62.6504 136.002 56.0185 138.427C55.9721 138.446 55.9256 138.464 55.8792 138.483C64.4245 142.282 73.0906 146.007 81.1344 150.801C81.8125 151.21 81.1808 152.39 80.4656 152.027C71.6045 147.559 62.6226 143.443 53.5849 139.384C47.8168 141.743 42.188 144.818 36.3085 146.63C35.5654 146.862 34.748 145.896 35.519 145.348C39.9774 142.217 45.5876 140.099 50.9285 138.176C50.8727 138.148 50.817 138.13 50.7705 138.102C41.2035 133.81 31.4506 129.379 22.8031 123.387C21.8557 122.727 22.8867 121.362 23.8527 121.956V121.965Z" fill="#593D2D"/>
<path d="M77.6233 117.599C78.6357 113.029 79.5831 108.449 80.4748 103.851C81.3665 99.2521 82.1932 94.6536 82.9641 90.0366C83.6979 85.6425 84.0787 81.0348 85.3884 76.7615C85.6113 76.0276 86.5866 76.4085 86.6052 77.0588C86.6888 81.9173 85.537 86.9152 84.7382 91.6995C83.9673 96.3165 83.1406 100.924 82.2396 105.513C81.3479 110.103 80.3912 114.692 79.3788 119.253C78.4407 123.471 77.9019 128.478 75.9607 132.352C75.5891 133.085 74.5395 132.853 74.5581 132.008C74.6603 127.251 76.5923 122.254 77.6233 117.59V117.599Z" fill="#6B4A36"/>
<path d="M27.2986 70.4538C27.4007 70.0822 28.0602 70.1379 28.0788 70.5374C28.441 78.9911 26.7784 87.7142 26.1468 96.1493C25.8124 100.525 25.5338 104.891 25.2923 109.276C25.0415 113.837 25.2365 118.621 24.5028 123.127C24.382 123.889 23.1559 124.028 23.0723 123.173C22.2642 114.571 23.6482 105.3 24.2891 96.6974C24.93 88.1044 24.9765 78.796 27.3079 70.4631L27.2986 70.4538Z" fill="#614331"/>
<path d="M37.9154 112.815C38.8721 112.323 40.0331 112.453 41.092 112.397C42.2995 112.332 43.572 112.146 44.7702 112.351C45.0674 112.397 45.0953 112.862 44.7981 112.945C43.6277 113.27 42.3459 113.224 41.1384 113.289C40.0796 113.345 38.9464 113.595 37.9339 113.215C37.7853 113.159 37.7667 112.899 37.9154 112.824V112.815Z" fill="#8C663F"/>
<path d="M32.3516 113.159C33.039 112.927 33.7542 112.89 34.4787 112.843C35.101 112.806 35.7976 112.667 36.3735 112.936C36.485 112.992 36.4943 113.159 36.3921 113.233C35.8441 113.568 35.1474 113.503 34.5251 113.531C33.8099 113.568 33.0854 113.605 32.3795 113.447C32.2309 113.419 32.2216 113.205 32.3609 113.159H32.3516Z" fill="#8C663F"/>
<path d="M42.9498 114.664C43.3028 114.636 43.665 114.617 44.018 114.608C44.278 114.608 44.5195 114.59 44.7053 114.747C44.7239 114.747 44.7425 114.747 44.761 114.747C45.0118 114.785 45.0397 115.193 44.7889 115.249C44.7703 115.249 44.7518 115.258 44.7332 115.268C44.566 115.444 44.3245 115.453 44.0644 115.481C43.7114 115.509 43.3492 115.528 42.9962 115.546C42.4296 115.565 42.3832 114.701 42.9498 114.664Z" fill="#8C663F"/>
<path d="M32.8903 115.481C34.3207 115.175 35.7604 115.054 37.2187 114.961C38.6584 114.868 40.1817 114.627 41.6029 114.924C41.8536 114.98 41.8722 115.342 41.6307 115.426C40.256 115.871 38.7049 115.797 37.2744 115.853C35.8162 115.918 34.3672 115.955 32.9089 115.797C32.751 115.779 32.7324 115.509 32.8903 115.472V115.481Z" fill="#8C663F"/>
<path d="M39.5967 117.126C41.2407 117.154 42.9777 116.884 44.6031 117.061C44.9189 117.098 44.9189 117.59 44.6403 117.674C43.0891 118.11 41.2314 117.971 39.6431 117.934C39.123 117.925 39.0765 117.116 39.5967 117.126Z" fill="#8C663F"/>
<path d="M36.8193 117.154C37.0237 117.154 37.228 117.126 37.4231 117.135C37.5159 117.135 37.6181 117.144 37.7017 117.163C37.8132 117.181 37.9153 117.246 38.0268 117.265C38.2869 117.293 38.3147 117.73 38.0547 117.785C37.9432 117.813 37.8503 117.887 37.7482 117.915C37.6646 117.943 37.5624 117.962 37.4695 117.971C37.2744 117.999 37.0608 117.999 36.8658 118.017C36.3084 118.055 36.262 117.163 36.8193 117.144V117.154Z" fill="#8C663F"/>
<path d="M83.0571 24.0604C85.7414 16.0805 83.2707 0.455115 72.3196 0.0649438C61.3686 -0.315937 58.5635 20.6418 58.5635 20.6418C58.5635 20.6418 63.0219 16.6658 69.4124 16.1734C75.8028 15.6811 82.5741 20.2331 83.0663 24.0512L83.0571 24.0604Z" fill="#E2C4C2"/>
</g>
<g clip-path="url(#clip1_549_4530)">
<path d="M387.494 233.657C386.366 234.306 384.88 235.118 383.055 236.072C352.396 252.164 228.324 309.024 215.767 314.148C213.235 315.183 209.883 316.735 206.275 318.237C199.449 321.058 191.73 323.645 187.138 322.052C172.213 316.857 121.053 258.911 116.901 246.106C115.118 240.597 124.189 236.163 129.745 233.302C130.411 232.957 131.037 232.642 131.58 232.338C148.022 223.318 278.91 172.697 290.073 170.13C294.05 169.207 298.15 167.715 302.251 166.67C308.688 165.027 315.125 164.499 321.07 169.095C332.059 177.608 369.125 205.206 376.228 211.335C381.374 215.759 398.462 227.305 387.494 233.657Z" fill="#141110"/>
<path d="M116.727 204.07C116.174 208.727 114.831 228.036 119.31 233.363C121.852 236.386 162.782 280.34 169.404 285.83C173.464 289.188 178.609 293.653 184.114 294.282C201.868 296.311 371.687 210.726 376.495 208.636C380.001 207.114 377.633 194.157 376.925 188.262L116.727 204.07Z" fill="#564953"/>
<path d="M369.986 205.602C337.574 220.365 304.065 237.036 271.181 252.62C267.184 254.508 263.196 256.395 259.219 258.241C239.682 267.373 220.441 275.988 201.867 283.445C201.632 281.111 201.683 275.835 201.242 273.796C220.175 265.131 239.2 256.466 258.266 247.801C295.454 230.897 332.479 213.445 369.412 196.541C369.842 199.26 369.986 202.589 369.986 205.602Z" fill="#BFAFA7"/>
<path d="M259.219 258.241C239.682 267.373 220.441 275.987 201.867 283.445C201.632 281.111 201.683 275.835 201.242 273.796C220.175 265.131 239.2 256.466 258.266 247.801L259.219 258.241Z" fill="#7A9C02"/>
<path d="M373.625 194.248C372.559 194.867 371.144 195.638 369.412 196.541C340.321 211.812 222.604 265.76 210.693 270.62C208.295 271.604 205.107 273.076 201.683 274.496C195.205 277.175 187.886 279.63 183.529 278.118C169.374 273.187 120.827 218.204 116.891 206.059C115.2 200.833 123.81 196.622 129.079 193.913C129.714 193.589 130.309 193.284 130.821 193C146.423 184.447 270.607 136.414 281.196 133.979C284.968 133.106 288.863 131.686 292.748 130.691C298.858 129.129 304.967 128.632 310.605 132.994C321.029 141.071 356.199 167.259 362.933 173.073C367.813 177.273 384.029 188.221 373.625 194.248Z" fill="#77758A"/>
<path d="M369.412 196.541C353.021 205.145 308.473 226.037 270.587 243.499C266.436 245.416 262.366 247.283 258.43 249.089C258.358 249.12 258.286 249.16 258.215 249.191C234.362 260.139 215.142 268.814 210.693 270.62C208.295 271.604 205.107 273.075 201.683 274.496C197.747 269.676 193.749 264.877 189.7 260.119C187.384 257.389 185.036 254.66 182.669 251.951C165.376 232.033 147.263 212.674 129.079 193.913C129.715 193.589 130.309 193.284 130.822 193C136.992 189.621 160.159 180.053 186.564 169.572C190.623 167.969 194.764 166.335 198.926 164.702C222.646 155.387 247.216 146.002 263.401 140.087C267.912 138.433 271.776 137.043 274.779 136.008C277.916 134.932 280.13 134.222 281.196 133.979C284.968 133.106 288.864 131.686 292.749 130.691C296.603 134.039 300.467 137.388 304.362 140.746C307.53 143.476 310.707 146.215 313.895 148.945C326.155 159.476 338.527 170.008 350.807 180.53L362.216 190.332C364.625 192.402 367.024 194.471 369.412 196.541Z" fill="#E2CEC5"/>
<path d="M285.614 170.343L231.738 200.783L198.926 164.702C222.645 155.388 247.216 146.002 263.401 140.087L285.614 170.343Z" fill="#8CB302"/>
<path d="M141.502 231.729C143.296 235.027 155.986 248.745 157.903 250.246C160.332 252.154 169.445 244.818 170.07 243.205C170.706 241.561 155.012 226.017 152.901 224.474C150.933 223.034 139.944 228.868 141.502 231.729Z" fill="#403A44"/>
<path d="M143.952 232.612C143.952 232.612 157.514 247.202 158.795 247.953C160.076 248.704 166.739 243.773 167.375 242.758C168.01 241.743 153.67 227.66 152.768 227.031C151.866 226.402 142.743 231.222 143.942 232.612H143.952Z" fill="#5C606C"/>
<path d="M341.367 164.286C336.446 159.852 331.526 155.418 326.606 150.984C325.14 149.665 322.967 151.816 324.433 153.135C329.353 157.569 334.273 162.003 339.193 166.437C340.659 167.756 342.832 165.605 341.367 164.286Z" fill="#BDCBD8"/>
<path d="M362.216 190.332C362.216 190.332 306.402 229.984 272.944 191.976L241.035 211L270.587 243.499C266.435 245.417 262.366 247.284 258.43 249.09L245.883 235.209L189.7 260.119C187.384 257.389 185.036 254.66 182.668 251.951L238.062 226.544L186.564 169.572C190.623 167.969 194.764 166.336 198.926 164.702L231.738 200.783C246.683 192.28 285.614 170.343 285.614 170.343L263.401 140.087C267.911 138.433 271.776 137.043 274.779 136.008L284.138 148.924L304.362 140.746C307.53 143.476 310.707 146.215 313.895 148.945L291.037 158.452L302.548 174.331L284.569 185.046C293.917 193.538 317.831 206.881 353.513 182.854L362.216 190.332Z" fill="#FFFFFD"/>
<path d="M271.181 252.621C267.184 254.508 263.196 256.395 259.219 258.242L258.368 248.907L270.566 243.397L271.181 252.61V252.621Z" fill="#D9D9D7"/>
<path d="M258.368 248.917L258.214 249.191C234.362 260.139 215.142 268.814 210.693 270.62C208.295 271.604 205.107 273.076 201.683 274.496C197.747 269.677 193.749 264.877 189.7 260.119L245.883 235.209L258.368 248.917Z" fill="#8CB302"/>
<path d="M163.715 185.34L184.114 175.924L208.264 204.07L188.501 212.958L163.715 185.34Z" fill="#B99D88"/>
<path d="M195.246 224.251L205.107 237.401L225.013 226.981L215.46 216.51L195.246 224.251Z" fill="#B99D88"/>
<path d="M174.417 235.209L189.7 226.98L198.198 240.262L183.191 247.801L174.417 235.209Z" fill="#B99D88"/>
<path d="M249.245 212.958L259.219 207.378L264.775 216.509L255.764 221.583L249.245 212.958Z" fill="#B99D88"/>
<path d="M258.368 224.251L275.784 214.48L292.185 229.953L271.181 239.085L258.368 224.251Z" fill="#B99D88"/>
<path d="M299.873 161.212L312.686 155.083L318.323 164.256L304.485 170.435L299.873 161.212Z" fill="#B99D88"/>
<path d="M130.606 233.91C128.413 231.739 126.219 229.578 124.025 227.407C122.621 226.017 120.448 228.178 121.852 229.558C124.046 231.729 126.24 233.89 128.433 236.061C129.837 237.452 132.011 235.3 130.606 233.91Z" fill="#362F34"/>
<path d="M132.953 236.802C130.975 236.802 130.975 239.846 132.953 239.846C134.932 239.846 134.932 236.802 132.953 236.802Z" fill="#362F34"/>
<path d="M164.443 268.327C164.064 270.397 163.51 273.512 162.946 276.779C168.933 282.167 175.349 287.078 181.971 291.329C182.73 288.437 183.058 285.211 182.996 282.228C176.467 278.068 170.265 273.41 164.433 268.327H164.443Z" fill="#61525E"/>
<path d="M190.51 291.207C190.264 288.082 189.905 284.815 189.67 281.68C188.501 282.146 186.82 282.258 185.569 282.075C185.672 285.119 185.774 288.163 185.877 291.207C186.953 291.684 189.352 291.42 190.51 291.207Z" fill="#61525E"/>
<path d="M368.172 184.508C368.09 184.508 368.008 184.487 367.915 184.477C367.116 184.386 366.347 185.238 366.378 185.999C366.419 186.902 367.054 187.43 367.915 187.521C367.997 187.521 368.079 187.541 368.172 187.552C368.971 187.643 369.74 186.791 369.709 186.03C369.668 185.127 369.033 184.599 368.172 184.508Z" fill="#BDCBD8"/>
<path d="M203.651 172.413C200.576 178.349 194.497 189.835 186.42 188.922C182.156 188.435 178.66 185.086 175.749 181.139C173.135 177.608 171.003 173.601 169.209 170.79C163.274 161.455 159.83 146.733 164.474 136.333C167.129 130.367 171.813 125.963 177.277 123.579C183.734 120.758 191.299 120.748 197.942 124.289C199.366 125.04 200.74 125.963 202.062 127.059C215.08 137.855 210.334 159.497 203.651 172.413Z" fill="#E2342B"/>
<path d="M202.062 127.059C200.74 125.963 199.366 125.04 197.941 124.289C194.118 122.25 189.977 121.387 185.928 121.57C189.321 121.712 192.724 122.584 195.922 124.289C197.347 125.04 198.72 125.963 200.043 127.059C213.061 137.855 208.315 159.497 201.631 172.413C198.802 177.872 193.431 188.018 186.307 188.901C186.348 188.901 186.389 188.911 186.43 188.921C194.507 189.835 200.586 178.349 203.661 172.413C210.344 159.497 215.09 137.855 202.072 127.059H202.062Z" fill="#E27971"/>
<path d="M200.474 157.792C198.618 160.157 196.117 161.942 193.329 163.079C192.171 163.556 190.961 163.911 189.731 164.144C186.502 164.783 183.109 164.57 180.034 163.403C172.961 160.725 168.092 153.216 168.533 145.739C169.22 133.989 180.639 127.739 190.561 129.971C191.771 130.245 192.95 130.641 194.098 131.168C195.205 131.676 196.281 132.315 197.286 133.096C198.618 134.101 199.859 135.349 200.925 136.83C205.332 142.928 205.127 151.887 200.474 157.792Z" fill="#FED772"/>
<path d="M180.034 163.403C172.961 160.725 168.092 153.216 168.533 145.739C169.22 133.989 180.639 127.739 190.561 129.971C193.124 139.864 185.826 154.241 180.034 163.403Z" fill="#F3C452"/>
<path d="M193.329 163.079C192.171 163.555 190.961 163.911 189.731 164.144C193.401 153.46 194.866 142.38 194.098 131.168C195.205 131.676 196.281 132.315 197.286 133.096C197.757 143.263 196.425 153.348 193.329 163.079Z" fill="#F3C452"/>
</g>
<defs>
<clipPath id="clip0_549_4530">
<rect width="115" height="155" fill="white"/>
</clipPath>
<clipPath id="clip1_549_4530">
<rect width="275" height="201" fill="white" transform="translate(116.102 121.539)"/>
</clipPath>
</defs>
</svg>
