<svg width="325" height="293" viewBox="0 0 325 293" fill="none" xmlns="http://www.w3.org/2000/svg">
<path d="M3.66559 253.751C-0.814575 235.12 -1.18792 213.136 2.54555 187.798C7.02571 161.715 14.4926 135.632 24.9463 109.549C36.1467 83.4658 49.5872 60.3636 65.2678 40.2424C81.695 20.1212 99.6157 6.70707 119.03 0L141.43 27.9461C115.296 45.8316 98.1223 68.9338 89.9087 97.2525C82.4417 125.571 81.3217 150.536 86.5485 172.148C105.963 180.346 121.643 191.524 133.59 205.684C146.284 219.098 157.111 234.375 166.071 251.515C147.404 285.796 119.776 312.624 83.1884 332C48.0938 312.624 21.5862 286.541 3.66559 253.751ZM200.594 253.751C196.114 235.12 195.741 213.136 199.474 187.798C203.954 161.715 211.421 135.632 221.875 109.549C233.075 83.4658 246.516 60.3636 262.196 40.2424C278.624 20.1212 296.544 6.70707 315.958 0L338.359 27.9461C321.185 39.8698 308.118 54.4018 299.158 71.5421C290.197 88.6824 284.597 106.195 282.357 124.081C280.117 141.966 280.49 157.616 283.477 171.03C317.825 188.916 344.333 215.744 363 251.515C344.333 285.796 316.705 312.624 280.117 332C245.022 312.624 218.515 286.541 200.594 253.751Z" fill="white"/>
</svg>
