<svg width="661" height="504" viewBox="0 0 661 504" fill="none" xmlns="http://www.w3.org/2000/svg">
<g clip-path="url(#clip0_769_16095)">
<path d="M414.792 475.922C413.935 475.962 159.309 422.154 134.009 417.156L194.999 176.115L269.766 194.671L347.236 213.926L427.937 233.959L470.601 244.549L414.779 475.936L414.792 475.922Z" fill="#FFD006"/>
<path d="M414.792 475.923C413.935 475.962 383.532 469.434 369.768 466.77L427.752 234.104C427.752 234.104 427.831 234.051 427.95 233.959L470.614 244.549L414.792 475.936V475.923Z" fill="#FFBE08"/>
<path d="M325.957 303.448L248.289 284.971L269.779 194.672L347.25 213.913L325.957 303.448Z" fill="#FCA531"/>
<path d="M369.47 369.932L299.746 352.025C296.53 351.199 293.254 353.137 292.428 356.354L285.366 383.869C284.54 387.086 286.478 390.364 289.694 391.19L359.418 409.097C362.634 409.923 365.91 407.985 366.736 404.768L373.798 377.253C374.624 374.036 372.686 370.758 369.47 369.932Z" fill="#D69F37"/>
<path d="M292.614 388.168C290.228 387.416 288.857 384.937 289.476 382.524L295.37 359.563C295.686 358.35 296.451 357.321 297.532 356.688C298.613 356.055 299.879 355.87 301.092 356.187L366.274 372.923L366.512 372.989C368.898 373.74 370.269 376.22 369.649 378.633L363.756 401.594C363.11 404.1 360.552 405.616 358.047 404.97L292.865 388.221L292.627 388.155L292.614 388.168Z" fill="#FFEFA1"/>
<path d="M292.618 368.132L291.695 371.68L367.815 391.499L368.739 387.951L292.618 368.132Z" fill="#D69F37"/>
<path d="M323.887 349.382L328.027 333.622L325.271 332.896L320.512 351.004L326.761 352.652L327.381 350.305L323.9 349.395L323.887 349.382ZM315.12 347.047L316.636 341.284L319.787 342.115L320.393 339.794L317.242 338.963L318.627 333.688L321.936 334.558L322.556 332.184L316.491 330.588L311.731 348.696L317.928 350.318L318.548 347.944L315.106 347.034L315.12 347.047ZM312.404 334.492C312.799 332.962 312.812 331.723 312.404 330.786C312.008 329.85 311.151 329.204 309.82 328.848L305.759 327.779L300.999 345.887L304.968 346.929C306.365 347.298 307.473 347.126 308.303 346.441C309.134 345.742 309.78 344.489 310.268 342.669L312.404 334.492ZM306.471 344.502C306.154 344.766 305.746 344.832 305.232 344.7L304.322 344.462L307.961 330.615L308.778 330.826C309.345 330.971 309.688 331.274 309.806 331.736C309.925 332.197 309.872 332.896 309.622 333.833L307.288 342.774C307.051 343.658 306.787 344.225 306.471 344.489V344.502ZM333.578 335.086L328.818 353.193L331.574 353.918L336.333 335.811L333.578 335.086ZM363.532 353.417C363.479 352.613 363.15 352.085 362.556 351.808C363.242 351.782 363.769 351.505 364.165 350.991C364.547 350.476 364.89 349.672 365.18 348.564C365.47 347.469 365.628 346.559 365.655 345.834C365.694 345.109 365.523 344.502 365.154 344.001C364.784 343.5 364.125 343.117 363.189 342.867L358.627 341.666L353.868 359.774L356.623 360.499L358.865 351.953L359.735 352.23C360.315 352.402 360.658 352.639 360.79 352.956C360.922 353.272 360.869 353.826 360.658 354.63C359.55 358.824 359.023 361 359.049 361.145L361.805 361.871C361.779 361.686 362.069 360.42 362.688 358.099C363.295 355.778 363.572 354.222 363.519 353.417H363.532ZM361.95 349.342C361.778 349.711 361.594 349.949 361.383 350.067C361.172 350.186 360.895 350.186 360.539 350.107L359.445 349.817L360.842 344.515L361.778 344.766C362.372 344.924 362.715 345.175 362.807 345.517C362.886 345.86 362.807 346.52 362.543 347.509L362.517 347.628C362.306 348.419 362.121 348.999 361.963 349.355L361.95 349.342ZM376.69 346.414L374.066 345.728L370.691 352.085H370.651V344.832L368.015 344.133L368.186 355.804L366.287 363.045L369.043 363.77L370.942 356.53L376.69 346.414ZM348.476 355.817L349.992 350.054L353.143 350.885L353.749 348.564L350.598 347.733L351.983 342.458L355.292 343.328L355.912 340.954L349.847 339.359L345.087 357.466L351.284 359.088L351.904 356.714L348.462 355.804L348.476 355.817ZM341.844 346.005L339.708 351.597H339.642L340.42 345.623L341.383 337.13L338.759 336.444L336.808 355.29L340.209 356.187L347.553 338.752L344.982 338.079L341.844 346.005Z" fill="#865313"/>
<g style="mix-blend-mode:multiply">
<path d="M159.876 314.961L424.984 433.681L413.579 479.813L134.009 417.156L159.876 314.961Z" fill="#EFE8D3"/>
</g>
<path d="M475.663 486.196C470.733 487.844 454.516 492.988 436.414 496.562C434.529 496.931 432.63 497.287 430.719 497.617C429.492 497.828 428.279 497.933 427.027 497.933C417.574 498.012 373.908 498.302 368.331 497.933C368.291 497.933 368.252 497.933 368.226 497.92L368.186 497.788C366.854 498.065 365.523 498.316 364.231 498.579C357.072 500.03 350.401 501.336 344.889 502.378C337.981 503.578 330.98 504.092 323.979 503.934C303.557 503.433 259.917 500.993 223.674 489.677C223.674 489.677 28.8778 439.153 27.9417 437.162L27.1638 436.898C32.978 420.4 41.205 396.951 48.2058 377.169L49.1682 377.512C118.899 394.986 137.146 377.828 138.689 376.18C141.721 376.153 144.714 375.718 147.628 374.927C153.099 373.542 162.249 371.735 173.693 371.406C180.509 371.195 188.116 371.498 196.225 372.711C196.225 372.711 196.238 372.711 196.264 372.711C215.434 375.599 237.412 383.578 258.243 401.87L258.072 402.675C261.46 403.387 265.244 404.191 269.278 405.088C288.382 409.361 313.01 415.639 327.42 422.378C327.42 422.378 346.933 429.724 342.398 446.671C342.398 446.671 342.16 448.293 341.198 450.469C340.565 451.88 339.603 453.528 338.179 455.137L338.667 455.599C338.667 455.599 366.301 459.015 383.414 457.604C384.205 457.538 384.996 457.445 385.8 457.353C392.854 456.522 430.626 452.882 441.754 468.247C442.189 468.866 442.611 469.513 442.953 470.198L443.454 468.167C449.466 467.996 468.57 468.326 475.162 479.747C475.901 481.013 476.481 482.411 476.876 483.967C477.101 484.903 476.573 485.853 475.677 486.143L475.663 486.196Z" fill="#FFCC8F"/>
<path d="M48.1926 377.195C50.7899 369.876 53.2158 363.071 55.2857 357.281C58.5159 358.086 121.207 373.674 138.386 376.219C138.478 376.219 138.583 376.219 138.676 376.219C137.12 377.868 118.886 395.026 49.1551 377.551L48.1926 377.209V377.195Z" fill="#EFB06C"/>
<path d="M310.452 461.164L310.914 459.396C310.914 459.396 313.828 460.016 318.468 460.94L318.205 462.746C315.687 462.522 313.076 461.995 310.439 461.164H310.452Z" fill="#DD9247"/>
<path d="M441.754 468.285C415.412 460.043 387.593 464.408 374.158 467.468C367.685 468.945 360.987 469.156 354.408 468.206C341.435 466.347 326.933 463.564 318.323 461.836C334.659 463.248 341.185 450.508 341.185 450.508C340.552 451.919 339.589 453.567 338.166 455.176L338.653 455.638C338.653 455.638 366.287 459.054 383.4 457.643C384.192 457.577 384.983 457.484 385.787 457.392C392.84 456.561 430.613 452.921 441.741 468.285H441.754Z" fill="#EFB06C"/>
<path d="M269.16 406.105L235.118 398.363C224.808 382.261 197.451 373.148 196.251 372.752C215.421 375.64 237.399 383.619 258.23 401.911L258.058 402.715C261.447 403.428 265.231 404.232 269.265 405.129L269.16 406.092V406.105Z" fill="#EFB06C"/>
<path d="M217.715 394.222C227.062 395.699 236.357 397.4 245.639 399.246C254.907 401.106 264.15 403.111 273.365 405.234C282.568 407.41 291.757 409.652 300.881 412.184C305.456 413.424 310.004 414.743 314.526 416.18C319.062 417.618 323.557 419.095 328.001 421.178L327.908 421.139C330.506 422.26 332.773 423.658 334.922 425.346C337.045 427.034 338.996 428.986 340.473 431.281C341.949 433.562 342.978 436.173 343.281 438.851C343.65 441.528 343.215 444.231 342.398 446.698C342.872 444.126 342.951 441.488 342.398 438.996C341.87 436.503 340.671 434.208 339.115 432.243C337.546 430.291 335.674 428.577 333.577 427.166C331.508 425.768 329.2 424.528 326.946 423.684L326.854 423.645C318.31 420.295 309.015 418.079 299.971 415.6C290.848 413.239 281.711 410.892 272.561 408.61L245.125 401.594C235.988 399.207 226.851 396.754 217.754 394.195L217.715 394.222Z" fill="#DD9247"/>
<path d="M475.149 479.787C445.511 474.419 430.719 497.617 430.719 497.617C429.492 497.828 428.279 497.934 427.027 497.934C417.574 498.013 373.908 498.303 368.331 497.934L368.186 497.789C389.478 493.12 439.578 483.73 439.578 483.73C443.309 483.031 444.72 480.499 444.72 480.499L444.417 474.235L441.754 468.273C442.189 468.893 442.611 469.54 442.953 470.225L443.454 468.194C449.466 468.023 468.57 468.353 475.162 479.774L475.149 479.787Z" fill="#EFB06C"/>
<path d="M313.116 434.234C312.483 438.27 311.534 444.218 310.901 448.029C310.518 450.337 311.758 452.619 313.946 453.621C316.847 454.94 321.619 456.588 328.752 457.604C331.903 458.052 335.094 456.918 337.019 454.478C339.471 451.366 341.752 446.13 339.603 438.283C338.851 435.514 336.689 433.258 333.894 432.322C330.756 431.267 325.772 430.12 318.561 429.882C315.858 429.79 313.511 431.636 313.102 434.221L313.116 434.234Z" fill="#FFEFDE"/>
<path d="M452.459 492.817C452.459 492.817 459.724 485.286 467.463 483.321C468.518 483.057 469.638 483.321 470.469 484.02C471.59 484.97 473.501 486.196 475.769 486.17C475.769 486.17 459.21 494.412 452.459 492.817Z" fill="#FFF4EB"/>
<path d="M446.553 481.289C446.513 481.46 446.474 481.619 446.421 481.764C446.236 482.265 445.946 482.674 445.696 482.924C445.168 483.478 444.667 483.795 444.193 484.058C443.23 484.56 442.321 484.889 441.411 485.153C439.618 485.694 437.825 485.997 436.058 486.261C434.278 486.525 432.538 486.657 430.877 486.894C429.189 487.118 427.502 487.395 425.827 487.712L418.826 489.057L417.785 488.239C418.365 487.197 419.051 486.261 419.815 485.43C426.262 478.348 438.537 477.873 443.046 477.952C444.127 477.966 444.76 478.018 444.76 478.018C444.76 478.018 445.604 479.522 446.553 481.289Z" fill="#FFEFDE"/>
<path d="M334.303 458.421C332.668 459.622 330.835 460.637 328.871 461.283C326.906 461.943 324.85 462.391 322.78 462.576C318.627 462.985 314.434 462.628 310.36 461.864L310.518 461.89C305.416 461.534 300.327 461.059 295.225 460.611C290.136 460.162 285.06 459.595 279.971 459.094C274.881 458.566 269.819 457.933 264.743 457.353C259.667 456.799 254.604 456.074 249.541 455.428H249.766C244.268 455.19 239.06 454.399 233.813 453.37C228.579 452.368 223.45 450.917 218.4 449.256C213.364 447.568 208.446 445.497 203.74 443.057L200.233 441.184L196.857 439.101C194.577 437.782 192.533 436.054 190.397 434.551C195.117 436.885 199.784 439.167 204.689 440.921C205.889 441.409 207.128 441.817 208.354 442.226C209.58 442.635 210.793 443.084 212.032 443.453C214.511 444.191 216.99 444.904 219.495 445.523C224.492 446.816 229.554 447.792 234.643 448.609C239.706 449.388 244.914 449.889 249.884 450.113H250.042L250.108 450.126C255.184 450.733 260.287 451.26 265.349 451.959C270.425 452.632 275.501 453.252 280.577 453.977C285.64 454.729 290.716 455.401 295.765 456.206C300.828 457.01 305.877 457.775 310.927 458.685L311.085 458.712C314.882 459.767 318.758 460.571 322.701 460.677C326.616 460.795 330.637 460.241 334.289 458.421H334.303Z" fill="#DD9247"/>
<path d="M445.722 472.348C444.865 469.618 443.257 467.165 441.266 465.174C437.218 461.217 432.05 459.147 426.961 457.854C421.846 456.549 416.611 456.047 411.43 455.902C406.236 455.81 401.067 455.981 395.939 456.588C401.094 456.733 406.236 456.905 411.325 457.524C416.401 458.105 421.437 458.975 426.236 460.452C428.635 461.191 430.956 462.101 433.118 463.261C435.28 464.395 437.271 465.807 438.893 467.495C441.622 470.304 442.98 474.049 443.046 477.953C443.059 478.744 443.019 479.536 442.927 480.34L442.967 480.551C442.861 480.63 442.663 480.762 442.452 480.868C441.872 481.171 441.147 481.435 440.383 481.646C438.84 482.081 437.205 482.424 435.531 482.661C433.883 482.925 432.156 483.083 430.376 483.347C428.622 483.597 426.882 483.901 425.142 484.257L419.815 485.431L404.759 488.754C397.982 490.284 391.219 491.866 384.455 493.489C377.705 495.203 370.941 496.786 364.218 498.619C371.113 497.63 377.955 496.416 384.824 495.309C391.68 494.135 398.523 492.908 405.365 491.629L418.826 489.057L425.827 487.712C427.502 487.396 429.189 487.119 430.877 486.895C432.538 486.657 434.278 486.525 436.058 486.262C437.825 485.998 439.618 485.694 441.411 485.154C442.321 484.89 443.23 484.56 444.193 484.059C444.667 483.795 445.168 483.479 445.696 482.925C445.946 482.674 446.236 482.265 446.421 481.764C446.474 481.619 446.513 481.461 446.553 481.29C446.579 481.144 446.592 480.986 446.592 480.828C446.579 480.67 446.566 480.498 446.526 480.314C446.751 477.676 446.553 474.946 445.722 472.348ZM443.006 481.065C442.993 480.986 442.98 480.907 442.98 480.841C442.98 480.775 442.98 480.722 442.993 480.67L443.178 481.461C443.006 481.158 443.046 481.171 443.006 481.065Z" fill="#DD9247"/>
<path d="M62.1414 339.148C61.9305 339.095 59.2409 346.348 55.2989 357.281C53.2158 363.071 50.803 369.876 48.2058 377.196C45.7535 384.093 43.1694 391.439 40.5853 398.771C35.7599 412.474 30.9477 426.176 27.1638 436.925C22.8394 449.216 19.8334 457.657 19.662 457.815C19.662 457.815 8.61365 454.676 -4.99243 450.825L-4.62328 449.533C-3.87178 446.842 3.69594 424.673 12.1338 400.156C22.9053 368.94 35.1139 333.925 36.5641 330.391C50.2229 334.993 61.469 338.805 62.1414 339.134V339.148Z" fill="#F25928"/>
<path d="M12.1207 400.17C3.68281 424.687 -3.89809 446.856 -4.63641 449.547L-5.00557 450.839C-26.7067 444.72 -54.8682 436.794 -55 436.991C-55 436.991 -47.2477 413.767 -38.4934 387.457C-27.0891 353.128 -13.9708 313.59 -14.1027 313.51C-14.2213 313.418 14.362 322.94 36.551 330.418C35.1007 333.939 22.8922 368.954 12.1207 400.183V400.17Z" fill="#9A1D00"/>
<g style="mix-blend-mode:multiply">
<path d="M40.5722 398.772C35.7467 412.475 30.9345 426.177 27.1507 436.925C22.8263 449.217 19.8203 457.657 19.6489 457.816C19.6489 457.816 8.60051 454.677 -5.00557 450.826C-26.7067 444.706 -54.8682 436.78 -55 436.978C-55 436.978 -47.2477 413.754 -38.4934 387.443C-37.8606 387.826 -20.0487 398.864 12.1339 400.17C20.6377 400.513 30.1303 400.17 40.5854 398.785L40.5722 398.772Z" fill="#D4E6F2"/>
</g>
<path d="M619.173 287.688C622.944 265.637 634.902 251.816 634.902 251.816L634.981 251.684C632.028 249.878 628.916 248.361 625.66 247.148C624.012 246.515 622.43 245.987 620.94 245.539C618.475 250.22 614.902 255.575 609.878 261.681C611.843 269.053 612.027 276.491 611.856 281.331C611.817 282.123 611.764 282.914 611.711 283.705C611.566 285.407 611.342 287.108 611.039 288.796C607.611 308.341 614.585 321.344 615.033 322.136C613.32 319.933 611.896 317.546 610.775 315.344C608.784 311.414 607.439 307.207 606.807 302.841C605.356 292.607 603.919 284.932 602.614 279.182C601.968 276.399 601.348 274.091 600.768 272.139C599.595 273.629 598.514 275.186 597.525 276.808C594.849 281.12 592.845 285.855 591.618 290.814C590.537 295.205 589.957 300.098 590.59 305.097L590.3 305.347C602.416 319.406 614.809 329.547 625.489 336.735L626.003 335.97C617.631 317.665 616.892 301.14 619.2 287.675L619.173 287.688ZM634.863 208.941V208.612C629.404 208.322 626.504 207.702 626.504 207.702L626.187 207.557C625.831 208.335 623.801 211.922 620.808 217.197L621.718 217.712C621.718 217.712 629.048 223.145 624.381 237.494C628.073 239.578 632.041 242.004 635.416 244.154L635.957 243.297C641.784 220.929 634.863 208.915 634.863 208.915V208.941ZM665.028 332.818L664.817 332.713C656.142 326.224 652.859 317.375 652.015 309.158C651.699 306.165 651.712 303.237 651.923 300.56C652.384 294.098 654.125 287.794 657.012 282.03C660.216 275.608 662.866 269.752 665.054 264.385C684.171 217.553 667.52 209.139 667.52 209.139L667.559 208.902C658.686 207.781 652.833 208.15 652.833 208.15C652.648 208.176 652.503 208.176 652.318 208.203L652.384 208.796C652.226 208.941 667.309 226.178 652.318 255.786C652.318 255.786 652.173 256.01 651.91 256.432C657.104 260.283 662.286 263.237 662.286 263.237C658.396 263.211 653.953 261.8 649.813 259.98C645.977 266.732 638.752 280.949 635.311 297.368C632.002 313.049 632.133 330.774 641.929 345.927L641.732 346.31C650.209 350.596 662.286 355.001 662.286 355.001C667.198 351.297 664.817 344.501 665.054 332.818H665.028Z" fill="#FF8D68"/>
<path d="M651.883 256.418C650.473 255.376 649.062 254.268 647.77 253.134C644.711 250.444 641.441 248.004 637.987 245.828C637.183 245.314 636.326 244.747 635.429 244.179C632.054 242.03 628.086 239.59 624.394 237.519C619.252 234.618 614.625 232.402 612.832 232.521L612.265 232.191C610.248 235.686 608.112 239.379 605.95 243.164L606.002 243.204C606.002 243.204 611.869 242.834 620.94 245.551C622.43 245.999 624.012 246.527 625.66 247.16C628.917 248.373 632.028 249.89 634.981 251.697C635.68 252.106 636.366 252.554 637.051 253.016C639.688 254.704 644.513 257.671 649.8 259.992C653.94 261.812 658.383 263.223 662.272 263.25C662.272 263.25 657.091 260.295 651.897 256.444L651.883 256.418Z" fill="#B82B07"/>
<path d="M652.358 208.783L652.292 208.189C645.014 208.849 639.134 208.836 634.863 208.611V208.941C634.863 208.941 641.784 220.956 635.944 243.323L635.403 244.18C636.3 244.747 637.17 245.314 637.961 245.829C641.415 248.005 644.685 250.444 647.744 253.135C649.036 254.269 650.459 255.39 651.857 256.419C652.121 255.997 652.266 255.772 652.266 255.772C667.256 226.165 652.173 208.928 652.332 208.783H652.358ZM667.546 208.888L667.507 209.126C667.507 209.126 684.158 217.553 665.041 264.371C662.866 269.739 660.203 275.594 656.999 282.017C654.111 287.78 652.371 294.084 651.91 300.546C651.699 303.224 651.699 306.151 652.002 309.145C652.846 317.361 656.129 326.211 664.804 332.699L666 334.5C667.358 331.77 667.849 327.134 669.392 324.035C687.52 287.741 716.974 229.277 716.974 229.277C700.058 215.351 680.559 210.511 667.52 208.888H667.546ZM635.284 297.355C638.739 280.922 645.95 266.719 649.787 259.966C644.5 257.658 639.675 254.691 637.038 252.99C636.352 252.528 635.667 252.08 634.968 251.671L634.889 251.803C634.889 251.803 622.931 265.624 619.16 287.675C616.853 301.14 617.591 317.665 625.963 335.97L625.449 336.735C631.54 340.836 637.077 343.975 641.692 346.296L641.89 345.914C632.094 330.761 631.949 313.036 635.271 297.355H635.284ZM621.731 217.711L620.821 217.197C618.488 221.325 615.535 226.495 612.278 232.166L612.845 232.495C614.625 232.377 619.252 234.605 624.408 237.494C629.075 223.132 621.744 217.711 621.744 217.711H621.731ZM591.605 290.8C592.831 285.842 594.835 281.107 597.512 276.794C598.501 275.159 599.582 273.616 600.755 272.126C597.657 261.839 595.468 261.958 595.468 261.958L595.178 261.786C592.897 265.743 590.696 269.528 588.705 272.957C582.864 283.019 578.698 290.154 578.645 290.141L578.592 290.299C582.416 295.746 586.358 300.744 590.287 305.347L590.577 305.096C589.957 300.098 590.524 295.205 591.605 290.813V290.8ZM606.002 243.165L605.95 243.125C605 244.747 604.064 246.396 603.102 248.057L603.576 248.321C606.648 252.264 608.626 256.933 609.879 261.654C614.902 255.561 618.475 250.207 620.94 245.512C611.856 242.782 606.002 243.165 606.002 243.165Z" fill="#FD621A"/>
<path d="M626.266 207.411C626.266 207.411 626.253 207.464 626.201 207.569C625.845 208.347 623.814 211.934 620.821 217.21C618.488 221.338 615.535 226.507 612.278 232.178C610.261 235.673 608.125 239.366 605.963 243.151C605.014 244.773 604.078 246.422 603.115 248.083C600.452 252.725 597.749 257.381 595.191 261.799C592.91 265.755 590.709 269.54 588.718 272.969C582.877 283.032 578.711 290.167 578.658 290.154C578.434 290.088 561.005 278.614 561.005 278.614L560.912 278.35C560.912 278.35 563.918 273.22 568.441 265.544C581.308 243.626 606.372 201.015 608.046 198.377C608.85 198.746 625.897 207.345 626.293 207.411H626.266Z" fill="#FCFFFF"/>
<path d="M611.026 288.783C611.474 286.303 611.737 283.811 611.843 281.318C612.014 276.491 611.817 269.053 609.865 261.694C608.613 256.96 606.635 252.291 603.563 248.348L603.089 248.084C600.425 252.726 597.723 257.382 595.165 261.8L595.455 261.971C595.455 261.971 597.644 261.852 600.742 272.139C602.535 278.127 604.644 287.675 606.793 302.841C607.426 307.207 608.758 311.414 610.762 315.344C611.883 317.533 613.306 319.92 615.02 322.136C614.572 321.344 607.598 308.341 611.026 288.796V288.783Z" fill="#B82B07"/>
<g style="mix-blend-mode:multiply">
<path d="M665.028 332.818C659.293 344.318 669.379 357.355 669.431 357.5C669.431 357.5 650.183 350.596 641.705 346.309C637.091 343.975 631.567 340.849 625.462 336.748C614.783 329.56 602.39 319.419 590.274 305.36C586.332 300.757 582.403 295.759 578.579 290.312L578.632 290.154C578.408 290.088 560.978 278.614 560.978 278.614L560.886 278.351C560.886 278.351 563.892 273.22 568.414 265.545C568.414 265.545 576.404 267.879 588.705 272.97C591.434 274.117 594.387 275.383 597.512 276.808C599.16 277.559 600.874 278.337 602.614 279.168C605.541 280.566 608.573 282.057 611.711 283.692C614.137 284.958 616.642 286.29 619.187 287.688C624.407 290.602 629.813 293.82 635.298 297.368C640.848 300.955 646.465 304.885 652.028 309.158C657.935 313.721 663.789 318.667 669.431 324.048C667.876 327.16 667.845 330.101 666.5 332.818H665.028Z" fill="#D4E6F2"/>
</g>
<path d="M390.151 84.1934C390.151 84.1934 389.136 79.2874 387.593 71.8756C385.668 62.723 382.965 49.6931 380.368 37.2435C376.373 17.9887 372.669 0.105506 372.695 0C372.695 0 352.365 16.4061 322.661 25.7038C307.262 30.5307 289.345 33.4453 270.425 31.2033C270.425 31.2033 266.285 30.2933 259.39 29.2118C250.702 27.8535 237.649 26.2445 222.936 25.8489C199.508 25.2158 171.9 27.6952 151.28 39.3272C151.28 39.3272 181.261 156.188 181.102 153.774C181.102 153.774 206.732 138.45 246.377 135.377C256.898 134.559 268.408 134.612 280.696 136.049C280.696 136.049 281.909 136.3 284.097 136.656C291.019 137.751 307.697 139.834 325.878 137.909C333.472 137.091 341.356 135.601 348.884 133.029C354.646 131.091 360.196 128.506 365.285 125.13C365.285 125.13 386.143 114.592 396.901 112.192L390.124 84.1934H390.151Z" fill="#B2F478"/>
<path d="M284.11 136.657C281.922 136.301 280.709 136.05 280.709 136.05C268.421 134.599 256.911 134.56 246.39 135.378L222.936 25.8496C237.649 26.2453 250.702 27.8542 259.39 29.2126L284.11 136.657Z" fill="#8EDD43"/>
<path d="M348.898 133.017C341.369 135.602 333.485 137.092 325.891 137.897C307.71 139.835 291.032 137.738 284.11 136.644L259.39 29.1995C266.299 30.2809 270.425 31.1909 270.425 31.1909C289.331 33.4461 307.249 30.5183 322.661 25.6914L348.898 133.004V133.017Z" fill="#7CCC27"/>
<path d="M560.886 278.35C541.927 264.938 519.593 253.978 511.01 249.969C509.56 249.31 508.07 248.743 506.554 248.281L506.58 248.215C506.58 248.215 522.837 246.87 530.681 231.875C530.681 231.875 540.437 252.435 567.86 265.215L568.414 265.544C563.892 273.22 560.886 278.35 560.886 278.35Z" fill="#7F4721"/>
<path d="M387.606 71.8615C387.606 71.8615 402.175 69.7514 405.563 70.0943H405.84C405.998 76.451 407.251 83.1506 410.784 88.2808L410.745 88.6369C405.22 88.0962 398.378 86.8433 390.098 84.3244L390.138 84.2057C390.138 84.2057 389.122 79.2997 387.58 71.8879H387.606V71.8615Z" fill="#7F4721"/>
<path d="M608.085 198.258L608.006 198.376C606.345 201.014 581.282 243.625 568.401 265.544L567.86 265.214C540.437 252.435 530.681 231.874 530.681 231.874C522.837 246.869 506.58 248.215 506.58 248.215V248.28C505.671 248.003 504.801 247.779 503.904 247.581C464.154 238.811 443.402 209.837 437.087 199.141C435.847 196.965 434.502 194.868 433.065 192.824C425.999 182.854 420.132 176.827 416.256 173.411C412.999 170.549 411.14 169.521 411.14 169.521C403.098 166.487 398.971 163.625 396.993 161.172L396.901 161.238C384.969 161.845 376.268 165.445 372.062 167.529C369.794 168.69 367.474 169.745 365.088 170.668C358.364 173.372 351.627 177.157 347.909 179.372C345.18 181.007 342.055 181.786 338.891 181.641C330.901 181.284 329.583 176.075 329.609 172.58C329.622 171.248 329.82 170.18 329.925 169.705C329.952 169.534 329.978 169.455 329.978 169.455L329.794 169.033C318.033 174.15 313.722 169.244 313.722 169.244C310.729 167.252 309.938 164.364 310.452 161.146C311.652 153.655 319.879 144.371 323.821 140.296C325.087 138.977 325.917 138.199 325.917 138.199L325.891 137.908C333.999 137.038 342.411 135.39 350.387 132.515C355.608 130.615 360.645 128.189 365.299 125.129C350.532 117.796 339.102 113.365 339.102 113.365C281.223 89.0462 299.641 63.8172 299.641 63.8172C310.756 44.813 357.309 70.7938 357.309 70.7938C370.071 77.2955 380.948 81.5685 390.098 84.3117C398.378 86.8306 405.234 88.0967 410.745 88.6242L410.784 88.2681C407.238 83.1511 405.985 76.4515 405.84 70.0816H405.563C402.175 69.7519 387.606 71.862 387.606 71.862H387.58C385.655 62.7226 382.952 49.6927 380.355 37.2562L381.265 37.0584C398.061 31.2028 412.366 29.5147 424.206 29.9763C445.327 31.005 464.615 42.2677 475.874 60.1509C484.246 73.4578 495.835 91.8685 501.188 100.349C503.337 103.777 505.644 107.088 508.123 110.279C562.692 180.81 608.072 198.548 608.085 198.258Z" fill="#AF6B38"/>
<path d="M426.394 169.085C422.531 171.102 419.169 172.514 416.256 173.41C412.999 170.549 411.127 169.52 411.127 169.52C403.085 166.487 398.971 163.612 396.98 161.172C382.148 145.781 362.2 144.568 362.2 144.568C361.818 133.186 350.374 132.501 350.374 132.501C355.595 130.602 360.645 128.188 365.285 125.115C400.303 139.939 426.381 169.085 426.381 169.085H426.394Z" fill="#7F4721"/>
<path d="M325.588 87.6479L332.167 75.6467C333.446 73.2992 332.945 70.3582 330.967 68.5646C327.856 65.7291 322.437 61.7199 314.5 58.9768C312.377 58.2383 310.044 58.2383 307.947 59.0164C303.438 60.6913 296.451 64.9115 298.784 74.6312C299.285 76.7017 300.38 78.5744 301.909 80.0383C304.783 82.7815 310.611 87.4765 319.167 90.2328C321.646 91.0373 324.322 89.9559 325.601 87.6347L325.588 87.6479Z" fill="#D18959"/>
<path d="M323.821 140.295L313.722 161.449C313.722 161.449 312.417 161.132 310.452 161.145C311.652 153.655 319.879 144.37 323.821 140.295Z" fill="#D18959"/>
<path d="M345.443 159.682C345.443 166.54 335.555 174.307 335.555 174.307C332.576 172.58 330.664 172.421 329.609 172.58C329.622 171.248 329.82 170.179 329.925 169.705C334.527 165.735 345.443 159.682 345.443 159.682Z" fill="#D18959"/>
<path d="M408.24 49.8379C408.042 56.5639 407.541 62.9865 407.673 69.3828C407.765 75.7923 408.345 82.0171 410.797 88.2683C408.279 85.9735 406.605 82.8084 405.563 79.5509C404.522 76.267 404.034 72.8381 404.007 69.4487C403.955 66.0462 404.311 62.67 404.996 59.3861C405.682 56.1023 406.671 52.858 408.24 49.8511V49.8379Z" fill="#5B3318"/>
<path d="M429.176 87.2782C426.355 88.7553 423.151 89.3751 419.987 89.784C416.809 90.1532 413.592 90.206 410.415 90.0214C404.021 89.6653 397.745 88.386 391.627 86.6716C385.536 84.8911 379.577 82.6755 373.842 79.9983C368.107 77.3475 362.556 74.3142 357.309 70.793L374.936 77.3607C380.803 79.4708 386.67 81.4754 392.643 83.1503C398.576 84.8911 404.601 86.2759 410.705 87.1859C413.751 87.6079 416.822 87.9376 419.921 88.0036C423.006 88.0959 426.117 88.0036 429.189 87.2914L429.176 87.2782Z" fill="#5B3318"/>
<path d="M396.717 153.893C396.097 154.723 395.794 155.726 395.794 156.662C395.794 157.612 396.11 158.495 396.611 159.273C397.666 160.803 399.182 162.043 400.856 163.045C402.518 164.074 404.311 164.944 406.143 165.709C407.963 166.514 409.848 167.226 411.747 167.885C411.826 167.912 411.892 167.938 411.957 167.978H411.971C413.645 168.967 414.911 169.969 416.269 171.064C417.6 172.132 418.853 173.279 420.053 174.479C422.465 176.84 424.693 179.372 426.737 182.023C428.794 184.661 430.732 187.391 432.472 190.239C432.907 190.951 433.355 191.65 433.777 192.376L434.924 194.618C435.676 196.121 436.401 197.625 437.073 199.128C435.979 197.849 434.924 196.57 433.909 195.277L432.393 193.338L430.784 191.466C428.649 188.96 426.5 186.494 424.298 184.08C422.109 181.667 419.855 179.319 417.534 177.077C416.348 175.983 415.174 174.875 413.961 173.846C412.775 172.831 411.43 171.789 410.283 171.05L410.507 171.156C406.644 169.56 402.808 167.727 399.432 165.023C397.784 163.652 396.189 162.03 395.306 159.92C394.871 158.878 394.726 157.664 394.989 156.57C395.227 155.475 395.899 154.539 396.703 153.906L396.717 153.893Z" fill="#5B3318"/>
<path d="M313.722 169.245C315.093 170.286 316.781 170.629 318.402 170.735C320.037 170.814 321.672 170.603 323.241 170.168C324.823 169.772 326.366 169.205 327.869 168.519C329.372 167.847 330.835 167.108 332.259 166.251C337.955 162.875 343.189 158.654 348.199 154.21C349.464 153.115 350.717 151.981 351.93 150.86C353.116 149.752 354.461 148.434 355.793 147.365C358.509 145.176 361.33 143.119 364.389 141.431C370.414 138.015 377.349 135.707 384.231 136.103C377.468 137.25 371.403 140.178 365.892 143.871C363.163 145.756 360.5 147.761 358.06 150.003C356.795 151.124 355.701 152.192 354.435 153.432C353.169 154.645 351.917 155.819 350.638 156.966C345.443 161.477 339.919 165.737 333.604 168.783C330.453 170.3 327.104 171.513 323.571 171.935C321.817 172.133 320.011 172.146 318.271 171.75C316.557 171.342 314.843 170.59 313.735 169.258L313.722 169.245Z" fill="#5B3318"/>
<path d="M339.115 113.365C352.668 118.06 365.892 123.771 378.628 130.47C391.324 137.223 403.704 144.845 414.515 154.644C415.847 155.884 417.152 157.163 418.457 158.535C419.631 159.827 420.857 161.12 422.096 162.386C424.575 164.918 427.146 167.371 429.743 169.784C434.938 174.624 440.422 179.135 446.144 183.329C451.879 187.496 457.904 191.268 464.325 194.275C470.719 197.308 477.602 199.418 484.774 199.84C477.575 200.262 470.377 198.469 463.613 195.923C456.876 193.246 450.495 189.712 444.496 185.676C438.458 181.68 432.815 177.13 427.396 172.356C424.693 169.956 422.083 167.463 419.525 164.892C418.246 163.599 416.994 162.307 415.755 160.961C414.581 159.748 413.315 158.522 412.023 157.335C406.868 152.547 401.186 148.288 395.332 144.278C389.492 140.243 383.387 136.563 377.23 132.963C371.06 129.402 364.758 126.026 358.39 122.782C352.049 119.458 345.588 116.399 339.089 113.365H339.115Z" fill="#5B3318"/>
</g>
<defs>
<clipPath id="clip0_769_16095">
<rect width="772" height="504" fill="white" transform="translate(-55)"/>
</clipPath>
</defs>
</svg>
