<svg width="295" height="258" viewBox="0 0 295 258" fill="none" xmlns="http://www.w3.org/2000/svg">
<g clip-path="url(#clip0_1268_799)">
<path d="M198.55 134.19C198.55 134.19 222.118 103.916 237.146 102.035C252.174 100.154 285.81 148.007 281.226 157.061C277.531 164.344 267.332 156.314 267.332 156.314C267.332 156.314 269.389 165.16 264.875 167.221C260.346 169.272 252.395 160.308 252.395 160.308C252.395 160.308 251.162 168.701 246.585 169.03C241.085 169.416 236.408 157.163 236.408 157.163C236.408 157.163 235.485 166.132 230.326 165.376C225.325 164.657 222.65 155.472 222.65 155.472C222.65 155.472 216.8 160.097 212.42 156.797C208.031 153.512 207.518 147.269 207.518 147.269L198.55 134.19Z" fill="white"/>
<path d="M260.717 131.155C260.717 131.155 269.972 143.342 265.544 148.44C261.117 153.538 250.504 143.035 250.504 143.035C250.504 143.035 253.904 153.071 248.431 154.824C242.949 156.591 235.325 142.868 235.325 142.868C235.325 142.868 234.889 149.737 229.438 150.273C223.987 150.81 220.954 140.275 220.954 140.275" stroke="#1D2E3D" stroke-width="0.5" stroke-linecap="round" stroke-linejoin="round"/>
<path d="M250.278 121.909C250.278 121.909 255.913 131.788 250.244 135.759C244.575 139.729 236.489 128.625 236.489 128.625C236.489 128.625 238.191 137.031 233.526 138.354C228.861 139.677 223.531 132.647 223.531 132.647" stroke="#1D2E3D" stroke-width="0.5" stroke-linecap="round" stroke-linejoin="round"/>
<path d="M116.093 114.861C116.093 114.861 118.221 72.3816 106.946 59.9399C95.6947 47.4927 32.8158 63.3147 30.1255 74.2394C27.9627 83.0291 42.3294 83.6642 42.3294 83.6642C42.3294 83.6642 34.1822 89.598 36.5086 94.5979C38.8204 99.5888 52.0036 97.8224 52.0036 97.8224C52.0036 97.8224 46.9555 105.764 50.5698 109.359C54.9152 113.666 67.6968 106.753 67.6968 106.753C67.6968 106.753 61.9861 114.953 66.8546 118.049C71.5769 121.056 80.4642 115.295 80.4642 115.295C80.4642 115.295 82.046 123.405 88.0988 123.823C94.1517 124.242 99.1065 119.367 99.1065 119.367L116.107 114.87L116.093 114.861Z" fill="white"/>
<path d="M66.1094 67.33C66.1094 67.33 49.5022 70.8603 49.5508 78.3496C49.5758 85.8445 66.0886 84.6955 66.0886 84.6955C66.0886 84.6955 55.9741 90.6486 59.2937 96.0984C62.6134 101.548 78.945 95.5499 78.945 95.5499C78.945 95.5499 74.3535 101.636 78.5302 106.02C82.7216 110.414 92.8968 103.772 92.8968 103.772" stroke="#1D2E3D" stroke-width="0.5" stroke-linecap="round" stroke-linejoin="round"/>
<path d="M81.5459 67.1115C81.5459 67.1115 69.6574 71.3278 71.5531 78.7642C73.4487 86.2005 88.2708 82.7209 88.2708 82.7209C88.2708 82.7209 80.7637 88.5647 83.7143 93.0416C86.665 97.5184 96.2408 95.4877 96.2408 95.4877" stroke="#1D2E3D" stroke-width="0.5" stroke-linecap="round" stroke-linejoin="round"/>
<path d="M196.442 206.68C190.251 207.306 96.402 180.705 82.3095 173.465C75.6874 169.45 99.9147 105.833 102.555 104.393C106.335 102.345 217.596 136.132 219.622 139.032C222.694 143.442 202.978 205.985 196.436 206.657L196.442 206.68Z" fill="#A7F3D0"/>
<path d="M215.761 141.374C215.761 141.374 152.714 161.991 148.465 160.868C144.208 159.761 108.142 111.4 103.998 108.305" stroke="#1D2E3D" stroke-width="0.5" stroke-linecap="round" stroke-linejoin="round"/>
<path d="M191.565 194.849C191.565 194.849 174.767 162.618 168.337 156.161" stroke="#1D2E3D" stroke-width="0.5" stroke-linecap="round" stroke-linejoin="round"/>
<path d="M133.17 144.018C115.278 149.177 97.3218 166.957 97.3218 166.957" stroke="#1D2E3D" stroke-width="0.5" stroke-linecap="round" stroke-linejoin="round"/>
<path d="M152.279 153.982C170.948 152.607 173.488 173.968 143.594 172.749C123.557 155.642 138.391 133.239 152.279 153.982Z" fill="#00B75A"/>
</g>
<defs>
<clipPath id="clip0_1268_799">
<rect width="257.484" height="144.23" fill="white" transform="translate(75.5863) rotate(31.6056)"/>
</clipPath>
</defs>
</svg>
