<svg width="30" height="29" viewBox="0 0 30 29" fill="none" xmlns="http://www.w3.org/2000/svg">
<path d="M14.0357 1.72657C14.0941 1.60851 14.1843 1.50914 14.2963 1.43967C14.4082 1.37019 14.5373 1.33337 14.669 1.33337C14.8007 1.33337 14.9298 1.37019 15.0417 1.43967C15.1536 1.50914 15.2439 1.60851 15.3023 1.72657L18.3823 7.96523C18.5852 8.37586 18.8847 8.73111 19.2552 9.0005C19.6256 9.2699 20.0558 9.44538 20.509 9.5119L27.397 10.5199C27.5275 10.5388 27.6501 10.5939 27.751 10.6788C27.8518 10.7638 27.9269 10.8753 27.9677 11.0007C28.0085 11.1261 28.0133 11.2604 27.9818 11.3885C27.9502 11.5165 27.8834 11.6332 27.789 11.7252L22.8077 16.5759C22.4791 16.896 22.2333 17.2912 22.0914 17.7274C21.9495 18.1636 21.9157 18.6278 21.993 19.0799L23.169 25.9332C23.192 26.0637 23.1779 26.198 23.1283 26.3208C23.0787 26.4436 22.9956 26.55 22.8884 26.6279C22.7812 26.7057 22.6543 26.7519 22.5221 26.7611C22.39 26.7703 22.2579 26.7422 22.141 26.6799L15.9837 23.4426C15.5779 23.2295 15.1266 23.1182 14.6683 23.1182C14.2101 23.1182 13.7587 23.2295 13.353 23.4426L7.19698 26.6799C7.08009 26.7418 6.94818 26.7696 6.81625 26.7602C6.68432 26.7509 6.55768 26.7046 6.45071 26.6269C6.34375 26.5491 6.26076 26.4428 6.21119 26.3202C6.16162 26.1976 6.14746 26.0635 6.17032 25.9332L7.34498 19.0812C7.42258 18.6289 7.38896 18.1644 7.24703 17.728C7.10511 17.2915 6.85913 16.8961 6.53032 16.5759L1.54898 11.7266C1.45378 11.6346 1.38631 11.5178 1.35427 11.3893C1.32223 11.2609 1.3269 11.1261 1.36776 11.0002C1.40861 10.8743 1.48401 10.7624 1.58535 10.6772C1.6867 10.5921 1.80992 10.5371 1.94098 10.5186L8.82765 9.5119C9.28133 9.4459 9.71217 9.27064 10.0831 9.00122C10.454 8.73179 10.7539 8.37626 10.957 7.96523L14.0357 1.72657Z" stroke="#00D68F" stroke-width="2.66667" stroke-linecap="round" stroke-linejoin="round"/>
</svg>
