<svg width="34" height="37" viewBox="0 0 34 37" fill="none" xmlns="http://www.w3.org/2000/svg">
<path d="M3.33885 21.671C3.02346 21.6721 2.71424 21.5837 2.44711 21.416C2.17998 21.2483 1.96591 21.0083 1.82977 20.7238C1.69363 20.4393 1.64101 20.122 1.67802 19.8088C1.71503 19.4956 1.84015 19.1993 2.03885 18.9544L18.5389 1.95436C18.6626 1.8115 18.8313 1.71495 19.0172 1.68058C19.203 1.64621 19.3951 1.67605 19.5617 1.7652C19.7284 1.85435 19.8598 1.99752 19.9344 2.17121C20.009 2.34489 20.0223 2.53877 19.9722 2.72103L16.7722 12.7544C16.6778 13.0069 16.6461 13.2786 16.6798 13.546C16.7135 13.8135 16.8116 14.0688 16.9657 14.2901C17.1197 14.5113 17.3251 14.6919 17.5643 14.8163C17.8035 14.9407 18.0693 15.0052 18.3389 15.0044H30.0055C30.3209 15.0033 30.6301 15.0917 30.8973 15.2594C31.1644 15.4271 31.3785 15.6671 31.5146 15.9516C31.6507 16.2361 31.7034 16.5534 31.6664 16.8666C31.6293 17.1798 31.5042 17.4761 31.3055 17.721L14.8055 34.721C14.6818 34.8639 14.5131 34.9604 14.3272 34.9948C14.1413 35.0292 13.9493 34.9993 13.7826 34.9102C13.616 34.821 13.4845 34.6779 13.41 34.5042C13.3354 34.3305 13.3221 34.1366 13.3722 33.9544L16.5722 23.921C16.6665 23.6685 16.6982 23.3968 16.6645 23.1293C16.6308 22.8619 16.5328 22.6066 16.3787 22.3853C16.2247 22.1641 16.0192 21.9835 15.7801 21.8591C15.5409 21.7347 15.2751 21.6702 15.0055 21.671H3.33885Z" stroke="#00D68F" stroke-width="3.33333" stroke-linecap="round" stroke-linejoin="round"/>
</svg>
