<?xml version="1.0" encoding="utf-8"?>
<!-- Generator: Adobe Illustrator 27.0.0, SVG Export Plug-In . SVG Version: 6.00 Build 0)  -->
<svg version="1.1" id="Layer_1" xmlns="http://www.w3.org/2000/svg" xmlns:xlink="http://www.w3.org/1999/xlink" x="0px" y="0px"
	 viewBox="0 0 648 648" style="enable-background:new 0 0 648 648;" xml:space="preserve">
<style type="text/css">
	.st0{fill:#008D46;}
	.st1{fill:#28A449;}
	.st2{fill:#1DB25A;}
	.st3{fill:#0A1A12;}
</style>
<g>
	<g>
		<g>
			<path class="st0" d="M223.7,317.58l-41.14,48.81c-8.35,9.91-19.53,16.81-31.07,19.19l-12.64,2.61l7.46-8.85l10.11-11.99l0,0
				c4.09-0.84,8.05-3.29,11.01-6.8l14.44-17.13l-92.95,19.15l0.01-0.3l17.26-20.48L223.7,317.58z"/>
			<path class="st1" d="M152.9,266.85l-9.99,2.19c1.1-0.32,2.19-0.59,3.31-0.82L152.9,266.85z"/>
		</g>
		<path class="st2" d="M208.78,291.25l-0.01,0.29l-17.26,20.48L74,336.23l41.15-48.82c5.43-6.44,12.05-11.62,19.19-15.08
			c2.79-1.38,5.65-2.49,8.56-3.29l9.99-2.19l31.99-7.04l-17.88,21.21l-25.67,5.37l-0.06,0.07l-3.19,0.64
			c-2.05,0.42-4.02,1.65-5.5,3.41l-16.77,19.88L208.78,291.25z"/>
	</g>
	<g>
		<g>
			<path class="st3" d="M296.04,324.47c-1.55-2.44-3.64-4.43-6.28-5.94c-2.63-1.52-5.47-2.72-8.53-3.64c-3.06-0.91-6.06-1.71-9-2.41
				c-3.16-0.78-6.1-1.55-8.81-2.33c-2.69-0.76-4.83-1.83-6.36-3.16c-1.55-1.33-2.33-3.09-2.33-5.27c0-1.76,0.56-3.32,1.64-4.68
				c1.08-1.38,2.62-2.44,4.58-3.22c1.97-0.76,4.32-1.16,7.07-1.16c2.46,0,4.64,0.31,6.58,0.89c1.93,0.6,3.56,1.48,4.89,2.63
				c1.33,1.16,2.37,2.62,3.12,4.37c0.73,1.76,1.04,3.76,0.89,6l12.22-2.84c0-4.56-1.13-8.46-3.36-11.69
				c-2.25-3.23-5.44-5.69-9.58-7.37c-4.15-1.68-8.92-2.53-14.34-2.53c-5.47,0-10.2,0.85-14.16,2.53c-3.96,1.68-7.01,4.05-9.11,7.11
				c-2.11,3.06-3.16,6.73-3.16,11c0,3.73,0.78,6.76,2.33,9.11c1.54,2.36,3.6,4.3,6.16,5.85c2.56,1.54,5.43,2.78,8.59,3.73
				c3.16,0.95,6.42,1.81,9.79,2.59c2.96,0.7,5.71,1.43,8.27,2.21c2.57,0.78,4.59,1.78,6.06,3.06c1.48,1.26,2.22,2.98,2.22,5.15
				c0,1.77-0.6,3.38-1.8,4.86c-1.2,1.46-2.91,2.57-5.16,3.31c-2.24,0.75-4.94,1.11-8.1,1.11c-3.44,0-6.5-0.53-9.16-1.58
				c-2.68-1.05-4.74-2.69-6.22-4.9c-1.48-2.21-2.15-5.06-2-8.59l-12.01,3.16c0,3.73,0.6,6.99,1.8,9.8c1.18,2.81,3.03,5.16,5.53,7.05
				c2.49,1.9,5.53,3.32,9.1,4.27c3.58,0.95,7.7,1.42,12.33,1.42c6.1,0,11.31-0.8,15.58-2.41c4.29-1.62,7.53-3.99,9.74-7.11
				c2.22-3.13,3.32-6.76,3.32-10.91C298.35,330.1,297.58,326.94,296.04,324.47z"/>
			<path class="st3" d="M373.36,298.03l-9.07,44.03h-1.36l-9.7-44.03h-15.8l-9.79,44.03h-1.48l-8.75-44.03h-13.9l13.9,54.99h18.02
				l9.06-43.08h1.26l8.95,43.08h18.13l14.22-54.99H373.36z"/>
			<path class="st3" d="M394.83,311.42v41.61h13.39v-54.99L394.83,311.42z"/>
			<path class="st3" d="M436.6,305.1c-1.16-0.64-2.06-1.51-2.74-2.63c-0.67-1.13-0.99-2.53-0.99-4.21c0-2.53,0.69-4.43,2.11-5.69
				c1.4-1.27,3.19-1.9,5.37-1.9c1.89,0,3.83,0.39,5.84,1.16c2,0.78,3.82,1.87,5.43,3.28l1.27-12.23c-1.7-1.39-3.79-2.5-6.28-3.31
				c-2.49-0.8-5.25-1.21-8.27-1.21c-3.58,0-6.73,0.61-9.42,1.84c-2.71,1.23-4.81,2.97-6.32,5.21c-1.52,2.25-2.27,4.89-2.27,7.9
				c0,1.9,0.38,3.73,1.16,5.49c0.78,1.76,1.95,3.28,3.53,4.58c1.58,1.3,3.77,2.27,6.58,2.9v1.68l-14.85-1.16v10.01h8.75v36.24h13.05
				v-36.24h13.59v-10.33h-11.79C439,306.18,437.76,305.73,436.6,305.1z"/>
			<path class="st3" d="M491.01,308.89v-10.85h-14.32v-12.42h-7.9l-0.85,6.2c-0.15,2.33-0.8,4.01-2,5.06
				c-1.18,1.05-3.06,1.65-5.57,1.78h-3.91l-0.1,10.12h7.48v26.44c0,3.01,0.28,5.69,0.85,8c0.56,2.31,1.57,4.29,3,5.9
				c1.43,1.62,3.23,2.87,5.37,3.75c2.15,0.88,4.73,1.32,7.74,1.32c1.55,0,3.16-0.1,4.86-0.32c1.68-0.2,3.47-0.66,5.37-1.36v-12.43
				c-0.98,0.78-2.09,1.32-3.32,1.64c-1.23,0.31-2.47,0.47-3.75,0.47c-2.11,0-3.83-0.56-5.21-1.68c-1.38-1.13-2.05-3.09-2.05-5.9
				v-25.7H491.01z"/>
			<path class="st3" d="M500.59,278.97v74.05h13.27v-74.05H500.59z"/>
			<path class="st3" d="M560.63,298.03v17.07c0,2.59-0.23,5.19-0.69,7.78c-0.45,2.6-1.14,4.93-2.05,6.96
				c-0.92,2.03-2.11,3.69-3.58,4.94s-3.31,1.9-5.47,1.9c-2.05,0-3.67-0.44-4.9-1.32c-1.23-0.88-2.17-2.08-2.79-3.58
				c-0.63-1.51-1.13-3.15-1.48-4.9c-0.35-1.76-0.54-3.48-0.57-5.16c-0.04-1.68-0.06-3.16-0.06-4.42v-19.28h-13.37V321
				c0,1.48,0.06,3.32,0.2,5.53c0.13,2.21,0.54,4.56,1.21,7.05c0.66,2.5,1.61,4.83,2.84,7.01c1.23,2.18,3,3.95,5.33,5.33
				c2.31,1.36,5.16,2.05,8.53,2.05c3.31,0,6.17-0.69,8.63-2.05c2.46-1.38,4.49-3.61,6.11-6.74c1.61-3.13,2.74-7.14,3.36-12.07h1.8
				l-0.75,9.8c-0.07,3.16-0.38,6.1-0.94,8.79c-0.57,2.71-1.51,5.05-2.79,7.01c-1.3,1.96-3.07,3.5-5.32,4.58
				c-2.24,1.1-4.99,1.64-8.21,1.64c-3.1,0-6.22-0.59-9.38-1.74c-3.16-1.16-5.79-2.93-7.9-5.33l-4.54,11.59
				c1.9,1.7,4.07,3.07,6.54,4.17c2.46,1.08,5.05,1.92,7.78,2.47c2.75,0.56,5.41,0.85,8.02,0.85c4.07,0,7.53-0.48,10.42-1.43
				c2.88-0.94,5.34-2.31,7.37-4.1c2.05-1.8,3.75-3.77,5.12-5.95c1.36-2.18,2.4-4.55,3.1-7.11c0.7-2.56,1.17-5.11,1.42-7.64
				c0.25-2.53,0.37-4.92,0.37-7.17v-39.5H560.63z"/>
		</g>
		<polygon class="st2" points="408.2,283.77 394.85,297.14 394.83,297.14 394.83,283.77 		"/>
	</g>
</g>
</svg>
