<?xml version="1.0" encoding="utf-8"?>
<!-- Generator: Adobe Illustrator 27.0.0, SVG Export Plug-In . SVG Version: 6.00 Build 0)  -->
<svg version="1.1" id="Layer_1" xmlns="http://www.w3.org/2000/svg" xmlns:xlink="http://www.w3.org/1999/xlink" x="0px" y="0px"
	 viewBox="0 0 648 648" style="enable-background:new 0 0 648 648;" xml:space="preserve">
<style type="text/css">
	.st0{fill:#008E40;}
	.st1{fill:#29A529;}
	.st2{fill:#00B75A;}
	.st3{fill:#FFFFFF;}
</style>
<g>
	<g>
		<path class="st0" d="M598.43,300.47L447.6,479.43c-30.63,36.34-71.6,61.65-113.91,70.37l-46.35,9.55l27.35-32.43l37.07-43.96h0
			c14.99-3.09,29.51-12.06,40.37-24.94l52.95-62.82l-340.79,70.2l0.04-1.11l63.29-75.07L598.43,300.47z"/>
		<path class="st1" d="M338.83,114.45l-36.63,8.05c4.02-1.18,8.05-2.15,12.12-3L338.83,114.45z"/>
	</g>
	<path class="st2" d="M543.72,203.92l-0.05,1.07l-63.29,75.09L49.57,368.85l150.88-178.99c19.9-23.6,44.2-42.59,70.37-55.3
		c10.24-5.04,20.7-9.12,31.38-12.07l36.63-8.05l117.3-25.8l-65.54,77.77l-94.13,19.68l-0.21,0.27l-11.69,2.36
		c-7.51,1.56-14.75,6.06-20.17,12.5l-61.47,72.89L543.72,203.92z"/>
</g>
</svg>
