<svg width="32" height="32" viewBox="0 0 32 32" fill="none" xmlns="http://www.w3.org/2000/svg">
<path d="M18.443 22.09C18.7184 22.2165 19.0286 22.2454 19.3226 22.1719C19.6166 22.0985 19.8768 21.9271 20.0603 21.686L20.5337 21.066C20.782 20.7348 21.1041 20.466 21.4744 20.2809C21.8447 20.0957 22.253 19.9993 22.667 19.9993H26.667C27.3742 19.9993 28.0525 20.2803 28.5526 20.7804C29.0527 21.2805 29.3337 21.9588 29.3337 22.666V26.666C29.3337 27.3733 29.0527 28.0515 28.5526 28.5516C28.0525 29.0517 27.3742 29.3327 26.667 29.3327C20.3018 29.3327 14.1973 26.8041 9.69643 22.3032C5.19556 17.8024 2.66699 11.6979 2.66699 5.33268C2.66699 4.62544 2.94794 3.94716 3.44804 3.44706C3.94814 2.94697 4.62641 2.66602 5.33366 2.66602H9.33366C10.0409 2.66602 10.7192 2.94697 11.2193 3.44706C11.7194 3.94716 12.0003 4.62544 12.0003 5.33268V9.33268C12.0003 9.74667 11.9039 10.155 11.7188 10.5253C11.5337 10.8955 11.2648 11.2176 10.9337 11.466L10.3097 11.934C10.0649 12.1209 9.89235 12.3868 9.82138 12.6865C9.75041 12.9862 9.78537 13.3012 9.92033 13.578C11.7426 17.2792 14.7396 20.2724 18.443 22.09Z" stroke="#007BFF" stroke-width="2.66667" stroke-linecap="round" stroke-linejoin="round"/>
</svg>
