<svg width="160" height="272" viewBox="0 0 160 272" fill="none" xmlns="http://www.w3.org/2000/svg">
<path d="M154.917 140.124L106.553 119.283C106.193 119.129 106.142 118.667 106.45 118.41L148.448 86.6348C153.377 82.8874 150.399 75.0334 144.238 75.4954L93.6656 79.3968C92.4333 79.4994 91.5092 78.2161 92.0739 77.0868L113.638 31.1945C116.256 25.5992 109.992 20.0038 104.704 23.2892L60.0875 51.266C59.7795 51.4713 59.3174 51.266 59.3174 50.8553L57.007 -1.76161C56.7503 -7.97298 48.5868 -9.97499 45.4549 -4.63629L18.9622 40.8453C18.7568 41.2046 18.2947 41.2046 18.0894 40.8453L-8.45473 -4.63629C-11.5866 -9.97499 -19.7501 -7.97298 -20.0068 -1.76161L-22.3172 50.8553C-22.3172 51.266 -22.7793 51.4713 -23.0874 51.266L-67.704 23.2378C-72.9409 19.9525 -79.2561 25.5478 -76.6376 31.1432L-54.2523 78.7808C-54.0982 79.1401 -54.355 79.5508 -54.7657 79.4994L-107.289 75.4441C-113.45 74.9821 -116.428 82.8361 -111.499 86.5835L-69.501 118.359C-69.1929 118.616 -69.2443 119.078 -69.6037 119.232L-117.968 140.124C-123.667 142.588 -122.641 150.904 -116.531 151.931L-64.5721 160.555C-64.2127 160.606 -64.0073 161.068 -64.2641 161.376L-97.4313 202.289C-101.333 207.115 -96.5585 214.045 -90.6541 212.094L-40.6465 195.616C-40.2871 195.513 -39.9277 195.821 -39.979 196.181L-50.2989 247.822C-51.5311 253.88 -44.0864 257.781 -39.7737 253.366L-3.16645 215.533C-2.90973 215.277 -2.44765 215.379 -2.29362 215.739L12.5444 266.251C14.29 272.206 22.7102 272.206 24.4558 266.251L39.2938 215.739C39.3965 215.379 39.8586 215.225 40.1667 215.533L76.7739 253.366C81.0866 257.832 88.5313 253.88 87.2991 247.822L76.9792 196.181C76.9279 195.821 77.2873 195.462 77.6467 195.616L127.654 212.094C133.559 214.045 138.334 207.115 134.432 202.289L101.264 161.376C101.008 161.068 101.213 160.606 101.572 160.555L153.531 151.931C159.641 150.904 160.668 142.537 154.969 140.124H154.917Z" stroke="#00B75A" stroke-width="0.5" stroke-linecap="round" stroke-linejoin="round"/>
</svg>
